G04 #@! TF.GenerationSoftware,KiCad,Pcbnew,7.0.1*
G04 #@! TF.CreationDate,2023-03-23T13:10:05+01:00*
G04 #@! TF.ProjectId,BMS_Ctrl_DE-9_Adaptor,424d535f-4374-4726-9c5f-44452d395f41,rev?*
G04 #@! TF.SameCoordinates,Original*
G04 #@! TF.FileFunction,Legend,Top*
G04 #@! TF.FilePolarity,Positive*
%FSLAX46Y46*%
G04 Gerber Fmt 4.6, Leading zero omitted, Abs format (unit mm)*
G04 Created by KiCad (PCBNEW 7.0.1) date 2023-03-23 13:10:05*
%MOMM*%
%LPD*%
G01*
G04 APERTURE LIST*
G04 Aperture macros list*
%AMRoundRect*
0 Rectangle with rounded corners*
0 $1 Rounding radius*
0 $2 $3 $4 $5 $6 $7 $8 $9 X,Y pos of 4 corners*
0 Add a 4 corners polygon primitive as box body*
4,1,4,$2,$3,$4,$5,$6,$7,$8,$9,$2,$3,0*
0 Add four circle primitives for the rounded corners*
1,1,$1+$1,$2,$3*
1,1,$1+$1,$4,$5*
1,1,$1+$1,$6,$7*
1,1,$1+$1,$8,$9*
0 Add four rect primitives between the rounded corners*
20,1,$1+$1,$2,$3,$4,$5,0*
20,1,$1+$1,$4,$5,$6,$7,0*
20,1,$1+$1,$6,$7,$8,$9,0*
20,1,$1+$1,$8,$9,$2,$3,0*%
G04 Aperture macros list end*
%ADD10C,0.150000*%
%ADD11C,0.120000*%
%ADD12C,4.000000*%
%ADD13R,1.600000X1.600000*%
%ADD14C,1.600000*%
%ADD15RoundRect,0.250000X-0.600000X-0.725000X0.600000X-0.725000X0.600000X0.725000X-0.600000X0.725000X0*%
%ADD16O,1.700000X1.950000*%
%ADD17O,1.600000X1.600000*%
%ADD18R,1.700000X1.700000*%
%ADD19O,1.700000X1.700000*%
%ADD20RoundRect,0.250000X-0.600000X-0.750000X0.600000X-0.750000X0.600000X0.750000X-0.600000X0.750000X0*%
%ADD21O,1.700000X2.000000*%
G04 APERTURE END LIST*
D10*
X112633095Y-94111666D02*
X113395000Y-94111666D01*
X111363095Y-97667619D02*
X111363095Y-96667619D01*
X111363095Y-96667619D02*
X111601190Y-96667619D01*
X111601190Y-96667619D02*
X111744047Y-96715238D01*
X111744047Y-96715238D02*
X111839285Y-96810476D01*
X111839285Y-96810476D02*
X111886904Y-96905714D01*
X111886904Y-96905714D02*
X111934523Y-97096190D01*
X111934523Y-97096190D02*
X111934523Y-97239047D01*
X111934523Y-97239047D02*
X111886904Y-97429523D01*
X111886904Y-97429523D02*
X111839285Y-97524761D01*
X111839285Y-97524761D02*
X111744047Y-97620000D01*
X111744047Y-97620000D02*
X111601190Y-97667619D01*
X111601190Y-97667619D02*
X111363095Y-97667619D01*
X112363095Y-97286666D02*
X113125000Y-97286666D01*
X112744047Y-97667619D02*
X112744047Y-96905714D01*
X121713571Y-99207619D02*
X121904047Y-99207619D01*
X121904047Y-99207619D02*
X121999285Y-99255238D01*
X121999285Y-99255238D02*
X122094523Y-99350476D01*
X122094523Y-99350476D02*
X122142142Y-99540952D01*
X122142142Y-99540952D02*
X122142142Y-99874285D01*
X122142142Y-99874285D02*
X122094523Y-100064761D01*
X122094523Y-100064761D02*
X121999285Y-100160000D01*
X121999285Y-100160000D02*
X121904047Y-100207619D01*
X121904047Y-100207619D02*
X121713571Y-100207619D01*
X121713571Y-100207619D02*
X121618333Y-100160000D01*
X121618333Y-100160000D02*
X121523095Y-100064761D01*
X121523095Y-100064761D02*
X121475476Y-99874285D01*
X121475476Y-99874285D02*
X121475476Y-99540952D01*
X121475476Y-99540952D02*
X121523095Y-99350476D01*
X121523095Y-99350476D02*
X121618333Y-99255238D01*
X121618333Y-99255238D02*
X121713571Y-99207619D01*
X122570714Y-99540952D02*
X122570714Y-100207619D01*
X122570714Y-99636190D02*
X122618333Y-99588571D01*
X122618333Y-99588571D02*
X122713571Y-99540952D01*
X122713571Y-99540952D02*
X122856428Y-99540952D01*
X122856428Y-99540952D02*
X122951666Y-99588571D01*
X122951666Y-99588571D02*
X122999285Y-99683809D01*
X122999285Y-99683809D02*
X122999285Y-100207619D01*
X123856428Y-100160000D02*
X123761190Y-100207619D01*
X123761190Y-100207619D02*
X123570714Y-100207619D01*
X123570714Y-100207619D02*
X123475476Y-100160000D01*
X123475476Y-100160000D02*
X123427857Y-100064761D01*
X123427857Y-100064761D02*
X123427857Y-99683809D01*
X123427857Y-99683809D02*
X123475476Y-99588571D01*
X123475476Y-99588571D02*
X123570714Y-99540952D01*
X123570714Y-99540952D02*
X123761190Y-99540952D01*
X123761190Y-99540952D02*
X123856428Y-99588571D01*
X123856428Y-99588571D02*
X123904047Y-99683809D01*
X123904047Y-99683809D02*
X123904047Y-99779047D01*
X123904047Y-99779047D02*
X123427857Y-99874285D01*
X124237381Y-99207619D02*
X124475476Y-100207619D01*
X124475476Y-100207619D02*
X124665952Y-99493333D01*
X124665952Y-99493333D02*
X124856428Y-100207619D01*
X124856428Y-100207619D02*
X125094524Y-99207619D01*
X125475476Y-100207619D02*
X125475476Y-99540952D01*
X125475476Y-99207619D02*
X125427857Y-99255238D01*
X125427857Y-99255238D02*
X125475476Y-99302857D01*
X125475476Y-99302857D02*
X125523095Y-99255238D01*
X125523095Y-99255238D02*
X125475476Y-99207619D01*
X125475476Y-99207619D02*
X125475476Y-99302857D01*
X125951666Y-100207619D02*
X125951666Y-99540952D01*
X125951666Y-99731428D02*
X125999285Y-99636190D01*
X125999285Y-99636190D02*
X126046904Y-99588571D01*
X126046904Y-99588571D02*
X126142142Y-99540952D01*
X126142142Y-99540952D02*
X126237380Y-99540952D01*
X126951666Y-100160000D02*
X126856428Y-100207619D01*
X126856428Y-100207619D02*
X126665952Y-100207619D01*
X126665952Y-100207619D02*
X126570714Y-100160000D01*
X126570714Y-100160000D02*
X126523095Y-100064761D01*
X126523095Y-100064761D02*
X126523095Y-99683809D01*
X126523095Y-99683809D02*
X126570714Y-99588571D01*
X126570714Y-99588571D02*
X126665952Y-99540952D01*
X126665952Y-99540952D02*
X126856428Y-99540952D01*
X126856428Y-99540952D02*
X126951666Y-99588571D01*
X126951666Y-99588571D02*
X126999285Y-99683809D01*
X126999285Y-99683809D02*
X126999285Y-99779047D01*
X126999285Y-99779047D02*
X126523095Y-99874285D01*
X140906428Y-100318809D02*
X141049285Y-100366428D01*
X141049285Y-100366428D02*
X141096904Y-100414047D01*
X141096904Y-100414047D02*
X141144523Y-100509285D01*
X141144523Y-100509285D02*
X141144523Y-100652142D01*
X141144523Y-100652142D02*
X141096904Y-100747380D01*
X141096904Y-100747380D02*
X141049285Y-100795000D01*
X141049285Y-100795000D02*
X140954047Y-100842619D01*
X140954047Y-100842619D02*
X140573095Y-100842619D01*
X140573095Y-100842619D02*
X140573095Y-99842619D01*
X140573095Y-99842619D02*
X140906428Y-99842619D01*
X140906428Y-99842619D02*
X141001666Y-99890238D01*
X141001666Y-99890238D02*
X141049285Y-99937857D01*
X141049285Y-99937857D02*
X141096904Y-100033095D01*
X141096904Y-100033095D02*
X141096904Y-100128333D01*
X141096904Y-100128333D02*
X141049285Y-100223571D01*
X141049285Y-100223571D02*
X141001666Y-100271190D01*
X141001666Y-100271190D02*
X140906428Y-100318809D01*
X140906428Y-100318809D02*
X140573095Y-100318809D01*
X142001666Y-100842619D02*
X142001666Y-100318809D01*
X142001666Y-100318809D02*
X141954047Y-100223571D01*
X141954047Y-100223571D02*
X141858809Y-100175952D01*
X141858809Y-100175952D02*
X141668333Y-100175952D01*
X141668333Y-100175952D02*
X141573095Y-100223571D01*
X142001666Y-100795000D02*
X141906428Y-100842619D01*
X141906428Y-100842619D02*
X141668333Y-100842619D01*
X141668333Y-100842619D02*
X141573095Y-100795000D01*
X141573095Y-100795000D02*
X141525476Y-100699761D01*
X141525476Y-100699761D02*
X141525476Y-100604523D01*
X141525476Y-100604523D02*
X141573095Y-100509285D01*
X141573095Y-100509285D02*
X141668333Y-100461666D01*
X141668333Y-100461666D02*
X141906428Y-100461666D01*
X141906428Y-100461666D02*
X142001666Y-100414047D01*
X142620714Y-100842619D02*
X142525476Y-100795000D01*
X142525476Y-100795000D02*
X142477857Y-100699761D01*
X142477857Y-100699761D02*
X142477857Y-99842619D01*
X143430238Y-100842619D02*
X143430238Y-100318809D01*
X143430238Y-100318809D02*
X143382619Y-100223571D01*
X143382619Y-100223571D02*
X143287381Y-100175952D01*
X143287381Y-100175952D02*
X143096905Y-100175952D01*
X143096905Y-100175952D02*
X143001667Y-100223571D01*
X143430238Y-100795000D02*
X143335000Y-100842619D01*
X143335000Y-100842619D02*
X143096905Y-100842619D01*
X143096905Y-100842619D02*
X143001667Y-100795000D01*
X143001667Y-100795000D02*
X142954048Y-100699761D01*
X142954048Y-100699761D02*
X142954048Y-100604523D01*
X142954048Y-100604523D02*
X143001667Y-100509285D01*
X143001667Y-100509285D02*
X143096905Y-100461666D01*
X143096905Y-100461666D02*
X143335000Y-100461666D01*
X143335000Y-100461666D02*
X143430238Y-100414047D01*
X143906429Y-100175952D02*
X143906429Y-100842619D01*
X143906429Y-100271190D02*
X143954048Y-100223571D01*
X143954048Y-100223571D02*
X144049286Y-100175952D01*
X144049286Y-100175952D02*
X144192143Y-100175952D01*
X144192143Y-100175952D02*
X144287381Y-100223571D01*
X144287381Y-100223571D02*
X144335000Y-100318809D01*
X144335000Y-100318809D02*
X144335000Y-100842619D01*
X145239762Y-100795000D02*
X145144524Y-100842619D01*
X145144524Y-100842619D02*
X144954048Y-100842619D01*
X144954048Y-100842619D02*
X144858810Y-100795000D01*
X144858810Y-100795000D02*
X144811191Y-100747380D01*
X144811191Y-100747380D02*
X144763572Y-100652142D01*
X144763572Y-100652142D02*
X144763572Y-100366428D01*
X144763572Y-100366428D02*
X144811191Y-100271190D01*
X144811191Y-100271190D02*
X144858810Y-100223571D01*
X144858810Y-100223571D02*
X144954048Y-100175952D01*
X144954048Y-100175952D02*
X145144524Y-100175952D01*
X145144524Y-100175952D02*
X145239762Y-100223571D01*
X146049286Y-100795000D02*
X145954048Y-100842619D01*
X145954048Y-100842619D02*
X145763572Y-100842619D01*
X145763572Y-100842619D02*
X145668334Y-100795000D01*
X145668334Y-100795000D02*
X145620715Y-100699761D01*
X145620715Y-100699761D02*
X145620715Y-100318809D01*
X145620715Y-100318809D02*
X145668334Y-100223571D01*
X145668334Y-100223571D02*
X145763572Y-100175952D01*
X145763572Y-100175952D02*
X145954048Y-100175952D01*
X145954048Y-100175952D02*
X146049286Y-100223571D01*
X146049286Y-100223571D02*
X146096905Y-100318809D01*
X146096905Y-100318809D02*
X146096905Y-100414047D01*
X146096905Y-100414047D02*
X145620715Y-100509285D01*
X146525477Y-100842619D02*
X146525477Y-100175952D01*
X146525477Y-100366428D02*
X146573096Y-100271190D01*
X146573096Y-100271190D02*
X146620715Y-100223571D01*
X146620715Y-100223571D02*
X146715953Y-100175952D01*
X146715953Y-100175952D02*
X146811191Y-100175952D01*
X122015238Y-89047619D02*
X122348571Y-90047619D01*
X122348571Y-90047619D02*
X122681904Y-89047619D01*
X123586666Y-89952380D02*
X123539047Y-90000000D01*
X123539047Y-90000000D02*
X123396190Y-90047619D01*
X123396190Y-90047619D02*
X123300952Y-90047619D01*
X123300952Y-90047619D02*
X123158095Y-90000000D01*
X123158095Y-90000000D02*
X123062857Y-89904761D01*
X123062857Y-89904761D02*
X123015238Y-89809523D01*
X123015238Y-89809523D02*
X122967619Y-89619047D01*
X122967619Y-89619047D02*
X122967619Y-89476190D01*
X122967619Y-89476190D02*
X123015238Y-89285714D01*
X123015238Y-89285714D02*
X123062857Y-89190476D01*
X123062857Y-89190476D02*
X123158095Y-89095238D01*
X123158095Y-89095238D02*
X123300952Y-89047619D01*
X123300952Y-89047619D02*
X123396190Y-89047619D01*
X123396190Y-89047619D02*
X123539047Y-89095238D01*
X123539047Y-89095238D02*
X123586666Y-89142857D01*
X124015238Y-90047619D02*
X124015238Y-89047619D01*
X124015238Y-89523809D02*
X124586666Y-89523809D01*
X124586666Y-90047619D02*
X124586666Y-89047619D01*
X125634285Y-90047619D02*
X125300952Y-89571428D01*
X125062857Y-90047619D02*
X125062857Y-89047619D01*
X125062857Y-89047619D02*
X125443809Y-89047619D01*
X125443809Y-89047619D02*
X125539047Y-89095238D01*
X125539047Y-89095238D02*
X125586666Y-89142857D01*
X125586666Y-89142857D02*
X125634285Y-89238095D01*
X125634285Y-89238095D02*
X125634285Y-89380952D01*
X125634285Y-89380952D02*
X125586666Y-89476190D01*
X125586666Y-89476190D02*
X125539047Y-89523809D01*
X125539047Y-89523809D02*
X125443809Y-89571428D01*
X125443809Y-89571428D02*
X125062857Y-89571428D01*
X126586666Y-89095238D02*
X126491428Y-89047619D01*
X126491428Y-89047619D02*
X126348571Y-89047619D01*
X126348571Y-89047619D02*
X126205714Y-89095238D01*
X126205714Y-89095238D02*
X126110476Y-89190476D01*
X126110476Y-89190476D02*
X126062857Y-89285714D01*
X126062857Y-89285714D02*
X126015238Y-89476190D01*
X126015238Y-89476190D02*
X126015238Y-89619047D01*
X126015238Y-89619047D02*
X126062857Y-89809523D01*
X126062857Y-89809523D02*
X126110476Y-89904761D01*
X126110476Y-89904761D02*
X126205714Y-90000000D01*
X126205714Y-90000000D02*
X126348571Y-90047619D01*
X126348571Y-90047619D02*
X126443809Y-90047619D01*
X126443809Y-90047619D02*
X126586666Y-90000000D01*
X126586666Y-90000000D02*
X126634285Y-89952380D01*
X126634285Y-89952380D02*
X126634285Y-89619047D01*
X126634285Y-89619047D02*
X126443809Y-89619047D01*
X127586666Y-90047619D02*
X127015238Y-90047619D01*
X127300952Y-90047619D02*
X127300952Y-89047619D01*
X127300952Y-89047619D02*
X127205714Y-89190476D01*
X127205714Y-89190476D02*
X127110476Y-89285714D01*
X127110476Y-89285714D02*
X127015238Y-89333333D01*
X142335238Y-89047619D02*
X142668571Y-90047619D01*
X142668571Y-90047619D02*
X143001904Y-89047619D01*
X143287619Y-90000000D02*
X143430476Y-90047619D01*
X143430476Y-90047619D02*
X143668571Y-90047619D01*
X143668571Y-90047619D02*
X143763809Y-90000000D01*
X143763809Y-90000000D02*
X143811428Y-89952380D01*
X143811428Y-89952380D02*
X143859047Y-89857142D01*
X143859047Y-89857142D02*
X143859047Y-89761904D01*
X143859047Y-89761904D02*
X143811428Y-89666666D01*
X143811428Y-89666666D02*
X143763809Y-89619047D01*
X143763809Y-89619047D02*
X143668571Y-89571428D01*
X143668571Y-89571428D02*
X143478095Y-89523809D01*
X143478095Y-89523809D02*
X143382857Y-89476190D01*
X143382857Y-89476190D02*
X143335238Y-89428571D01*
X143335238Y-89428571D02*
X143287619Y-89333333D01*
X143287619Y-89333333D02*
X143287619Y-89238095D01*
X143287619Y-89238095D02*
X143335238Y-89142857D01*
X143335238Y-89142857D02*
X143382857Y-89095238D01*
X143382857Y-89095238D02*
X143478095Y-89047619D01*
X143478095Y-89047619D02*
X143716190Y-89047619D01*
X143716190Y-89047619D02*
X143859047Y-89095238D01*
X144240000Y-90000000D02*
X144382857Y-90047619D01*
X144382857Y-90047619D02*
X144620952Y-90047619D01*
X144620952Y-90047619D02*
X144716190Y-90000000D01*
X144716190Y-90000000D02*
X144763809Y-89952380D01*
X144763809Y-89952380D02*
X144811428Y-89857142D01*
X144811428Y-89857142D02*
X144811428Y-89761904D01*
X144811428Y-89761904D02*
X144763809Y-89666666D01*
X144763809Y-89666666D02*
X144716190Y-89619047D01*
X144716190Y-89619047D02*
X144620952Y-89571428D01*
X144620952Y-89571428D02*
X144430476Y-89523809D01*
X144430476Y-89523809D02*
X144335238Y-89476190D01*
X144335238Y-89476190D02*
X144287619Y-89428571D01*
X144287619Y-89428571D02*
X144240000Y-89333333D01*
X144240000Y-89333333D02*
X144240000Y-89238095D01*
X144240000Y-89238095D02*
X144287619Y-89142857D01*
X144287619Y-89142857D02*
X144335238Y-89095238D01*
X144335238Y-89095238D02*
X144430476Y-89047619D01*
X144430476Y-89047619D02*
X144668571Y-89047619D01*
X144668571Y-89047619D02*
X144811428Y-89095238D01*
X138033095Y-79252619D02*
X138033095Y-78252619D01*
X138033095Y-78252619D02*
X138271190Y-78252619D01*
X138271190Y-78252619D02*
X138414047Y-78300238D01*
X138414047Y-78300238D02*
X138509285Y-78395476D01*
X138509285Y-78395476D02*
X138556904Y-78490714D01*
X138556904Y-78490714D02*
X138604523Y-78681190D01*
X138604523Y-78681190D02*
X138604523Y-78824047D01*
X138604523Y-78824047D02*
X138556904Y-79014523D01*
X138556904Y-79014523D02*
X138509285Y-79109761D01*
X138509285Y-79109761D02*
X138414047Y-79205000D01*
X138414047Y-79205000D02*
X138271190Y-79252619D01*
X138271190Y-79252619D02*
X138033095Y-79252619D01*
X139461666Y-79252619D02*
X139461666Y-78728809D01*
X139461666Y-78728809D02*
X139414047Y-78633571D01*
X139414047Y-78633571D02*
X139318809Y-78585952D01*
X139318809Y-78585952D02*
X139128333Y-78585952D01*
X139128333Y-78585952D02*
X139033095Y-78633571D01*
X139461666Y-79205000D02*
X139366428Y-79252619D01*
X139366428Y-79252619D02*
X139128333Y-79252619D01*
X139128333Y-79252619D02*
X139033095Y-79205000D01*
X139033095Y-79205000D02*
X138985476Y-79109761D01*
X138985476Y-79109761D02*
X138985476Y-79014523D01*
X138985476Y-79014523D02*
X139033095Y-78919285D01*
X139033095Y-78919285D02*
X139128333Y-78871666D01*
X139128333Y-78871666D02*
X139366428Y-78871666D01*
X139366428Y-78871666D02*
X139461666Y-78824047D01*
X140080714Y-79252619D02*
X139985476Y-79205000D01*
X139985476Y-79205000D02*
X139937857Y-79109761D01*
X139937857Y-79109761D02*
X139937857Y-78252619D01*
X140366429Y-78585952D02*
X140604524Y-79252619D01*
X140842619Y-78585952D02*
X140604524Y-79252619D01*
X140604524Y-79252619D02*
X140509286Y-79490714D01*
X140509286Y-79490714D02*
X140461667Y-79538333D01*
X140461667Y-79538333D02*
X140366429Y-79585952D01*
X141223572Y-78871666D02*
X141985477Y-78871666D01*
X142795000Y-78728809D02*
X142937857Y-78776428D01*
X142937857Y-78776428D02*
X142985476Y-78824047D01*
X142985476Y-78824047D02*
X143033095Y-78919285D01*
X143033095Y-78919285D02*
X143033095Y-79062142D01*
X143033095Y-79062142D02*
X142985476Y-79157380D01*
X142985476Y-79157380D02*
X142937857Y-79205000D01*
X142937857Y-79205000D02*
X142842619Y-79252619D01*
X142842619Y-79252619D02*
X142461667Y-79252619D01*
X142461667Y-79252619D02*
X142461667Y-78252619D01*
X142461667Y-78252619D02*
X142795000Y-78252619D01*
X142795000Y-78252619D02*
X142890238Y-78300238D01*
X142890238Y-78300238D02*
X142937857Y-78347857D01*
X142937857Y-78347857D02*
X142985476Y-78443095D01*
X142985476Y-78443095D02*
X142985476Y-78538333D01*
X142985476Y-78538333D02*
X142937857Y-78633571D01*
X142937857Y-78633571D02*
X142890238Y-78681190D01*
X142890238Y-78681190D02*
X142795000Y-78728809D01*
X142795000Y-78728809D02*
X142461667Y-78728809D01*
X143461667Y-79252619D02*
X143461667Y-78252619D01*
X143461667Y-78252619D02*
X143795000Y-78966904D01*
X143795000Y-78966904D02*
X144128333Y-78252619D01*
X144128333Y-78252619D02*
X144128333Y-79252619D01*
X144556905Y-79205000D02*
X144699762Y-79252619D01*
X144699762Y-79252619D02*
X144937857Y-79252619D01*
X144937857Y-79252619D02*
X145033095Y-79205000D01*
X145033095Y-79205000D02*
X145080714Y-79157380D01*
X145080714Y-79157380D02*
X145128333Y-79062142D01*
X145128333Y-79062142D02*
X145128333Y-78966904D01*
X145128333Y-78966904D02*
X145080714Y-78871666D01*
X145080714Y-78871666D02*
X145033095Y-78824047D01*
X145033095Y-78824047D02*
X144937857Y-78776428D01*
X144937857Y-78776428D02*
X144747381Y-78728809D01*
X144747381Y-78728809D02*
X144652143Y-78681190D01*
X144652143Y-78681190D02*
X144604524Y-78633571D01*
X144604524Y-78633571D02*
X144556905Y-78538333D01*
X144556905Y-78538333D02*
X144556905Y-78443095D01*
X144556905Y-78443095D02*
X144604524Y-78347857D01*
X144604524Y-78347857D02*
X144652143Y-78300238D01*
X144652143Y-78300238D02*
X144747381Y-78252619D01*
X144747381Y-78252619D02*
X144985476Y-78252619D01*
X144985476Y-78252619D02*
X145128333Y-78300238D01*
X150796666Y-70582619D02*
X150796666Y-71296904D01*
X150796666Y-71296904D02*
X150749047Y-71439761D01*
X150749047Y-71439761D02*
X150653809Y-71535000D01*
X150653809Y-71535000D02*
X150510952Y-71582619D01*
X150510952Y-71582619D02*
X150415714Y-71582619D01*
X151701428Y-70582619D02*
X151510952Y-70582619D01*
X151510952Y-70582619D02*
X151415714Y-70630238D01*
X151415714Y-70630238D02*
X151368095Y-70677857D01*
X151368095Y-70677857D02*
X151272857Y-70820714D01*
X151272857Y-70820714D02*
X151225238Y-71011190D01*
X151225238Y-71011190D02*
X151225238Y-71392142D01*
X151225238Y-71392142D02*
X151272857Y-71487380D01*
X151272857Y-71487380D02*
X151320476Y-71535000D01*
X151320476Y-71535000D02*
X151415714Y-71582619D01*
X151415714Y-71582619D02*
X151606190Y-71582619D01*
X151606190Y-71582619D02*
X151701428Y-71535000D01*
X151701428Y-71535000D02*
X151749047Y-71487380D01*
X151749047Y-71487380D02*
X151796666Y-71392142D01*
X151796666Y-71392142D02*
X151796666Y-71154047D01*
X151796666Y-71154047D02*
X151749047Y-71058809D01*
X151749047Y-71058809D02*
X151701428Y-71011190D01*
X151701428Y-71011190D02*
X151606190Y-70963571D01*
X151606190Y-70963571D02*
X151415714Y-70963571D01*
X151415714Y-70963571D02*
X151320476Y-71011190D01*
X151320476Y-71011190D02*
X151272857Y-71058809D01*
X151272857Y-71058809D02*
X151225238Y-71154047D01*
X129841666Y-82012619D02*
X129841666Y-82726904D01*
X129841666Y-82726904D02*
X129794047Y-82869761D01*
X129794047Y-82869761D02*
X129698809Y-82965000D01*
X129698809Y-82965000D02*
X129555952Y-83012619D01*
X129555952Y-83012619D02*
X129460714Y-83012619D01*
X130270238Y-82107857D02*
X130317857Y-82060238D01*
X130317857Y-82060238D02*
X130413095Y-82012619D01*
X130413095Y-82012619D02*
X130651190Y-82012619D01*
X130651190Y-82012619D02*
X130746428Y-82060238D01*
X130746428Y-82060238D02*
X130794047Y-82107857D01*
X130794047Y-82107857D02*
X130841666Y-82203095D01*
X130841666Y-82203095D02*
X130841666Y-82298333D01*
X130841666Y-82298333D02*
X130794047Y-82441190D01*
X130794047Y-82441190D02*
X130222619Y-83012619D01*
X130222619Y-83012619D02*
X130841666Y-83012619D01*
X112061666Y-82012619D02*
X112061666Y-82726904D01*
X112061666Y-82726904D02*
X112014047Y-82869761D01*
X112014047Y-82869761D02*
X111918809Y-82965000D01*
X111918809Y-82965000D02*
X111775952Y-83012619D01*
X111775952Y-83012619D02*
X111680714Y-83012619D01*
X112442619Y-82012619D02*
X113061666Y-82012619D01*
X113061666Y-82012619D02*
X112728333Y-82393571D01*
X112728333Y-82393571D02*
X112871190Y-82393571D01*
X112871190Y-82393571D02*
X112966428Y-82441190D01*
X112966428Y-82441190D02*
X113014047Y-82488809D01*
X113014047Y-82488809D02*
X113061666Y-82584047D01*
X113061666Y-82584047D02*
X113061666Y-82822142D01*
X113061666Y-82822142D02*
X113014047Y-82917380D01*
X113014047Y-82917380D02*
X112966428Y-82965000D01*
X112966428Y-82965000D02*
X112871190Y-83012619D01*
X112871190Y-83012619D02*
X112585476Y-83012619D01*
X112585476Y-83012619D02*
X112490238Y-82965000D01*
X112490238Y-82965000D02*
X112442619Y-82917380D01*
X129841666Y-71217619D02*
X129841666Y-71931904D01*
X129841666Y-71931904D02*
X129794047Y-72074761D01*
X129794047Y-72074761D02*
X129698809Y-72170000D01*
X129698809Y-72170000D02*
X129555952Y-72217619D01*
X129555952Y-72217619D02*
X129460714Y-72217619D01*
X130841666Y-72217619D02*
X130270238Y-72217619D01*
X130555952Y-72217619D02*
X130555952Y-71217619D01*
X130555952Y-71217619D02*
X130460714Y-71360476D01*
X130460714Y-71360476D02*
X130365476Y-71455714D01*
X130365476Y-71455714D02*
X130270238Y-71503333D01*
X130002619Y-94781666D02*
X129526428Y-95114999D01*
X130002619Y-95353094D02*
X129002619Y-95353094D01*
X129002619Y-95353094D02*
X129002619Y-94972142D01*
X129002619Y-94972142D02*
X129050238Y-94876904D01*
X129050238Y-94876904D02*
X129097857Y-94829285D01*
X129097857Y-94829285D02*
X129193095Y-94781666D01*
X129193095Y-94781666D02*
X129335952Y-94781666D01*
X129335952Y-94781666D02*
X129431190Y-94829285D01*
X129431190Y-94829285D02*
X129478809Y-94876904D01*
X129478809Y-94876904D02*
X129526428Y-94972142D01*
X129526428Y-94972142D02*
X129526428Y-95353094D01*
X130002619Y-93829285D02*
X130002619Y-94400713D01*
X130002619Y-94114999D02*
X129002619Y-94114999D01*
X129002619Y-94114999D02*
X129145476Y-94210237D01*
X129145476Y-94210237D02*
X129240714Y-94305475D01*
X129240714Y-94305475D02*
X129288333Y-94400713D01*
X114601666Y-99157619D02*
X114601666Y-99871904D01*
X114601666Y-99871904D02*
X114554047Y-100014761D01*
X114554047Y-100014761D02*
X114458809Y-100110000D01*
X114458809Y-100110000D02*
X114315952Y-100157619D01*
X114315952Y-100157619D02*
X114220714Y-100157619D01*
X115554047Y-99157619D02*
X115077857Y-99157619D01*
X115077857Y-99157619D02*
X115030238Y-99633809D01*
X115030238Y-99633809D02*
X115077857Y-99586190D01*
X115077857Y-99586190D02*
X115173095Y-99538571D01*
X115173095Y-99538571D02*
X115411190Y-99538571D01*
X115411190Y-99538571D02*
X115506428Y-99586190D01*
X115506428Y-99586190D02*
X115554047Y-99633809D01*
X115554047Y-99633809D02*
X115601666Y-99729047D01*
X115601666Y-99729047D02*
X115601666Y-99967142D01*
X115601666Y-99967142D02*
X115554047Y-100062380D01*
X115554047Y-100062380D02*
X115506428Y-100110000D01*
X115506428Y-100110000D02*
X115411190Y-100157619D01*
X115411190Y-100157619D02*
X115173095Y-100157619D01*
X115173095Y-100157619D02*
X115077857Y-100110000D01*
X115077857Y-100110000D02*
X115030238Y-100062380D01*
X134921666Y-92807619D02*
X134921666Y-93521904D01*
X134921666Y-93521904D02*
X134874047Y-93664761D01*
X134874047Y-93664761D02*
X134778809Y-93760000D01*
X134778809Y-93760000D02*
X134635952Y-93807619D01*
X134635952Y-93807619D02*
X134540714Y-93807619D01*
X135826428Y-93140952D02*
X135826428Y-93807619D01*
X135588333Y-92760000D02*
X135350238Y-93474285D01*
X135350238Y-93474285D02*
X135969285Y-93474285D01*
D11*
X153080000Y-101035000D02*
X153080000Y-70065000D01*
X167620000Y-101035000D02*
X153080000Y-101035000D01*
X152185662Y-91340000D02*
X152185662Y-90840000D01*
X152618675Y-91090000D02*
X152185662Y-91340000D01*
X152185662Y-90840000D02*
X152618675Y-91090000D01*
X153080000Y-70065000D02*
X167620000Y-70065000D01*
X131810000Y-81815000D02*
X131810000Y-83065000D01*
X132100000Y-82105000D02*
X132100000Y-88075000D01*
X132100000Y-88075000D02*
X144720000Y-88075000D01*
X132110000Y-82115000D02*
X132110000Y-82865000D01*
X132110000Y-82865000D02*
X133910000Y-82865000D01*
X132110000Y-84365000D02*
X132860000Y-84365000D01*
X132860000Y-84365000D02*
X132860000Y-87315000D01*
X132860000Y-87315000D02*
X138410000Y-87315000D01*
X133060000Y-81815000D02*
X131810000Y-81815000D01*
X133910000Y-82115000D02*
X132110000Y-82115000D01*
X133910000Y-82865000D02*
X133910000Y-82115000D01*
X135410000Y-82115000D02*
X135410000Y-82865000D01*
X135410000Y-82865000D02*
X141410000Y-82865000D01*
X141410000Y-82115000D02*
X135410000Y-82115000D01*
X141410000Y-82865000D02*
X141410000Y-82115000D01*
X142910000Y-82115000D02*
X142910000Y-82865000D01*
X142910000Y-82865000D02*
X144710000Y-82865000D01*
X143960000Y-84365000D02*
X143960000Y-87315000D01*
X143960000Y-87315000D02*
X138410000Y-87315000D01*
X144710000Y-82115000D02*
X142910000Y-82115000D01*
X144710000Y-82865000D02*
X144710000Y-82115000D01*
X144710000Y-84365000D02*
X143960000Y-84365000D01*
X144720000Y-82105000D02*
X132100000Y-82105000D01*
X144720000Y-88075000D02*
X144720000Y-82105000D01*
X114030000Y-81815000D02*
X114030000Y-83065000D01*
X114320000Y-82105000D02*
X114320000Y-88075000D01*
X114320000Y-88075000D02*
X126940000Y-88075000D01*
X114330000Y-82115000D02*
X114330000Y-82865000D01*
X114330000Y-82865000D02*
X116130000Y-82865000D01*
X114330000Y-84365000D02*
X115080000Y-84365000D01*
X115080000Y-84365000D02*
X115080000Y-87315000D01*
X115080000Y-87315000D02*
X120630000Y-87315000D01*
X115280000Y-81815000D02*
X114030000Y-81815000D01*
X116130000Y-82115000D02*
X114330000Y-82115000D01*
X116130000Y-82865000D02*
X116130000Y-82115000D01*
X117630000Y-82115000D02*
X117630000Y-82865000D01*
X117630000Y-82865000D02*
X123630000Y-82865000D01*
X123630000Y-82115000D02*
X117630000Y-82115000D01*
X123630000Y-82865000D02*
X123630000Y-82115000D01*
X125130000Y-82115000D02*
X125130000Y-82865000D01*
X125130000Y-82865000D02*
X126930000Y-82865000D01*
X126180000Y-84365000D02*
X126180000Y-87315000D01*
X126180000Y-87315000D02*
X120630000Y-87315000D01*
X126930000Y-82115000D02*
X125130000Y-82115000D01*
X126930000Y-82865000D02*
X126930000Y-82115000D01*
X126930000Y-84365000D02*
X126180000Y-84365000D01*
X126940000Y-82105000D02*
X114320000Y-82105000D01*
X126940000Y-88075000D02*
X126940000Y-82105000D01*
X131770000Y-70910000D02*
X131770000Y-72160000D01*
X132060000Y-71200000D02*
X132060000Y-77170000D01*
X132060000Y-77170000D02*
X144680000Y-77170000D01*
X132070000Y-71210000D02*
X132070000Y-71960000D01*
X132070000Y-71960000D02*
X133870000Y-71960000D01*
X132070000Y-73460000D02*
X132820000Y-73460000D01*
X132820000Y-73460000D02*
X132820000Y-76410000D01*
X132820000Y-76410000D02*
X138370000Y-76410000D01*
X133020000Y-70910000D02*
X131770000Y-70910000D01*
X133870000Y-71210000D02*
X132070000Y-71210000D01*
X133870000Y-71960000D02*
X133870000Y-71210000D01*
X135370000Y-71210000D02*
X135370000Y-71960000D01*
X135370000Y-71960000D02*
X141370000Y-71960000D01*
X141370000Y-71210000D02*
X135370000Y-71210000D01*
X141370000Y-71960000D02*
X141370000Y-71210000D01*
X142870000Y-71210000D02*
X142870000Y-71960000D01*
X142870000Y-71960000D02*
X144670000Y-71960000D01*
X143920000Y-73460000D02*
X143920000Y-76410000D01*
X143920000Y-76410000D02*
X138370000Y-76410000D01*
X144670000Y-71210000D02*
X142870000Y-71210000D01*
X144670000Y-71960000D02*
X144670000Y-71210000D01*
X144670000Y-73460000D02*
X143920000Y-73460000D01*
X144680000Y-71200000D02*
X132060000Y-71200000D01*
X144680000Y-77170000D02*
X144680000Y-71200000D01*
X132080000Y-91210000D02*
X132080000Y-91980000D01*
X133450000Y-91980000D02*
X130710000Y-91980000D01*
X130710000Y-91980000D02*
X130710000Y-98520000D01*
X133450000Y-98520000D02*
X133450000Y-91980000D01*
X130710000Y-98520000D02*
X133450000Y-98520000D01*
X132080000Y-99290000D02*
X132080000Y-98520000D01*
X114240000Y-97850000D02*
X114240000Y-96520000D01*
X115570000Y-97850000D02*
X114240000Y-97850000D01*
X116840000Y-97850000D02*
X127060000Y-97850000D01*
X116840000Y-97850000D02*
X116840000Y-95250000D01*
X127060000Y-97850000D02*
X127060000Y-92650000D01*
X114240000Y-95250000D02*
X114240000Y-92650000D01*
X116840000Y-95250000D02*
X114240000Y-95250000D01*
X114240000Y-92650000D02*
X127060000Y-92650000D01*
X136890000Y-92500000D02*
X136890000Y-93750000D01*
X137180000Y-92790000D02*
X137180000Y-98760000D01*
X137180000Y-98760000D02*
X144800000Y-98760000D01*
X137190000Y-92800000D02*
X137190000Y-93550000D01*
X137190000Y-93550000D02*
X138990000Y-93550000D01*
X137190000Y-95050000D02*
X137940000Y-95050000D01*
X137940000Y-95050000D02*
X137940000Y-98000000D01*
X137940000Y-98000000D02*
X140990000Y-98000000D01*
X138140000Y-92500000D02*
X136890000Y-92500000D01*
X138990000Y-92800000D02*
X137190000Y-92800000D01*
X138990000Y-93550000D02*
X138990000Y-92800000D01*
X140490000Y-92800000D02*
X140490000Y-93550000D01*
X140490000Y-93550000D02*
X141490000Y-93550000D01*
X141490000Y-92800000D02*
X140490000Y-92800000D01*
X141490000Y-93550000D02*
X141490000Y-92800000D01*
X142990000Y-92800000D02*
X142990000Y-93550000D01*
X142990000Y-93550000D02*
X144790000Y-93550000D01*
X144040000Y-95050000D02*
X144040000Y-98000000D01*
X144040000Y-98000000D02*
X140990000Y-98000000D01*
X144790000Y-92800000D02*
X142990000Y-92800000D01*
X144790000Y-93550000D02*
X144790000Y-92800000D01*
X144790000Y-95050000D02*
X144040000Y-95050000D01*
X144800000Y-92790000D02*
X137180000Y-92790000D01*
X144800000Y-98760000D02*
X144800000Y-92790000D01*
%LPC*%
D12*
X156360000Y-98050000D03*
X156360000Y-73050000D03*
D13*
X154940000Y-91090000D03*
D14*
X154940000Y-88320000D03*
X154940000Y-85550000D03*
X154940000Y-82780000D03*
X154940000Y-80010000D03*
X157780000Y-89705000D03*
X157780000Y-86935000D03*
X157780000Y-84165000D03*
X157780000Y-81395000D03*
D15*
X134660000Y-84565000D03*
D16*
X137160000Y-84565000D03*
X139660000Y-84565000D03*
X142160000Y-84565000D03*
D15*
X116880000Y-84565000D03*
D16*
X119380000Y-84565000D03*
X121880000Y-84565000D03*
X124380000Y-84565000D03*
D15*
X134620000Y-73660000D03*
D16*
X137120000Y-73660000D03*
X139620000Y-73660000D03*
X142120000Y-73660000D03*
D14*
X132080000Y-90170000D03*
D17*
X132080000Y-100330000D03*
D18*
X115570000Y-96520000D03*
D19*
X115570000Y-93980000D03*
X118110000Y-96520000D03*
X118110000Y-93980000D03*
X120650000Y-96520000D03*
X120650000Y-93980000D03*
X123190000Y-96520000D03*
X123190000Y-93980000D03*
X125730000Y-96520000D03*
X125730000Y-93980000D03*
D20*
X139740000Y-95250000D03*
D21*
X142240000Y-95250000D03*
M02*
