M48
; DRILL file {KiCad 7.0.1} date Thu Mar 23 13:10:31 2023
; FORMAT={-:-/ absolute / metric / decimal}
; #@! TF.CreationDate,2023-03-23T13:10:31+01:00
; #@! TF.GenerationSoftware,Kicad,Pcbnew,7.0.1
; #@! TF.FileFunction,Plated,1,2,PTH
FMAT,2
METRIC
; #@! TA.AperFunction,Plated,PTH,ComponentDrill
T1C0.800
; #@! TA.AperFunction,Plated,PTH,ComponentDrill
T2C0.950
; #@! TA.AperFunction,Plated,PTH,ComponentDrill
T3C1.000
; #@! TA.AperFunction,Plated,PTH,ComponentDrill
T4C3.200
%
G90
G05
T1
X132.08Y-90.17
X132.08Y-100.33
T2
X116.88Y-84.565
X119.38Y-84.565
X121.88Y-84.565
X124.38Y-84.565
X134.62Y-73.66
X134.66Y-84.565
X137.12Y-73.66
X137.16Y-84.565
X139.62Y-73.66
X139.66Y-84.565
X142.12Y-73.66
X142.16Y-84.565
T3
X115.57Y-93.98
X115.57Y-96.52
X118.11Y-93.98
X118.11Y-96.52
X120.65Y-93.98
X120.65Y-96.52
X123.19Y-93.98
X123.19Y-96.52
X125.73Y-93.98
X125.73Y-96.52
X139.74Y-95.25
X142.24Y-95.25
X154.94Y-80.01
X154.94Y-82.78
X154.94Y-85.55
X154.94Y-88.32
X154.94Y-91.09
X157.78Y-81.395
X157.78Y-84.165
X157.78Y-86.935
X157.78Y-89.705
T4
X156.36Y-73.05
X156.36Y-98.05
T0
M30
