G04 #@! TF.GenerationSoftware,KiCad,Pcbnew,7.0.1*
G04 #@! TF.CreationDate,2023-03-23T13:10:05+01:00*
G04 #@! TF.ProjectId,BMS_Ctrl_DE-9_Adaptor,424d535f-4374-4726-9c5f-44452d395f41,rev?*
G04 #@! TF.SameCoordinates,Original*
G04 #@! TF.FileFunction,Copper,L2,Bot*
G04 #@! TF.FilePolarity,Positive*
%FSLAX46Y46*%
G04 Gerber Fmt 4.6, Leading zero omitted, Abs format (unit mm)*
G04 Created by KiCad (PCBNEW 7.0.1) date 2023-03-23 13:10:05*
%MOMM*%
%LPD*%
G01*
G04 APERTURE LIST*
G04 Aperture macros list*
%AMRoundRect*
0 Rectangle with rounded corners*
0 $1 Rounding radius*
0 $2 $3 $4 $5 $6 $7 $8 $9 X,Y pos of 4 corners*
0 Add a 4 corners polygon primitive as box body*
4,1,4,$2,$3,$4,$5,$6,$7,$8,$9,$2,$3,0*
0 Add four circle primitives for the rounded corners*
1,1,$1+$1,$2,$3*
1,1,$1+$1,$4,$5*
1,1,$1+$1,$6,$7*
1,1,$1+$1,$8,$9*
0 Add four rect primitives between the rounded corners*
20,1,$1+$1,$2,$3,$4,$5,0*
20,1,$1+$1,$4,$5,$6,$7,0*
20,1,$1+$1,$6,$7,$8,$9,0*
20,1,$1+$1,$8,$9,$2,$3,0*%
G04 Aperture macros list end*
G04 #@! TA.AperFunction,ComponentPad*
%ADD10C,4.000000*%
G04 #@! TD*
G04 #@! TA.AperFunction,ComponentPad*
%ADD11R,1.600000X1.600000*%
G04 #@! TD*
G04 #@! TA.AperFunction,ComponentPad*
%ADD12C,1.600000*%
G04 #@! TD*
G04 #@! TA.AperFunction,ComponentPad*
%ADD13RoundRect,0.250000X-0.600000X-0.725000X0.600000X-0.725000X0.600000X0.725000X-0.600000X0.725000X0*%
G04 #@! TD*
G04 #@! TA.AperFunction,ComponentPad*
%ADD14O,1.700000X1.950000*%
G04 #@! TD*
G04 #@! TA.AperFunction,ComponentPad*
%ADD15O,1.600000X1.600000*%
G04 #@! TD*
G04 #@! TA.AperFunction,ComponentPad*
%ADD16R,1.700000X1.700000*%
G04 #@! TD*
G04 #@! TA.AperFunction,ComponentPad*
%ADD17O,1.700000X1.700000*%
G04 #@! TD*
G04 #@! TA.AperFunction,ComponentPad*
%ADD18RoundRect,0.250000X-0.600000X-0.750000X0.600000X-0.750000X0.600000X0.750000X-0.600000X0.750000X0*%
G04 #@! TD*
G04 #@! TA.AperFunction,ComponentPad*
%ADD19O,1.700000X2.000000*%
G04 #@! TD*
G04 #@! TA.AperFunction,Conductor*
%ADD20C,0.500000*%
G04 #@! TD*
G04 APERTURE END LIST*
D10*
X156360000Y-98050000D03*
X156360000Y-73050000D03*
D11*
X154940000Y-91090000D03*
D12*
X154940000Y-88320000D03*
X154940000Y-85550000D03*
X154940000Y-82780000D03*
X154940000Y-80010000D03*
X157780000Y-89705000D03*
X157780000Y-86935000D03*
X157780000Y-84165000D03*
X157780000Y-81395000D03*
D13*
X134660000Y-84565000D03*
D14*
X137160000Y-84565000D03*
X139660000Y-84565000D03*
X142160000Y-84565000D03*
D13*
X116880000Y-84565000D03*
D14*
X119380000Y-84565000D03*
X121880000Y-84565000D03*
X124380000Y-84565000D03*
D13*
X134620000Y-73660000D03*
D14*
X137120000Y-73660000D03*
X139620000Y-73660000D03*
X142120000Y-73660000D03*
D12*
X132080000Y-90170000D03*
D15*
X132080000Y-100330000D03*
D16*
X115570000Y-96520000D03*
D17*
X115570000Y-93980000D03*
X118110000Y-96520000D03*
X118110000Y-93980000D03*
X120650000Y-96520000D03*
X120650000Y-93980000D03*
X123190000Y-96520000D03*
X123190000Y-93980000D03*
X125730000Y-96520000D03*
X125730000Y-93980000D03*
D18*
X139740000Y-95250000D03*
D19*
X142240000Y-95250000D03*
D20*
X132080000Y-87145000D02*
X132080000Y-90170000D01*
X134620000Y-73660000D02*
X134620000Y-84525000D01*
X154940000Y-82780000D02*
X150090000Y-82780000D01*
X134660000Y-84565000D02*
X132080000Y-87145000D01*
X148590000Y-81280000D02*
X118110000Y-81280000D01*
X134620000Y-84525000D02*
X134660000Y-84565000D01*
X116840000Y-84525000D02*
X116880000Y-84565000D01*
X116840000Y-82550000D02*
X116840000Y-84525000D01*
X118110000Y-81280000D02*
X116840000Y-82550000D01*
X150090000Y-82780000D02*
X148590000Y-81280000D01*
X137120000Y-74890000D02*
X137120000Y-73660000D01*
X157780000Y-79040000D02*
X156210000Y-77470000D01*
X139700000Y-77470000D02*
X137120000Y-74890000D01*
X156210000Y-77470000D02*
X139700000Y-77470000D01*
X157780000Y-81395000D02*
X157780000Y-79040000D01*
X160020000Y-78740000D02*
X157480000Y-76200000D01*
X160020000Y-81925000D02*
X160020000Y-78740000D01*
X157780000Y-84165000D02*
X160020000Y-81925000D01*
X157480000Y-76200000D02*
X140970000Y-76200000D01*
X140970000Y-76200000D02*
X139620000Y-74850000D01*
X139620000Y-74850000D02*
X139620000Y-73660000D01*
X154940000Y-85550000D02*
X154130000Y-86360000D01*
X138955000Y-86360000D02*
X137160000Y-84565000D01*
X154130000Y-86360000D02*
X138955000Y-86360000D01*
X123190000Y-90170000D02*
X119380000Y-86360000D01*
X130810000Y-92710000D02*
X128270000Y-90170000D01*
X154940000Y-88320000D02*
X137740000Y-88320000D01*
X119380000Y-86360000D02*
X119380000Y-84565000D01*
X137740000Y-88320000D02*
X133350000Y-92710000D01*
X133350000Y-92710000D02*
X130810000Y-92710000D01*
X128270000Y-90170000D02*
X123190000Y-90170000D01*
X141605000Y-97790000D02*
X139740000Y-95925000D01*
X157780000Y-86935000D02*
X160020000Y-89175000D01*
X139740000Y-95925000D02*
X139740000Y-95250000D01*
X157480000Y-94615000D02*
X146685000Y-94615000D01*
X160020000Y-89175000D02*
X160020000Y-92075000D01*
X160020000Y-92075000D02*
X157480000Y-94615000D01*
X143510000Y-97790000D02*
X141605000Y-97790000D01*
X146685000Y-94615000D02*
X143510000Y-97790000D01*
X157780000Y-89705000D02*
X157780000Y-92410000D01*
X157780000Y-92410000D02*
X156845000Y-93345000D01*
X156845000Y-93345000D02*
X144145000Y-93345000D01*
X144145000Y-93345000D02*
X142240000Y-95250000D01*
X133985000Y-96520000D02*
X132080000Y-96520000D01*
X139415000Y-91090000D02*
X133985000Y-96520000D01*
X125730000Y-96520000D02*
X132080000Y-96520000D01*
X132080000Y-96520000D02*
X132080000Y-100330000D01*
X118110000Y-96520000D02*
X120650000Y-96520000D01*
X115570000Y-96520000D02*
X118110000Y-96520000D01*
X123190000Y-96520000D02*
X125730000Y-96520000D01*
X154940000Y-91090000D02*
X139415000Y-91090000D01*
X120650000Y-96520000D02*
X123190000Y-96520000D01*
G04 #@! TA.AperFunction,Conductor*
G36*
X166307500Y-68597113D02*
G01*
X166352887Y-68642500D01*
X166369500Y-68704500D01*
X166369500Y-102745500D01*
X166352887Y-102807500D01*
X166307500Y-102852887D01*
X166245500Y-102869500D01*
X110614500Y-102869500D01*
X110552500Y-102852887D01*
X110507113Y-102807500D01*
X110490500Y-102745500D01*
X110490500Y-94230000D01*
X114239364Y-94230000D01*
X114296569Y-94443492D01*
X114396399Y-94657576D01*
X114531893Y-94851081D01*
X114698922Y-95018110D01*
X114738384Y-95045742D01*
X114776948Y-95089485D01*
X114791253Y-95146018D01*
X114778135Y-95202839D01*
X114740495Y-95247379D01*
X114686657Y-95269789D01*
X114594697Y-95284353D01*
X114481657Y-95341949D01*
X114391950Y-95431656D01*
X114334353Y-95544697D01*
X114319500Y-95638478D01*
X114319500Y-97401514D01*
X114319501Y-97401518D01*
X114334354Y-97495304D01*
X114334354Y-97495305D01*
X114334355Y-97495306D01*
X114391949Y-97608342D01*
X114481656Y-97698049D01*
X114481658Y-97698050D01*
X114594696Y-97755646D01*
X114688481Y-97770500D01*
X116451518Y-97770499D01*
X116545304Y-97755646D01*
X116658342Y-97698050D01*
X116748050Y-97608342D01*
X116805646Y-97495304D01*
X116820500Y-97401519D01*
X116820500Y-97294500D01*
X116837113Y-97232500D01*
X116882500Y-97187113D01*
X116944500Y-97170500D01*
X116974355Y-97170500D01*
X117031612Y-97184511D01*
X117075928Y-97223374D01*
X117148402Y-97326877D01*
X117303123Y-97481598D01*
X117482361Y-97607102D01*
X117680670Y-97699575D01*
X117892023Y-97756207D01*
X118110000Y-97775277D01*
X118327977Y-97756207D01*
X118539330Y-97699575D01*
X118737639Y-97607102D01*
X118916877Y-97481598D01*
X119071598Y-97326877D01*
X119144071Y-97223374D01*
X119188388Y-97184511D01*
X119245645Y-97170500D01*
X119514355Y-97170500D01*
X119571612Y-97184511D01*
X119615928Y-97223374D01*
X119688402Y-97326877D01*
X119843123Y-97481598D01*
X120022361Y-97607102D01*
X120220670Y-97699575D01*
X120432023Y-97756207D01*
X120650000Y-97775277D01*
X120867977Y-97756207D01*
X121079330Y-97699575D01*
X121277639Y-97607102D01*
X121456877Y-97481598D01*
X121611598Y-97326877D01*
X121684071Y-97223374D01*
X121728388Y-97184511D01*
X121785645Y-97170500D01*
X122054355Y-97170500D01*
X122111612Y-97184511D01*
X122155928Y-97223374D01*
X122228402Y-97326877D01*
X122383123Y-97481598D01*
X122562361Y-97607102D01*
X122760670Y-97699575D01*
X122972023Y-97756207D01*
X123190000Y-97775277D01*
X123407977Y-97756207D01*
X123619330Y-97699575D01*
X123817639Y-97607102D01*
X123996877Y-97481598D01*
X124151598Y-97326877D01*
X124224071Y-97223374D01*
X124268388Y-97184511D01*
X124325645Y-97170500D01*
X124594355Y-97170500D01*
X124651612Y-97184511D01*
X124695928Y-97223374D01*
X124768402Y-97326877D01*
X124923123Y-97481598D01*
X125102361Y-97607102D01*
X125300670Y-97699575D01*
X125512023Y-97756207D01*
X125730000Y-97775277D01*
X125947977Y-97756207D01*
X126159330Y-97699575D01*
X126357639Y-97607102D01*
X126536877Y-97481598D01*
X126691598Y-97326877D01*
X126764071Y-97223374D01*
X126808388Y-97184511D01*
X126865645Y-97170500D01*
X131305500Y-97170500D01*
X131367500Y-97187113D01*
X131412887Y-97232500D01*
X131429500Y-97294500D01*
X131429500Y-99251713D01*
X131413829Y-99312052D01*
X131370777Y-99357140D01*
X131353437Y-99367876D01*
X131189019Y-99517762D01*
X131054941Y-99695311D01*
X130955769Y-99894473D01*
X130894885Y-100108462D01*
X130874357Y-100330000D01*
X130894885Y-100551537D01*
X130955769Y-100765526D01*
X131054941Y-100964688D01*
X131189019Y-101142237D01*
X131353437Y-101292124D01*
X131542595Y-101409245D01*
X131542597Y-101409245D01*
X131542599Y-101409247D01*
X131750060Y-101489618D01*
X131968757Y-101530500D01*
X132191241Y-101530500D01*
X132191243Y-101530500D01*
X132409940Y-101489618D01*
X132617401Y-101409247D01*
X132806562Y-101292124D01*
X132970981Y-101142236D01*
X133105058Y-100964689D01*
X133204229Y-100765528D01*
X133265115Y-100551536D01*
X133285643Y-100330000D01*
X133265115Y-100108464D01*
X133242227Y-100028021D01*
X133204230Y-99894473D01*
X133105058Y-99695311D01*
X132970980Y-99517762D01*
X132806562Y-99367876D01*
X132789223Y-99357140D01*
X132746171Y-99312052D01*
X132730500Y-99251713D01*
X132730500Y-97294500D01*
X132747113Y-97232500D01*
X132792500Y-97187113D01*
X132854500Y-97170500D01*
X133899495Y-97170500D01*
X133920704Y-97172841D01*
X133923294Y-97172759D01*
X133923296Y-97172760D01*
X133993262Y-97170560D01*
X133997157Y-97170500D01*
X134025920Y-97170500D01*
X134025925Y-97170500D01*
X134030302Y-97169946D01*
X134041941Y-97169030D01*
X134087569Y-97167597D01*
X134107949Y-97161675D01*
X134126989Y-97157732D01*
X134148058Y-97155071D01*
X134190520Y-97138258D01*
X134201557Y-97134480D01*
X134245398Y-97121744D01*
X134263670Y-97110936D01*
X134281136Y-97102380D01*
X134300871Y-97094568D01*
X134337816Y-97067725D01*
X134347548Y-97061332D01*
X134386865Y-97038081D01*
X134401874Y-97023071D01*
X134416663Y-97010439D01*
X134433837Y-96997963D01*
X134462946Y-96962774D01*
X134470790Y-96954154D01*
X135359252Y-96065692D01*
X138489500Y-96065692D01*
X138492402Y-96102572D01*
X138538255Y-96260397D01*
X138566117Y-96307509D01*
X138621919Y-96401865D01*
X138738135Y-96518081D01*
X138852211Y-96585545D01*
X138879602Y-96601744D01*
X139037427Y-96647597D01*
X139037431Y-96647598D01*
X139074306Y-96650500D01*
X139494192Y-96650500D01*
X139541645Y-96659939D01*
X139581873Y-96686819D01*
X141084564Y-98189510D01*
X141097912Y-98206169D01*
X141150831Y-98255864D01*
X141153628Y-98258575D01*
X141173961Y-98278908D01*
X141177442Y-98281608D01*
X141186325Y-98289194D01*
X141219607Y-98320448D01*
X141230251Y-98326299D01*
X141238204Y-98330672D01*
X141254464Y-98341352D01*
X141271236Y-98354362D01*
X141313140Y-98372495D01*
X141323620Y-98377629D01*
X141363632Y-98399627D01*
X141384195Y-98404906D01*
X141402598Y-98411207D01*
X141422073Y-98419635D01*
X141467175Y-98426778D01*
X141478570Y-98429137D01*
X141522823Y-98440500D01*
X141544051Y-98440500D01*
X141563449Y-98442026D01*
X141584405Y-98445346D01*
X141629851Y-98441050D01*
X141641521Y-98440500D01*
X143424495Y-98440500D01*
X143445704Y-98442841D01*
X143448294Y-98442759D01*
X143448296Y-98442760D01*
X143518262Y-98440560D01*
X143522157Y-98440500D01*
X143550920Y-98440500D01*
X143550925Y-98440500D01*
X143555302Y-98439946D01*
X143566941Y-98439030D01*
X143612569Y-98437597D01*
X143632949Y-98431675D01*
X143651989Y-98427732D01*
X143673058Y-98425071D01*
X143715520Y-98408258D01*
X143726557Y-98404480D01*
X143770398Y-98391744D01*
X143788670Y-98380936D01*
X143806136Y-98372380D01*
X143825871Y-98364568D01*
X143862816Y-98337725D01*
X143872548Y-98331332D01*
X143911865Y-98308081D01*
X143926874Y-98293071D01*
X143941663Y-98280439D01*
X143958837Y-98267963D01*
X143987946Y-98232774D01*
X143995790Y-98224154D01*
X144169944Y-98050000D01*
X153954753Y-98050000D01*
X153973719Y-98351452D01*
X154030319Y-98648163D01*
X154123658Y-98935428D01*
X154252268Y-99208739D01*
X154346447Y-99357140D01*
X154414115Y-99463768D01*
X154566449Y-99647909D01*
X154606650Y-99696503D01*
X154826839Y-99903276D01*
X155071204Y-100080816D01*
X155121496Y-100108464D01*
X155335896Y-100226332D01*
X155476316Y-100281928D01*
X155616737Y-100337525D01*
X155771141Y-100377168D01*
X155909302Y-100412642D01*
X156158314Y-100444100D01*
X156208972Y-100450500D01*
X156208973Y-100450500D01*
X156511027Y-100450500D01*
X156511028Y-100450500D01*
X156554360Y-100445025D01*
X156810698Y-100412642D01*
X157103262Y-100337525D01*
X157384104Y-100226332D01*
X157648795Y-100080816D01*
X157648794Y-100080816D01*
X157893160Y-99903276D01*
X157917079Y-99880814D01*
X158113349Y-99696504D01*
X158305885Y-99463768D01*
X158467733Y-99208736D01*
X158596341Y-98935430D01*
X158689681Y-98648160D01*
X158746280Y-98351457D01*
X158765246Y-98050000D01*
X158746280Y-97748543D01*
X158689681Y-97451840D01*
X158673331Y-97401521D01*
X158615448Y-97223376D01*
X158596341Y-97164570D01*
X158467733Y-96891264D01*
X158467732Y-96891263D01*
X158467731Y-96891260D01*
X158337988Y-96686819D01*
X158305885Y-96636232D01*
X158113349Y-96403496D01*
X158090066Y-96381632D01*
X157893160Y-96196723D01*
X157648795Y-96019183D01*
X157384102Y-95873667D01*
X157103262Y-95762474D01*
X156810700Y-95687358D01*
X156511028Y-95649500D01*
X156511027Y-95649500D01*
X156208973Y-95649500D01*
X156208972Y-95649500D01*
X155909299Y-95687358D01*
X155616737Y-95762474D01*
X155335897Y-95873667D01*
X155071204Y-96019183D01*
X154826839Y-96196723D01*
X154606650Y-96403496D01*
X154414114Y-96636233D01*
X154252268Y-96891260D01*
X154123658Y-97164571D01*
X154030319Y-97451836D01*
X153973719Y-97748547D01*
X153954753Y-98050000D01*
X144169944Y-98050000D01*
X146918126Y-95301819D01*
X146958355Y-95274939D01*
X147005808Y-95265500D01*
X157394495Y-95265500D01*
X157415704Y-95267841D01*
X157418294Y-95267759D01*
X157418296Y-95267760D01*
X157488262Y-95265560D01*
X157492157Y-95265500D01*
X157520920Y-95265500D01*
X157520925Y-95265500D01*
X157525302Y-95264946D01*
X157536941Y-95264030D01*
X157582569Y-95262597D01*
X157602949Y-95256675D01*
X157621989Y-95252732D01*
X157643058Y-95250071D01*
X157685520Y-95233258D01*
X157696557Y-95229480D01*
X157740398Y-95216744D01*
X157758670Y-95205936D01*
X157776136Y-95197380D01*
X157795871Y-95189568D01*
X157832816Y-95162725D01*
X157842548Y-95156332D01*
X157881865Y-95133081D01*
X157896874Y-95118071D01*
X157911663Y-95105439D01*
X157928837Y-95092963D01*
X157957946Y-95057774D01*
X157965790Y-95049154D01*
X160419513Y-92595431D01*
X160436162Y-92582094D01*
X160437936Y-92580204D01*
X160437940Y-92580202D01*
X160485898Y-92529130D01*
X160488546Y-92526398D01*
X160508911Y-92506035D01*
X160511611Y-92502552D01*
X160519187Y-92493681D01*
X160550448Y-92460393D01*
X160560675Y-92441787D01*
X160571348Y-92425539D01*
X160584362Y-92408764D01*
X160602495Y-92366857D01*
X160607625Y-92356387D01*
X160629627Y-92316368D01*
X160634903Y-92295813D01*
X160641206Y-92277402D01*
X160649635Y-92257927D01*
X160656777Y-92212828D01*
X160659141Y-92201413D01*
X160670500Y-92157177D01*
X160670500Y-92135950D01*
X160672027Y-92116551D01*
X160675346Y-92095596D01*
X160671049Y-92050147D01*
X160670500Y-92038480D01*
X160670500Y-89260504D01*
X160672841Y-89239294D01*
X160671648Y-89201339D01*
X160670560Y-89166736D01*
X160670500Y-89162842D01*
X160670500Y-89134081D01*
X160670500Y-89134075D01*
X160669946Y-89129695D01*
X160669030Y-89118054D01*
X160667597Y-89072430D01*
X160661675Y-89052047D01*
X160657732Y-89033010D01*
X160655071Y-89011942D01*
X160638266Y-88969498D01*
X160634481Y-88958444D01*
X160621744Y-88914602D01*
X160621744Y-88914601D01*
X160610934Y-88896322D01*
X160602380Y-88878862D01*
X160594568Y-88859129D01*
X160567723Y-88822180D01*
X160561332Y-88812451D01*
X160538081Y-88773135D01*
X160523068Y-88758122D01*
X160510435Y-88743330D01*
X160510104Y-88742875D01*
X160497963Y-88726163D01*
X160462779Y-88697056D01*
X160454140Y-88689194D01*
X159002575Y-87237629D01*
X158973626Y-87192059D01*
X158966785Y-87138509D01*
X158985643Y-86935000D01*
X158965115Y-86713464D01*
X158938635Y-86620398D01*
X158904230Y-86499473D01*
X158805058Y-86300311D01*
X158670980Y-86122762D01*
X158506562Y-85972875D01*
X158317404Y-85855754D01*
X158239841Y-85825706D01*
X158109940Y-85775382D01*
X157891243Y-85734500D01*
X157668757Y-85734500D01*
X157470634Y-85771536D01*
X157450060Y-85775382D01*
X157242595Y-85855754D01*
X157053437Y-85972875D01*
X156889019Y-86122762D01*
X156754941Y-86300311D01*
X156655769Y-86499473D01*
X156594885Y-86713462D01*
X156574357Y-86935000D01*
X156594885Y-87156537D01*
X156655769Y-87370526D01*
X156754941Y-87569688D01*
X156889019Y-87747237D01*
X157053437Y-87897124D01*
X157242595Y-88014245D01*
X157242597Y-88014245D01*
X157242599Y-88014247D01*
X157450060Y-88094618D01*
X157668757Y-88135500D01*
X157891243Y-88135500D01*
X157891246Y-88135500D01*
X157969639Y-88120845D01*
X158029104Y-88124282D01*
X158080106Y-88155052D01*
X158282757Y-88357703D01*
X158315515Y-88415880D01*
X158313356Y-88482611D01*
X158276907Y-88538549D01*
X158216734Y-88567478D01*
X158150283Y-88561011D01*
X158109940Y-88545382D01*
X157891243Y-88504500D01*
X157668757Y-88504500D01*
X157486613Y-88538549D01*
X157450060Y-88545382D01*
X157242595Y-88625754D01*
X157053437Y-88742875D01*
X156889019Y-88892762D01*
X156754941Y-89070311D01*
X156655769Y-89269473D01*
X156594885Y-89483462D01*
X156574357Y-89704999D01*
X156594885Y-89926537D01*
X156655769Y-90140526D01*
X156754941Y-90339688D01*
X156889019Y-90517237D01*
X157019147Y-90635864D01*
X157053438Y-90667124D01*
X157056788Y-90669198D01*
X157070777Y-90677860D01*
X157113829Y-90722948D01*
X157129500Y-90783287D01*
X157129500Y-92089192D01*
X157120061Y-92136645D01*
X157093181Y-92176873D01*
X156611873Y-92658181D01*
X156571645Y-92685061D01*
X156524192Y-92694500D01*
X144230505Y-92694500D01*
X144209295Y-92692158D01*
X144136738Y-92694439D01*
X144132843Y-92694500D01*
X144104071Y-92694500D01*
X144099690Y-92695053D01*
X144088059Y-92695968D01*
X144042428Y-92697402D01*
X144022052Y-92703322D01*
X144003006Y-92707267D01*
X143981939Y-92709928D01*
X143939487Y-92726736D01*
X143928439Y-92730519D01*
X143884600Y-92743256D01*
X143866330Y-92754061D01*
X143848862Y-92762618D01*
X143837463Y-92767132D01*
X143829126Y-92770433D01*
X143792191Y-92797266D01*
X143782435Y-92803675D01*
X143743135Y-92826918D01*
X143728125Y-92841928D01*
X143713336Y-92854558D01*
X143696164Y-92867034D01*
X143667057Y-92902218D01*
X143659196Y-92910856D01*
X142705894Y-93864158D01*
X142652541Y-93895631D01*
X142590621Y-93897368D01*
X142408537Y-93855809D01*
X142183671Y-93845709D01*
X141960611Y-93875925D01*
X141746537Y-93945482D01*
X141717494Y-93961111D01*
X141548319Y-94052148D01*
X141548317Y-94052149D01*
X141548318Y-94052149D01*
X141372335Y-94192490D01*
X141224233Y-94362006D01*
X141204162Y-94395599D01*
X141164438Y-94436516D01*
X141110602Y-94455327D01*
X141054040Y-94448052D01*
X141006716Y-94416230D01*
X140978639Y-94366593D01*
X140941744Y-94239602D01*
X140858080Y-94098134D01*
X140741865Y-93981919D01*
X140600397Y-93898255D01*
X140442572Y-93852402D01*
X140420444Y-93850660D01*
X140405694Y-93849500D01*
X139074306Y-93849500D01*
X139062014Y-93850467D01*
X139037427Y-93852402D01*
X138879602Y-93898255D01*
X138738134Y-93981919D01*
X138621919Y-94098134D01*
X138538255Y-94239602D01*
X138492402Y-94397427D01*
X138489500Y-94434308D01*
X138489500Y-96065692D01*
X135359252Y-96065692D01*
X139648126Y-91776819D01*
X139688355Y-91749939D01*
X139735808Y-91740500D01*
X153615501Y-91740500D01*
X153677501Y-91757113D01*
X153722888Y-91802500D01*
X153739501Y-91864500D01*
X153739501Y-91921518D01*
X153754354Y-92015304D01*
X153754354Y-92015305D01*
X153754355Y-92015306D01*
X153811949Y-92128342D01*
X153901656Y-92218049D01*
X153901658Y-92218050D01*
X154014696Y-92275646D01*
X154108481Y-92290500D01*
X155771518Y-92290499D01*
X155865304Y-92275646D01*
X155978342Y-92218050D01*
X156068050Y-92128342D01*
X156125646Y-92015304D01*
X156140500Y-91921519D01*
X156140499Y-90258482D01*
X156125646Y-90164696D01*
X156097965Y-90110370D01*
X156068050Y-90051657D01*
X155978343Y-89961950D01*
X155865302Y-89904353D01*
X155771521Y-89889500D01*
X154108485Y-89889500D01*
X154061589Y-89896927D01*
X154014696Y-89904354D01*
X154014694Y-89904354D01*
X154014693Y-89904355D01*
X153901657Y-89961949D01*
X153811950Y-90051656D01*
X153754353Y-90164697D01*
X153739500Y-90258479D01*
X153739500Y-90315500D01*
X153722887Y-90377500D01*
X153677500Y-90422887D01*
X153615500Y-90439500D01*
X139500505Y-90439500D01*
X139479294Y-90437158D01*
X139406724Y-90439439D01*
X139402829Y-90439500D01*
X139374074Y-90439500D01*
X139369701Y-90440052D01*
X139358069Y-90440967D01*
X139312428Y-90442401D01*
X139292041Y-90448324D01*
X139272998Y-90452268D01*
X139251942Y-90454928D01*
X139209496Y-90471733D01*
X139198450Y-90475514D01*
X139154602Y-90488254D01*
X139136324Y-90499063D01*
X139118861Y-90507618D01*
X139099130Y-90515431D01*
X139062187Y-90542270D01*
X139052428Y-90548680D01*
X139013135Y-90571918D01*
X138998125Y-90586928D01*
X138983336Y-90599558D01*
X138966164Y-90612034D01*
X138937057Y-90647218D01*
X138929196Y-90655856D01*
X133751873Y-95833181D01*
X133711645Y-95860061D01*
X133664192Y-95869500D01*
X132162177Y-95869500D01*
X132153212Y-95869500D01*
X132129978Y-95867304D01*
X132121169Y-95865623D01*
X132066230Y-95869080D01*
X132063456Y-95869255D01*
X132055671Y-95869500D01*
X126865644Y-95869500D01*
X126808387Y-95855489D01*
X126764069Y-95816623D01*
X126757681Y-95807500D01*
X126691598Y-95713123D01*
X126536877Y-95558402D01*
X126357639Y-95432898D01*
X126324132Y-95417273D01*
X126271958Y-95371516D01*
X126252539Y-95304891D01*
X126271959Y-95238266D01*
X126324135Y-95192509D01*
X126407579Y-95153598D01*
X126601081Y-95018106D01*
X126768106Y-94851081D01*
X126903600Y-94657576D01*
X127003430Y-94443492D01*
X127060636Y-94230000D01*
X114239364Y-94230000D01*
X110490500Y-94230000D01*
X110490500Y-93730000D01*
X114239364Y-93730000D01*
X115320000Y-93730000D01*
X115820000Y-93730000D01*
X117860000Y-93730000D01*
X118360000Y-93730000D01*
X120400000Y-93730000D01*
X120900000Y-93730000D01*
X122940000Y-93730000D01*
X123440000Y-93730000D01*
X125480000Y-93730000D01*
X125480000Y-92649364D01*
X125980000Y-92649364D01*
X125980000Y-93730000D01*
X127060636Y-93730000D01*
X127060635Y-93729999D01*
X127003430Y-93516507D01*
X126903599Y-93302421D01*
X126768109Y-93108921D01*
X126601081Y-92941893D01*
X126407576Y-92806399D01*
X126193492Y-92706569D01*
X125980000Y-92649364D01*
X125480000Y-92649364D01*
X125479999Y-92649364D01*
X125266507Y-92706569D01*
X125052421Y-92806400D01*
X124858921Y-92941890D01*
X124691893Y-93108918D01*
X124561575Y-93295032D01*
X124517257Y-93333897D01*
X124460000Y-93347908D01*
X124402743Y-93333897D01*
X124358425Y-93295032D01*
X124228106Y-93108918D01*
X124061081Y-92941893D01*
X123867576Y-92806399D01*
X123653492Y-92706569D01*
X123440000Y-92649364D01*
X123440000Y-93730000D01*
X122940000Y-93730000D01*
X122940000Y-92649364D01*
X122939999Y-92649364D01*
X122726507Y-92706569D01*
X122512421Y-92806400D01*
X122318921Y-92941890D01*
X122151893Y-93108918D01*
X122021575Y-93295032D01*
X121977257Y-93333897D01*
X121920000Y-93347908D01*
X121862743Y-93333897D01*
X121818425Y-93295032D01*
X121688106Y-93108918D01*
X121521081Y-92941893D01*
X121327576Y-92806399D01*
X121113492Y-92706569D01*
X120900000Y-92649364D01*
X120900000Y-93730000D01*
X120400000Y-93730000D01*
X120400000Y-92649364D01*
X120399999Y-92649364D01*
X120186507Y-92706569D01*
X119972421Y-92806400D01*
X119778921Y-92941890D01*
X119611893Y-93108918D01*
X119481575Y-93295032D01*
X119437257Y-93333897D01*
X119380000Y-93347908D01*
X119322743Y-93333897D01*
X119278425Y-93295032D01*
X119148106Y-93108918D01*
X118981081Y-92941893D01*
X118787576Y-92806399D01*
X118573492Y-92706569D01*
X118360000Y-92649364D01*
X118360000Y-93730000D01*
X117860000Y-93730000D01*
X117860000Y-92649364D01*
X117859999Y-92649364D01*
X117646507Y-92706569D01*
X117432421Y-92806400D01*
X117238921Y-92941890D01*
X117071893Y-93108918D01*
X116941575Y-93295032D01*
X116897257Y-93333897D01*
X116840000Y-93347908D01*
X116782743Y-93333897D01*
X116738425Y-93295032D01*
X116608106Y-93108918D01*
X116441081Y-92941893D01*
X116247576Y-92806399D01*
X116033492Y-92706569D01*
X115820000Y-92649364D01*
X115820000Y-93730000D01*
X115320000Y-93730000D01*
X115320000Y-92649364D01*
X115319999Y-92649364D01*
X115106507Y-92706569D01*
X114892421Y-92806400D01*
X114698921Y-92941890D01*
X114531890Y-93108921D01*
X114396400Y-93302421D01*
X114296569Y-93516507D01*
X114239364Y-93729999D01*
X114239364Y-93730000D01*
X110490500Y-93730000D01*
X110490500Y-85355692D01*
X115629500Y-85355692D01*
X115632402Y-85392572D01*
X115678255Y-85550397D01*
X115706117Y-85597509D01*
X115761919Y-85691865D01*
X115878135Y-85808081D01*
X115958746Y-85855754D01*
X116019602Y-85891744D01*
X116177427Y-85937597D01*
X116177431Y-85937598D01*
X116214306Y-85940500D01*
X117545692Y-85940500D01*
X117545694Y-85940500D01*
X117582569Y-85937598D01*
X117740398Y-85891744D01*
X117881865Y-85808081D01*
X117998081Y-85691865D01*
X118081744Y-85550398D01*
X118119009Y-85422131D01*
X118155354Y-85364360D01*
X118216766Y-85334573D01*
X118284637Y-85341797D01*
X118338402Y-85383841D01*
X118434478Y-85516078D01*
X118597175Y-85671632D01*
X118597177Y-85671633D01*
X118597178Y-85671634D01*
X118673811Y-85722219D01*
X118714694Y-85766946D01*
X118729500Y-85825706D01*
X118729500Y-86274495D01*
X118727158Y-86295704D01*
X118729439Y-86368262D01*
X118729500Y-86372157D01*
X118729500Y-86400926D01*
X118730053Y-86405307D01*
X118730968Y-86416940D01*
X118732402Y-86462569D01*
X118738323Y-86482950D01*
X118742267Y-86501995D01*
X118744928Y-86523059D01*
X118761737Y-86565515D01*
X118765520Y-86576563D01*
X118778256Y-86620400D01*
X118789061Y-86638670D01*
X118797621Y-86656143D01*
X118805431Y-86675869D01*
X118832267Y-86712808D01*
X118838673Y-86722560D01*
X118861919Y-86761865D01*
X118861921Y-86761867D01*
X118876925Y-86776871D01*
X118889562Y-86791667D01*
X118897640Y-86802785D01*
X118902037Y-86808837D01*
X118937212Y-86837936D01*
X118945854Y-86845800D01*
X122669564Y-90569510D01*
X122682912Y-90586169D01*
X122735831Y-90635864D01*
X122738628Y-90638575D01*
X122758962Y-90658909D01*
X122762443Y-90661609D01*
X122771326Y-90669195D01*
X122804607Y-90700448D01*
X122823198Y-90710668D01*
X122839462Y-90721351D01*
X122856235Y-90734362D01*
X122898138Y-90752495D01*
X122908626Y-90757633D01*
X122948632Y-90779627D01*
X122969197Y-90784906D01*
X122987593Y-90791205D01*
X123007074Y-90799636D01*
X123052178Y-90806779D01*
X123063597Y-90809144D01*
X123107823Y-90820500D01*
X123129045Y-90820500D01*
X123148443Y-90822026D01*
X123169405Y-90825347D01*
X123214863Y-90821049D01*
X123226531Y-90820500D01*
X127949192Y-90820500D01*
X127996645Y-90829939D01*
X128036873Y-90856819D01*
X130289564Y-93109510D01*
X130302912Y-93126169D01*
X130355831Y-93175864D01*
X130358628Y-93178575D01*
X130378961Y-93198908D01*
X130382442Y-93201608D01*
X130391325Y-93209194D01*
X130424607Y-93240448D01*
X130435251Y-93246299D01*
X130443204Y-93250672D01*
X130459464Y-93261352D01*
X130476236Y-93274362D01*
X130518140Y-93292495D01*
X130528620Y-93297629D01*
X130568632Y-93319627D01*
X130589195Y-93324906D01*
X130607598Y-93331207D01*
X130627073Y-93339635D01*
X130672170Y-93346777D01*
X130683589Y-93349142D01*
X130727823Y-93360500D01*
X130749050Y-93360500D01*
X130768448Y-93362026D01*
X130789404Y-93365346D01*
X130834852Y-93361049D01*
X130846520Y-93360500D01*
X133264495Y-93360500D01*
X133285704Y-93362841D01*
X133288294Y-93362759D01*
X133288296Y-93362760D01*
X133358262Y-93360560D01*
X133362157Y-93360500D01*
X133390920Y-93360500D01*
X133390925Y-93360500D01*
X133395302Y-93359946D01*
X133406941Y-93359030D01*
X133452569Y-93357597D01*
X133472949Y-93351675D01*
X133491989Y-93347732D01*
X133513058Y-93345071D01*
X133555520Y-93328258D01*
X133566557Y-93324480D01*
X133610398Y-93311744D01*
X133628670Y-93300936D01*
X133646136Y-93292380D01*
X133665871Y-93284568D01*
X133702816Y-93257725D01*
X133712548Y-93251332D01*
X133751865Y-93228081D01*
X133766874Y-93213071D01*
X133781663Y-93200439D01*
X133798837Y-93187963D01*
X133827946Y-93152774D01*
X133835790Y-93144154D01*
X137973126Y-89006819D01*
X138013355Y-88979939D01*
X138060808Y-88970500D01*
X153865137Y-88970500D01*
X153920409Y-88983500D01*
X153964091Y-89019773D01*
X154049019Y-89132237D01*
X154213437Y-89282124D01*
X154402595Y-89399245D01*
X154402597Y-89399245D01*
X154402599Y-89399247D01*
X154610060Y-89479618D01*
X154828757Y-89520500D01*
X155051241Y-89520500D01*
X155051243Y-89520500D01*
X155269940Y-89479618D01*
X155477401Y-89399247D01*
X155666562Y-89282124D01*
X155793135Y-89166737D01*
X155830980Y-89132237D01*
X155837276Y-89123900D01*
X155965058Y-88954689D01*
X156064229Y-88755528D01*
X156125115Y-88541536D01*
X156145643Y-88320000D01*
X156125115Y-88098464D01*
X156064623Y-87885856D01*
X156064230Y-87884473D01*
X155965058Y-87685311D01*
X155830980Y-87507762D01*
X155666562Y-87357875D01*
X155477404Y-87240754D01*
X155416174Y-87217033D01*
X155269940Y-87160382D01*
X155051243Y-87119500D01*
X154828757Y-87119500D01*
X154630634Y-87156536D01*
X154610060Y-87160382D01*
X154402595Y-87240754D01*
X154213437Y-87357875D01*
X154049019Y-87507762D01*
X153964091Y-87620227D01*
X153920409Y-87656500D01*
X153865137Y-87669500D01*
X137825505Y-87669500D01*
X137804294Y-87667158D01*
X137731724Y-87669439D01*
X137727829Y-87669500D01*
X137699074Y-87669500D01*
X137694701Y-87670052D01*
X137683069Y-87670967D01*
X137637428Y-87672401D01*
X137617041Y-87678324D01*
X137597998Y-87682268D01*
X137576942Y-87684928D01*
X137534496Y-87701733D01*
X137523450Y-87705514D01*
X137479602Y-87718254D01*
X137461324Y-87729063D01*
X137443861Y-87737618D01*
X137424130Y-87745431D01*
X137387187Y-87772270D01*
X137377428Y-87778680D01*
X137338135Y-87801918D01*
X137323125Y-87816928D01*
X137308336Y-87829558D01*
X137291164Y-87842034D01*
X137262057Y-87877218D01*
X137254196Y-87885856D01*
X133116873Y-92023181D01*
X133076645Y-92050061D01*
X133029192Y-92059500D01*
X131130808Y-92059500D01*
X131083355Y-92050061D01*
X131043127Y-92023181D01*
X128790434Y-89770488D01*
X128777091Y-89753833D01*
X128724166Y-89704134D01*
X128721369Y-89701423D01*
X128701034Y-89681088D01*
X128697547Y-89678383D01*
X128688671Y-89670801D01*
X128655394Y-89639552D01*
X128636793Y-89629326D01*
X128620532Y-89618645D01*
X128603764Y-89605638D01*
X128561870Y-89587508D01*
X128551379Y-89582369D01*
X128511367Y-89560372D01*
X128490800Y-89555091D01*
X128472398Y-89548791D01*
X128452924Y-89540364D01*
X128407837Y-89533223D01*
X128396398Y-89530854D01*
X128352178Y-89519500D01*
X128352177Y-89519500D01*
X128330955Y-89519500D01*
X128311556Y-89517973D01*
X128290596Y-89514653D01*
X128290595Y-89514653D01*
X128268558Y-89516736D01*
X128245139Y-89518950D01*
X128233470Y-89519500D01*
X123510808Y-89519500D01*
X123463355Y-89510061D01*
X123423127Y-89483181D01*
X120066819Y-86126873D01*
X120039939Y-86086645D01*
X120030500Y-86039192D01*
X120030500Y-85830408D01*
X120042780Y-85776607D01*
X120077187Y-85733461D01*
X120123242Y-85696733D01*
X120247666Y-85597508D01*
X120395765Y-85427996D01*
X120511215Y-85234764D01*
X120515786Y-85222582D01*
X120547808Y-85175003D01*
X120597817Y-85146921D01*
X120655113Y-85144347D01*
X120707439Y-85167831D01*
X120743600Y-85212349D01*
X120802171Y-85333974D01*
X120925641Y-85503915D01*
X120934478Y-85516078D01*
X121097175Y-85671632D01*
X121285032Y-85795635D01*
X121492012Y-85884103D01*
X121711463Y-85934191D01*
X121916998Y-85943421D01*
X121936328Y-85944290D01*
X121936328Y-85944289D01*
X121936330Y-85944290D01*
X122159387Y-85914075D01*
X122373464Y-85844517D01*
X122571681Y-85737852D01*
X122747666Y-85597508D01*
X122895765Y-85427996D01*
X122966082Y-85310303D01*
X123014110Y-85264526D01*
X123078864Y-85250064D01*
X123141805Y-85271058D01*
X123184912Y-85321497D01*
X123206400Y-85367578D01*
X123341890Y-85561078D01*
X123508918Y-85728106D01*
X123702423Y-85863600D01*
X123916507Y-85963430D01*
X124129999Y-86020635D01*
X124130000Y-86020636D01*
X124130000Y-84815000D01*
X124630000Y-84815000D01*
X124630000Y-86020635D01*
X124843492Y-85963430D01*
X125057578Y-85863599D01*
X125251078Y-85728109D01*
X125418109Y-85561078D01*
X125553599Y-85367578D01*
X125653430Y-85153492D01*
X125714569Y-84925318D01*
X125724221Y-84815000D01*
X124630000Y-84815000D01*
X124130000Y-84815000D01*
X124130000Y-83109364D01*
X124630000Y-83109364D01*
X124630000Y-84315000D01*
X125724222Y-84315000D01*
X125724221Y-84314999D01*
X125714569Y-84204681D01*
X125653430Y-83976507D01*
X125553599Y-83762421D01*
X125418109Y-83568921D01*
X125251081Y-83401893D01*
X125057576Y-83266399D01*
X124843492Y-83166569D01*
X124630000Y-83109364D01*
X124130000Y-83109364D01*
X124129999Y-83109364D01*
X123916507Y-83166569D01*
X123702421Y-83266400D01*
X123508921Y-83401890D01*
X123341890Y-83568921D01*
X123206400Y-83762421D01*
X123186732Y-83804600D01*
X123141300Y-83856568D01*
X123075122Y-83876193D01*
X123008705Y-83857394D01*
X122962630Y-83805996D01*
X122957829Y-83796027D01*
X122918666Y-83742124D01*
X122825522Y-83613922D01*
X122662825Y-83458368D01*
X122662822Y-83458366D01*
X122662821Y-83458365D01*
X122474968Y-83334365D01*
X122267987Y-83245896D01*
X122048537Y-83195809D01*
X121823671Y-83185709D01*
X121600611Y-83215925D01*
X121386537Y-83285482D01*
X121295698Y-83334365D01*
X121188319Y-83392148D01*
X121176958Y-83401208D01*
X121012335Y-83532490D01*
X120864233Y-83702006D01*
X120748782Y-83895239D01*
X120744211Y-83907420D01*
X120712187Y-83955000D01*
X120662178Y-83983079D01*
X120604883Y-83985651D01*
X120552559Y-83962167D01*
X120516399Y-83917649D01*
X120457829Y-83796027D01*
X120418666Y-83742124D01*
X120325522Y-83613922D01*
X120162825Y-83458368D01*
X120162822Y-83458366D01*
X120162821Y-83458365D01*
X119974968Y-83334365D01*
X119767987Y-83245896D01*
X119548537Y-83195809D01*
X119323671Y-83185709D01*
X119100611Y-83215925D01*
X118886537Y-83285482D01*
X118795698Y-83334365D01*
X118688319Y-83392148D01*
X118676958Y-83401208D01*
X118512335Y-83532490D01*
X118364233Y-83702006D01*
X118344162Y-83735599D01*
X118304438Y-83776516D01*
X118250602Y-83795327D01*
X118194040Y-83788052D01*
X118146716Y-83756230D01*
X118118639Y-83706593D01*
X118081744Y-83579602D01*
X118053882Y-83532490D01*
X117998081Y-83438135D01*
X117881865Y-83321919D01*
X117802859Y-83275195D01*
X117740397Y-83238255D01*
X117579904Y-83191627D01*
X117533475Y-83166418D01*
X117501755Y-83124170D01*
X117490500Y-83072551D01*
X117490500Y-82870808D01*
X117499939Y-82823355D01*
X117526819Y-82783127D01*
X118343127Y-81966819D01*
X118383355Y-81939939D01*
X118430808Y-81930500D01*
X133845500Y-81930500D01*
X133907500Y-81947113D01*
X133952887Y-81992500D01*
X133969500Y-82054500D01*
X133969500Y-83095794D01*
X133958245Y-83147413D01*
X133926524Y-83189661D01*
X133880095Y-83214870D01*
X133799602Y-83238255D01*
X133658134Y-83321919D01*
X133541919Y-83438134D01*
X133458255Y-83579602D01*
X133412402Y-83737427D01*
X133409500Y-83774308D01*
X133409500Y-84844192D01*
X133400061Y-84891645D01*
X133373181Y-84931873D01*
X131680484Y-86624568D01*
X131663831Y-86637910D01*
X131614133Y-86690833D01*
X131611427Y-86693626D01*
X131591083Y-86713971D01*
X131588376Y-86717460D01*
X131580807Y-86726321D01*
X131549551Y-86759607D01*
X131539322Y-86778212D01*
X131528645Y-86794467D01*
X131515636Y-86811238D01*
X131497506Y-86853132D01*
X131492370Y-86863616D01*
X131470372Y-86903632D01*
X131465091Y-86924199D01*
X131458791Y-86942600D01*
X131450364Y-86962074D01*
X131443223Y-87007161D01*
X131440855Y-87018598D01*
X131429500Y-87062824D01*
X131429500Y-87084045D01*
X131427973Y-87103444D01*
X131424653Y-87124403D01*
X131428950Y-87169861D01*
X131429500Y-87181530D01*
X131429500Y-89091713D01*
X131413829Y-89152052D01*
X131370777Y-89197140D01*
X131353437Y-89207876D01*
X131189019Y-89357762D01*
X131054941Y-89535311D01*
X130955769Y-89734473D01*
X130894885Y-89948462D01*
X130874357Y-90169999D01*
X130894885Y-90391537D01*
X130955769Y-90605526D01*
X131054941Y-90804688D01*
X131189019Y-90982237D01*
X131353437Y-91132124D01*
X131542595Y-91249245D01*
X131542597Y-91249245D01*
X131542599Y-91249247D01*
X131750060Y-91329618D01*
X131968757Y-91370500D01*
X132191241Y-91370500D01*
X132191243Y-91370500D01*
X132409940Y-91329618D01*
X132617401Y-91249247D01*
X132806562Y-91132124D01*
X132970981Y-90982236D01*
X133105058Y-90804689D01*
X133204229Y-90605528D01*
X133207559Y-90593827D01*
X133229350Y-90517236D01*
X133265115Y-90391536D01*
X133285643Y-90170000D01*
X133265115Y-89948464D01*
X133242227Y-89868021D01*
X133204230Y-89734473D01*
X133105058Y-89535311D01*
X132970980Y-89357762D01*
X132806562Y-89207876D01*
X132789223Y-89197140D01*
X132746171Y-89152052D01*
X132730500Y-89091713D01*
X132730500Y-87465808D01*
X132739939Y-87418355D01*
X132766819Y-87378127D01*
X134168127Y-85976819D01*
X134208355Y-85949939D01*
X134255808Y-85940500D01*
X135325692Y-85940500D01*
X135325694Y-85940500D01*
X135362569Y-85937598D01*
X135520398Y-85891744D01*
X135661865Y-85808081D01*
X135778081Y-85691865D01*
X135861744Y-85550398D01*
X135899009Y-85422131D01*
X135935354Y-85364360D01*
X135996766Y-85334573D01*
X136064637Y-85341797D01*
X136118402Y-85383841D01*
X136214478Y-85516078D01*
X136377175Y-85671632D01*
X136565032Y-85795635D01*
X136772012Y-85884103D01*
X136991463Y-85934191D01*
X137196998Y-85943421D01*
X137216328Y-85944290D01*
X137216328Y-85944289D01*
X137216330Y-85944290D01*
X137439387Y-85914075D01*
X137480138Y-85900833D01*
X137547401Y-85898190D01*
X137606137Y-85931083D01*
X138434564Y-86759510D01*
X138447912Y-86776169D01*
X138500831Y-86825864D01*
X138503628Y-86828575D01*
X138523961Y-86848908D01*
X138527442Y-86851608D01*
X138536325Y-86859194D01*
X138569607Y-86890448D01*
X138580251Y-86896299D01*
X138588204Y-86900672D01*
X138604464Y-86911352D01*
X138621236Y-86924362D01*
X138663140Y-86942495D01*
X138673620Y-86947629D01*
X138713632Y-86969627D01*
X138734195Y-86974906D01*
X138752598Y-86981207D01*
X138772073Y-86989635D01*
X138817175Y-86996778D01*
X138828570Y-86999137D01*
X138872823Y-87010500D01*
X138894051Y-87010500D01*
X138913449Y-87012026D01*
X138934405Y-87015346D01*
X138979851Y-87011050D01*
X138991521Y-87010500D01*
X154044495Y-87010500D01*
X154065704Y-87012841D01*
X154068294Y-87012759D01*
X154068296Y-87012760D01*
X154138262Y-87010560D01*
X154142157Y-87010500D01*
X154170920Y-87010500D01*
X154170925Y-87010500D01*
X154175302Y-87009946D01*
X154186941Y-87009030D01*
X154232569Y-87007597D01*
X154252949Y-87001675D01*
X154271989Y-86997732D01*
X154293058Y-86995071D01*
X154335520Y-86978258D01*
X154346557Y-86974480D01*
X154390398Y-86961744D01*
X154408670Y-86950936D01*
X154426136Y-86942380D01*
X154445871Y-86934568D01*
X154482816Y-86907725D01*
X154492548Y-86901332D01*
X154531865Y-86878081D01*
X154546874Y-86863071D01*
X154561663Y-86850439D01*
X154578837Y-86837963D01*
X154607946Y-86802774D01*
X154615790Y-86794154D01*
X154639894Y-86770050D01*
X154690893Y-86739282D01*
X154750357Y-86735844D01*
X154828757Y-86750500D01*
X155051241Y-86750500D01*
X155051243Y-86750500D01*
X155269940Y-86709618D01*
X155477401Y-86629247D01*
X155666562Y-86512124D01*
X155777381Y-86411099D01*
X155830980Y-86362237D01*
X155879266Y-86298296D01*
X155965058Y-86184689D01*
X156064229Y-85985528D01*
X156070517Y-85963430D01*
X156095008Y-85877352D01*
X156125115Y-85771536D01*
X156145643Y-85550000D01*
X156125115Y-85328464D01*
X156094990Y-85222585D01*
X156064230Y-85114473D01*
X155965058Y-84915311D01*
X155830980Y-84737762D01*
X155666562Y-84587875D01*
X155477404Y-84470754D01*
X155416174Y-84447033D01*
X155269940Y-84390382D01*
X155051243Y-84349500D01*
X154828757Y-84349500D01*
X154630634Y-84386536D01*
X154610060Y-84390382D01*
X154402595Y-84470754D01*
X154213437Y-84587875D01*
X154049019Y-84737762D01*
X153914941Y-84915311D01*
X153815769Y-85114473D01*
X153754885Y-85328462D01*
X153737500Y-85516074D01*
X153734357Y-85550000D01*
X153736586Y-85574059D01*
X153724117Y-85640771D01*
X153678394Y-85690927D01*
X153613116Y-85709500D01*
X143332385Y-85709500D01*
X143268057Y-85691509D01*
X143222396Y-85642757D01*
X143208650Y-85577390D01*
X143230810Y-85514376D01*
X143333600Y-85367575D01*
X143433430Y-85153492D01*
X143494569Y-84925318D01*
X143504221Y-84815000D01*
X142034000Y-84815000D01*
X141972000Y-84798387D01*
X141926613Y-84753000D01*
X141910000Y-84691000D01*
X141910000Y-83109364D01*
X142410000Y-83109364D01*
X142410000Y-84315000D01*
X143504222Y-84315000D01*
X143504221Y-84314999D01*
X143494569Y-84204681D01*
X143433430Y-83976507D01*
X143333599Y-83762421D01*
X143198109Y-83568921D01*
X143031081Y-83401893D01*
X142837576Y-83266399D01*
X142623492Y-83166569D01*
X142410000Y-83109364D01*
X141910000Y-83109364D01*
X141909999Y-83109364D01*
X141696507Y-83166569D01*
X141482421Y-83266400D01*
X141288921Y-83401890D01*
X141121890Y-83568921D01*
X140986400Y-83762421D01*
X140966732Y-83804600D01*
X140921300Y-83856568D01*
X140855122Y-83876193D01*
X140788705Y-83857394D01*
X140742630Y-83805996D01*
X140737829Y-83796027D01*
X140698666Y-83742124D01*
X140605522Y-83613922D01*
X140442825Y-83458368D01*
X140442822Y-83458366D01*
X140442821Y-83458365D01*
X140254968Y-83334365D01*
X140047987Y-83245896D01*
X139828537Y-83195809D01*
X139603671Y-83185709D01*
X139380611Y-83215925D01*
X139166537Y-83285482D01*
X139075698Y-83334365D01*
X138968319Y-83392148D01*
X138956958Y-83401208D01*
X138792335Y-83532490D01*
X138644233Y-83702006D01*
X138528782Y-83895239D01*
X138524211Y-83907420D01*
X138492187Y-83955000D01*
X138442178Y-83983079D01*
X138384883Y-83985651D01*
X138332559Y-83962167D01*
X138296399Y-83917649D01*
X138237829Y-83796027D01*
X138198666Y-83742124D01*
X138105522Y-83613922D01*
X137942825Y-83458368D01*
X137942822Y-83458366D01*
X137942821Y-83458365D01*
X137754968Y-83334365D01*
X137547987Y-83245896D01*
X137328537Y-83195809D01*
X137103671Y-83185709D01*
X136880611Y-83215925D01*
X136666537Y-83285482D01*
X136575698Y-83334365D01*
X136468319Y-83392148D01*
X136456958Y-83401208D01*
X136292335Y-83532490D01*
X136144233Y-83702006D01*
X136124162Y-83735599D01*
X136084438Y-83776516D01*
X136030602Y-83795327D01*
X135974040Y-83788052D01*
X135926716Y-83756230D01*
X135898639Y-83706593D01*
X135861744Y-83579602D01*
X135833882Y-83532490D01*
X135778081Y-83438135D01*
X135661865Y-83321919D01*
X135582859Y-83275195D01*
X135520397Y-83238255D01*
X135359904Y-83191627D01*
X135313475Y-83166418D01*
X135281755Y-83124170D01*
X135270500Y-83072551D01*
X135270500Y-82054500D01*
X135287113Y-81992500D01*
X135332500Y-81947113D01*
X135394500Y-81930500D01*
X148269192Y-81930500D01*
X148316645Y-81939939D01*
X148356873Y-81966819D01*
X149569564Y-83179510D01*
X149582912Y-83196169D01*
X149635831Y-83245864D01*
X149638628Y-83248575D01*
X149658961Y-83268908D01*
X149662442Y-83271608D01*
X149671325Y-83279194D01*
X149704607Y-83310448D01*
X149715251Y-83316299D01*
X149723204Y-83320672D01*
X149739464Y-83331352D01*
X149756236Y-83344362D01*
X149798140Y-83362495D01*
X149808620Y-83367629D01*
X149848632Y-83389627D01*
X149869195Y-83394906D01*
X149887598Y-83401207D01*
X149907073Y-83409635D01*
X149952175Y-83416778D01*
X149963570Y-83419137D01*
X150007823Y-83430500D01*
X150029051Y-83430500D01*
X150048449Y-83432026D01*
X150069405Y-83435346D01*
X150114851Y-83431050D01*
X150126521Y-83430500D01*
X153865137Y-83430500D01*
X153920409Y-83443500D01*
X153964091Y-83479773D01*
X154049019Y-83592237D01*
X154213437Y-83742124D01*
X154402595Y-83859245D01*
X154402597Y-83859245D01*
X154402599Y-83859247D01*
X154610060Y-83939618D01*
X154828757Y-83980500D01*
X155051241Y-83980500D01*
X155051243Y-83980500D01*
X155269940Y-83939618D01*
X155477401Y-83859247D01*
X155666562Y-83742124D01*
X155830981Y-83592236D01*
X155965058Y-83414689D01*
X156064229Y-83215528D01*
X156064417Y-83214870D01*
X156104909Y-83072551D01*
X156125115Y-83001536D01*
X156145643Y-82780000D01*
X156125115Y-82558464D01*
X156089160Y-82432094D01*
X156064230Y-82344473D01*
X155965058Y-82145311D01*
X155830980Y-81967762D01*
X155666562Y-81817875D01*
X155477404Y-81700754D01*
X155360729Y-81655554D01*
X155269940Y-81620382D01*
X155051243Y-81579500D01*
X154828757Y-81579500D01*
X154630634Y-81616536D01*
X154610060Y-81620382D01*
X154402595Y-81700754D01*
X154213437Y-81817875D01*
X154049019Y-81967762D01*
X153964091Y-82080227D01*
X153920409Y-82116500D01*
X153865137Y-82129500D01*
X150410808Y-82129500D01*
X150363355Y-82120061D01*
X150323127Y-82093181D01*
X149318972Y-81089026D01*
X154214526Y-81089026D01*
X154287515Y-81140133D01*
X154493673Y-81236266D01*
X154713397Y-81295141D01*
X154940000Y-81314966D01*
X155166602Y-81295141D01*
X155386326Y-81236266D01*
X155592480Y-81140134D01*
X155665472Y-81089025D01*
X154940001Y-80363553D01*
X154940000Y-80363553D01*
X154214526Y-81089025D01*
X154214526Y-81089026D01*
X149318972Y-81089026D01*
X149110434Y-80880488D01*
X149097091Y-80863833D01*
X149044166Y-80814134D01*
X149041369Y-80811423D01*
X149021034Y-80791088D01*
X149017547Y-80788383D01*
X149008671Y-80780801D01*
X148975394Y-80749552D01*
X148956793Y-80739326D01*
X148940532Y-80728645D01*
X148923764Y-80715638D01*
X148900177Y-80705431D01*
X148881869Y-80697508D01*
X148871379Y-80692369D01*
X148831367Y-80670372D01*
X148810800Y-80665091D01*
X148792398Y-80658791D01*
X148772924Y-80650364D01*
X148727837Y-80643223D01*
X148716398Y-80640854D01*
X148672178Y-80629500D01*
X148672177Y-80629500D01*
X148650955Y-80629500D01*
X148631556Y-80627973D01*
X148610596Y-80624653D01*
X148610595Y-80624653D01*
X148588558Y-80626736D01*
X148565139Y-80628950D01*
X148553470Y-80629500D01*
X135394500Y-80629500D01*
X135332500Y-80612887D01*
X135287113Y-80567500D01*
X135270500Y-80505500D01*
X135270500Y-80010000D01*
X153635033Y-80010000D01*
X153654858Y-80236602D01*
X153713733Y-80456326D01*
X153809866Y-80662484D01*
X153860972Y-80735471D01*
X153860974Y-80735472D01*
X154586446Y-80010001D01*
X155293553Y-80010001D01*
X156019025Y-80735472D01*
X156070134Y-80662480D01*
X156166266Y-80456326D01*
X156225141Y-80236602D01*
X156244966Y-80010000D01*
X156225141Y-79783397D01*
X156166266Y-79563673D01*
X156070133Y-79357515D01*
X156019025Y-79284526D01*
X155293553Y-80010000D01*
X155293553Y-80010001D01*
X154586446Y-80010001D01*
X154586446Y-80010000D01*
X153860973Y-79284526D01*
X153860973Y-79284527D01*
X153809865Y-79357516D01*
X153713733Y-79563672D01*
X153654858Y-79783397D01*
X153635033Y-80010000D01*
X135270500Y-80010000D01*
X135270500Y-78930973D01*
X154214526Y-78930973D01*
X154940000Y-79656446D01*
X154940001Y-79656446D01*
X155665472Y-78930974D01*
X155665471Y-78930972D01*
X155592484Y-78879866D01*
X155386326Y-78783733D01*
X155166602Y-78724858D01*
X154940000Y-78705033D01*
X154713397Y-78724858D01*
X154493672Y-78783733D01*
X154287516Y-78879865D01*
X154214527Y-78930973D01*
X154214526Y-78930973D01*
X135270500Y-78930973D01*
X135270500Y-75140827D01*
X135281755Y-75089208D01*
X135313476Y-75046960D01*
X135359905Y-75021751D01*
X135460348Y-74992569D01*
X135480398Y-74986744D01*
X135621865Y-74903081D01*
X135738081Y-74786865D01*
X135821744Y-74645398D01*
X135859009Y-74517131D01*
X135895354Y-74459360D01*
X135956766Y-74429573D01*
X136024637Y-74436797D01*
X136078402Y-74478841D01*
X136174478Y-74611078D01*
X136337175Y-74766632D01*
X136337177Y-74766633D01*
X136337178Y-74766634D01*
X136413811Y-74817219D01*
X136454694Y-74861946D01*
X136469500Y-74920706D01*
X136469500Y-74930926D01*
X136470053Y-74935307D01*
X136470968Y-74946940D01*
X136472402Y-74992569D01*
X136478323Y-75012950D01*
X136482267Y-75031995D01*
X136484928Y-75053059D01*
X136501737Y-75095515D01*
X136505520Y-75106563D01*
X136518256Y-75150400D01*
X136529061Y-75168670D01*
X136537621Y-75186143D01*
X136545432Y-75205871D01*
X136550297Y-75212567D01*
X136572267Y-75242808D01*
X136578673Y-75252560D01*
X136601919Y-75291865D01*
X136601921Y-75291867D01*
X136616925Y-75306871D01*
X136629562Y-75321667D01*
X136641084Y-75337525D01*
X136642037Y-75338837D01*
X136677212Y-75367936D01*
X136685854Y-75375800D01*
X139179564Y-77869510D01*
X139192912Y-77886169D01*
X139245831Y-77935864D01*
X139248628Y-77938575D01*
X139268961Y-77958908D01*
X139272442Y-77961608D01*
X139281328Y-77969197D01*
X139314607Y-78000448D01*
X139333206Y-78010673D01*
X139349466Y-78021354D01*
X139366236Y-78034362D01*
X139386046Y-78042934D01*
X139408129Y-78052491D01*
X139418620Y-78057630D01*
X139458632Y-78079627D01*
X139479196Y-78084906D01*
X139497601Y-78091208D01*
X139517074Y-78099635D01*
X139562171Y-78106777D01*
X139573586Y-78109141D01*
X139617823Y-78120500D01*
X139639045Y-78120500D01*
X139658444Y-78122027D01*
X139660799Y-78122399D01*
X139679405Y-78125347D01*
X139721319Y-78121384D01*
X139724861Y-78121050D01*
X139736530Y-78120500D01*
X155889192Y-78120500D01*
X155936645Y-78129939D01*
X155976873Y-78156819D01*
X157093181Y-79273127D01*
X157120061Y-79313355D01*
X157129500Y-79360808D01*
X157129500Y-80316713D01*
X157113829Y-80377052D01*
X157070777Y-80422140D01*
X157053437Y-80432876D01*
X156889019Y-80582762D01*
X156754941Y-80760311D01*
X156655769Y-80959473D01*
X156594885Y-81173462D01*
X156574357Y-81394999D01*
X156594885Y-81616537D01*
X156655769Y-81830526D01*
X156754941Y-82029688D01*
X156889019Y-82207237D01*
X157053437Y-82357124D01*
X157242595Y-82474245D01*
X157242597Y-82474245D01*
X157242599Y-82474247D01*
X157450060Y-82554618D01*
X157668757Y-82595500D01*
X157891241Y-82595500D01*
X157891243Y-82595500D01*
X158109940Y-82554618D01*
X158150280Y-82538989D01*
X158216731Y-82532522D01*
X158276904Y-82561450D01*
X158313354Y-82617389D01*
X158315513Y-82684120D01*
X158282755Y-82742297D01*
X158080105Y-82944947D01*
X158029104Y-82975717D01*
X157969639Y-82979154D01*
X157891243Y-82964500D01*
X157668757Y-82964500D01*
X157470634Y-83001536D01*
X157450060Y-83005382D01*
X157242595Y-83085754D01*
X157053437Y-83202875D01*
X156889019Y-83352762D01*
X156754941Y-83530311D01*
X156655769Y-83729473D01*
X156594885Y-83943462D01*
X156574357Y-84165000D01*
X156594885Y-84386537D01*
X156655769Y-84600526D01*
X156754941Y-84799688D01*
X156889019Y-84977237D01*
X157053437Y-85127124D01*
X157242595Y-85244245D01*
X157242597Y-85244245D01*
X157242599Y-85244247D01*
X157450060Y-85324618D01*
X157668757Y-85365500D01*
X157891241Y-85365500D01*
X157891243Y-85365500D01*
X158109940Y-85324618D01*
X158317401Y-85244247D01*
X158506562Y-85127124D01*
X158670981Y-84977236D01*
X158805058Y-84799689D01*
X158904229Y-84600528D01*
X158965115Y-84386536D01*
X158985643Y-84165000D01*
X158966785Y-83961489D01*
X158973626Y-83907939D01*
X159002573Y-83862371D01*
X160419513Y-82445431D01*
X160436162Y-82432094D01*
X160437936Y-82430204D01*
X160437940Y-82430202D01*
X160485898Y-82379130D01*
X160488546Y-82376398D01*
X160508911Y-82356035D01*
X160511611Y-82352552D01*
X160519187Y-82343681D01*
X160550448Y-82310393D01*
X160560675Y-82291787D01*
X160571348Y-82275539D01*
X160584362Y-82258764D01*
X160602495Y-82216857D01*
X160607625Y-82206387D01*
X160629627Y-82166368D01*
X160634903Y-82145813D01*
X160641206Y-82127402D01*
X160649635Y-82107927D01*
X160656777Y-82062825D01*
X160659140Y-82051418D01*
X160670500Y-82007177D01*
X160670500Y-81985949D01*
X160672027Y-81966550D01*
X160675346Y-81945595D01*
X160671050Y-81900145D01*
X160670500Y-81888476D01*
X160670500Y-78825504D01*
X160672841Y-78804294D01*
X160670561Y-78731737D01*
X160670500Y-78727842D01*
X160670500Y-78699081D01*
X160670500Y-78699075D01*
X160669946Y-78694695D01*
X160669030Y-78683054D01*
X160669012Y-78682467D01*
X160667597Y-78637430D01*
X160661675Y-78617047D01*
X160657732Y-78598010D01*
X160655071Y-78576942D01*
X160638266Y-78534498D01*
X160634481Y-78523444D01*
X160621744Y-78479602D01*
X160621744Y-78479601D01*
X160610934Y-78461322D01*
X160602380Y-78443862D01*
X160594568Y-78424129D01*
X160567723Y-78387180D01*
X160561332Y-78377451D01*
X160538081Y-78338135D01*
X160523068Y-78323122D01*
X160510435Y-78308330D01*
X160497963Y-78291163D01*
X160462779Y-78262056D01*
X160454140Y-78254194D01*
X158000434Y-75800488D01*
X157987091Y-75783833D01*
X157934166Y-75734134D01*
X157931369Y-75731423D01*
X157911034Y-75711088D01*
X157907547Y-75708383D01*
X157898671Y-75700801D01*
X157865394Y-75669552D01*
X157846793Y-75659326D01*
X157830532Y-75648645D01*
X157813764Y-75635638D01*
X157771870Y-75617508D01*
X157761379Y-75612369D01*
X157721367Y-75590372D01*
X157700800Y-75585091D01*
X157682398Y-75578791D01*
X157662924Y-75570364D01*
X157617837Y-75563223D01*
X157606398Y-75560854D01*
X157562178Y-75549500D01*
X157562177Y-75549500D01*
X157540955Y-75549500D01*
X157521556Y-75547973D01*
X157500596Y-75544653D01*
X157500595Y-75544653D01*
X157478558Y-75546736D01*
X157455139Y-75548950D01*
X157443470Y-75549500D01*
X157217905Y-75549500D01*
X157152783Y-75531023D01*
X157107069Y-75481100D01*
X157094384Y-75414607D01*
X157118511Y-75351360D01*
X157172257Y-75310208D01*
X157264281Y-75273773D01*
X157384104Y-75226332D01*
X157648795Y-75080816D01*
X157683619Y-75055515D01*
X157893160Y-74903276D01*
X157946699Y-74852999D01*
X158113349Y-74696504D01*
X158305885Y-74463768D01*
X158467733Y-74208736D01*
X158596341Y-73935430D01*
X158689681Y-73648160D01*
X158746280Y-73351457D01*
X158765246Y-73050000D01*
X158746280Y-72748543D01*
X158689681Y-72451840D01*
X158682378Y-72429365D01*
X158596341Y-72164571D01*
X158467731Y-71891260D01*
X158393440Y-71774197D01*
X158305885Y-71636232D01*
X158113349Y-71403496D01*
X157893160Y-71196723D01*
X157648795Y-71019183D01*
X157384102Y-70873667D01*
X157103262Y-70762474D01*
X156810700Y-70687358D01*
X156511028Y-70649500D01*
X156511027Y-70649500D01*
X156208973Y-70649500D01*
X156208972Y-70649500D01*
X155909299Y-70687358D01*
X155616737Y-70762474D01*
X155335897Y-70873667D01*
X155071204Y-71019183D01*
X154826839Y-71196723D01*
X154606650Y-71403496D01*
X154414114Y-71636233D01*
X154252268Y-71891260D01*
X154123658Y-72164571D01*
X154030319Y-72451836D01*
X153973719Y-72748547D01*
X153954753Y-73049999D01*
X153973719Y-73351452D01*
X154030319Y-73648163D01*
X154123658Y-73935428D01*
X154252268Y-74208739D01*
X154329075Y-74329766D01*
X154414115Y-74463768D01*
X154564372Y-74645397D01*
X154606650Y-74696503D01*
X154826839Y-74903276D01*
X155071204Y-75080816D01*
X155335894Y-75226331D01*
X155335896Y-75226332D01*
X155438286Y-75266871D01*
X155547743Y-75310208D01*
X155601489Y-75351360D01*
X155625616Y-75414607D01*
X155612931Y-75481100D01*
X155567217Y-75531023D01*
X155502095Y-75549500D01*
X141290808Y-75549500D01*
X141243355Y-75540061D01*
X141203127Y-75513181D01*
X140520575Y-74830629D01*
X140489231Y-74777721D01*
X140487162Y-74716260D01*
X140514875Y-74661364D01*
X140635765Y-74522996D01*
X140673786Y-74459360D01*
X140706082Y-74405304D01*
X140754110Y-74359526D01*
X140818864Y-74345064D01*
X140881805Y-74366058D01*
X140924912Y-74416497D01*
X140946400Y-74462578D01*
X141081890Y-74656078D01*
X141248918Y-74823106D01*
X141442423Y-74958600D01*
X141656507Y-75058430D01*
X141869999Y-75115635D01*
X141870000Y-75115636D01*
X141870000Y-73910000D01*
X142370000Y-73910000D01*
X142370000Y-75115635D01*
X142583492Y-75058430D01*
X142797578Y-74958599D01*
X142991078Y-74823109D01*
X143158109Y-74656078D01*
X143293599Y-74462578D01*
X143393430Y-74248492D01*
X143454569Y-74020318D01*
X143464221Y-73910000D01*
X142370000Y-73910000D01*
X141870000Y-73910000D01*
X141870000Y-72204364D01*
X142370000Y-72204364D01*
X142370000Y-73410000D01*
X143464222Y-73410000D01*
X143464221Y-73409999D01*
X143454569Y-73299681D01*
X143393430Y-73071507D01*
X143293599Y-72857421D01*
X143158109Y-72663921D01*
X142991081Y-72496893D01*
X142797576Y-72361399D01*
X142583492Y-72261569D01*
X142370000Y-72204364D01*
X141870000Y-72204364D01*
X141869999Y-72204364D01*
X141656507Y-72261569D01*
X141442421Y-72361400D01*
X141248921Y-72496890D01*
X141081890Y-72663921D01*
X140946400Y-72857421D01*
X140926732Y-72899600D01*
X140881300Y-72951568D01*
X140815122Y-72971193D01*
X140748705Y-72952394D01*
X140702630Y-72900996D01*
X140697829Y-72891027D01*
X140668915Y-72851230D01*
X140565522Y-72708922D01*
X140402825Y-72553368D01*
X140402822Y-72553366D01*
X140402821Y-72553365D01*
X140214968Y-72429365D01*
X140007987Y-72340896D01*
X139788537Y-72290809D01*
X139563671Y-72280709D01*
X139340611Y-72310925D01*
X139126537Y-72380482D01*
X139058826Y-72416919D01*
X138928319Y-72487148D01*
X138928317Y-72487149D01*
X138928318Y-72487149D01*
X138752335Y-72627490D01*
X138604233Y-72797006D01*
X138488782Y-72990239D01*
X138484211Y-73002420D01*
X138452187Y-73050000D01*
X138402178Y-73078079D01*
X138344883Y-73080651D01*
X138292559Y-73057167D01*
X138256399Y-73012649D01*
X138197829Y-72891027D01*
X138168915Y-72851230D01*
X138065522Y-72708922D01*
X137902825Y-72553368D01*
X137902822Y-72553366D01*
X137902821Y-72553365D01*
X137714968Y-72429365D01*
X137507987Y-72340896D01*
X137288537Y-72290809D01*
X137063671Y-72280709D01*
X136840611Y-72310925D01*
X136626537Y-72380482D01*
X136558826Y-72416919D01*
X136428319Y-72487148D01*
X136428317Y-72487149D01*
X136428318Y-72487149D01*
X136252335Y-72627490D01*
X136104233Y-72797006D01*
X136084162Y-72830599D01*
X136044438Y-72871516D01*
X135990602Y-72890327D01*
X135934040Y-72883052D01*
X135886716Y-72851230D01*
X135858639Y-72801593D01*
X135821744Y-72674602D01*
X135793882Y-72627490D01*
X135738081Y-72533135D01*
X135621865Y-72416919D01*
X135560253Y-72380482D01*
X135480397Y-72333255D01*
X135322572Y-72287402D01*
X135300444Y-72285660D01*
X135285694Y-72284500D01*
X133954306Y-72284500D01*
X133942014Y-72285467D01*
X133917427Y-72287402D01*
X133759602Y-72333255D01*
X133618134Y-72416919D01*
X133501919Y-72533134D01*
X133418255Y-72674602D01*
X133372402Y-72832427D01*
X133369500Y-72869308D01*
X133369500Y-74450692D01*
X133372402Y-74487572D01*
X133418255Y-74645397D01*
X133473722Y-74739186D01*
X133501919Y-74786865D01*
X133618135Y-74903081D01*
X133692297Y-74946940D01*
X133759602Y-74986744D01*
X133880095Y-75021751D01*
X133926524Y-75046960D01*
X133958245Y-75089208D01*
X133969500Y-75140827D01*
X133969500Y-80505500D01*
X133952887Y-80567500D01*
X133907500Y-80612887D01*
X133845500Y-80629500D01*
X118195504Y-80629500D01*
X118174294Y-80627158D01*
X118101737Y-80629439D01*
X118097842Y-80629500D01*
X118069071Y-80629500D01*
X118064690Y-80630053D01*
X118053059Y-80630968D01*
X118007430Y-80632402D01*
X117987051Y-80638323D01*
X117968007Y-80642267D01*
X117953639Y-80644082D01*
X117946941Y-80644929D01*
X117904490Y-80661736D01*
X117893443Y-80665518D01*
X117849598Y-80678256D01*
X117831330Y-80689060D01*
X117813864Y-80697617D01*
X117794129Y-80705431D01*
X117757202Y-80732260D01*
X117747442Y-80738671D01*
X117708136Y-80761917D01*
X117693125Y-80776928D01*
X117678336Y-80789558D01*
X117661164Y-80802034D01*
X117632057Y-80837218D01*
X117624196Y-80845856D01*
X116440484Y-82029568D01*
X116423831Y-82042910D01*
X116374133Y-82095833D01*
X116371427Y-82098626D01*
X116351083Y-82118971D01*
X116348376Y-82122460D01*
X116340807Y-82131321D01*
X116309551Y-82164607D01*
X116299322Y-82183212D01*
X116288645Y-82199467D01*
X116275636Y-82216238D01*
X116257506Y-82258132D01*
X116252370Y-82268616D01*
X116230372Y-82308632D01*
X116225091Y-82329199D01*
X116218791Y-82347600D01*
X116210364Y-82367074D01*
X116203223Y-82412161D01*
X116200855Y-82423593D01*
X116198674Y-82432094D01*
X116189500Y-82467824D01*
X116189500Y-82489045D01*
X116187973Y-82508444D01*
X116184653Y-82529403D01*
X116188950Y-82574861D01*
X116189500Y-82586530D01*
X116189500Y-83095794D01*
X116178245Y-83147413D01*
X116146524Y-83189661D01*
X116100095Y-83214870D01*
X116019602Y-83238255D01*
X115878134Y-83321919D01*
X115761919Y-83438134D01*
X115678255Y-83579602D01*
X115632402Y-83737427D01*
X115629500Y-83774308D01*
X115629500Y-85355692D01*
X110490500Y-85355692D01*
X110490500Y-68704500D01*
X110507113Y-68642500D01*
X110552500Y-68597113D01*
X110614500Y-68580500D01*
X166245500Y-68580500D01*
X166307500Y-68597113D01*
G37*
G04 #@! TD.AperFunction*
M02*
