G04 #@! TF.GenerationSoftware,KiCad,Pcbnew,7.0.1*
G04 #@! TF.CreationDate,2023-03-23T13:10:05+01:00*
G04 #@! TF.ProjectId,BMS_Ctrl_DE-9_Adaptor,424d535f-4374-4726-9c5f-44452d395f41,rev?*
G04 #@! TF.SameCoordinates,Original*
G04 #@! TF.FileFunction,Copper,L1,Top*
G04 #@! TF.FilePolarity,Positive*
%FSLAX46Y46*%
G04 Gerber Fmt 4.6, Leading zero omitted, Abs format (unit mm)*
G04 Created by KiCad (PCBNEW 7.0.1) date 2023-03-23 13:10:05*
%MOMM*%
%LPD*%
G01*
G04 APERTURE LIST*
G04 Aperture macros list*
%AMRoundRect*
0 Rectangle with rounded corners*
0 $1 Rounding radius*
0 $2 $3 $4 $5 $6 $7 $8 $9 X,Y pos of 4 corners*
0 Add a 4 corners polygon primitive as box body*
4,1,4,$2,$3,$4,$5,$6,$7,$8,$9,$2,$3,0*
0 Add four circle primitives for the rounded corners*
1,1,$1+$1,$2,$3*
1,1,$1+$1,$4,$5*
1,1,$1+$1,$6,$7*
1,1,$1+$1,$8,$9*
0 Add four rect primitives between the rounded corners*
20,1,$1+$1,$2,$3,$4,$5,0*
20,1,$1+$1,$4,$5,$6,$7,0*
20,1,$1+$1,$6,$7,$8,$9,0*
20,1,$1+$1,$8,$9,$2,$3,0*%
G04 Aperture macros list end*
%ADD10C,0.300000*%
G04 #@! TA.AperFunction,NonConductor*
%ADD11C,0.300000*%
G04 #@! TD*
G04 #@! TA.AperFunction,ComponentPad*
%ADD12C,4.000000*%
G04 #@! TD*
G04 #@! TA.AperFunction,ComponentPad*
%ADD13R,1.600000X1.600000*%
G04 #@! TD*
G04 #@! TA.AperFunction,ComponentPad*
%ADD14C,1.600000*%
G04 #@! TD*
G04 #@! TA.AperFunction,ComponentPad*
%ADD15RoundRect,0.250000X-0.600000X-0.725000X0.600000X-0.725000X0.600000X0.725000X-0.600000X0.725000X0*%
G04 #@! TD*
G04 #@! TA.AperFunction,ComponentPad*
%ADD16O,1.700000X1.950000*%
G04 #@! TD*
G04 #@! TA.AperFunction,ComponentPad*
%ADD17O,1.600000X1.600000*%
G04 #@! TD*
G04 #@! TA.AperFunction,ComponentPad*
%ADD18R,1.700000X1.700000*%
G04 #@! TD*
G04 #@! TA.AperFunction,ComponentPad*
%ADD19O,1.700000X1.700000*%
G04 #@! TD*
G04 #@! TA.AperFunction,ComponentPad*
%ADD20RoundRect,0.250000X-0.600000X-0.750000X0.600000X-0.750000X0.600000X0.750000X-0.600000X0.750000X0*%
G04 #@! TD*
G04 #@! TA.AperFunction,ComponentPad*
%ADD21O,1.700000X2.000000*%
G04 #@! TD*
G04 APERTURE END LIST*
D10*
D11*
X112117142Y-76864714D02*
X112617142Y-76864714D01*
X112831428Y-77650428D02*
X112117142Y-77650428D01*
X112117142Y-77650428D02*
X112117142Y-76150428D01*
X112117142Y-76150428D02*
X112831428Y-76150428D01*
X113402857Y-77579000D02*
X113617143Y-77650428D01*
X113617143Y-77650428D02*
X113974285Y-77650428D01*
X113974285Y-77650428D02*
X114117143Y-77579000D01*
X114117143Y-77579000D02*
X114188571Y-77507571D01*
X114188571Y-77507571D02*
X114260000Y-77364714D01*
X114260000Y-77364714D02*
X114260000Y-77221857D01*
X114260000Y-77221857D02*
X114188571Y-77079000D01*
X114188571Y-77079000D02*
X114117143Y-77007571D01*
X114117143Y-77007571D02*
X113974285Y-76936142D01*
X113974285Y-76936142D02*
X113688571Y-76864714D01*
X113688571Y-76864714D02*
X113545714Y-76793285D01*
X113545714Y-76793285D02*
X113474285Y-76721857D01*
X113474285Y-76721857D02*
X113402857Y-76579000D01*
X113402857Y-76579000D02*
X113402857Y-76436142D01*
X113402857Y-76436142D02*
X113474285Y-76293285D01*
X113474285Y-76293285D02*
X113545714Y-76221857D01*
X113545714Y-76221857D02*
X113688571Y-76150428D01*
X113688571Y-76150428D02*
X114045714Y-76150428D01*
X114045714Y-76150428D02*
X114260000Y-76221857D01*
X114902856Y-77650428D02*
X114902856Y-76150428D01*
X114902856Y-76150428D02*
X115474285Y-76150428D01*
X115474285Y-76150428D02*
X115617142Y-76221857D01*
X115617142Y-76221857D02*
X115688571Y-76293285D01*
X115688571Y-76293285D02*
X115759999Y-76436142D01*
X115759999Y-76436142D02*
X115759999Y-76650428D01*
X115759999Y-76650428D02*
X115688571Y-76793285D01*
X115688571Y-76793285D02*
X115617142Y-76864714D01*
X115617142Y-76864714D02*
X115474285Y-76936142D01*
X115474285Y-76936142D02*
X114902856Y-76936142D01*
X116259999Y-76150428D02*
X117188571Y-76150428D01*
X117188571Y-76150428D02*
X116688571Y-76721857D01*
X116688571Y-76721857D02*
X116902856Y-76721857D01*
X116902856Y-76721857D02*
X117045714Y-76793285D01*
X117045714Y-76793285D02*
X117117142Y-76864714D01*
X117117142Y-76864714D02*
X117188571Y-77007571D01*
X117188571Y-77007571D02*
X117188571Y-77364714D01*
X117188571Y-77364714D02*
X117117142Y-77507571D01*
X117117142Y-77507571D02*
X117045714Y-77579000D01*
X117045714Y-77579000D02*
X116902856Y-77650428D01*
X116902856Y-77650428D02*
X116474285Y-77650428D01*
X116474285Y-77650428D02*
X116331428Y-77579000D01*
X116331428Y-77579000D02*
X116259999Y-77507571D01*
X117759999Y-76293285D02*
X117831427Y-76221857D01*
X117831427Y-76221857D02*
X117974285Y-76150428D01*
X117974285Y-76150428D02*
X118331427Y-76150428D01*
X118331427Y-76150428D02*
X118474285Y-76221857D01*
X118474285Y-76221857D02*
X118545713Y-76293285D01*
X118545713Y-76293285D02*
X118617142Y-76436142D01*
X118617142Y-76436142D02*
X118617142Y-76579000D01*
X118617142Y-76579000D02*
X118545713Y-76793285D01*
X118545713Y-76793285D02*
X117688570Y-77650428D01*
X117688570Y-77650428D02*
X118617142Y-77650428D01*
X119259998Y-77079000D02*
X120402856Y-77079000D01*
X121617141Y-76864714D02*
X121831427Y-76936142D01*
X121831427Y-76936142D02*
X121902856Y-77007571D01*
X121902856Y-77007571D02*
X121974284Y-77150428D01*
X121974284Y-77150428D02*
X121974284Y-77364714D01*
X121974284Y-77364714D02*
X121902856Y-77507571D01*
X121902856Y-77507571D02*
X121831427Y-77579000D01*
X121831427Y-77579000D02*
X121688570Y-77650428D01*
X121688570Y-77650428D02*
X121117141Y-77650428D01*
X121117141Y-77650428D02*
X121117141Y-76150428D01*
X121117141Y-76150428D02*
X121617141Y-76150428D01*
X121617141Y-76150428D02*
X121759999Y-76221857D01*
X121759999Y-76221857D02*
X121831427Y-76293285D01*
X121831427Y-76293285D02*
X121902856Y-76436142D01*
X121902856Y-76436142D02*
X121902856Y-76579000D01*
X121902856Y-76579000D02*
X121831427Y-76721857D01*
X121831427Y-76721857D02*
X121759999Y-76793285D01*
X121759999Y-76793285D02*
X121617141Y-76864714D01*
X121617141Y-76864714D02*
X121117141Y-76864714D01*
X122617141Y-77650428D02*
X122617141Y-76150428D01*
X122617141Y-76150428D02*
X123117141Y-77221857D01*
X123117141Y-77221857D02*
X123617141Y-76150428D01*
X123617141Y-76150428D02*
X123617141Y-77650428D01*
X124259999Y-77579000D02*
X124474285Y-77650428D01*
X124474285Y-77650428D02*
X124831427Y-77650428D01*
X124831427Y-77650428D02*
X124974285Y-77579000D01*
X124974285Y-77579000D02*
X125045713Y-77507571D01*
X125045713Y-77507571D02*
X125117142Y-77364714D01*
X125117142Y-77364714D02*
X125117142Y-77221857D01*
X125117142Y-77221857D02*
X125045713Y-77079000D01*
X125045713Y-77079000D02*
X124974285Y-77007571D01*
X124974285Y-77007571D02*
X124831427Y-76936142D01*
X124831427Y-76936142D02*
X124545713Y-76864714D01*
X124545713Y-76864714D02*
X124402856Y-76793285D01*
X124402856Y-76793285D02*
X124331427Y-76721857D01*
X124331427Y-76721857D02*
X124259999Y-76579000D01*
X124259999Y-76579000D02*
X124259999Y-76436142D01*
X124259999Y-76436142D02*
X124331427Y-76293285D01*
X124331427Y-76293285D02*
X124402856Y-76221857D01*
X124402856Y-76221857D02*
X124545713Y-76150428D01*
X124545713Y-76150428D02*
X124902856Y-76150428D01*
X124902856Y-76150428D02*
X125117142Y-76221857D01*
X125402856Y-77793285D02*
X126545713Y-77793285D01*
X127759998Y-77507571D02*
X127688570Y-77579000D01*
X127688570Y-77579000D02*
X127474284Y-77650428D01*
X127474284Y-77650428D02*
X127331427Y-77650428D01*
X127331427Y-77650428D02*
X127117141Y-77579000D01*
X127117141Y-77579000D02*
X126974284Y-77436142D01*
X126974284Y-77436142D02*
X126902855Y-77293285D01*
X126902855Y-77293285D02*
X126831427Y-77007571D01*
X126831427Y-77007571D02*
X126831427Y-76793285D01*
X126831427Y-76793285D02*
X126902855Y-76507571D01*
X126902855Y-76507571D02*
X126974284Y-76364714D01*
X126974284Y-76364714D02*
X127117141Y-76221857D01*
X127117141Y-76221857D02*
X127331427Y-76150428D01*
X127331427Y-76150428D02*
X127474284Y-76150428D01*
X127474284Y-76150428D02*
X127688570Y-76221857D01*
X127688570Y-76221857D02*
X127759998Y-76293285D01*
X128188570Y-76650428D02*
X128759998Y-76650428D01*
X128402855Y-76150428D02*
X128402855Y-77436142D01*
X128402855Y-77436142D02*
X128474284Y-77579000D01*
X128474284Y-77579000D02*
X128617141Y-77650428D01*
X128617141Y-77650428D02*
X128759998Y-77650428D01*
X129259998Y-77650428D02*
X129259998Y-76650428D01*
X129259998Y-76936142D02*
X129331427Y-76793285D01*
X129331427Y-76793285D02*
X129402856Y-76721857D01*
X129402856Y-76721857D02*
X129545713Y-76650428D01*
X129545713Y-76650428D02*
X129688570Y-76650428D01*
X130402855Y-77650428D02*
X130259998Y-77579000D01*
X130259998Y-77579000D02*
X130188569Y-77436142D01*
X130188569Y-77436142D02*
X130188569Y-76150428D01*
X112117142Y-80080428D02*
X112117142Y-78580428D01*
X112117142Y-78580428D02*
X112474285Y-78580428D01*
X112474285Y-78580428D02*
X112688571Y-78651857D01*
X112688571Y-78651857D02*
X112831428Y-78794714D01*
X112831428Y-78794714D02*
X112902857Y-78937571D01*
X112902857Y-78937571D02*
X112974285Y-79223285D01*
X112974285Y-79223285D02*
X112974285Y-79437571D01*
X112974285Y-79437571D02*
X112902857Y-79723285D01*
X112902857Y-79723285D02*
X112831428Y-79866142D01*
X112831428Y-79866142D02*
X112688571Y-80009000D01*
X112688571Y-80009000D02*
X112474285Y-80080428D01*
X112474285Y-80080428D02*
X112117142Y-80080428D01*
X113617142Y-79509000D02*
X114760000Y-79509000D01*
X115402857Y-80009000D02*
X115617143Y-80080428D01*
X115617143Y-80080428D02*
X115974285Y-80080428D01*
X115974285Y-80080428D02*
X116117143Y-80009000D01*
X116117143Y-80009000D02*
X116188571Y-79937571D01*
X116188571Y-79937571D02*
X116260000Y-79794714D01*
X116260000Y-79794714D02*
X116260000Y-79651857D01*
X116260000Y-79651857D02*
X116188571Y-79509000D01*
X116188571Y-79509000D02*
X116117143Y-79437571D01*
X116117143Y-79437571D02*
X115974285Y-79366142D01*
X115974285Y-79366142D02*
X115688571Y-79294714D01*
X115688571Y-79294714D02*
X115545714Y-79223285D01*
X115545714Y-79223285D02*
X115474285Y-79151857D01*
X115474285Y-79151857D02*
X115402857Y-79009000D01*
X115402857Y-79009000D02*
X115402857Y-78866142D01*
X115402857Y-78866142D02*
X115474285Y-78723285D01*
X115474285Y-78723285D02*
X115545714Y-78651857D01*
X115545714Y-78651857D02*
X115688571Y-78580428D01*
X115688571Y-78580428D02*
X116045714Y-78580428D01*
X116045714Y-78580428D02*
X116260000Y-78651857D01*
X116902856Y-78580428D02*
X116902856Y-79794714D01*
X116902856Y-79794714D02*
X116974285Y-79937571D01*
X116974285Y-79937571D02*
X117045714Y-80009000D01*
X117045714Y-80009000D02*
X117188571Y-80080428D01*
X117188571Y-80080428D02*
X117474285Y-80080428D01*
X117474285Y-80080428D02*
X117617142Y-80009000D01*
X117617142Y-80009000D02*
X117688571Y-79937571D01*
X117688571Y-79937571D02*
X117759999Y-79794714D01*
X117759999Y-79794714D02*
X117759999Y-78580428D01*
X118974285Y-79294714D02*
X119188571Y-79366142D01*
X119188571Y-79366142D02*
X119260000Y-79437571D01*
X119260000Y-79437571D02*
X119331428Y-79580428D01*
X119331428Y-79580428D02*
X119331428Y-79794714D01*
X119331428Y-79794714D02*
X119260000Y-79937571D01*
X119260000Y-79937571D02*
X119188571Y-80009000D01*
X119188571Y-80009000D02*
X119045714Y-80080428D01*
X119045714Y-80080428D02*
X118474285Y-80080428D01*
X118474285Y-80080428D02*
X118474285Y-78580428D01*
X118474285Y-78580428D02*
X118974285Y-78580428D01*
X118974285Y-78580428D02*
X119117143Y-78651857D01*
X119117143Y-78651857D02*
X119188571Y-78723285D01*
X119188571Y-78723285D02*
X119260000Y-78866142D01*
X119260000Y-78866142D02*
X119260000Y-79009000D01*
X119260000Y-79009000D02*
X119188571Y-79151857D01*
X119188571Y-79151857D02*
X119117143Y-79223285D01*
X119117143Y-79223285D02*
X118974285Y-79294714D01*
X118974285Y-79294714D02*
X118474285Y-79294714D01*
X121045714Y-79651857D02*
X121760000Y-79651857D01*
X120902857Y-80080428D02*
X121402857Y-78580428D01*
X121402857Y-78580428D02*
X121902857Y-80080428D01*
X123045714Y-80080428D02*
X123045714Y-78580428D01*
X123045714Y-80009000D02*
X122902856Y-80080428D01*
X122902856Y-80080428D02*
X122617142Y-80080428D01*
X122617142Y-80080428D02*
X122474285Y-80009000D01*
X122474285Y-80009000D02*
X122402856Y-79937571D01*
X122402856Y-79937571D02*
X122331428Y-79794714D01*
X122331428Y-79794714D02*
X122331428Y-79366142D01*
X122331428Y-79366142D02*
X122402856Y-79223285D01*
X122402856Y-79223285D02*
X122474285Y-79151857D01*
X122474285Y-79151857D02*
X122617142Y-79080428D01*
X122617142Y-79080428D02*
X122902856Y-79080428D01*
X122902856Y-79080428D02*
X123045714Y-79151857D01*
X124402857Y-80080428D02*
X124402857Y-79294714D01*
X124402857Y-79294714D02*
X124331428Y-79151857D01*
X124331428Y-79151857D02*
X124188571Y-79080428D01*
X124188571Y-79080428D02*
X123902857Y-79080428D01*
X123902857Y-79080428D02*
X123759999Y-79151857D01*
X124402857Y-80009000D02*
X124259999Y-80080428D01*
X124259999Y-80080428D02*
X123902857Y-80080428D01*
X123902857Y-80080428D02*
X123759999Y-80009000D01*
X123759999Y-80009000D02*
X123688571Y-79866142D01*
X123688571Y-79866142D02*
X123688571Y-79723285D01*
X123688571Y-79723285D02*
X123759999Y-79580428D01*
X123759999Y-79580428D02*
X123902857Y-79509000D01*
X123902857Y-79509000D02*
X124259999Y-79509000D01*
X124259999Y-79509000D02*
X124402857Y-79437571D01*
X125117142Y-79080428D02*
X125117142Y-80580428D01*
X125117142Y-79151857D02*
X125260000Y-79080428D01*
X125260000Y-79080428D02*
X125545714Y-79080428D01*
X125545714Y-79080428D02*
X125688571Y-79151857D01*
X125688571Y-79151857D02*
X125760000Y-79223285D01*
X125760000Y-79223285D02*
X125831428Y-79366142D01*
X125831428Y-79366142D02*
X125831428Y-79794714D01*
X125831428Y-79794714D02*
X125760000Y-79937571D01*
X125760000Y-79937571D02*
X125688571Y-80009000D01*
X125688571Y-80009000D02*
X125545714Y-80080428D01*
X125545714Y-80080428D02*
X125260000Y-80080428D01*
X125260000Y-80080428D02*
X125117142Y-80009000D01*
X126260000Y-79080428D02*
X126831428Y-79080428D01*
X126474285Y-78580428D02*
X126474285Y-79866142D01*
X126474285Y-79866142D02*
X126545714Y-80009000D01*
X126545714Y-80009000D02*
X126688571Y-80080428D01*
X126688571Y-80080428D02*
X126831428Y-80080428D01*
X127545714Y-80080428D02*
X127402857Y-80009000D01*
X127402857Y-80009000D02*
X127331428Y-79937571D01*
X127331428Y-79937571D02*
X127260000Y-79794714D01*
X127260000Y-79794714D02*
X127260000Y-79366142D01*
X127260000Y-79366142D02*
X127331428Y-79223285D01*
X127331428Y-79223285D02*
X127402857Y-79151857D01*
X127402857Y-79151857D02*
X127545714Y-79080428D01*
X127545714Y-79080428D02*
X127760000Y-79080428D01*
X127760000Y-79080428D02*
X127902857Y-79151857D01*
X127902857Y-79151857D02*
X127974286Y-79223285D01*
X127974286Y-79223285D02*
X128045714Y-79366142D01*
X128045714Y-79366142D02*
X128045714Y-79794714D01*
X128045714Y-79794714D02*
X127974286Y-79937571D01*
X127974286Y-79937571D02*
X127902857Y-80009000D01*
X127902857Y-80009000D02*
X127760000Y-80080428D01*
X127760000Y-80080428D02*
X127545714Y-80080428D01*
X128688571Y-80080428D02*
X128688571Y-79080428D01*
X128688571Y-79366142D02*
X128760000Y-79223285D01*
X128760000Y-79223285D02*
X128831429Y-79151857D01*
X128831429Y-79151857D02*
X128974286Y-79080428D01*
X128974286Y-79080428D02*
X129117143Y-79080428D01*
X130617142Y-79080428D02*
X130974285Y-80080428D01*
X130974285Y-80080428D02*
X131331428Y-79080428D01*
X132688571Y-80080428D02*
X131831428Y-80080428D01*
X132259999Y-80080428D02*
X132259999Y-78580428D01*
X132259999Y-78580428D02*
X132117142Y-78794714D01*
X132117142Y-78794714D02*
X131974285Y-78937571D01*
X131974285Y-78937571D02*
X131831428Y-79009000D01*
X133331427Y-79937571D02*
X133402856Y-80009000D01*
X133402856Y-80009000D02*
X133331427Y-80080428D01*
X133331427Y-80080428D02*
X133259999Y-80009000D01*
X133259999Y-80009000D02*
X133331427Y-79937571D01*
X133331427Y-79937571D02*
X133331427Y-80080428D01*
X134331428Y-78580428D02*
X134474285Y-78580428D01*
X134474285Y-78580428D02*
X134617142Y-78651857D01*
X134617142Y-78651857D02*
X134688571Y-78723285D01*
X134688571Y-78723285D02*
X134759999Y-78866142D01*
X134759999Y-78866142D02*
X134831428Y-79151857D01*
X134831428Y-79151857D02*
X134831428Y-79509000D01*
X134831428Y-79509000D02*
X134759999Y-79794714D01*
X134759999Y-79794714D02*
X134688571Y-79937571D01*
X134688571Y-79937571D02*
X134617142Y-80009000D01*
X134617142Y-80009000D02*
X134474285Y-80080428D01*
X134474285Y-80080428D02*
X134331428Y-80080428D01*
X134331428Y-80080428D02*
X134188571Y-80009000D01*
X134188571Y-80009000D02*
X134117142Y-79937571D01*
X134117142Y-79937571D02*
X134045713Y-79794714D01*
X134045713Y-79794714D02*
X133974285Y-79509000D01*
X133974285Y-79509000D02*
X133974285Y-79151857D01*
X133974285Y-79151857D02*
X134045713Y-78866142D01*
X134045713Y-78866142D02*
X134117142Y-78723285D01*
X134117142Y-78723285D02*
X134188571Y-78651857D01*
X134188571Y-78651857D02*
X134331428Y-78580428D01*
D12*
X156360000Y-98050000D03*
X156360000Y-73050000D03*
D13*
X154940000Y-91090000D03*
D14*
X154940000Y-88320000D03*
X154940000Y-85550000D03*
X154940000Y-82780000D03*
X154940000Y-80010000D03*
X157780000Y-89705000D03*
X157780000Y-86935000D03*
X157780000Y-84165000D03*
X157780000Y-81395000D03*
D15*
X134660000Y-84565000D03*
D16*
X137160000Y-84565000D03*
X139660000Y-84565000D03*
X142160000Y-84565000D03*
D15*
X116880000Y-84565000D03*
D16*
X119380000Y-84565000D03*
X121880000Y-84565000D03*
X124380000Y-84565000D03*
D15*
X134620000Y-73660000D03*
D16*
X137120000Y-73660000D03*
X139620000Y-73660000D03*
X142120000Y-73660000D03*
D14*
X132080000Y-90170000D03*
D17*
X132080000Y-100330000D03*
D18*
X115570000Y-96520000D03*
D19*
X115570000Y-93980000D03*
X118110000Y-96520000D03*
X118110000Y-93980000D03*
X120650000Y-96520000D03*
X120650000Y-93980000D03*
X123190000Y-96520000D03*
X123190000Y-93980000D03*
X125730000Y-96520000D03*
X125730000Y-93980000D03*
D20*
X139740000Y-95250000D03*
D21*
X142240000Y-95250000D03*
G04 #@! TA.AperFunction,Conductor*
G36*
X166307500Y-68597113D02*
G01*
X166352887Y-68642500D01*
X166369500Y-68704500D01*
X166369500Y-102745500D01*
X166352887Y-102807500D01*
X166307500Y-102852887D01*
X166245500Y-102869500D01*
X110614500Y-102869500D01*
X110552500Y-102852887D01*
X110507113Y-102807500D01*
X110490500Y-102745500D01*
X110490500Y-100330000D01*
X130874357Y-100330000D01*
X130894885Y-100551537D01*
X130955769Y-100765526D01*
X131054941Y-100964688D01*
X131189019Y-101142237D01*
X131353437Y-101292124D01*
X131542595Y-101409245D01*
X131542597Y-101409245D01*
X131542599Y-101409247D01*
X131750060Y-101489618D01*
X131968757Y-101530500D01*
X132191241Y-101530500D01*
X132191243Y-101530500D01*
X132409940Y-101489618D01*
X132617401Y-101409247D01*
X132806562Y-101292124D01*
X132970981Y-101142236D01*
X133105058Y-100964689D01*
X133204229Y-100765528D01*
X133265115Y-100551536D01*
X133285643Y-100330000D01*
X133265115Y-100108464D01*
X133242227Y-100028021D01*
X133204230Y-99894473D01*
X133105058Y-99695311D01*
X132970980Y-99517762D01*
X132806562Y-99367875D01*
X132617404Y-99250754D01*
X132556174Y-99227033D01*
X132409940Y-99170382D01*
X132191243Y-99129500D01*
X131968757Y-99129500D01*
X131750060Y-99170381D01*
X131750060Y-99170382D01*
X131542595Y-99250754D01*
X131353437Y-99367875D01*
X131189019Y-99517762D01*
X131054941Y-99695311D01*
X130955769Y-99894473D01*
X130894885Y-100108462D01*
X130874357Y-100330000D01*
X110490500Y-100330000D01*
X110490500Y-98050000D01*
X153954753Y-98050000D01*
X153973719Y-98351452D01*
X154030319Y-98648163D01*
X154123658Y-98935428D01*
X154252268Y-99208739D01*
X154353260Y-99367876D01*
X154414115Y-99463768D01*
X154566449Y-99647909D01*
X154606650Y-99696503D01*
X154826839Y-99903276D01*
X155071204Y-100080816D01*
X155121496Y-100108464D01*
X155335896Y-100226332D01*
X155476316Y-100281928D01*
X155616737Y-100337525D01*
X155771141Y-100377168D01*
X155909302Y-100412642D01*
X156158314Y-100444100D01*
X156208972Y-100450500D01*
X156208973Y-100450500D01*
X156511027Y-100450500D01*
X156511028Y-100450500D01*
X156554360Y-100445025D01*
X156810698Y-100412642D01*
X157103262Y-100337525D01*
X157384104Y-100226332D01*
X157648795Y-100080816D01*
X157648794Y-100080816D01*
X157893160Y-99903276D01*
X157917079Y-99880814D01*
X158113349Y-99696504D01*
X158305885Y-99463768D01*
X158467733Y-99208736D01*
X158596341Y-98935430D01*
X158689681Y-98648160D01*
X158746280Y-98351457D01*
X158765246Y-98050000D01*
X158746280Y-97748543D01*
X158689681Y-97451840D01*
X158673331Y-97401521D01*
X158624704Y-97251862D01*
X158596341Y-97164570D01*
X158467733Y-96891264D01*
X158467732Y-96891263D01*
X158467731Y-96891260D01*
X158370452Y-96737974D01*
X158305885Y-96636232D01*
X158113349Y-96403496D01*
X158111612Y-96401865D01*
X157893160Y-96196723D01*
X157648795Y-96019183D01*
X157384102Y-95873667D01*
X157103262Y-95762474D01*
X156810700Y-95687358D01*
X156511028Y-95649500D01*
X156511027Y-95649500D01*
X156208973Y-95649500D01*
X156208972Y-95649500D01*
X155909299Y-95687358D01*
X155616737Y-95762474D01*
X155335897Y-95873667D01*
X155071204Y-96019183D01*
X154826839Y-96196723D01*
X154606650Y-96403496D01*
X154414114Y-96636233D01*
X154252268Y-96891260D01*
X154123658Y-97164571D01*
X154030319Y-97451836D01*
X153973719Y-97748547D01*
X153954753Y-98050000D01*
X110490500Y-98050000D01*
X110490500Y-94230000D01*
X114239364Y-94230000D01*
X114296569Y-94443492D01*
X114396399Y-94657576D01*
X114531893Y-94851081D01*
X114698922Y-95018110D01*
X114738384Y-95045742D01*
X114776948Y-95089485D01*
X114791253Y-95146018D01*
X114778135Y-95202839D01*
X114740495Y-95247379D01*
X114686657Y-95269789D01*
X114594697Y-95284353D01*
X114481657Y-95341949D01*
X114391950Y-95431656D01*
X114334353Y-95544697D01*
X114319500Y-95638478D01*
X114319500Y-97401514D01*
X114319501Y-97401518D01*
X114334354Y-97495304D01*
X114334354Y-97495305D01*
X114334355Y-97495306D01*
X114391949Y-97608342D01*
X114481656Y-97698049D01*
X114481658Y-97698050D01*
X114594696Y-97755646D01*
X114688481Y-97770500D01*
X116451518Y-97770499D01*
X116545304Y-97755646D01*
X116658342Y-97698050D01*
X116748050Y-97608342D01*
X116805646Y-97495304D01*
X116820500Y-97401519D01*
X116820499Y-97251858D01*
X116836046Y-97191745D01*
X116878789Y-97146703D01*
X116938009Y-97128031D01*
X116998857Y-97140410D01*
X117046072Y-97180735D01*
X117148402Y-97326877D01*
X117303123Y-97481598D01*
X117482361Y-97607102D01*
X117680670Y-97699575D01*
X117892023Y-97756207D01*
X118110000Y-97775277D01*
X118327977Y-97756207D01*
X118539330Y-97699575D01*
X118737639Y-97607102D01*
X118916877Y-97481598D01*
X119071598Y-97326877D01*
X119197102Y-97147639D01*
X119267617Y-96996417D01*
X119313375Y-96944241D01*
X119380000Y-96924822D01*
X119446625Y-96944241D01*
X119492382Y-96996417D01*
X119562898Y-97147639D01*
X119688402Y-97326877D01*
X119843123Y-97481598D01*
X120022361Y-97607102D01*
X120220670Y-97699575D01*
X120432023Y-97756207D01*
X120650000Y-97775277D01*
X120867977Y-97756207D01*
X121079330Y-97699575D01*
X121277639Y-97607102D01*
X121456877Y-97481598D01*
X121611598Y-97326877D01*
X121737102Y-97147639D01*
X121807617Y-96996417D01*
X121853375Y-96944241D01*
X121920000Y-96924822D01*
X121986625Y-96944241D01*
X122032382Y-96996417D01*
X122102898Y-97147639D01*
X122228402Y-97326877D01*
X122383123Y-97481598D01*
X122562361Y-97607102D01*
X122760670Y-97699575D01*
X122972023Y-97756207D01*
X123190000Y-97775277D01*
X123407977Y-97756207D01*
X123619330Y-97699575D01*
X123817639Y-97607102D01*
X123996877Y-97481598D01*
X124151598Y-97326877D01*
X124277102Y-97147639D01*
X124347617Y-96996417D01*
X124393375Y-96944241D01*
X124460000Y-96924822D01*
X124526625Y-96944241D01*
X124572382Y-96996417D01*
X124642898Y-97147639D01*
X124768402Y-97326877D01*
X124923123Y-97481598D01*
X125102361Y-97607102D01*
X125300670Y-97699575D01*
X125512023Y-97756207D01*
X125730000Y-97775277D01*
X125947977Y-97756207D01*
X126159330Y-97699575D01*
X126357639Y-97607102D01*
X126536877Y-97481598D01*
X126691598Y-97326877D01*
X126817102Y-97147639D01*
X126909575Y-96949330D01*
X126966207Y-96737977D01*
X126985277Y-96520000D01*
X126966207Y-96302023D01*
X126909575Y-96090670D01*
X126897928Y-96065692D01*
X138489500Y-96065692D01*
X138492402Y-96102572D01*
X138538255Y-96260397D01*
X138566117Y-96307509D01*
X138621919Y-96401865D01*
X138738135Y-96518081D01*
X138866682Y-96594103D01*
X138879602Y-96601744D01*
X139037427Y-96647597D01*
X139037431Y-96647598D01*
X139074306Y-96650500D01*
X140405692Y-96650500D01*
X140405694Y-96650500D01*
X140442569Y-96647598D01*
X140600398Y-96601744D01*
X140741865Y-96518081D01*
X140858081Y-96401865D01*
X140941744Y-96260398D01*
X140979009Y-96132131D01*
X141015354Y-96074360D01*
X141076766Y-96044573D01*
X141144637Y-96051797D01*
X141198402Y-96093841D01*
X141204746Y-96102572D01*
X141273152Y-96196726D01*
X141294478Y-96226078D01*
X141457175Y-96381632D01*
X141645032Y-96505635D01*
X141852012Y-96594103D01*
X142071463Y-96644191D01*
X142276998Y-96653421D01*
X142296328Y-96654290D01*
X142296328Y-96654289D01*
X142296330Y-96654290D01*
X142519387Y-96624075D01*
X142733464Y-96554517D01*
X142931681Y-96447852D01*
X143107666Y-96307508D01*
X143255765Y-96137996D01*
X143371215Y-95944764D01*
X143450307Y-95734024D01*
X143490500Y-95512547D01*
X143490500Y-95043845D01*
X143475377Y-94875812D01*
X143415493Y-94658830D01*
X143317829Y-94456027D01*
X143185522Y-94273922D01*
X143022825Y-94118368D01*
X143022822Y-94118366D01*
X143022821Y-94118365D01*
X142834968Y-93994365D01*
X142627987Y-93905896D01*
X142408537Y-93855809D01*
X142183671Y-93845709D01*
X141960611Y-93875925D01*
X141746537Y-93945482D01*
X141678826Y-93981919D01*
X141548319Y-94052148D01*
X141548317Y-94052149D01*
X141548318Y-94052149D01*
X141372335Y-94192490D01*
X141224233Y-94362006D01*
X141204162Y-94395599D01*
X141164438Y-94436516D01*
X141110602Y-94455327D01*
X141054040Y-94448052D01*
X141006716Y-94416230D01*
X140978639Y-94366593D01*
X140941744Y-94239602D01*
X140913882Y-94192490D01*
X140858081Y-94098135D01*
X140741865Y-93981919D01*
X140680253Y-93945482D01*
X140600397Y-93898255D01*
X140442572Y-93852402D01*
X140420444Y-93850660D01*
X140405694Y-93849500D01*
X139074306Y-93849500D01*
X139062014Y-93850467D01*
X139037427Y-93852402D01*
X138879602Y-93898255D01*
X138738134Y-93981919D01*
X138621919Y-94098134D01*
X138538255Y-94239602D01*
X138492402Y-94397427D01*
X138489500Y-94434308D01*
X138489500Y-96065692D01*
X126897928Y-96065692D01*
X126817102Y-95892362D01*
X126691598Y-95713123D01*
X126536877Y-95558402D01*
X126357639Y-95432898D01*
X126324132Y-95417273D01*
X126271958Y-95371516D01*
X126252539Y-95304891D01*
X126271959Y-95238266D01*
X126324135Y-95192509D01*
X126407579Y-95153598D01*
X126601081Y-95018106D01*
X126768106Y-94851081D01*
X126903600Y-94657576D01*
X127003430Y-94443492D01*
X127060636Y-94230000D01*
X114239364Y-94230000D01*
X110490500Y-94230000D01*
X110490500Y-93730000D01*
X114239364Y-93730000D01*
X115320000Y-93730000D01*
X115820000Y-93730000D01*
X117860000Y-93730000D01*
X118360000Y-93730000D01*
X120400000Y-93730000D01*
X120900000Y-93730000D01*
X122940000Y-93730000D01*
X123440000Y-93730000D01*
X125480000Y-93730000D01*
X125480000Y-92649364D01*
X125980000Y-92649364D01*
X125980000Y-93730000D01*
X127060636Y-93730000D01*
X127060635Y-93729999D01*
X127003430Y-93516507D01*
X126903599Y-93302421D01*
X126768109Y-93108921D01*
X126601081Y-92941893D01*
X126407576Y-92806399D01*
X126193492Y-92706569D01*
X125980000Y-92649364D01*
X125480000Y-92649364D01*
X125479999Y-92649364D01*
X125266507Y-92706569D01*
X125052421Y-92806400D01*
X124858921Y-92941890D01*
X124691893Y-93108918D01*
X124561575Y-93295032D01*
X124517257Y-93333897D01*
X124460000Y-93347908D01*
X124402743Y-93333897D01*
X124358425Y-93295032D01*
X124228106Y-93108918D01*
X124061081Y-92941893D01*
X123867576Y-92806399D01*
X123653492Y-92706569D01*
X123440000Y-92649364D01*
X123440000Y-93730000D01*
X122940000Y-93730000D01*
X122940000Y-92649364D01*
X122939999Y-92649364D01*
X122726507Y-92706569D01*
X122512421Y-92806400D01*
X122318921Y-92941890D01*
X122151893Y-93108918D01*
X122021575Y-93295032D01*
X121977257Y-93333897D01*
X121920000Y-93347908D01*
X121862743Y-93333897D01*
X121818425Y-93295032D01*
X121688106Y-93108918D01*
X121521081Y-92941893D01*
X121327576Y-92806399D01*
X121113492Y-92706569D01*
X120900000Y-92649364D01*
X120900000Y-93730000D01*
X120400000Y-93730000D01*
X120400000Y-92649364D01*
X120399999Y-92649364D01*
X120186507Y-92706569D01*
X119972421Y-92806400D01*
X119778921Y-92941890D01*
X119611893Y-93108918D01*
X119481575Y-93295032D01*
X119437257Y-93333897D01*
X119380000Y-93347908D01*
X119322743Y-93333897D01*
X119278425Y-93295032D01*
X119148106Y-93108918D01*
X118981081Y-92941893D01*
X118787576Y-92806399D01*
X118573492Y-92706569D01*
X118360000Y-92649364D01*
X118360000Y-93730000D01*
X117860000Y-93730000D01*
X117860000Y-92649364D01*
X117859999Y-92649364D01*
X117646507Y-92706569D01*
X117432421Y-92806400D01*
X117238921Y-92941890D01*
X117071893Y-93108918D01*
X116941575Y-93295032D01*
X116897257Y-93333897D01*
X116840000Y-93347908D01*
X116782743Y-93333897D01*
X116738425Y-93295032D01*
X116608106Y-93108918D01*
X116441081Y-92941893D01*
X116247576Y-92806399D01*
X116033492Y-92706569D01*
X115820000Y-92649364D01*
X115820000Y-93730000D01*
X115320000Y-93730000D01*
X115320000Y-92649364D01*
X115319999Y-92649364D01*
X115106507Y-92706569D01*
X114892421Y-92806400D01*
X114698921Y-92941890D01*
X114531890Y-93108921D01*
X114396400Y-93302421D01*
X114296569Y-93516507D01*
X114239364Y-93729999D01*
X114239364Y-93730000D01*
X110490500Y-93730000D01*
X110490500Y-91921514D01*
X153739500Y-91921514D01*
X153739501Y-91921518D01*
X153754354Y-92015304D01*
X153754354Y-92015305D01*
X153754355Y-92015306D01*
X153811949Y-92128342D01*
X153901656Y-92218049D01*
X153901658Y-92218050D01*
X154014696Y-92275646D01*
X154108481Y-92290500D01*
X155771518Y-92290499D01*
X155865304Y-92275646D01*
X155978342Y-92218050D01*
X156068050Y-92128342D01*
X156125646Y-92015304D01*
X156140500Y-91921519D01*
X156140499Y-90258482D01*
X156125646Y-90164696D01*
X156097965Y-90110370D01*
X156068050Y-90051657D01*
X155978343Y-89961950D01*
X155865302Y-89904353D01*
X155771521Y-89889500D01*
X154108485Y-89889500D01*
X154061589Y-89896927D01*
X154014696Y-89904354D01*
X154014694Y-89904354D01*
X154014693Y-89904355D01*
X153901657Y-89961949D01*
X153811950Y-90051656D01*
X153754353Y-90164697D01*
X153739500Y-90258478D01*
X153739500Y-91921514D01*
X110490500Y-91921514D01*
X110490500Y-90169999D01*
X130874357Y-90169999D01*
X130894885Y-90391537D01*
X130955769Y-90605526D01*
X131054941Y-90804688D01*
X131189019Y-90982237D01*
X131353437Y-91132124D01*
X131542595Y-91249245D01*
X131542597Y-91249245D01*
X131542599Y-91249247D01*
X131750060Y-91329618D01*
X131968757Y-91370500D01*
X132191241Y-91370500D01*
X132191243Y-91370500D01*
X132409940Y-91329618D01*
X132617401Y-91249247D01*
X132806562Y-91132124D01*
X132970981Y-90982236D01*
X133105058Y-90804689D01*
X133204229Y-90605528D01*
X133265115Y-90391536D01*
X133285643Y-90170000D01*
X133265115Y-89948464D01*
X133242227Y-89868021D01*
X133204230Y-89734473D01*
X133189554Y-89704999D01*
X156574357Y-89704999D01*
X156594885Y-89926537D01*
X156655769Y-90140526D01*
X156754941Y-90339688D01*
X156889019Y-90517237D01*
X157053437Y-90667124D01*
X157242595Y-90784245D01*
X157242597Y-90784245D01*
X157242599Y-90784247D01*
X157450060Y-90864618D01*
X157668757Y-90905500D01*
X157891241Y-90905500D01*
X157891243Y-90905500D01*
X158109940Y-90864618D01*
X158317401Y-90784247D01*
X158506562Y-90667124D01*
X158506562Y-90667123D01*
X158670980Y-90517237D01*
X158765904Y-90391537D01*
X158805058Y-90339689D01*
X158904229Y-90140528D01*
X158965115Y-89926536D01*
X158985643Y-89705000D01*
X158965115Y-89483464D01*
X158907829Y-89282124D01*
X158904230Y-89269473D01*
X158805058Y-89070311D01*
X158670980Y-88892762D01*
X158506562Y-88742875D01*
X158317404Y-88625754D01*
X158256174Y-88602033D01*
X158109940Y-88545382D01*
X157891243Y-88504500D01*
X157668757Y-88504500D01*
X157470634Y-88541536D01*
X157450060Y-88545382D01*
X157242595Y-88625754D01*
X157053437Y-88742875D01*
X156889019Y-88892762D01*
X156754941Y-89070311D01*
X156655769Y-89269473D01*
X156594885Y-89483462D01*
X156574357Y-89704999D01*
X133189554Y-89704999D01*
X133105058Y-89535311D01*
X132970980Y-89357762D01*
X132806562Y-89207875D01*
X132617404Y-89090754D01*
X132556174Y-89067033D01*
X132409940Y-89010382D01*
X132191243Y-88969500D01*
X131968757Y-88969500D01*
X131750060Y-89010381D01*
X131750060Y-89010382D01*
X131542595Y-89090754D01*
X131353437Y-89207875D01*
X131189019Y-89357762D01*
X131054941Y-89535311D01*
X130955769Y-89734473D01*
X130894885Y-89948462D01*
X130874357Y-90169999D01*
X110490500Y-90169999D01*
X110490500Y-88319999D01*
X153734357Y-88319999D01*
X153754885Y-88541537D01*
X153815769Y-88755526D01*
X153914941Y-88954688D01*
X154049019Y-89132237D01*
X154213437Y-89282124D01*
X154402595Y-89399245D01*
X154402597Y-89399245D01*
X154402599Y-89399247D01*
X154610060Y-89479618D01*
X154828757Y-89520500D01*
X155051241Y-89520500D01*
X155051243Y-89520500D01*
X155269940Y-89479618D01*
X155477401Y-89399247D01*
X155666562Y-89282124D01*
X155830981Y-89132236D01*
X155965058Y-88954689D01*
X156064229Y-88755528D01*
X156125115Y-88541536D01*
X156145643Y-88320000D01*
X156125115Y-88098464D01*
X156067829Y-87897124D01*
X156064230Y-87884473D01*
X155965058Y-87685311D01*
X155830980Y-87507762D01*
X155666562Y-87357875D01*
X155477404Y-87240754D01*
X155416174Y-87217033D01*
X155269940Y-87160382D01*
X155051243Y-87119500D01*
X154828757Y-87119500D01*
X154630634Y-87156536D01*
X154610060Y-87160382D01*
X154402595Y-87240754D01*
X154213437Y-87357875D01*
X154049019Y-87507762D01*
X153914941Y-87685311D01*
X153815769Y-87884473D01*
X153754885Y-88098462D01*
X153734357Y-88319999D01*
X110490500Y-88319999D01*
X110490500Y-86935000D01*
X156574357Y-86935000D01*
X156594885Y-87156537D01*
X156655769Y-87370526D01*
X156754941Y-87569688D01*
X156889019Y-87747237D01*
X157053437Y-87897124D01*
X157242595Y-88014245D01*
X157242597Y-88014245D01*
X157242599Y-88014247D01*
X157450060Y-88094618D01*
X157668757Y-88135500D01*
X157891241Y-88135500D01*
X157891243Y-88135500D01*
X158109940Y-88094618D01*
X158317401Y-88014247D01*
X158506562Y-87897124D01*
X158670981Y-87747236D01*
X158805058Y-87569689D01*
X158904229Y-87370528D01*
X158965115Y-87156536D01*
X158985643Y-86935000D01*
X158965115Y-86713464D01*
X158907829Y-86512124D01*
X158904230Y-86499473D01*
X158805058Y-86300311D01*
X158670980Y-86122762D01*
X158506562Y-85972875D01*
X158317404Y-85855754D01*
X158256174Y-85832033D01*
X158109940Y-85775382D01*
X157891243Y-85734500D01*
X157668757Y-85734500D01*
X157470634Y-85771536D01*
X157450060Y-85775382D01*
X157242595Y-85855754D01*
X157053437Y-85972875D01*
X156889019Y-86122762D01*
X156754941Y-86300311D01*
X156655769Y-86499473D01*
X156594885Y-86713462D01*
X156574357Y-86935000D01*
X110490500Y-86935000D01*
X110490500Y-85355692D01*
X115629500Y-85355692D01*
X115632402Y-85392572D01*
X115678255Y-85550397D01*
X115706117Y-85597509D01*
X115761919Y-85691865D01*
X115878135Y-85808081D01*
X115958746Y-85855754D01*
X116019602Y-85891744D01*
X116177427Y-85937597D01*
X116177431Y-85937598D01*
X116214306Y-85940500D01*
X117545692Y-85940500D01*
X117545694Y-85940500D01*
X117582569Y-85937598D01*
X117740398Y-85891744D01*
X117881865Y-85808081D01*
X117998081Y-85691865D01*
X118081744Y-85550398D01*
X118119009Y-85422131D01*
X118155354Y-85364360D01*
X118216766Y-85334573D01*
X118284637Y-85341797D01*
X118338402Y-85383841D01*
X118434478Y-85516078D01*
X118597175Y-85671632D01*
X118785032Y-85795635D01*
X118992012Y-85884103D01*
X119211463Y-85934191D01*
X119416998Y-85943421D01*
X119436328Y-85944290D01*
X119436328Y-85944289D01*
X119436330Y-85944290D01*
X119659387Y-85914075D01*
X119873464Y-85844517D01*
X120071681Y-85737852D01*
X120247666Y-85597508D01*
X120395765Y-85427996D01*
X120511215Y-85234764D01*
X120515786Y-85222582D01*
X120547808Y-85175003D01*
X120597817Y-85146921D01*
X120655113Y-85144347D01*
X120707439Y-85167831D01*
X120743600Y-85212349D01*
X120802171Y-85333974D01*
X120934475Y-85516074D01*
X120934478Y-85516078D01*
X121097175Y-85671632D01*
X121285032Y-85795635D01*
X121492012Y-85884103D01*
X121711463Y-85934191D01*
X121916998Y-85943421D01*
X121936328Y-85944290D01*
X121936328Y-85944289D01*
X121936330Y-85944290D01*
X122159387Y-85914075D01*
X122373464Y-85844517D01*
X122571681Y-85737852D01*
X122747666Y-85597508D01*
X122895765Y-85427996D01*
X122966082Y-85310303D01*
X123014110Y-85264526D01*
X123078864Y-85250064D01*
X123141805Y-85271058D01*
X123184912Y-85321497D01*
X123206400Y-85367578D01*
X123341890Y-85561078D01*
X123508918Y-85728106D01*
X123702423Y-85863600D01*
X123916507Y-85963430D01*
X124129999Y-86020635D01*
X124130000Y-86020636D01*
X124130000Y-84815000D01*
X124630000Y-84815000D01*
X124630000Y-86020635D01*
X124843492Y-85963430D01*
X125057578Y-85863599D01*
X125251078Y-85728109D01*
X125418109Y-85561078D01*
X125553599Y-85367578D01*
X125559142Y-85355692D01*
X133409500Y-85355692D01*
X133412402Y-85392572D01*
X133458255Y-85550397D01*
X133486117Y-85597509D01*
X133541919Y-85691865D01*
X133658135Y-85808081D01*
X133738746Y-85855754D01*
X133799602Y-85891744D01*
X133957427Y-85937597D01*
X133957431Y-85937598D01*
X133994306Y-85940500D01*
X135325692Y-85940500D01*
X135325694Y-85940500D01*
X135362569Y-85937598D01*
X135520398Y-85891744D01*
X135661865Y-85808081D01*
X135778081Y-85691865D01*
X135861744Y-85550398D01*
X135899009Y-85422131D01*
X135935354Y-85364360D01*
X135996766Y-85334573D01*
X136064637Y-85341797D01*
X136118402Y-85383841D01*
X136214478Y-85516078D01*
X136377175Y-85671632D01*
X136565032Y-85795635D01*
X136772012Y-85884103D01*
X136991463Y-85934191D01*
X137196998Y-85943421D01*
X137216328Y-85944290D01*
X137216328Y-85944289D01*
X137216330Y-85944290D01*
X137439387Y-85914075D01*
X137653464Y-85844517D01*
X137851681Y-85737852D01*
X138027666Y-85597508D01*
X138175765Y-85427996D01*
X138291215Y-85234764D01*
X138295786Y-85222582D01*
X138327808Y-85175003D01*
X138377817Y-85146921D01*
X138435113Y-85144347D01*
X138487439Y-85167831D01*
X138523600Y-85212349D01*
X138582171Y-85333974D01*
X138714475Y-85516074D01*
X138714478Y-85516078D01*
X138877175Y-85671632D01*
X139065032Y-85795635D01*
X139272012Y-85884103D01*
X139491463Y-85934191D01*
X139696998Y-85943421D01*
X139716328Y-85944290D01*
X139716328Y-85944289D01*
X139716330Y-85944290D01*
X139939387Y-85914075D01*
X140153464Y-85844517D01*
X140351681Y-85737852D01*
X140527666Y-85597508D01*
X140675765Y-85427996D01*
X140746082Y-85310303D01*
X140794110Y-85264526D01*
X140858864Y-85250064D01*
X140921805Y-85271058D01*
X140964912Y-85321497D01*
X140986400Y-85367578D01*
X141121890Y-85561078D01*
X141288918Y-85728106D01*
X141482423Y-85863600D01*
X141696507Y-85963430D01*
X141909999Y-86020635D01*
X141910000Y-86020636D01*
X141910000Y-84815000D01*
X142410000Y-84815000D01*
X142410000Y-86020635D01*
X142623492Y-85963430D01*
X142837578Y-85863599D01*
X143031078Y-85728109D01*
X143198109Y-85561078D01*
X143205867Y-85549999D01*
X153734357Y-85549999D01*
X153754885Y-85771537D01*
X153815769Y-85985526D01*
X153914941Y-86184688D01*
X154049019Y-86362237D01*
X154213437Y-86512124D01*
X154402595Y-86629245D01*
X154402597Y-86629245D01*
X154402599Y-86629247D01*
X154610060Y-86709618D01*
X154828757Y-86750500D01*
X155051241Y-86750500D01*
X155051243Y-86750500D01*
X155269940Y-86709618D01*
X155477401Y-86629247D01*
X155666562Y-86512124D01*
X155830981Y-86362236D01*
X155965058Y-86184689D01*
X156064229Y-85985528D01*
X156070517Y-85963430D01*
X156093087Y-85884103D01*
X156125115Y-85771536D01*
X156145643Y-85550000D01*
X156125115Y-85328464D01*
X156094990Y-85222585D01*
X156064230Y-85114473D01*
X155965058Y-84915311D01*
X155830980Y-84737762D01*
X155666562Y-84587875D01*
X155477404Y-84470754D01*
X155416174Y-84447033D01*
X155269940Y-84390382D01*
X155051243Y-84349500D01*
X154828757Y-84349500D01*
X154630634Y-84386536D01*
X154610060Y-84390382D01*
X154402595Y-84470754D01*
X154213437Y-84587875D01*
X154049019Y-84737762D01*
X153914941Y-84915311D01*
X153815769Y-85114473D01*
X153754885Y-85328462D01*
X153734357Y-85549999D01*
X143205867Y-85549999D01*
X143333599Y-85367578D01*
X143433430Y-85153492D01*
X143494569Y-84925318D01*
X143504221Y-84815000D01*
X142410000Y-84815000D01*
X141910000Y-84815000D01*
X141910000Y-83109364D01*
X142410000Y-83109364D01*
X142410000Y-84315000D01*
X143504222Y-84315000D01*
X143504221Y-84314999D01*
X143494569Y-84204681D01*
X143483937Y-84165000D01*
X156574357Y-84165000D01*
X156594885Y-84386537D01*
X156655769Y-84600526D01*
X156754941Y-84799688D01*
X156889019Y-84977237D01*
X157053437Y-85127124D01*
X157242595Y-85244245D01*
X157242597Y-85244245D01*
X157242599Y-85244247D01*
X157450060Y-85324618D01*
X157668757Y-85365500D01*
X157891241Y-85365500D01*
X157891243Y-85365500D01*
X158109940Y-85324618D01*
X158317401Y-85244247D01*
X158506562Y-85127124D01*
X158670981Y-84977236D01*
X158805058Y-84799689D01*
X158904229Y-84600528D01*
X158965115Y-84386536D01*
X158985643Y-84165000D01*
X158965115Y-83943464D01*
X158923166Y-83796027D01*
X158904230Y-83729473D01*
X158805058Y-83530311D01*
X158670980Y-83352762D01*
X158506562Y-83202875D01*
X158317404Y-83085754D01*
X158256174Y-83062033D01*
X158109940Y-83005382D01*
X157891243Y-82964500D01*
X157668757Y-82964500D01*
X157470634Y-83001536D01*
X157450060Y-83005382D01*
X157242595Y-83085754D01*
X157053437Y-83202875D01*
X156889019Y-83352762D01*
X156754941Y-83530311D01*
X156655769Y-83729473D01*
X156594885Y-83943462D01*
X156574357Y-84165000D01*
X143483937Y-84165000D01*
X143433430Y-83976507D01*
X143333599Y-83762421D01*
X143198109Y-83568921D01*
X143031081Y-83401893D01*
X142837576Y-83266399D01*
X142623492Y-83166569D01*
X142410000Y-83109364D01*
X141910000Y-83109364D01*
X141909999Y-83109364D01*
X141696507Y-83166569D01*
X141482421Y-83266400D01*
X141288921Y-83401890D01*
X141121890Y-83568921D01*
X140986400Y-83762421D01*
X140966732Y-83804600D01*
X140921300Y-83856568D01*
X140855122Y-83876193D01*
X140788705Y-83857394D01*
X140742630Y-83805996D01*
X140737829Y-83796027D01*
X140698666Y-83742124D01*
X140605522Y-83613922D01*
X140442825Y-83458368D01*
X140442822Y-83458366D01*
X140442821Y-83458365D01*
X140254968Y-83334365D01*
X140047987Y-83245896D01*
X139828537Y-83195809D01*
X139603671Y-83185709D01*
X139380611Y-83215925D01*
X139166537Y-83285482D01*
X139098826Y-83321919D01*
X138968319Y-83392148D01*
X138968317Y-83392149D01*
X138968318Y-83392149D01*
X138792335Y-83532490D01*
X138644233Y-83702006D01*
X138528782Y-83895239D01*
X138524211Y-83907420D01*
X138492187Y-83955000D01*
X138442178Y-83983079D01*
X138384883Y-83985651D01*
X138332559Y-83962167D01*
X138296399Y-83917649D01*
X138237829Y-83796027D01*
X138198666Y-83742124D01*
X138105522Y-83613922D01*
X137942825Y-83458368D01*
X137942822Y-83458366D01*
X137942821Y-83458365D01*
X137754968Y-83334365D01*
X137547987Y-83245896D01*
X137328537Y-83195809D01*
X137103671Y-83185709D01*
X136880611Y-83215925D01*
X136666537Y-83285482D01*
X136598826Y-83321919D01*
X136468319Y-83392148D01*
X136468317Y-83392149D01*
X136468318Y-83392149D01*
X136292335Y-83532490D01*
X136144233Y-83702006D01*
X136124162Y-83735599D01*
X136084438Y-83776516D01*
X136030602Y-83795327D01*
X135974040Y-83788052D01*
X135926716Y-83756230D01*
X135898639Y-83706593D01*
X135861744Y-83579602D01*
X135833882Y-83532490D01*
X135778081Y-83438135D01*
X135661865Y-83321919D01*
X135600253Y-83285482D01*
X135520397Y-83238255D01*
X135362572Y-83192402D01*
X135340444Y-83190660D01*
X135325694Y-83189500D01*
X133994306Y-83189500D01*
X133982014Y-83190467D01*
X133957427Y-83192402D01*
X133799602Y-83238255D01*
X133658134Y-83321919D01*
X133541919Y-83438134D01*
X133458255Y-83579602D01*
X133412402Y-83737427D01*
X133409500Y-83774308D01*
X133409500Y-85355692D01*
X125559142Y-85355692D01*
X125653430Y-85153492D01*
X125714569Y-84925318D01*
X125724221Y-84815000D01*
X124630000Y-84815000D01*
X124130000Y-84815000D01*
X124130000Y-83109364D01*
X124630000Y-83109364D01*
X124630000Y-84315000D01*
X125724222Y-84315000D01*
X125724221Y-84314999D01*
X125714569Y-84204681D01*
X125653430Y-83976507D01*
X125553599Y-83762421D01*
X125418109Y-83568921D01*
X125251081Y-83401893D01*
X125057576Y-83266399D01*
X124843492Y-83166569D01*
X124630000Y-83109364D01*
X124130000Y-83109364D01*
X124129999Y-83109364D01*
X123916507Y-83166569D01*
X123702421Y-83266400D01*
X123508921Y-83401890D01*
X123341890Y-83568921D01*
X123206400Y-83762421D01*
X123186732Y-83804600D01*
X123141300Y-83856568D01*
X123075122Y-83876193D01*
X123008705Y-83857394D01*
X122962630Y-83805996D01*
X122957829Y-83796027D01*
X122918666Y-83742124D01*
X122825522Y-83613922D01*
X122662825Y-83458368D01*
X122662822Y-83458366D01*
X122662821Y-83458365D01*
X122474968Y-83334365D01*
X122267987Y-83245896D01*
X122048537Y-83195809D01*
X121823671Y-83185709D01*
X121600611Y-83215925D01*
X121386537Y-83285482D01*
X121318826Y-83321919D01*
X121188319Y-83392148D01*
X121188317Y-83392149D01*
X121188318Y-83392149D01*
X121012335Y-83532490D01*
X120864233Y-83702006D01*
X120748782Y-83895239D01*
X120744211Y-83907420D01*
X120712187Y-83955000D01*
X120662178Y-83983079D01*
X120604883Y-83985651D01*
X120552559Y-83962167D01*
X120516399Y-83917649D01*
X120457829Y-83796027D01*
X120418666Y-83742124D01*
X120325522Y-83613922D01*
X120162825Y-83458368D01*
X120162822Y-83458366D01*
X120162821Y-83458365D01*
X119974968Y-83334365D01*
X119767987Y-83245896D01*
X119548537Y-83195809D01*
X119323671Y-83185709D01*
X119100611Y-83215925D01*
X118886537Y-83285482D01*
X118818826Y-83321919D01*
X118688319Y-83392148D01*
X118688317Y-83392149D01*
X118688318Y-83392149D01*
X118512335Y-83532490D01*
X118364233Y-83702006D01*
X118344162Y-83735599D01*
X118304438Y-83776516D01*
X118250602Y-83795327D01*
X118194040Y-83788052D01*
X118146716Y-83756230D01*
X118118639Y-83706593D01*
X118081744Y-83579602D01*
X118053882Y-83532490D01*
X117998081Y-83438135D01*
X117881865Y-83321919D01*
X117820253Y-83285482D01*
X117740397Y-83238255D01*
X117582572Y-83192402D01*
X117560444Y-83190660D01*
X117545694Y-83189500D01*
X116214306Y-83189500D01*
X116202014Y-83190467D01*
X116177427Y-83192402D01*
X116019602Y-83238255D01*
X115878134Y-83321919D01*
X115761919Y-83438134D01*
X115678255Y-83579602D01*
X115632402Y-83737427D01*
X115629500Y-83774308D01*
X115629500Y-85355692D01*
X110490500Y-85355692D01*
X110490500Y-82780000D01*
X153734357Y-82780000D01*
X153754885Y-83001537D01*
X153815769Y-83215526D01*
X153914941Y-83414688D01*
X154049019Y-83592237D01*
X154213437Y-83742124D01*
X154402595Y-83859245D01*
X154402597Y-83859245D01*
X154402599Y-83859247D01*
X154610060Y-83939618D01*
X154828757Y-83980500D01*
X155051241Y-83980500D01*
X155051243Y-83980500D01*
X155269940Y-83939618D01*
X155477401Y-83859247D01*
X155666562Y-83742124D01*
X155830981Y-83592236D01*
X155965058Y-83414689D01*
X156064229Y-83215528D01*
X156072714Y-83185709D01*
X156101153Y-83085753D01*
X156125115Y-83001536D01*
X156145643Y-82780000D01*
X156125115Y-82558464D01*
X156067829Y-82357124D01*
X156064230Y-82344473D01*
X155965058Y-82145311D01*
X155830980Y-81967762D01*
X155666562Y-81817875D01*
X155477404Y-81700754D01*
X155416174Y-81677033D01*
X155269940Y-81620382D01*
X155051243Y-81579500D01*
X154828757Y-81579500D01*
X154630634Y-81616536D01*
X154610060Y-81620382D01*
X154402595Y-81700754D01*
X154213437Y-81817875D01*
X154049019Y-81967762D01*
X153914941Y-82145311D01*
X153815769Y-82344473D01*
X153754885Y-82558462D01*
X153734357Y-82780000D01*
X110490500Y-82780000D01*
X110490500Y-81394999D01*
X156574357Y-81394999D01*
X156594885Y-81616537D01*
X156655769Y-81830526D01*
X156754941Y-82029688D01*
X156889019Y-82207237D01*
X157053437Y-82357124D01*
X157242595Y-82474245D01*
X157242597Y-82474245D01*
X157242599Y-82474247D01*
X157450060Y-82554618D01*
X157668757Y-82595500D01*
X157891241Y-82595500D01*
X157891243Y-82595500D01*
X158109940Y-82554618D01*
X158317401Y-82474247D01*
X158506562Y-82357124D01*
X158670981Y-82207236D01*
X158805058Y-82029689D01*
X158904229Y-81830528D01*
X158965115Y-81616536D01*
X158985643Y-81395000D01*
X158965115Y-81173464D01*
X158941090Y-81089025D01*
X158904230Y-80959473D01*
X158805058Y-80760311D01*
X158670980Y-80582762D01*
X158506562Y-80432875D01*
X158317404Y-80315754D01*
X158256174Y-80292033D01*
X158109940Y-80235382D01*
X157891243Y-80194500D01*
X157668757Y-80194500D01*
X157450059Y-80235382D01*
X157450060Y-80235382D01*
X157242595Y-80315754D01*
X157053437Y-80432875D01*
X156889019Y-80582762D01*
X156754941Y-80760311D01*
X156655769Y-80959473D01*
X156594885Y-81173462D01*
X156574357Y-81394999D01*
X110490500Y-81394999D01*
X110490500Y-81089026D01*
X154214526Y-81089026D01*
X154287515Y-81140133D01*
X154493673Y-81236266D01*
X154713397Y-81295141D01*
X154940000Y-81314966D01*
X155166602Y-81295141D01*
X155386326Y-81236266D01*
X155592480Y-81140134D01*
X155665472Y-81089025D01*
X154940001Y-80363553D01*
X154940000Y-80363553D01*
X154214526Y-81089025D01*
X154214526Y-81089026D01*
X110490500Y-81089026D01*
X110490500Y-80878786D01*
X111145214Y-80878786D01*
X136181928Y-80878786D01*
X136181928Y-80010000D01*
X153635033Y-80010000D01*
X153654858Y-80236602D01*
X153713733Y-80456326D01*
X153809866Y-80662484D01*
X153860972Y-80735471D01*
X153860974Y-80735472D01*
X154586446Y-80010001D01*
X155293553Y-80010001D01*
X156019025Y-80735472D01*
X156070134Y-80662480D01*
X156166266Y-80456326D01*
X156225141Y-80236602D01*
X156244966Y-80010000D01*
X156225141Y-79783397D01*
X156166266Y-79563673D01*
X156070133Y-79357515D01*
X156019025Y-79284526D01*
X155293553Y-80010000D01*
X155293553Y-80010001D01*
X154586446Y-80010001D01*
X154586446Y-80010000D01*
X153860973Y-79284526D01*
X153860973Y-79284527D01*
X153809865Y-79357516D01*
X153713733Y-79563672D01*
X153654858Y-79783397D01*
X153635033Y-80010000D01*
X136181928Y-80010000D01*
X136181928Y-78930973D01*
X154214526Y-78930973D01*
X154940000Y-79656446D01*
X154940001Y-79656446D01*
X155665472Y-78930974D01*
X155665471Y-78930972D01*
X155592484Y-78879866D01*
X155386326Y-78783733D01*
X155166602Y-78724858D01*
X154940000Y-78705033D01*
X154713397Y-78724858D01*
X154493672Y-78783733D01*
X154287516Y-78879865D01*
X154214527Y-78930973D01*
X154214526Y-78930973D01*
X136181928Y-78930973D01*
X136181928Y-74969214D01*
X135847635Y-74969214D01*
X135785354Y-74952438D01*
X135739925Y-74906651D01*
X135723639Y-74844240D01*
X135740903Y-74782093D01*
X135821744Y-74645398D01*
X135859009Y-74517131D01*
X135895354Y-74459360D01*
X135956766Y-74429573D01*
X136024637Y-74436797D01*
X136078402Y-74478841D01*
X136174478Y-74611078D01*
X136337175Y-74766632D01*
X136525032Y-74890635D01*
X136732012Y-74979103D01*
X136951463Y-75029191D01*
X137156998Y-75038421D01*
X137176328Y-75039290D01*
X137176328Y-75039289D01*
X137176330Y-75039290D01*
X137399387Y-75009075D01*
X137613464Y-74939517D01*
X137811681Y-74832852D01*
X137987666Y-74692508D01*
X138135765Y-74522996D01*
X138251215Y-74329764D01*
X138255786Y-74317582D01*
X138287808Y-74270003D01*
X138337817Y-74241921D01*
X138395113Y-74239347D01*
X138447439Y-74262831D01*
X138483600Y-74307349D01*
X138542171Y-74428974D01*
X138674475Y-74611074D01*
X138674478Y-74611078D01*
X138837175Y-74766632D01*
X139025032Y-74890635D01*
X139232012Y-74979103D01*
X139451463Y-75029191D01*
X139656998Y-75038421D01*
X139676328Y-75039290D01*
X139676328Y-75039289D01*
X139676330Y-75039290D01*
X139899387Y-75009075D01*
X140113464Y-74939517D01*
X140311681Y-74832852D01*
X140487666Y-74692508D01*
X140635765Y-74522996D01*
X140706082Y-74405303D01*
X140754110Y-74359526D01*
X140818864Y-74345064D01*
X140881805Y-74366058D01*
X140924912Y-74416497D01*
X140946400Y-74462578D01*
X141081890Y-74656078D01*
X141248918Y-74823106D01*
X141442423Y-74958600D01*
X141656507Y-75058430D01*
X141869999Y-75115635D01*
X141870000Y-75115636D01*
X141870000Y-73910000D01*
X142370000Y-73910000D01*
X142370000Y-75115635D01*
X142583492Y-75058430D01*
X142797578Y-74958599D01*
X142991078Y-74823109D01*
X143158109Y-74656078D01*
X143293599Y-74462578D01*
X143393430Y-74248492D01*
X143454569Y-74020318D01*
X143464221Y-73910000D01*
X142370000Y-73910000D01*
X141870000Y-73910000D01*
X141870000Y-72204364D01*
X142370000Y-72204364D01*
X142370000Y-73410000D01*
X143464222Y-73410000D01*
X143464221Y-73409999D01*
X143454569Y-73299681D01*
X143393430Y-73071507D01*
X143383401Y-73049999D01*
X153954753Y-73049999D01*
X153973719Y-73351452D01*
X154030319Y-73648163D01*
X154123658Y-73935428D01*
X154252268Y-74208739D01*
X154329075Y-74329766D01*
X154414115Y-74463768D01*
X154564372Y-74645397D01*
X154606650Y-74696503D01*
X154826839Y-74903276D01*
X155071204Y-75080816D01*
X155203550Y-75153574D01*
X155335896Y-75226332D01*
X155476317Y-75281928D01*
X155616737Y-75337525D01*
X155771141Y-75377168D01*
X155909302Y-75412642D01*
X156158314Y-75444100D01*
X156208972Y-75450500D01*
X156208973Y-75450500D01*
X156511027Y-75450500D01*
X156511028Y-75450500D01*
X156554360Y-75445025D01*
X156810698Y-75412642D01*
X157103262Y-75337525D01*
X157384104Y-75226332D01*
X157648795Y-75080816D01*
X157817012Y-74958600D01*
X157893160Y-74903276D01*
X157917079Y-74880814D01*
X158113349Y-74696504D01*
X158305885Y-74463768D01*
X158467733Y-74208736D01*
X158596341Y-73935430D01*
X158689681Y-73648160D01*
X158746280Y-73351457D01*
X158765246Y-73050000D01*
X158746280Y-72748543D01*
X158689681Y-72451840D01*
X158682378Y-72429365D01*
X158596341Y-72164571D01*
X158467731Y-71891260D01*
X158393440Y-71774197D01*
X158305885Y-71636232D01*
X158113349Y-71403496D01*
X157893160Y-71196723D01*
X157648795Y-71019183D01*
X157384102Y-70873667D01*
X157103262Y-70762474D01*
X156810700Y-70687358D01*
X156511028Y-70649500D01*
X156511027Y-70649500D01*
X156208973Y-70649500D01*
X156208972Y-70649500D01*
X155909299Y-70687358D01*
X155616737Y-70762474D01*
X155335897Y-70873667D01*
X155071204Y-71019183D01*
X154826839Y-71196723D01*
X154606650Y-71403496D01*
X154414114Y-71636233D01*
X154252268Y-71891260D01*
X154123658Y-72164571D01*
X154030319Y-72451836D01*
X153973719Y-72748547D01*
X153954753Y-73049999D01*
X143383401Y-73049999D01*
X143293599Y-72857421D01*
X143158109Y-72663921D01*
X142991081Y-72496893D01*
X142797576Y-72361399D01*
X142583492Y-72261569D01*
X142370000Y-72204364D01*
X141870000Y-72204364D01*
X141869999Y-72204364D01*
X141656507Y-72261569D01*
X141442421Y-72361400D01*
X141248921Y-72496890D01*
X141081890Y-72663921D01*
X140946400Y-72857421D01*
X140926732Y-72899600D01*
X140881300Y-72951568D01*
X140815122Y-72971193D01*
X140748705Y-72952394D01*
X140702630Y-72900996D01*
X140697829Y-72891027D01*
X140668915Y-72851230D01*
X140565522Y-72708922D01*
X140402825Y-72553368D01*
X140402822Y-72553366D01*
X140402821Y-72553365D01*
X140214968Y-72429365D01*
X140007987Y-72340896D01*
X139788537Y-72290809D01*
X139563671Y-72280709D01*
X139340611Y-72310925D01*
X139126537Y-72380482D01*
X139058826Y-72416919D01*
X138928319Y-72487148D01*
X138928317Y-72487149D01*
X138928318Y-72487149D01*
X138752335Y-72627490D01*
X138604233Y-72797006D01*
X138488782Y-72990239D01*
X138484211Y-73002420D01*
X138452187Y-73050000D01*
X138402178Y-73078079D01*
X138344883Y-73080651D01*
X138292559Y-73057167D01*
X138256399Y-73012649D01*
X138197829Y-72891027D01*
X138168915Y-72851230D01*
X138065522Y-72708922D01*
X137902825Y-72553368D01*
X137902822Y-72553366D01*
X137902821Y-72553365D01*
X137714968Y-72429365D01*
X137507987Y-72340896D01*
X137288537Y-72290809D01*
X137063671Y-72280709D01*
X136840611Y-72310925D01*
X136626537Y-72380482D01*
X136558826Y-72416919D01*
X136428319Y-72487148D01*
X136428317Y-72487149D01*
X136428318Y-72487149D01*
X136252335Y-72627490D01*
X136104233Y-72797006D01*
X136084162Y-72830599D01*
X136044438Y-72871516D01*
X135990602Y-72890327D01*
X135934040Y-72883052D01*
X135886716Y-72851230D01*
X135858639Y-72801593D01*
X135821744Y-72674602D01*
X135793882Y-72627490D01*
X135738081Y-72533135D01*
X135621865Y-72416919D01*
X135560253Y-72380482D01*
X135480397Y-72333255D01*
X135322572Y-72287402D01*
X135300444Y-72285660D01*
X135285694Y-72284500D01*
X133954306Y-72284500D01*
X133942014Y-72285467D01*
X133917427Y-72287402D01*
X133759602Y-72333255D01*
X133618134Y-72416919D01*
X133501919Y-72533134D01*
X133418255Y-72674602D01*
X133372402Y-72832427D01*
X133369500Y-72869308D01*
X133369500Y-74450692D01*
X133372402Y-74487572D01*
X133418255Y-74645397D01*
X133446117Y-74692509D01*
X133489954Y-74766634D01*
X133499097Y-74782093D01*
X133516361Y-74844240D01*
X133500075Y-74906651D01*
X133454646Y-74952438D01*
X133392365Y-74969214D01*
X111145214Y-74969214D01*
X111145214Y-80878786D01*
X110490500Y-80878786D01*
X110490500Y-68704500D01*
X110507113Y-68642500D01*
X110552500Y-68597113D01*
X110614500Y-68580500D01*
X166245500Y-68580500D01*
X166307500Y-68597113D01*
G37*
G04 #@! TD.AperFunction*
M02*
