%TF.GenerationSoftware,KiCad,Pcbnew,7.0.1*%
%TF.CreationDate,2023-03-23T13:10:33+01:00*%
%TF.ProjectId,BMS_Ctrl_DE-9_Adaptor,424d535f-4374-4726-9c5f-44452d395f41,rev?*%
%TF.SameCoordinates,Original*%
%TF.FileFunction,Drillmap*%
%TF.FilePolarity,Positive*%
%FSLAX45Y45*%
G04 Gerber Fmt 4.5, Leading zero omitted, Abs format (unit mm)*
G04 Created by KiCad (PCBNEW 7.0.1) date 2023-03-23 13:10:33*
%MOMM*%
%LPD*%
G01*
G04 APERTURE LIST*
%ADD10C,0.100000*%
%ADD11C,0.200000*%
G04 APERTURE END LIST*
D10*
X11049000Y-6858000D02*
X16637000Y-6858000D01*
X16637000Y-10287000D01*
X11049000Y-10287000D01*
X11049000Y-6858000D01*
D11*
X11291619Y-10604524D02*
X11291619Y-10404524D01*
X11291619Y-10404524D02*
X11339238Y-10404524D01*
X11339238Y-10404524D02*
X11367809Y-10414048D01*
X11367809Y-10414048D02*
X11386857Y-10433095D01*
X11386857Y-10433095D02*
X11396381Y-10452143D01*
X11396381Y-10452143D02*
X11405905Y-10490238D01*
X11405905Y-10490238D02*
X11405905Y-10518810D01*
X11405905Y-10518810D02*
X11396381Y-10556905D01*
X11396381Y-10556905D02*
X11386857Y-10575952D01*
X11386857Y-10575952D02*
X11367809Y-10595000D01*
X11367809Y-10595000D02*
X11339238Y-10604524D01*
X11339238Y-10604524D02*
X11291619Y-10604524D01*
X11491619Y-10604524D02*
X11491619Y-10471190D01*
X11491619Y-10509286D02*
X11501143Y-10490238D01*
X11501143Y-10490238D02*
X11510667Y-10480714D01*
X11510667Y-10480714D02*
X11529714Y-10471190D01*
X11529714Y-10471190D02*
X11548762Y-10471190D01*
X11615428Y-10604524D02*
X11615428Y-10471190D01*
X11615428Y-10404524D02*
X11605905Y-10414048D01*
X11605905Y-10414048D02*
X11615428Y-10423571D01*
X11615428Y-10423571D02*
X11624952Y-10414048D01*
X11624952Y-10414048D02*
X11615428Y-10404524D01*
X11615428Y-10404524D02*
X11615428Y-10423571D01*
X11739238Y-10604524D02*
X11720190Y-10595000D01*
X11720190Y-10595000D02*
X11710667Y-10575952D01*
X11710667Y-10575952D02*
X11710667Y-10404524D01*
X11844000Y-10604524D02*
X11824952Y-10595000D01*
X11824952Y-10595000D02*
X11815428Y-10575952D01*
X11815428Y-10575952D02*
X11815428Y-10404524D01*
X12072571Y-10604524D02*
X12072571Y-10404524D01*
X12072571Y-10404524D02*
X12139238Y-10547381D01*
X12139238Y-10547381D02*
X12205905Y-10404524D01*
X12205905Y-10404524D02*
X12205905Y-10604524D01*
X12386857Y-10604524D02*
X12386857Y-10499762D01*
X12386857Y-10499762D02*
X12377333Y-10480714D01*
X12377333Y-10480714D02*
X12358286Y-10471190D01*
X12358286Y-10471190D02*
X12320190Y-10471190D01*
X12320190Y-10471190D02*
X12301143Y-10480714D01*
X12386857Y-10595000D02*
X12367809Y-10604524D01*
X12367809Y-10604524D02*
X12320190Y-10604524D01*
X12320190Y-10604524D02*
X12301143Y-10595000D01*
X12301143Y-10595000D02*
X12291619Y-10575952D01*
X12291619Y-10575952D02*
X12291619Y-10556905D01*
X12291619Y-10556905D02*
X12301143Y-10537857D01*
X12301143Y-10537857D02*
X12320190Y-10528333D01*
X12320190Y-10528333D02*
X12367809Y-10528333D01*
X12367809Y-10528333D02*
X12386857Y-10518810D01*
X12482095Y-10471190D02*
X12482095Y-10671190D01*
X12482095Y-10480714D02*
X12501143Y-10471190D01*
X12501143Y-10471190D02*
X12539238Y-10471190D01*
X12539238Y-10471190D02*
X12558286Y-10480714D01*
X12558286Y-10480714D02*
X12567809Y-10490238D01*
X12567809Y-10490238D02*
X12577333Y-10509286D01*
X12577333Y-10509286D02*
X12577333Y-10566429D01*
X12577333Y-10566429D02*
X12567809Y-10585476D01*
X12567809Y-10585476D02*
X12558286Y-10595000D01*
X12558286Y-10595000D02*
X12539238Y-10604524D01*
X12539238Y-10604524D02*
X12501143Y-10604524D01*
X12501143Y-10604524D02*
X12482095Y-10595000D01*
X12663048Y-10585476D02*
X12672571Y-10595000D01*
X12672571Y-10595000D02*
X12663048Y-10604524D01*
X12663048Y-10604524D02*
X12653524Y-10595000D01*
X12653524Y-10595000D02*
X12663048Y-10585476D01*
X12663048Y-10585476D02*
X12663048Y-10604524D01*
X12663048Y-10480714D02*
X12672571Y-10490238D01*
X12672571Y-10490238D02*
X12663048Y-10499762D01*
X12663048Y-10499762D02*
X12653524Y-10490238D01*
X12653524Y-10490238D02*
X12663048Y-10480714D01*
X12663048Y-10480714D02*
X12663048Y-10499762D01*
M02*
