M48
; DRILL file {KiCad 7.0.1} date Sun Apr  9 10:37:19 2023
; FORMAT={-:-/ absolute / metric / decimal}
; #@! TF.CreationDate,2023-04-09T10:37:19+02:00
; #@! TF.GenerationSoftware,Kicad,Pcbnew,7.0.1
; #@! TF.FileFunction,Plated,1,2,PTH
FMAT,2
METRIC
; #@! TA.AperFunction,Plated,PTH,ComponentDrill
T1C0.800
; #@! TA.AperFunction,Plated,PTH,ComponentDrill
T2C1.000
; #@! TA.AperFunction,Plated,PTH,ComponentDrill
T3C1.100
; #@! TA.AperFunction,Plated,PTH,ComponentDrill
T4C3.200
%
G90
G05
T1
X109.855Y-53.271
X109.855Y-63.431
X111.085Y-83.751
X111.085Y-93.911
X114.935Y-53.271
X114.935Y-63.431
X114.935Y-70.485
X114.935Y-78.105
X116.84Y-83.751
X116.84Y-93.911
X117.475Y-70.485
X117.475Y-78.105
X120.015Y-53.271
X120.015Y-63.431
X120.015Y-70.485
X120.015Y-78.105
X122.555Y-70.485
X122.555Y-78.105
X122.555Y-83.751
X122.555Y-93.911
X125.095Y-53.271
X125.095Y-63.431
X129.54Y-92.006
X129.54Y-102.166
X134.62Y-53.271
X134.62Y-63.431
X137.12Y-70.485
X137.12Y-78.105
X139.66Y-70.485
X139.66Y-78.105
X139.7Y-53.271
X139.7Y-63.431
X139.7Y-83.751
X139.7Y-93.911
X142.2Y-70.485
X142.2Y-78.105
X144.74Y-70.485
X144.74Y-78.105
X144.78Y-53.271
X144.78Y-63.431
X145.415Y-83.751
X145.415Y-93.911
X149.86Y-53.271
X149.86Y-63.431
X154.94Y-92.006
X154.94Y-102.166
X165.1Y-83.751
X165.1Y-93.911
X166.86Y-52.105
X166.86Y-54.645
X166.86Y-57.185
X166.86Y-59.725
X166.86Y-62.265
X166.86Y-64.805
X166.86Y-67.345
X166.86Y-69.885
X169.4Y-52.105
X169.4Y-54.645
X169.4Y-57.185
X169.4Y-59.725
X169.4Y-62.265
X169.4Y-64.805
X169.4Y-67.345
X169.4Y-69.885
X170.815Y-83.751
X170.815Y-93.911
X185.42Y-108.493
X185.42Y-113.493
X187.43Y-52.105
X187.43Y-54.645
X187.43Y-57.185
X187.43Y-59.725
X187.43Y-62.265
X187.43Y-64.805
X187.43Y-67.345
X187.43Y-69.885
X189.865Y-102.143
X189.97Y-52.105
X189.97Y-54.645
X189.97Y-57.185
X189.97Y-59.725
X189.97Y-62.265
X189.97Y-64.805
X189.97Y-67.345
X189.97Y-69.885
X192.405Y-102.143
X194.945Y-102.143
X197.485Y-85.09
X197.485Y-95.25
X197.485Y-102.143
X200.66Y-108.665
X200.66Y-113.665
T2
X130.89Y-86.926
X133.39Y-86.926
X156.25Y-86.926
X158.75Y-86.926
X205.425Y-77.99
X205.425Y-80.76
X205.425Y-83.53
X205.425Y-86.3
X205.425Y-89.07
X208.265Y-79.375
X208.265Y-82.145
X208.265Y-84.915
X208.265Y-87.685
T3
X108.545Y-118.11
X111.045Y-100.261
X111.045Y-111.76
X112.435Y-125.73
X113.585Y-100.261
X113.585Y-111.76
X116.125Y-100.261
X116.125Y-111.76
X117.435Y-125.73
X118.705Y-118.11
X133.35Y-118.11
X135.89Y-100.261
X135.89Y-111.76
X137.2Y-125.73
X138.43Y-100.261
X138.43Y-111.76
X140.97Y-100.261
X140.97Y-111.76
X142.2Y-125.73
X143.51Y-118.11
X158.75Y-118.11
X161.29Y-100.261
X161.29Y-111.76
X162.6Y-125.73
X163.83Y-100.261
X163.83Y-111.76
X166.37Y-100.261
X166.37Y-111.76
X167.6Y-125.73
X168.91Y-118.11
X190.54Y-125.73
X195.54Y-125.73
T4
X206.845Y-71.03
X206.845Y-96.03
T0
M30
