%TF.GenerationSoftware,KiCad,Pcbnew,7.0.1*%
%TF.CreationDate,2023-03-31T10:13:54+02:00*%
%TF.ProjectId,ESP32-BMS_Ctrl,45535033-322d-4424-9d53-5f4374726c2e,rev?*%
%TF.SameCoordinates,Original*%
%TF.FileFunction,Drillmap*%
%TF.FilePolarity,Positive*%
%FSLAX45Y45*%
G04 Gerber Fmt 4.5, Leading zero omitted, Abs format (unit mm)*
G04 Created by KiCad (PCBNEW 7.0.1) date 2023-03-31 10:13:54*
%MOMM*%
%LPD*%
G01*
G04 APERTURE LIST*
%ADD10C,0.100000*%
%ADD11C,0.200000*%
%ADD12C,0.120000*%
%ADD13C,0.320000*%
G04 APERTURE END LIST*
D10*
X9334500Y-4191000D02*
X21844000Y-4191000D01*
X21844000Y-13208000D01*
X9334500Y-13208000D01*
X9334500Y-4191000D01*
D11*
D12*
X13439000Y-8432600D02*
X13559000Y-8552600D01*
X13559000Y-8432600D02*
X13439000Y-8552600D01*
X15975000Y-8432600D02*
X16095000Y-8552600D01*
X16095000Y-8432600D02*
X15975000Y-8552600D01*
D13*
X10002500Y-4762500D02*
G75*
G03*
X10002500Y-4762500I-160000J0D01*
G01*
X10002500Y-12509500D02*
G75*
G03*
X10002500Y-12509500I-160000J0D01*
G01*
X21305500Y-4762500D02*
G75*
G03*
X21305500Y-4762500I-160000J0D01*
G01*
X21305500Y-12509500D02*
G75*
G03*
X21305500Y-12509500I-160000J0D01*
G01*
D11*
X9577119Y-13525524D02*
X9577119Y-13325524D01*
X9577119Y-13325524D02*
X9624738Y-13325524D01*
X9624738Y-13325524D02*
X9653310Y-13335048D01*
X9653310Y-13335048D02*
X9672357Y-13354095D01*
X9672357Y-13354095D02*
X9681881Y-13373143D01*
X9681881Y-13373143D02*
X9691405Y-13411238D01*
X9691405Y-13411238D02*
X9691405Y-13439809D01*
X9691405Y-13439809D02*
X9681881Y-13477905D01*
X9681881Y-13477905D02*
X9672357Y-13496952D01*
X9672357Y-13496952D02*
X9653310Y-13516000D01*
X9653310Y-13516000D02*
X9624738Y-13525524D01*
X9624738Y-13525524D02*
X9577119Y-13525524D01*
X9777119Y-13525524D02*
X9777119Y-13392190D01*
X9777119Y-13430286D02*
X9786643Y-13411238D01*
X9786643Y-13411238D02*
X9796167Y-13401714D01*
X9796167Y-13401714D02*
X9815214Y-13392190D01*
X9815214Y-13392190D02*
X9834262Y-13392190D01*
X9900929Y-13525524D02*
X9900929Y-13392190D01*
X9900929Y-13325524D02*
X9891405Y-13335048D01*
X9891405Y-13335048D02*
X9900929Y-13344571D01*
X9900929Y-13344571D02*
X9910452Y-13335048D01*
X9910452Y-13335048D02*
X9900929Y-13325524D01*
X9900929Y-13325524D02*
X9900929Y-13344571D01*
X10024738Y-13525524D02*
X10005690Y-13516000D01*
X10005690Y-13516000D02*
X9996167Y-13496952D01*
X9996167Y-13496952D02*
X9996167Y-13325524D01*
X10129500Y-13525524D02*
X10110452Y-13516000D01*
X10110452Y-13516000D02*
X10100929Y-13496952D01*
X10100929Y-13496952D02*
X10100929Y-13325524D01*
X10358071Y-13525524D02*
X10358071Y-13325524D01*
X10358071Y-13325524D02*
X10424738Y-13468381D01*
X10424738Y-13468381D02*
X10491405Y-13325524D01*
X10491405Y-13325524D02*
X10491405Y-13525524D01*
X10672357Y-13525524D02*
X10672357Y-13420762D01*
X10672357Y-13420762D02*
X10662833Y-13401714D01*
X10662833Y-13401714D02*
X10643786Y-13392190D01*
X10643786Y-13392190D02*
X10605690Y-13392190D01*
X10605690Y-13392190D02*
X10586643Y-13401714D01*
X10672357Y-13516000D02*
X10653310Y-13525524D01*
X10653310Y-13525524D02*
X10605690Y-13525524D01*
X10605690Y-13525524D02*
X10586643Y-13516000D01*
X10586643Y-13516000D02*
X10577119Y-13496952D01*
X10577119Y-13496952D02*
X10577119Y-13477905D01*
X10577119Y-13477905D02*
X10586643Y-13458857D01*
X10586643Y-13458857D02*
X10605690Y-13449333D01*
X10605690Y-13449333D02*
X10653310Y-13449333D01*
X10653310Y-13449333D02*
X10672357Y-13439809D01*
X10767595Y-13392190D02*
X10767595Y-13592190D01*
X10767595Y-13401714D02*
X10786643Y-13392190D01*
X10786643Y-13392190D02*
X10824738Y-13392190D01*
X10824738Y-13392190D02*
X10843786Y-13401714D01*
X10843786Y-13401714D02*
X10853310Y-13411238D01*
X10853310Y-13411238D02*
X10862833Y-13430286D01*
X10862833Y-13430286D02*
X10862833Y-13487428D01*
X10862833Y-13487428D02*
X10853310Y-13506476D01*
X10853310Y-13506476D02*
X10843786Y-13516000D01*
X10843786Y-13516000D02*
X10824738Y-13525524D01*
X10824738Y-13525524D02*
X10786643Y-13525524D01*
X10786643Y-13525524D02*
X10767595Y-13516000D01*
X10948548Y-13506476D02*
X10958071Y-13516000D01*
X10958071Y-13516000D02*
X10948548Y-13525524D01*
X10948548Y-13525524D02*
X10939024Y-13516000D01*
X10939024Y-13516000D02*
X10948548Y-13506476D01*
X10948548Y-13506476D02*
X10948548Y-13525524D01*
X10948548Y-13401714D02*
X10958071Y-13411238D01*
X10958071Y-13411238D02*
X10948548Y-13420762D01*
X10948548Y-13420762D02*
X10939024Y-13411238D01*
X10939024Y-13411238D02*
X10948548Y-13401714D01*
X10948548Y-13401714D02*
X10948548Y-13420762D01*
D12*
X9209500Y-13793000D02*
X9329500Y-13913000D01*
X9329500Y-13793000D02*
X9209500Y-13913000D01*
D11*
X9681881Y-13945524D02*
X9567595Y-13945524D01*
X9624738Y-13945524D02*
X9624738Y-13745524D01*
X9624738Y-13745524D02*
X9605690Y-13774095D01*
X9605690Y-13774095D02*
X9586643Y-13793143D01*
X9586643Y-13793143D02*
X9567595Y-13802667D01*
X9767595Y-13926476D02*
X9777119Y-13936000D01*
X9777119Y-13936000D02*
X9767595Y-13945524D01*
X9767595Y-13945524D02*
X9758071Y-13936000D01*
X9758071Y-13936000D02*
X9767595Y-13926476D01*
X9767595Y-13926476D02*
X9767595Y-13945524D01*
X9853310Y-13764571D02*
X9862833Y-13755048D01*
X9862833Y-13755048D02*
X9881881Y-13745524D01*
X9881881Y-13745524D02*
X9929500Y-13745524D01*
X9929500Y-13745524D02*
X9948548Y-13755048D01*
X9948548Y-13755048D02*
X9958071Y-13764571D01*
X9958071Y-13764571D02*
X9967595Y-13783619D01*
X9967595Y-13783619D02*
X9967595Y-13802667D01*
X9967595Y-13802667D02*
X9958071Y-13831238D01*
X9958071Y-13831238D02*
X9843786Y-13945524D01*
X9843786Y-13945524D02*
X9967595Y-13945524D01*
X10091405Y-13745524D02*
X10110452Y-13745524D01*
X10110452Y-13745524D02*
X10129500Y-13755048D01*
X10129500Y-13755048D02*
X10139024Y-13764571D01*
X10139024Y-13764571D02*
X10148548Y-13783619D01*
X10148548Y-13783619D02*
X10158071Y-13821714D01*
X10158071Y-13821714D02*
X10158071Y-13869333D01*
X10158071Y-13869333D02*
X10148548Y-13907428D01*
X10148548Y-13907428D02*
X10139024Y-13926476D01*
X10139024Y-13926476D02*
X10129500Y-13936000D01*
X10129500Y-13936000D02*
X10110452Y-13945524D01*
X10110452Y-13945524D02*
X10091405Y-13945524D01*
X10091405Y-13945524D02*
X10072357Y-13936000D01*
X10072357Y-13936000D02*
X10062833Y-13926476D01*
X10062833Y-13926476D02*
X10053310Y-13907428D01*
X10053310Y-13907428D02*
X10043786Y-13869333D01*
X10043786Y-13869333D02*
X10043786Y-13821714D01*
X10043786Y-13821714D02*
X10053310Y-13783619D01*
X10053310Y-13783619D02*
X10062833Y-13764571D01*
X10062833Y-13764571D02*
X10072357Y-13755048D01*
X10072357Y-13755048D02*
X10091405Y-13745524D01*
X10281881Y-13745524D02*
X10300929Y-13745524D01*
X10300929Y-13745524D02*
X10319976Y-13755048D01*
X10319976Y-13755048D02*
X10329500Y-13764571D01*
X10329500Y-13764571D02*
X10339024Y-13783619D01*
X10339024Y-13783619D02*
X10348548Y-13821714D01*
X10348548Y-13821714D02*
X10348548Y-13869333D01*
X10348548Y-13869333D02*
X10339024Y-13907428D01*
X10339024Y-13907428D02*
X10329500Y-13926476D01*
X10329500Y-13926476D02*
X10319976Y-13936000D01*
X10319976Y-13936000D02*
X10300929Y-13945524D01*
X10300929Y-13945524D02*
X10281881Y-13945524D01*
X10281881Y-13945524D02*
X10262833Y-13936000D01*
X10262833Y-13936000D02*
X10253310Y-13926476D01*
X10253310Y-13926476D02*
X10243786Y-13907428D01*
X10243786Y-13907428D02*
X10234262Y-13869333D01*
X10234262Y-13869333D02*
X10234262Y-13821714D01*
X10234262Y-13821714D02*
X10243786Y-13783619D01*
X10243786Y-13783619D02*
X10253310Y-13764571D01*
X10253310Y-13764571D02*
X10262833Y-13755048D01*
X10262833Y-13755048D02*
X10281881Y-13745524D01*
X10434262Y-13945524D02*
X10434262Y-13812190D01*
X10434262Y-13831238D02*
X10443786Y-13821714D01*
X10443786Y-13821714D02*
X10462833Y-13812190D01*
X10462833Y-13812190D02*
X10491405Y-13812190D01*
X10491405Y-13812190D02*
X10510452Y-13821714D01*
X10510452Y-13821714D02*
X10519976Y-13840762D01*
X10519976Y-13840762D02*
X10519976Y-13945524D01*
X10519976Y-13840762D02*
X10529500Y-13821714D01*
X10529500Y-13821714D02*
X10548548Y-13812190D01*
X10548548Y-13812190D02*
X10577119Y-13812190D01*
X10577119Y-13812190D02*
X10596167Y-13821714D01*
X10596167Y-13821714D02*
X10605691Y-13840762D01*
X10605691Y-13840762D02*
X10605691Y-13945524D01*
X10700929Y-13945524D02*
X10700929Y-13812190D01*
X10700929Y-13831238D02*
X10710452Y-13821714D01*
X10710452Y-13821714D02*
X10729500Y-13812190D01*
X10729500Y-13812190D02*
X10758072Y-13812190D01*
X10758072Y-13812190D02*
X10777119Y-13821714D01*
X10777119Y-13821714D02*
X10786643Y-13840762D01*
X10786643Y-13840762D02*
X10786643Y-13945524D01*
X10786643Y-13840762D02*
X10796167Y-13821714D01*
X10796167Y-13821714D02*
X10815214Y-13812190D01*
X10815214Y-13812190D02*
X10843786Y-13812190D01*
X10843786Y-13812190D02*
X10862833Y-13821714D01*
X10862833Y-13821714D02*
X10872357Y-13840762D01*
X10872357Y-13840762D02*
X10872357Y-13945524D01*
X11262833Y-13736000D02*
X11091405Y-13993143D01*
X11519976Y-13745524D02*
X11539024Y-13745524D01*
X11539024Y-13745524D02*
X11558072Y-13755048D01*
X11558072Y-13755048D02*
X11567595Y-13764571D01*
X11567595Y-13764571D02*
X11577119Y-13783619D01*
X11577119Y-13783619D02*
X11586643Y-13821714D01*
X11586643Y-13821714D02*
X11586643Y-13869333D01*
X11586643Y-13869333D02*
X11577119Y-13907428D01*
X11577119Y-13907428D02*
X11567595Y-13926476D01*
X11567595Y-13926476D02*
X11558072Y-13936000D01*
X11558072Y-13936000D02*
X11539024Y-13945524D01*
X11539024Y-13945524D02*
X11519976Y-13945524D01*
X11519976Y-13945524D02*
X11500929Y-13936000D01*
X11500929Y-13936000D02*
X11491405Y-13926476D01*
X11491405Y-13926476D02*
X11481881Y-13907428D01*
X11481881Y-13907428D02*
X11472357Y-13869333D01*
X11472357Y-13869333D02*
X11472357Y-13821714D01*
X11472357Y-13821714D02*
X11481881Y-13783619D01*
X11481881Y-13783619D02*
X11491405Y-13764571D01*
X11491405Y-13764571D02*
X11500929Y-13755048D01*
X11500929Y-13755048D02*
X11519976Y-13745524D01*
X11672357Y-13926476D02*
X11681881Y-13936000D01*
X11681881Y-13936000D02*
X11672357Y-13945524D01*
X11672357Y-13945524D02*
X11662833Y-13936000D01*
X11662833Y-13936000D02*
X11672357Y-13926476D01*
X11672357Y-13926476D02*
X11672357Y-13945524D01*
X11805691Y-13745524D02*
X11824738Y-13745524D01*
X11824738Y-13745524D02*
X11843786Y-13755048D01*
X11843786Y-13755048D02*
X11853310Y-13764571D01*
X11853310Y-13764571D02*
X11862833Y-13783619D01*
X11862833Y-13783619D02*
X11872357Y-13821714D01*
X11872357Y-13821714D02*
X11872357Y-13869333D01*
X11872357Y-13869333D02*
X11862833Y-13907428D01*
X11862833Y-13907428D02*
X11853310Y-13926476D01*
X11853310Y-13926476D02*
X11843786Y-13936000D01*
X11843786Y-13936000D02*
X11824738Y-13945524D01*
X11824738Y-13945524D02*
X11805691Y-13945524D01*
X11805691Y-13945524D02*
X11786643Y-13936000D01*
X11786643Y-13936000D02*
X11777119Y-13926476D01*
X11777119Y-13926476D02*
X11767595Y-13907428D01*
X11767595Y-13907428D02*
X11758072Y-13869333D01*
X11758072Y-13869333D02*
X11758072Y-13821714D01*
X11758072Y-13821714D02*
X11767595Y-13783619D01*
X11767595Y-13783619D02*
X11777119Y-13764571D01*
X11777119Y-13764571D02*
X11786643Y-13755048D01*
X11786643Y-13755048D02*
X11805691Y-13745524D01*
X12043786Y-13812190D02*
X12043786Y-13945524D01*
X11996167Y-13736000D02*
X11948548Y-13878857D01*
X11948548Y-13878857D02*
X12072357Y-13878857D01*
X12129500Y-13745524D02*
X12262833Y-13745524D01*
X12262833Y-13745524D02*
X12177119Y-13945524D01*
X12329500Y-13764571D02*
X12339024Y-13755048D01*
X12339024Y-13755048D02*
X12358072Y-13745524D01*
X12358072Y-13745524D02*
X12405691Y-13745524D01*
X12405691Y-13745524D02*
X12424738Y-13755048D01*
X12424738Y-13755048D02*
X12434262Y-13764571D01*
X12434262Y-13764571D02*
X12443786Y-13783619D01*
X12443786Y-13783619D02*
X12443786Y-13802667D01*
X12443786Y-13802667D02*
X12434262Y-13831238D01*
X12434262Y-13831238D02*
X12319976Y-13945524D01*
X12319976Y-13945524D02*
X12443786Y-13945524D01*
X12519976Y-13745524D02*
X12519976Y-13783619D01*
X12596167Y-13745524D02*
X12596167Y-13783619D01*
X12891405Y-14021714D02*
X12881881Y-14012190D01*
X12881881Y-14012190D02*
X12862834Y-13983619D01*
X12862834Y-13983619D02*
X12853310Y-13964571D01*
X12853310Y-13964571D02*
X12843786Y-13936000D01*
X12843786Y-13936000D02*
X12834262Y-13888381D01*
X12834262Y-13888381D02*
X12834262Y-13850286D01*
X12834262Y-13850286D02*
X12843786Y-13802667D01*
X12843786Y-13802667D02*
X12853310Y-13774095D01*
X12853310Y-13774095D02*
X12862834Y-13755048D01*
X12862834Y-13755048D02*
X12881881Y-13726476D01*
X12881881Y-13726476D02*
X12891405Y-13716952D01*
X12958072Y-13764571D02*
X12967595Y-13755048D01*
X12967595Y-13755048D02*
X12986643Y-13745524D01*
X12986643Y-13745524D02*
X13034262Y-13745524D01*
X13034262Y-13745524D02*
X13053310Y-13755048D01*
X13053310Y-13755048D02*
X13062834Y-13764571D01*
X13062834Y-13764571D02*
X13072357Y-13783619D01*
X13072357Y-13783619D02*
X13072357Y-13802667D01*
X13072357Y-13802667D02*
X13062834Y-13831238D01*
X13062834Y-13831238D02*
X12948548Y-13945524D01*
X12948548Y-13945524D02*
X13072357Y-13945524D01*
X13310453Y-13945524D02*
X13310453Y-13745524D01*
X13396167Y-13945524D02*
X13396167Y-13840762D01*
X13396167Y-13840762D02*
X13386643Y-13821714D01*
X13386643Y-13821714D02*
X13367596Y-13812190D01*
X13367596Y-13812190D02*
X13339024Y-13812190D01*
X13339024Y-13812190D02*
X13319976Y-13821714D01*
X13319976Y-13821714D02*
X13310453Y-13831238D01*
X13519976Y-13945524D02*
X13500929Y-13936000D01*
X13500929Y-13936000D02*
X13491405Y-13926476D01*
X13491405Y-13926476D02*
X13481881Y-13907428D01*
X13481881Y-13907428D02*
X13481881Y-13850286D01*
X13481881Y-13850286D02*
X13491405Y-13831238D01*
X13491405Y-13831238D02*
X13500929Y-13821714D01*
X13500929Y-13821714D02*
X13519976Y-13812190D01*
X13519976Y-13812190D02*
X13548548Y-13812190D01*
X13548548Y-13812190D02*
X13567596Y-13821714D01*
X13567596Y-13821714D02*
X13577119Y-13831238D01*
X13577119Y-13831238D02*
X13586643Y-13850286D01*
X13586643Y-13850286D02*
X13586643Y-13907428D01*
X13586643Y-13907428D02*
X13577119Y-13926476D01*
X13577119Y-13926476D02*
X13567596Y-13936000D01*
X13567596Y-13936000D02*
X13548548Y-13945524D01*
X13548548Y-13945524D02*
X13519976Y-13945524D01*
X13700929Y-13945524D02*
X13681881Y-13936000D01*
X13681881Y-13936000D02*
X13672357Y-13916952D01*
X13672357Y-13916952D02*
X13672357Y-13745524D01*
X13853310Y-13936000D02*
X13834262Y-13945524D01*
X13834262Y-13945524D02*
X13796167Y-13945524D01*
X13796167Y-13945524D02*
X13777119Y-13936000D01*
X13777119Y-13936000D02*
X13767596Y-13916952D01*
X13767596Y-13916952D02*
X13767596Y-13840762D01*
X13767596Y-13840762D02*
X13777119Y-13821714D01*
X13777119Y-13821714D02*
X13796167Y-13812190D01*
X13796167Y-13812190D02*
X13834262Y-13812190D01*
X13834262Y-13812190D02*
X13853310Y-13821714D01*
X13853310Y-13821714D02*
X13862834Y-13840762D01*
X13862834Y-13840762D02*
X13862834Y-13859809D01*
X13862834Y-13859809D02*
X13767596Y-13878857D01*
X13939024Y-13936000D02*
X13958072Y-13945524D01*
X13958072Y-13945524D02*
X13996167Y-13945524D01*
X13996167Y-13945524D02*
X14015215Y-13936000D01*
X14015215Y-13936000D02*
X14024738Y-13916952D01*
X14024738Y-13916952D02*
X14024738Y-13907428D01*
X14024738Y-13907428D02*
X14015215Y-13888381D01*
X14015215Y-13888381D02*
X13996167Y-13878857D01*
X13996167Y-13878857D02*
X13967596Y-13878857D01*
X13967596Y-13878857D02*
X13948548Y-13869333D01*
X13948548Y-13869333D02*
X13939024Y-13850286D01*
X13939024Y-13850286D02*
X13939024Y-13840762D01*
X13939024Y-13840762D02*
X13948548Y-13821714D01*
X13948548Y-13821714D02*
X13967596Y-13812190D01*
X13967596Y-13812190D02*
X13996167Y-13812190D01*
X13996167Y-13812190D02*
X14015215Y-13821714D01*
X14091405Y-14021714D02*
X14100929Y-14012190D01*
X14100929Y-14012190D02*
X14119977Y-13983619D01*
X14119977Y-13983619D02*
X14129500Y-13964571D01*
X14129500Y-13964571D02*
X14139024Y-13936000D01*
X14139024Y-13936000D02*
X14148548Y-13888381D01*
X14148548Y-13888381D02*
X14148548Y-13850286D01*
X14148548Y-13850286D02*
X14139024Y-13802667D01*
X14139024Y-13802667D02*
X14129500Y-13774095D01*
X14129500Y-13774095D02*
X14119977Y-13755048D01*
X14119977Y-13755048D02*
X14100929Y-13726476D01*
X14100929Y-13726476D02*
X14091405Y-13716952D01*
X14453310Y-14021714D02*
X14443786Y-14012190D01*
X14443786Y-14012190D02*
X14424738Y-13983619D01*
X14424738Y-13983619D02*
X14415215Y-13964571D01*
X14415215Y-13964571D02*
X14405691Y-13936000D01*
X14405691Y-13936000D02*
X14396167Y-13888381D01*
X14396167Y-13888381D02*
X14396167Y-13850286D01*
X14396167Y-13850286D02*
X14405691Y-13802667D01*
X14405691Y-13802667D02*
X14415215Y-13774095D01*
X14415215Y-13774095D02*
X14424738Y-13755048D01*
X14424738Y-13755048D02*
X14443786Y-13726476D01*
X14443786Y-13726476D02*
X14453310Y-13716952D01*
X14529500Y-13812190D02*
X14529500Y-13945524D01*
X14529500Y-13831238D02*
X14539024Y-13821714D01*
X14539024Y-13821714D02*
X14558072Y-13812190D01*
X14558072Y-13812190D02*
X14586643Y-13812190D01*
X14586643Y-13812190D02*
X14605691Y-13821714D01*
X14605691Y-13821714D02*
X14615215Y-13840762D01*
X14615215Y-13840762D02*
X14615215Y-13945524D01*
X14739024Y-13945524D02*
X14719977Y-13936000D01*
X14719977Y-13936000D02*
X14710453Y-13926476D01*
X14710453Y-13926476D02*
X14700929Y-13907428D01*
X14700929Y-13907428D02*
X14700929Y-13850286D01*
X14700929Y-13850286D02*
X14710453Y-13831238D01*
X14710453Y-13831238D02*
X14719977Y-13821714D01*
X14719977Y-13821714D02*
X14739024Y-13812190D01*
X14739024Y-13812190D02*
X14767596Y-13812190D01*
X14767596Y-13812190D02*
X14786643Y-13821714D01*
X14786643Y-13821714D02*
X14796167Y-13831238D01*
X14796167Y-13831238D02*
X14805691Y-13850286D01*
X14805691Y-13850286D02*
X14805691Y-13907428D01*
X14805691Y-13907428D02*
X14796167Y-13926476D01*
X14796167Y-13926476D02*
X14786643Y-13936000D01*
X14786643Y-13936000D02*
X14767596Y-13945524D01*
X14767596Y-13945524D02*
X14739024Y-13945524D01*
X14862834Y-13812190D02*
X14939024Y-13812190D01*
X14891405Y-13745524D02*
X14891405Y-13916952D01*
X14891405Y-13916952D02*
X14900929Y-13936000D01*
X14900929Y-13936000D02*
X14919977Y-13945524D01*
X14919977Y-13945524D02*
X14939024Y-13945524D01*
X15158072Y-13812190D02*
X15158072Y-14012190D01*
X15158072Y-13821714D02*
X15177119Y-13812190D01*
X15177119Y-13812190D02*
X15215215Y-13812190D01*
X15215215Y-13812190D02*
X15234262Y-13821714D01*
X15234262Y-13821714D02*
X15243786Y-13831238D01*
X15243786Y-13831238D02*
X15253310Y-13850286D01*
X15253310Y-13850286D02*
X15253310Y-13907428D01*
X15253310Y-13907428D02*
X15243786Y-13926476D01*
X15243786Y-13926476D02*
X15234262Y-13936000D01*
X15234262Y-13936000D02*
X15215215Y-13945524D01*
X15215215Y-13945524D02*
X15177119Y-13945524D01*
X15177119Y-13945524D02*
X15158072Y-13936000D01*
X15367596Y-13945524D02*
X15348548Y-13936000D01*
X15348548Y-13936000D02*
X15339024Y-13916952D01*
X15339024Y-13916952D02*
X15339024Y-13745524D01*
X15529500Y-13945524D02*
X15529500Y-13840762D01*
X15529500Y-13840762D02*
X15519977Y-13821714D01*
X15519977Y-13821714D02*
X15500929Y-13812190D01*
X15500929Y-13812190D02*
X15462834Y-13812190D01*
X15462834Y-13812190D02*
X15443786Y-13821714D01*
X15529500Y-13936000D02*
X15510453Y-13945524D01*
X15510453Y-13945524D02*
X15462834Y-13945524D01*
X15462834Y-13945524D02*
X15443786Y-13936000D01*
X15443786Y-13936000D02*
X15434262Y-13916952D01*
X15434262Y-13916952D02*
X15434262Y-13897905D01*
X15434262Y-13897905D02*
X15443786Y-13878857D01*
X15443786Y-13878857D02*
X15462834Y-13869333D01*
X15462834Y-13869333D02*
X15510453Y-13869333D01*
X15510453Y-13869333D02*
X15529500Y-13859809D01*
X15596167Y-13812190D02*
X15672358Y-13812190D01*
X15624739Y-13745524D02*
X15624739Y-13916952D01*
X15624739Y-13916952D02*
X15634262Y-13936000D01*
X15634262Y-13936000D02*
X15653310Y-13945524D01*
X15653310Y-13945524D02*
X15672358Y-13945524D01*
X15815215Y-13936000D02*
X15796167Y-13945524D01*
X15796167Y-13945524D02*
X15758072Y-13945524D01*
X15758072Y-13945524D02*
X15739024Y-13936000D01*
X15739024Y-13936000D02*
X15729500Y-13916952D01*
X15729500Y-13916952D02*
X15729500Y-13840762D01*
X15729500Y-13840762D02*
X15739024Y-13821714D01*
X15739024Y-13821714D02*
X15758072Y-13812190D01*
X15758072Y-13812190D02*
X15796167Y-13812190D01*
X15796167Y-13812190D02*
X15815215Y-13821714D01*
X15815215Y-13821714D02*
X15824739Y-13840762D01*
X15824739Y-13840762D02*
X15824739Y-13859809D01*
X15824739Y-13859809D02*
X15729500Y-13878857D01*
X15996167Y-13945524D02*
X15996167Y-13745524D01*
X15996167Y-13936000D02*
X15977120Y-13945524D01*
X15977120Y-13945524D02*
X15939024Y-13945524D01*
X15939024Y-13945524D02*
X15919977Y-13936000D01*
X15919977Y-13936000D02*
X15910453Y-13926476D01*
X15910453Y-13926476D02*
X15900929Y-13907428D01*
X15900929Y-13907428D02*
X15900929Y-13850286D01*
X15900929Y-13850286D02*
X15910453Y-13831238D01*
X15910453Y-13831238D02*
X15919977Y-13821714D01*
X15919977Y-13821714D02*
X15939024Y-13812190D01*
X15939024Y-13812190D02*
X15977120Y-13812190D01*
X15977120Y-13812190D02*
X15996167Y-13821714D01*
X16072358Y-14021714D02*
X16081881Y-14012190D01*
X16081881Y-14012190D02*
X16100929Y-13983619D01*
X16100929Y-13983619D02*
X16110453Y-13964571D01*
X16110453Y-13964571D02*
X16119977Y-13936000D01*
X16119977Y-13936000D02*
X16129500Y-13888381D01*
X16129500Y-13888381D02*
X16129500Y-13850286D01*
X16129500Y-13850286D02*
X16119977Y-13802667D01*
X16119977Y-13802667D02*
X16110453Y-13774095D01*
X16110453Y-13774095D02*
X16100929Y-13755048D01*
X16100929Y-13755048D02*
X16081881Y-13726476D01*
X16081881Y-13726476D02*
X16072358Y-13716952D01*
X9329500Y-14117000D02*
G75*
G03*
X9329500Y-14117000I-100000J0D01*
G01*
X9558071Y-14009524D02*
X9681881Y-14009524D01*
X9681881Y-14009524D02*
X9615214Y-14085714D01*
X9615214Y-14085714D02*
X9643786Y-14085714D01*
X9643786Y-14085714D02*
X9662833Y-14095238D01*
X9662833Y-14095238D02*
X9672357Y-14104762D01*
X9672357Y-14104762D02*
X9681881Y-14123809D01*
X9681881Y-14123809D02*
X9681881Y-14171428D01*
X9681881Y-14171428D02*
X9672357Y-14190476D01*
X9672357Y-14190476D02*
X9662833Y-14200000D01*
X9662833Y-14200000D02*
X9643786Y-14209524D01*
X9643786Y-14209524D02*
X9586643Y-14209524D01*
X9586643Y-14209524D02*
X9567595Y-14200000D01*
X9567595Y-14200000D02*
X9558071Y-14190476D01*
X9767595Y-14190476D02*
X9777119Y-14200000D01*
X9777119Y-14200000D02*
X9767595Y-14209524D01*
X9767595Y-14209524D02*
X9758071Y-14200000D01*
X9758071Y-14200000D02*
X9767595Y-14190476D01*
X9767595Y-14190476D02*
X9767595Y-14209524D01*
X9853310Y-14028571D02*
X9862833Y-14019048D01*
X9862833Y-14019048D02*
X9881881Y-14009524D01*
X9881881Y-14009524D02*
X9929500Y-14009524D01*
X9929500Y-14009524D02*
X9948548Y-14019048D01*
X9948548Y-14019048D02*
X9958071Y-14028571D01*
X9958071Y-14028571D02*
X9967595Y-14047619D01*
X9967595Y-14047619D02*
X9967595Y-14066667D01*
X9967595Y-14066667D02*
X9958071Y-14095238D01*
X9958071Y-14095238D02*
X9843786Y-14209524D01*
X9843786Y-14209524D02*
X9967595Y-14209524D01*
X10091405Y-14009524D02*
X10110452Y-14009524D01*
X10110452Y-14009524D02*
X10129500Y-14019048D01*
X10129500Y-14019048D02*
X10139024Y-14028571D01*
X10139024Y-14028571D02*
X10148548Y-14047619D01*
X10148548Y-14047619D02*
X10158071Y-14085714D01*
X10158071Y-14085714D02*
X10158071Y-14133333D01*
X10158071Y-14133333D02*
X10148548Y-14171428D01*
X10148548Y-14171428D02*
X10139024Y-14190476D01*
X10139024Y-14190476D02*
X10129500Y-14200000D01*
X10129500Y-14200000D02*
X10110452Y-14209524D01*
X10110452Y-14209524D02*
X10091405Y-14209524D01*
X10091405Y-14209524D02*
X10072357Y-14200000D01*
X10072357Y-14200000D02*
X10062833Y-14190476D01*
X10062833Y-14190476D02*
X10053310Y-14171428D01*
X10053310Y-14171428D02*
X10043786Y-14133333D01*
X10043786Y-14133333D02*
X10043786Y-14085714D01*
X10043786Y-14085714D02*
X10053310Y-14047619D01*
X10053310Y-14047619D02*
X10062833Y-14028571D01*
X10062833Y-14028571D02*
X10072357Y-14019048D01*
X10072357Y-14019048D02*
X10091405Y-14009524D01*
X10281881Y-14009524D02*
X10300929Y-14009524D01*
X10300929Y-14009524D02*
X10319976Y-14019048D01*
X10319976Y-14019048D02*
X10329500Y-14028571D01*
X10329500Y-14028571D02*
X10339024Y-14047619D01*
X10339024Y-14047619D02*
X10348548Y-14085714D01*
X10348548Y-14085714D02*
X10348548Y-14133333D01*
X10348548Y-14133333D02*
X10339024Y-14171428D01*
X10339024Y-14171428D02*
X10329500Y-14190476D01*
X10329500Y-14190476D02*
X10319976Y-14200000D01*
X10319976Y-14200000D02*
X10300929Y-14209524D01*
X10300929Y-14209524D02*
X10281881Y-14209524D01*
X10281881Y-14209524D02*
X10262833Y-14200000D01*
X10262833Y-14200000D02*
X10253310Y-14190476D01*
X10253310Y-14190476D02*
X10243786Y-14171428D01*
X10243786Y-14171428D02*
X10234262Y-14133333D01*
X10234262Y-14133333D02*
X10234262Y-14085714D01*
X10234262Y-14085714D02*
X10243786Y-14047619D01*
X10243786Y-14047619D02*
X10253310Y-14028571D01*
X10253310Y-14028571D02*
X10262833Y-14019048D01*
X10262833Y-14019048D02*
X10281881Y-14009524D01*
X10434262Y-14209524D02*
X10434262Y-14076190D01*
X10434262Y-14095238D02*
X10443786Y-14085714D01*
X10443786Y-14085714D02*
X10462833Y-14076190D01*
X10462833Y-14076190D02*
X10491405Y-14076190D01*
X10491405Y-14076190D02*
X10510452Y-14085714D01*
X10510452Y-14085714D02*
X10519976Y-14104762D01*
X10519976Y-14104762D02*
X10519976Y-14209524D01*
X10519976Y-14104762D02*
X10529500Y-14085714D01*
X10529500Y-14085714D02*
X10548548Y-14076190D01*
X10548548Y-14076190D02*
X10577119Y-14076190D01*
X10577119Y-14076190D02*
X10596167Y-14085714D01*
X10596167Y-14085714D02*
X10605691Y-14104762D01*
X10605691Y-14104762D02*
X10605691Y-14209524D01*
X10700929Y-14209524D02*
X10700929Y-14076190D01*
X10700929Y-14095238D02*
X10710452Y-14085714D01*
X10710452Y-14085714D02*
X10729500Y-14076190D01*
X10729500Y-14076190D02*
X10758072Y-14076190D01*
X10758072Y-14076190D02*
X10777119Y-14085714D01*
X10777119Y-14085714D02*
X10786643Y-14104762D01*
X10786643Y-14104762D02*
X10786643Y-14209524D01*
X10786643Y-14104762D02*
X10796167Y-14085714D01*
X10796167Y-14085714D02*
X10815214Y-14076190D01*
X10815214Y-14076190D02*
X10843786Y-14076190D01*
X10843786Y-14076190D02*
X10862833Y-14085714D01*
X10862833Y-14085714D02*
X10872357Y-14104762D01*
X10872357Y-14104762D02*
X10872357Y-14209524D01*
X11262833Y-14000000D02*
X11091405Y-14257143D01*
X11519976Y-14009524D02*
X11539024Y-14009524D01*
X11539024Y-14009524D02*
X11558072Y-14019048D01*
X11558072Y-14019048D02*
X11567595Y-14028571D01*
X11567595Y-14028571D02*
X11577119Y-14047619D01*
X11577119Y-14047619D02*
X11586643Y-14085714D01*
X11586643Y-14085714D02*
X11586643Y-14133333D01*
X11586643Y-14133333D02*
X11577119Y-14171428D01*
X11577119Y-14171428D02*
X11567595Y-14190476D01*
X11567595Y-14190476D02*
X11558072Y-14200000D01*
X11558072Y-14200000D02*
X11539024Y-14209524D01*
X11539024Y-14209524D02*
X11519976Y-14209524D01*
X11519976Y-14209524D02*
X11500929Y-14200000D01*
X11500929Y-14200000D02*
X11491405Y-14190476D01*
X11491405Y-14190476D02*
X11481881Y-14171428D01*
X11481881Y-14171428D02*
X11472357Y-14133333D01*
X11472357Y-14133333D02*
X11472357Y-14085714D01*
X11472357Y-14085714D02*
X11481881Y-14047619D01*
X11481881Y-14047619D02*
X11491405Y-14028571D01*
X11491405Y-14028571D02*
X11500929Y-14019048D01*
X11500929Y-14019048D02*
X11519976Y-14009524D01*
X11672357Y-14190476D02*
X11681881Y-14200000D01*
X11681881Y-14200000D02*
X11672357Y-14209524D01*
X11672357Y-14209524D02*
X11662833Y-14200000D01*
X11662833Y-14200000D02*
X11672357Y-14190476D01*
X11672357Y-14190476D02*
X11672357Y-14209524D01*
X11872357Y-14209524D02*
X11758072Y-14209524D01*
X11815214Y-14209524D02*
X11815214Y-14009524D01*
X11815214Y-14009524D02*
X11796167Y-14038095D01*
X11796167Y-14038095D02*
X11777119Y-14057143D01*
X11777119Y-14057143D02*
X11758072Y-14066667D01*
X11948548Y-14028571D02*
X11958072Y-14019048D01*
X11958072Y-14019048D02*
X11977119Y-14009524D01*
X11977119Y-14009524D02*
X12024738Y-14009524D01*
X12024738Y-14009524D02*
X12043786Y-14019048D01*
X12043786Y-14019048D02*
X12053310Y-14028571D01*
X12053310Y-14028571D02*
X12062833Y-14047619D01*
X12062833Y-14047619D02*
X12062833Y-14066667D01*
X12062833Y-14066667D02*
X12053310Y-14095238D01*
X12053310Y-14095238D02*
X11939024Y-14209524D01*
X11939024Y-14209524D02*
X12062833Y-14209524D01*
X12234262Y-14009524D02*
X12196167Y-14009524D01*
X12196167Y-14009524D02*
X12177119Y-14019048D01*
X12177119Y-14019048D02*
X12167595Y-14028571D01*
X12167595Y-14028571D02*
X12148548Y-14057143D01*
X12148548Y-14057143D02*
X12139024Y-14095238D01*
X12139024Y-14095238D02*
X12139024Y-14171428D01*
X12139024Y-14171428D02*
X12148548Y-14190476D01*
X12148548Y-14190476D02*
X12158072Y-14200000D01*
X12158072Y-14200000D02*
X12177119Y-14209524D01*
X12177119Y-14209524D02*
X12215214Y-14209524D01*
X12215214Y-14209524D02*
X12234262Y-14200000D01*
X12234262Y-14200000D02*
X12243786Y-14190476D01*
X12243786Y-14190476D02*
X12253310Y-14171428D01*
X12253310Y-14171428D02*
X12253310Y-14123809D01*
X12253310Y-14123809D02*
X12243786Y-14104762D01*
X12243786Y-14104762D02*
X12234262Y-14095238D01*
X12234262Y-14095238D02*
X12215214Y-14085714D01*
X12215214Y-14085714D02*
X12177119Y-14085714D01*
X12177119Y-14085714D02*
X12158072Y-14095238D01*
X12158072Y-14095238D02*
X12148548Y-14104762D01*
X12148548Y-14104762D02*
X12139024Y-14123809D01*
X12377119Y-14009524D02*
X12396167Y-14009524D01*
X12396167Y-14009524D02*
X12415214Y-14019048D01*
X12415214Y-14019048D02*
X12424738Y-14028571D01*
X12424738Y-14028571D02*
X12434262Y-14047619D01*
X12434262Y-14047619D02*
X12443786Y-14085714D01*
X12443786Y-14085714D02*
X12443786Y-14133333D01*
X12443786Y-14133333D02*
X12434262Y-14171428D01*
X12434262Y-14171428D02*
X12424738Y-14190476D01*
X12424738Y-14190476D02*
X12415214Y-14200000D01*
X12415214Y-14200000D02*
X12396167Y-14209524D01*
X12396167Y-14209524D02*
X12377119Y-14209524D01*
X12377119Y-14209524D02*
X12358072Y-14200000D01*
X12358072Y-14200000D02*
X12348548Y-14190476D01*
X12348548Y-14190476D02*
X12339024Y-14171428D01*
X12339024Y-14171428D02*
X12329500Y-14133333D01*
X12329500Y-14133333D02*
X12329500Y-14085714D01*
X12329500Y-14085714D02*
X12339024Y-14047619D01*
X12339024Y-14047619D02*
X12348548Y-14028571D01*
X12348548Y-14028571D02*
X12358072Y-14019048D01*
X12358072Y-14019048D02*
X12377119Y-14009524D01*
X12519976Y-14009524D02*
X12519976Y-14047619D01*
X12596167Y-14009524D02*
X12596167Y-14047619D01*
X12891405Y-14285714D02*
X12881881Y-14276190D01*
X12881881Y-14276190D02*
X12862834Y-14247619D01*
X12862834Y-14247619D02*
X12853310Y-14228571D01*
X12853310Y-14228571D02*
X12843786Y-14200000D01*
X12843786Y-14200000D02*
X12834262Y-14152381D01*
X12834262Y-14152381D02*
X12834262Y-14114286D01*
X12834262Y-14114286D02*
X12843786Y-14066667D01*
X12843786Y-14066667D02*
X12853310Y-14038095D01*
X12853310Y-14038095D02*
X12862834Y-14019048D01*
X12862834Y-14019048D02*
X12881881Y-13990476D01*
X12881881Y-13990476D02*
X12891405Y-13980952D01*
X13053310Y-14076190D02*
X13053310Y-14209524D01*
X13005691Y-14000000D02*
X12958072Y-14142857D01*
X12958072Y-14142857D02*
X13081881Y-14142857D01*
X13310453Y-14209524D02*
X13310453Y-14009524D01*
X13396167Y-14209524D02*
X13396167Y-14104762D01*
X13396167Y-14104762D02*
X13386643Y-14085714D01*
X13386643Y-14085714D02*
X13367596Y-14076190D01*
X13367596Y-14076190D02*
X13339024Y-14076190D01*
X13339024Y-14076190D02*
X13319976Y-14085714D01*
X13319976Y-14085714D02*
X13310453Y-14095238D01*
X13519976Y-14209524D02*
X13500929Y-14200000D01*
X13500929Y-14200000D02*
X13491405Y-14190476D01*
X13491405Y-14190476D02*
X13481881Y-14171428D01*
X13481881Y-14171428D02*
X13481881Y-14114286D01*
X13481881Y-14114286D02*
X13491405Y-14095238D01*
X13491405Y-14095238D02*
X13500929Y-14085714D01*
X13500929Y-14085714D02*
X13519976Y-14076190D01*
X13519976Y-14076190D02*
X13548548Y-14076190D01*
X13548548Y-14076190D02*
X13567596Y-14085714D01*
X13567596Y-14085714D02*
X13577119Y-14095238D01*
X13577119Y-14095238D02*
X13586643Y-14114286D01*
X13586643Y-14114286D02*
X13586643Y-14171428D01*
X13586643Y-14171428D02*
X13577119Y-14190476D01*
X13577119Y-14190476D02*
X13567596Y-14200000D01*
X13567596Y-14200000D02*
X13548548Y-14209524D01*
X13548548Y-14209524D02*
X13519976Y-14209524D01*
X13700929Y-14209524D02*
X13681881Y-14200000D01*
X13681881Y-14200000D02*
X13672357Y-14180952D01*
X13672357Y-14180952D02*
X13672357Y-14009524D01*
X13853310Y-14200000D02*
X13834262Y-14209524D01*
X13834262Y-14209524D02*
X13796167Y-14209524D01*
X13796167Y-14209524D02*
X13777119Y-14200000D01*
X13777119Y-14200000D02*
X13767596Y-14180952D01*
X13767596Y-14180952D02*
X13767596Y-14104762D01*
X13767596Y-14104762D02*
X13777119Y-14085714D01*
X13777119Y-14085714D02*
X13796167Y-14076190D01*
X13796167Y-14076190D02*
X13834262Y-14076190D01*
X13834262Y-14076190D02*
X13853310Y-14085714D01*
X13853310Y-14085714D02*
X13862834Y-14104762D01*
X13862834Y-14104762D02*
X13862834Y-14123809D01*
X13862834Y-14123809D02*
X13767596Y-14142857D01*
X13939024Y-14200000D02*
X13958072Y-14209524D01*
X13958072Y-14209524D02*
X13996167Y-14209524D01*
X13996167Y-14209524D02*
X14015215Y-14200000D01*
X14015215Y-14200000D02*
X14024738Y-14180952D01*
X14024738Y-14180952D02*
X14024738Y-14171428D01*
X14024738Y-14171428D02*
X14015215Y-14152381D01*
X14015215Y-14152381D02*
X13996167Y-14142857D01*
X13996167Y-14142857D02*
X13967596Y-14142857D01*
X13967596Y-14142857D02*
X13948548Y-14133333D01*
X13948548Y-14133333D02*
X13939024Y-14114286D01*
X13939024Y-14114286D02*
X13939024Y-14104762D01*
X13939024Y-14104762D02*
X13948548Y-14085714D01*
X13948548Y-14085714D02*
X13967596Y-14076190D01*
X13967596Y-14076190D02*
X13996167Y-14076190D01*
X13996167Y-14076190D02*
X14015215Y-14085714D01*
X14091405Y-14285714D02*
X14100929Y-14276190D01*
X14100929Y-14276190D02*
X14119977Y-14247619D01*
X14119977Y-14247619D02*
X14129500Y-14228571D01*
X14129500Y-14228571D02*
X14139024Y-14200000D01*
X14139024Y-14200000D02*
X14148548Y-14152381D01*
X14148548Y-14152381D02*
X14148548Y-14114286D01*
X14148548Y-14114286D02*
X14139024Y-14066667D01*
X14139024Y-14066667D02*
X14129500Y-14038095D01*
X14129500Y-14038095D02*
X14119977Y-14019048D01*
X14119977Y-14019048D02*
X14100929Y-13990476D01*
X14100929Y-13990476D02*
X14091405Y-13980952D01*
X14453310Y-14285714D02*
X14443786Y-14276190D01*
X14443786Y-14276190D02*
X14424738Y-14247619D01*
X14424738Y-14247619D02*
X14415215Y-14228571D01*
X14415215Y-14228571D02*
X14405691Y-14200000D01*
X14405691Y-14200000D02*
X14396167Y-14152381D01*
X14396167Y-14152381D02*
X14396167Y-14114286D01*
X14396167Y-14114286D02*
X14405691Y-14066667D01*
X14405691Y-14066667D02*
X14415215Y-14038095D01*
X14415215Y-14038095D02*
X14424738Y-14019048D01*
X14424738Y-14019048D02*
X14443786Y-13990476D01*
X14443786Y-13990476D02*
X14453310Y-13980952D01*
X14529500Y-14076190D02*
X14529500Y-14209524D01*
X14529500Y-14095238D02*
X14539024Y-14085714D01*
X14539024Y-14085714D02*
X14558072Y-14076190D01*
X14558072Y-14076190D02*
X14586643Y-14076190D01*
X14586643Y-14076190D02*
X14605691Y-14085714D01*
X14605691Y-14085714D02*
X14615215Y-14104762D01*
X14615215Y-14104762D02*
X14615215Y-14209524D01*
X14739024Y-14209524D02*
X14719977Y-14200000D01*
X14719977Y-14200000D02*
X14710453Y-14190476D01*
X14710453Y-14190476D02*
X14700929Y-14171428D01*
X14700929Y-14171428D02*
X14700929Y-14114286D01*
X14700929Y-14114286D02*
X14710453Y-14095238D01*
X14710453Y-14095238D02*
X14719977Y-14085714D01*
X14719977Y-14085714D02*
X14739024Y-14076190D01*
X14739024Y-14076190D02*
X14767596Y-14076190D01*
X14767596Y-14076190D02*
X14786643Y-14085714D01*
X14786643Y-14085714D02*
X14796167Y-14095238D01*
X14796167Y-14095238D02*
X14805691Y-14114286D01*
X14805691Y-14114286D02*
X14805691Y-14171428D01*
X14805691Y-14171428D02*
X14796167Y-14190476D01*
X14796167Y-14190476D02*
X14786643Y-14200000D01*
X14786643Y-14200000D02*
X14767596Y-14209524D01*
X14767596Y-14209524D02*
X14739024Y-14209524D01*
X14862834Y-14076190D02*
X14939024Y-14076190D01*
X14891405Y-14009524D02*
X14891405Y-14180952D01*
X14891405Y-14180952D02*
X14900929Y-14200000D01*
X14900929Y-14200000D02*
X14919977Y-14209524D01*
X14919977Y-14209524D02*
X14939024Y-14209524D01*
X15158072Y-14076190D02*
X15158072Y-14276190D01*
X15158072Y-14085714D02*
X15177119Y-14076190D01*
X15177119Y-14076190D02*
X15215215Y-14076190D01*
X15215215Y-14076190D02*
X15234262Y-14085714D01*
X15234262Y-14085714D02*
X15243786Y-14095238D01*
X15243786Y-14095238D02*
X15253310Y-14114286D01*
X15253310Y-14114286D02*
X15253310Y-14171428D01*
X15253310Y-14171428D02*
X15243786Y-14190476D01*
X15243786Y-14190476D02*
X15234262Y-14200000D01*
X15234262Y-14200000D02*
X15215215Y-14209524D01*
X15215215Y-14209524D02*
X15177119Y-14209524D01*
X15177119Y-14209524D02*
X15158072Y-14200000D01*
X15367596Y-14209524D02*
X15348548Y-14200000D01*
X15348548Y-14200000D02*
X15339024Y-14180952D01*
X15339024Y-14180952D02*
X15339024Y-14009524D01*
X15529500Y-14209524D02*
X15529500Y-14104762D01*
X15529500Y-14104762D02*
X15519977Y-14085714D01*
X15519977Y-14085714D02*
X15500929Y-14076190D01*
X15500929Y-14076190D02*
X15462834Y-14076190D01*
X15462834Y-14076190D02*
X15443786Y-14085714D01*
X15529500Y-14200000D02*
X15510453Y-14209524D01*
X15510453Y-14209524D02*
X15462834Y-14209524D01*
X15462834Y-14209524D02*
X15443786Y-14200000D01*
X15443786Y-14200000D02*
X15434262Y-14180952D01*
X15434262Y-14180952D02*
X15434262Y-14161905D01*
X15434262Y-14161905D02*
X15443786Y-14142857D01*
X15443786Y-14142857D02*
X15462834Y-14133333D01*
X15462834Y-14133333D02*
X15510453Y-14133333D01*
X15510453Y-14133333D02*
X15529500Y-14123809D01*
X15596167Y-14076190D02*
X15672358Y-14076190D01*
X15624739Y-14009524D02*
X15624739Y-14180952D01*
X15624739Y-14180952D02*
X15634262Y-14200000D01*
X15634262Y-14200000D02*
X15653310Y-14209524D01*
X15653310Y-14209524D02*
X15672358Y-14209524D01*
X15815215Y-14200000D02*
X15796167Y-14209524D01*
X15796167Y-14209524D02*
X15758072Y-14209524D01*
X15758072Y-14209524D02*
X15739024Y-14200000D01*
X15739024Y-14200000D02*
X15729500Y-14180952D01*
X15729500Y-14180952D02*
X15729500Y-14104762D01*
X15729500Y-14104762D02*
X15739024Y-14085714D01*
X15739024Y-14085714D02*
X15758072Y-14076190D01*
X15758072Y-14076190D02*
X15796167Y-14076190D01*
X15796167Y-14076190D02*
X15815215Y-14085714D01*
X15815215Y-14085714D02*
X15824739Y-14104762D01*
X15824739Y-14104762D02*
X15824739Y-14123809D01*
X15824739Y-14123809D02*
X15729500Y-14142857D01*
X15996167Y-14209524D02*
X15996167Y-14009524D01*
X15996167Y-14200000D02*
X15977120Y-14209524D01*
X15977120Y-14209524D02*
X15939024Y-14209524D01*
X15939024Y-14209524D02*
X15919977Y-14200000D01*
X15919977Y-14200000D02*
X15910453Y-14190476D01*
X15910453Y-14190476D02*
X15900929Y-14171428D01*
X15900929Y-14171428D02*
X15900929Y-14114286D01*
X15900929Y-14114286D02*
X15910453Y-14095238D01*
X15910453Y-14095238D02*
X15919977Y-14085714D01*
X15919977Y-14085714D02*
X15939024Y-14076190D01*
X15939024Y-14076190D02*
X15977120Y-14076190D01*
X15977120Y-14076190D02*
X15996167Y-14085714D01*
X16072358Y-14285714D02*
X16081881Y-14276190D01*
X16081881Y-14276190D02*
X16100929Y-14247619D01*
X16100929Y-14247619D02*
X16110453Y-14228571D01*
X16110453Y-14228571D02*
X16119977Y-14200000D01*
X16119977Y-14200000D02*
X16129500Y-14152381D01*
X16129500Y-14152381D02*
X16129500Y-14114286D01*
X16129500Y-14114286D02*
X16119977Y-14066667D01*
X16119977Y-14066667D02*
X16110453Y-14038095D01*
X16110453Y-14038095D02*
X16100929Y-14019048D01*
X16100929Y-14019048D02*
X16081881Y-13990476D01*
X16081881Y-13990476D02*
X16072358Y-13980952D01*
M02*
