G04 #@! TF.GenerationSoftware,KiCad,Pcbnew,7.0.1*
G04 #@! TF.CreationDate,2023-03-31T10:13:42+02:00*
G04 #@! TF.ProjectId,ESP32-BMS_Ctrl,45535033-322d-4424-9d53-5f4374726c2e,rev?*
G04 #@! TF.SameCoordinates,Original*
G04 #@! TF.FileFunction,Copper,L2,Bot*
G04 #@! TF.FilePolarity,Positive*
%FSLAX46Y46*%
G04 Gerber Fmt 4.6, Leading zero omitted, Abs format (unit mm)*
G04 Created by KiCad (PCBNEW 7.0.1) date 2023-03-31 10:13:42*
%MOMM*%
%LPD*%
G01*
G04 APERTURE LIST*
G04 Aperture macros list*
%AMRoundRect*
0 Rectangle with rounded corners*
0 $1 Rounding radius*
0 $2 $3 $4 $5 $6 $7 $8 $9 X,Y pos of 4 corners*
0 Add a 4 corners polygon primitive as box body*
4,1,4,$2,$3,$4,$5,$6,$7,$8,$9,$2,$3,0*
0 Add four circle primitives for the rounded corners*
1,1,$1+$1,$2,$3*
1,1,$1+$1,$4,$5*
1,1,$1+$1,$6,$7*
1,1,$1+$1,$8,$9*
0 Add four rect primitives between the rounded corners*
20,1,$1+$1,$2,$3,$4,$5,0*
20,1,$1+$1,$4,$5,$6,$7,0*
20,1,$1+$1,$6,$7,$8,$9,0*
20,1,$1+$1,$8,$9,$2,$3,0*%
G04 Aperture macros list end*
G04 #@! TA.AperFunction,ComponentPad*
%ADD10RoundRect,0.250000X0.600000X0.750000X-0.600000X0.750000X-0.600000X-0.750000X0.600000X-0.750000X0*%
G04 #@! TD*
G04 #@! TA.AperFunction,ComponentPad*
%ADD11O,1.700000X2.000000*%
G04 #@! TD*
G04 #@! TA.AperFunction,ComponentPad*
%ADD12C,1.600000*%
G04 #@! TD*
G04 #@! TA.AperFunction,ComponentPad*
%ADD13O,1.600000X1.600000*%
G04 #@! TD*
G04 #@! TA.AperFunction,ComponentPad*
%ADD14R,2.200000X2.200000*%
G04 #@! TD*
G04 #@! TA.AperFunction,ComponentPad*
%ADD15O,2.200000X2.200000*%
G04 #@! TD*
G04 #@! TA.AperFunction,ComponentPad*
%ADD16R,2.000000X2.000000*%
G04 #@! TD*
G04 #@! TA.AperFunction,ComponentPad*
%ADD17C,2.000000*%
G04 #@! TD*
G04 #@! TA.AperFunction,ComponentPad*
%ADD18R,1.905000X2.000000*%
G04 #@! TD*
G04 #@! TA.AperFunction,ComponentPad*
%ADD19O,1.905000X2.000000*%
G04 #@! TD*
G04 #@! TA.AperFunction,ComponentPad*
%ADD20R,1.600000X1.600000*%
G04 #@! TD*
G04 #@! TA.AperFunction,ComponentPad*
%ADD21R,2.400000X2.400000*%
G04 #@! TD*
G04 #@! TA.AperFunction,ComponentPad*
%ADD22C,2.400000*%
G04 #@! TD*
G04 #@! TA.AperFunction,ComponentPad*
%ADD23C,4.000000*%
G04 #@! TD*
G04 #@! TA.AperFunction,Conductor*
%ADD24C,0.500000*%
G04 #@! TD*
G04 APERTURE END LIST*
D10*
X133390000Y-86926000D03*
D11*
X130890000Y-86926000D03*
D12*
X139700000Y-53271000D03*
D13*
X139700000Y-63431000D03*
D14*
X158750000Y-115801000D03*
D15*
X168910000Y-115801000D03*
D16*
X200660000Y-108665000D03*
D17*
X200660000Y-113665000D03*
D16*
X185420000Y-108492677D03*
D17*
X185420000Y-113492677D03*
D12*
X145415000Y-83751000D03*
D13*
X145415000Y-93911000D03*
D18*
X135890000Y-109151000D03*
D19*
X138430000Y-109151000D03*
X140970000Y-109151000D03*
D12*
X129540000Y-102166000D03*
D13*
X129540000Y-92006000D03*
D12*
X170815000Y-83751000D03*
D13*
X170815000Y-93911000D03*
D20*
X144740000Y-70485000D03*
D13*
X142200000Y-70485000D03*
X139660000Y-70485000D03*
X137120000Y-70485000D03*
X137120000Y-78105000D03*
X139660000Y-78105000D03*
X142200000Y-78105000D03*
X144740000Y-78105000D03*
D14*
X133350000Y-115801000D03*
D15*
X143510000Y-115801000D03*
D12*
X154940000Y-102166000D03*
D13*
X154940000Y-92006000D03*
D10*
X158750000Y-86926000D03*
D11*
X156250000Y-86926000D03*
D12*
X139700000Y-93911000D03*
D13*
X139700000Y-83751000D03*
D18*
X135890000Y-100261000D03*
D19*
X138430000Y-100261000D03*
X140970000Y-100261000D03*
D12*
X125095000Y-53271000D03*
D13*
X125095000Y-63431000D03*
D12*
X149860000Y-53271000D03*
D13*
X149860000Y-63431000D03*
D18*
X111045000Y-109151000D03*
D19*
X113585000Y-109151000D03*
X116125000Y-109151000D03*
D12*
X134620000Y-63431000D03*
D13*
X134620000Y-53271000D03*
D21*
X112435000Y-125026000D03*
D22*
X117435000Y-125026000D03*
D12*
X197485000Y-95250000D03*
D13*
X197485000Y-85090000D03*
D18*
X161290000Y-109151000D03*
D19*
X163830000Y-109151000D03*
X166370000Y-109151000D03*
D18*
X111045000Y-100261000D03*
D19*
X113585000Y-100261000D03*
X116125000Y-100261000D03*
D12*
X109855000Y-53271000D03*
D13*
X109855000Y-63431000D03*
D23*
X206844669Y-96030000D03*
X206844669Y-71030000D03*
D20*
X205424669Y-77990000D03*
D12*
X205424669Y-80760000D03*
X205424669Y-83530000D03*
X205424669Y-86300000D03*
X205424669Y-89070000D03*
X208264669Y-79375000D03*
X208264669Y-82145000D03*
X208264669Y-84915000D03*
X208264669Y-87685000D03*
D21*
X162600000Y-125026000D03*
D22*
X167600000Y-125026000D03*
D21*
X190540000Y-125026000D03*
D22*
X195540000Y-125026000D03*
D14*
X108545000Y-115801000D03*
D15*
X118705000Y-115801000D03*
D18*
X161290000Y-100261000D03*
D19*
X163830000Y-100261000D03*
X166370000Y-100261000D03*
D20*
X189865000Y-102142677D03*
D12*
X192405000Y-102142677D03*
X194945000Y-102142677D03*
X197485000Y-102142677D03*
X122555000Y-83751000D03*
D13*
X122555000Y-93911000D03*
D12*
X144780000Y-63431000D03*
D13*
X144780000Y-53271000D03*
D20*
X166860000Y-52105000D03*
D12*
X169400000Y-52105000D03*
X169400000Y-54645000D03*
X166860000Y-54645000D03*
X169400000Y-57185000D03*
X166860000Y-57185000D03*
X169400000Y-59725000D03*
X166860000Y-59725000D03*
X169400000Y-62265000D03*
X166860000Y-62265000D03*
X169400000Y-64805000D03*
X166860000Y-64805000D03*
X166860000Y-67345000D03*
X169400000Y-67345000D03*
X169400000Y-69885000D03*
X166860000Y-69885000D03*
X187430000Y-67345000D03*
X189970000Y-67345000D03*
X189970000Y-69885000D03*
X187430000Y-69885000D03*
X189970000Y-64805000D03*
X187430000Y-64805000D03*
X189970000Y-62265000D03*
X187430000Y-62265000D03*
X189970000Y-59725000D03*
X187430000Y-59725000D03*
X189970000Y-57185000D03*
X187430000Y-57185000D03*
X189970000Y-54645000D03*
X187430000Y-54645000D03*
X189970000Y-52105000D03*
X187430000Y-52105000D03*
D20*
X122555000Y-70485000D03*
D13*
X120015000Y-70485000D03*
X117475000Y-70485000D03*
X114935000Y-70485000D03*
X114935000Y-78105000D03*
X117475000Y-78105000D03*
X120015000Y-78105000D03*
X122555000Y-78105000D03*
D12*
X116840000Y-93911000D03*
D13*
X116840000Y-83751000D03*
D12*
X165100000Y-93911000D03*
D13*
X165100000Y-83751000D03*
D12*
X114935000Y-53271000D03*
D13*
X114935000Y-63431000D03*
D12*
X111085000Y-93911000D03*
D13*
X111085000Y-83751000D03*
D12*
X120015000Y-53271000D03*
D13*
X120015000Y-63431000D03*
D21*
X137200000Y-125026000D03*
D22*
X142200000Y-125026000D03*
D24*
X133350000Y-89535000D02*
X130810000Y-92075000D01*
X139700000Y-83751000D02*
X141039000Y-83751000D01*
X144780000Y-80010000D02*
X144740000Y-79970000D01*
X130810000Y-92075000D02*
X129609000Y-92075000D01*
X139700000Y-83751000D02*
X134609365Y-83751000D01*
X141039000Y-83751000D02*
X144780000Y-80010000D01*
X134609365Y-83751000D02*
X133390000Y-84970365D01*
X133390000Y-84970365D02*
X133390000Y-86926000D01*
X144740000Y-79970000D02*
X144740000Y-78105000D01*
X133350000Y-86966000D02*
X133350000Y-89535000D01*
X158750000Y-89535000D02*
X158750000Y-86926000D01*
X161925000Y-86926000D02*
X165100000Y-83751000D01*
X158819000Y-86995000D02*
X161925000Y-86995000D01*
X154940000Y-92006000D02*
X156279000Y-92006000D01*
X156279000Y-92006000D02*
X158750000Y-89535000D01*
X161925000Y-86995000D02*
X161925000Y-86926000D01*
X156250000Y-81955000D02*
X156250000Y-86926000D01*
X138430000Y-75565000D02*
X137120000Y-76875000D01*
X149860000Y-75565000D02*
X138430000Y-75565000D01*
X167005000Y-81915000D02*
X158750000Y-81915000D01*
X156250000Y-81955000D02*
X149860000Y-75565000D01*
X158710000Y-81955000D02*
X158750000Y-81915000D01*
X137120000Y-76875000D02*
X137120000Y-78105000D01*
X156250000Y-81955000D02*
X158710000Y-81955000D01*
X170815000Y-83751000D02*
X168841000Y-83751000D01*
X168841000Y-83751000D02*
X167005000Y-81915000D01*
X192440000Y-52105000D02*
X201930000Y-61595000D01*
X189970000Y-52105000D02*
X192440000Y-52105000D01*
X201930000Y-74495331D02*
X205424669Y-77990000D01*
X201930000Y-61595000D02*
X201930000Y-74495331D01*
X200025000Y-62865000D02*
X200025000Y-79375000D01*
X204180000Y-83530000D02*
X205424669Y-83530000D01*
X200025000Y-79375000D02*
X204180000Y-83530000D01*
X194345000Y-57185000D02*
X200025000Y-62865000D01*
X189970000Y-57185000D02*
X194345000Y-57185000D01*
X156210000Y-74295000D02*
X160020000Y-78105000D01*
X201930000Y-97790000D02*
X203835000Y-99695000D01*
X212725000Y-83820000D02*
X212709669Y-83820000D01*
X117475000Y-76200000D02*
X117475000Y-78105000D01*
X117475000Y-76200000D02*
X119380000Y-74295000D01*
X203835000Y-99695000D02*
X210185000Y-99695000D01*
X212709669Y-83820000D02*
X208264669Y-79375000D01*
X210185000Y-99695000D02*
X212725000Y-97155000D01*
X212725000Y-97155000D02*
X212725000Y-83820000D01*
X119380000Y-74295000D02*
X156210000Y-74295000D01*
X201930000Y-95885000D02*
X201930000Y-97790000D01*
X177800000Y-78105000D02*
X192405000Y-92710000D01*
X160020000Y-78105000D02*
X177800000Y-78105000D01*
X198755000Y-92710000D02*
X201930000Y-95885000D01*
X192405000Y-92710000D02*
X198755000Y-92710000D01*
X211455000Y-89535000D02*
X211455000Y-85335331D01*
X114935000Y-76200000D02*
X118110000Y-73025000D01*
X193040000Y-91440000D02*
X199390000Y-91440000D01*
X199390000Y-91440000D02*
X200660000Y-92710000D01*
X156845000Y-73025000D02*
X160655000Y-76835000D01*
X211455000Y-85335331D02*
X208264669Y-82145000D01*
X114935000Y-78105000D02*
X114935000Y-76200000D01*
X160655000Y-76835000D02*
X178435000Y-76835000D01*
X208280000Y-92710000D02*
X211455000Y-89535000D01*
X200660000Y-92710000D02*
X208280000Y-92710000D01*
X178435000Y-76835000D02*
X193040000Y-91440000D01*
X118110000Y-73025000D02*
X156845000Y-73025000D01*
X111045000Y-100261000D02*
X111045000Y-109151000D01*
X111085000Y-93911000D02*
X111085000Y-100221000D01*
X129540000Y-102166000D02*
X135821000Y-102166000D01*
X135890000Y-102235000D02*
X135890000Y-109151000D01*
X135890000Y-100261000D02*
X135890000Y-102235000D01*
X135821000Y-102166000D02*
X135890000Y-102235000D01*
X161221000Y-102166000D02*
X161290000Y-102235000D01*
X161290000Y-102235000D02*
X161290000Y-100261000D01*
X154940000Y-102166000D02*
X161221000Y-102166000D01*
X161290000Y-102235000D02*
X161290000Y-109151000D01*
X120015000Y-78105000D02*
X120015000Y-81211000D01*
X120015000Y-81211000D02*
X122555000Y-83751000D01*
X159385000Y-58420000D02*
X160655000Y-57150000D01*
X130106000Y-58420000D02*
X125095000Y-63431000D01*
X160655000Y-57150000D02*
X160690000Y-57185000D01*
X130106000Y-58420000D02*
X159385000Y-58420000D01*
X160690000Y-57185000D02*
X166860000Y-57185000D01*
X172085000Y-60960000D02*
X172085000Y-71120000D01*
X155506000Y-63431000D02*
X149860000Y-63431000D01*
X170815000Y-72390000D02*
X164465000Y-72390000D01*
X170850000Y-59725000D02*
X172085000Y-60960000D01*
X172085000Y-71120000D02*
X170815000Y-72390000D01*
X169400000Y-59725000D02*
X170850000Y-59725000D01*
X164465000Y-72390000D02*
X155506000Y-63431000D01*
X141605000Y-60325000D02*
X166260000Y-60325000D01*
X139700000Y-62230000D02*
X141605000Y-60325000D01*
X166260000Y-60325000D02*
X166860000Y-59725000D01*
X139700000Y-63431000D02*
X139700000Y-62230000D01*
X158150000Y-54645000D02*
X166860000Y-54645000D01*
X121851000Y-56515000D02*
X156210000Y-56515000D01*
X114935000Y-63431000D02*
X121851000Y-56515000D01*
X156210000Y-56515000D02*
X158115000Y-54610000D01*
X158115000Y-54610000D02*
X158150000Y-54645000D01*
G04 #@! TA.AperFunction,Conductor*
G36*
X218377500Y-50181613D02*
G01*
X218422887Y-50227000D01*
X218439500Y-50289000D01*
X218439500Y-111760000D01*
X93345500Y-111760000D01*
X93345500Y-110198869D01*
X109592000Y-110198869D01*
X109598409Y-110258484D01*
X109619440Y-110314870D01*
X109648704Y-110393331D01*
X109734954Y-110508546D01*
X109850169Y-110594796D01*
X109985017Y-110645091D01*
X110044627Y-110651500D01*
X112045372Y-110651499D01*
X112104983Y-110645091D01*
X112239831Y-110594796D01*
X112355046Y-110508546D01*
X112441296Y-110393331D01*
X112452726Y-110362685D01*
X112484838Y-110314870D01*
X112535091Y-110286720D01*
X112592641Y-110284312D01*
X112645067Y-110308165D01*
X112787561Y-110419072D01*
X112999336Y-110533679D01*
X113227087Y-110611866D01*
X113464601Y-110651500D01*
X113705399Y-110651500D01*
X113942913Y-110611866D01*
X114170664Y-110533679D01*
X114382439Y-110419072D01*
X114572463Y-110271171D01*
X114735551Y-110094010D01*
X114751191Y-110070070D01*
X114795982Y-110028837D01*
X114855000Y-110013892D01*
X114914018Y-110028837D01*
X114958808Y-110070070D01*
X114974449Y-110094010D01*
X115137537Y-110271171D01*
X115327561Y-110419072D01*
X115539336Y-110533679D01*
X115767087Y-110611866D01*
X116004601Y-110651500D01*
X116245399Y-110651500D01*
X116482913Y-110611866D01*
X116710664Y-110533679D01*
X116922439Y-110419072D01*
X117112463Y-110271171D01*
X117275551Y-110094010D01*
X117407255Y-109892422D01*
X117503983Y-109671905D01*
X117563095Y-109438476D01*
X117578000Y-109258600D01*
X117578000Y-109043400D01*
X117563095Y-108863524D01*
X117503983Y-108630095D01*
X117407255Y-108409578D01*
X117275551Y-108207990D01*
X117112463Y-108030829D01*
X116922439Y-107882928D01*
X116710664Y-107768321D01*
X116710660Y-107768319D01*
X116710659Y-107768319D01*
X116482915Y-107690134D01*
X116245399Y-107650500D01*
X116004601Y-107650500D01*
X115767084Y-107690134D01*
X115539340Y-107768319D01*
X115539336Y-107768320D01*
X115539336Y-107768321D01*
X115398152Y-107844725D01*
X115327559Y-107882929D01*
X115137536Y-108030829D01*
X114974446Y-108207991D01*
X114958806Y-108231931D01*
X114914015Y-108273163D01*
X114854997Y-108288107D01*
X114795980Y-108273161D01*
X114751190Y-108231928D01*
X114735551Y-108207990D01*
X114572463Y-108030829D01*
X114382439Y-107882928D01*
X114170664Y-107768321D01*
X114170660Y-107768319D01*
X114170659Y-107768319D01*
X113942915Y-107690134D01*
X113705399Y-107650500D01*
X113464601Y-107650500D01*
X113227084Y-107690134D01*
X112999340Y-107768319D01*
X112999336Y-107768320D01*
X112999336Y-107768321D01*
X112787561Y-107882928D01*
X112787559Y-107882928D01*
X112787556Y-107882931D01*
X112645067Y-107993833D01*
X112592639Y-108017687D01*
X112535089Y-108015279D01*
X112484836Y-107987129D01*
X112452725Y-107939313D01*
X112441296Y-107908669D01*
X112355046Y-107793454D01*
X112239831Y-107707204D01*
X112104983Y-107656909D01*
X112045373Y-107650500D01*
X112045369Y-107650500D01*
X111919500Y-107650500D01*
X111857500Y-107633887D01*
X111812113Y-107588500D01*
X111795500Y-107526500D01*
X111795500Y-102166000D01*
X128234531Y-102166000D01*
X128254364Y-102392689D01*
X128313261Y-102612497D01*
X128409432Y-102818735D01*
X128539953Y-103005140D01*
X128700859Y-103166046D01*
X128887264Y-103296567D01*
X128887265Y-103296567D01*
X128887266Y-103296568D01*
X129093504Y-103392739D01*
X129313308Y-103451635D01*
X129540000Y-103471468D01*
X129766692Y-103451635D01*
X129986496Y-103392739D01*
X130192734Y-103296568D01*
X130379139Y-103166047D01*
X130540047Y-103005139D01*
X130565088Y-102969377D01*
X130609406Y-102930511D01*
X130666663Y-102916500D01*
X135015500Y-102916500D01*
X135077500Y-102933113D01*
X135122887Y-102978500D01*
X135139500Y-103040500D01*
X135139500Y-107526501D01*
X135122887Y-107588501D01*
X135077500Y-107633888D01*
X135015500Y-107650501D01*
X134889628Y-107650501D01*
X134859822Y-107653705D01*
X134830015Y-107656909D01*
X134695169Y-107707204D01*
X134579954Y-107793454D01*
X134493704Y-107908668D01*
X134443409Y-108043516D01*
X134437000Y-108103130D01*
X134437000Y-110198869D01*
X134443409Y-110258484D01*
X134464440Y-110314870D01*
X134493704Y-110393331D01*
X134579954Y-110508546D01*
X134695169Y-110594796D01*
X134830017Y-110645091D01*
X134889627Y-110651500D01*
X136890372Y-110651499D01*
X136949983Y-110645091D01*
X137084831Y-110594796D01*
X137200046Y-110508546D01*
X137286296Y-110393331D01*
X137297726Y-110362685D01*
X137329838Y-110314870D01*
X137380091Y-110286720D01*
X137437641Y-110284312D01*
X137490067Y-110308165D01*
X137632561Y-110419072D01*
X137844336Y-110533679D01*
X138072087Y-110611866D01*
X138309601Y-110651500D01*
X138550399Y-110651500D01*
X138787913Y-110611866D01*
X139015664Y-110533679D01*
X139227439Y-110419072D01*
X139417463Y-110271171D01*
X139580551Y-110094010D01*
X139596191Y-110070070D01*
X139640982Y-110028837D01*
X139700000Y-110013892D01*
X139759018Y-110028837D01*
X139803808Y-110070070D01*
X139819449Y-110094010D01*
X139982537Y-110271171D01*
X140172561Y-110419072D01*
X140384336Y-110533679D01*
X140612087Y-110611866D01*
X140849601Y-110651500D01*
X141090399Y-110651500D01*
X141327913Y-110611866D01*
X141555664Y-110533679D01*
X141767439Y-110419072D01*
X141957463Y-110271171D01*
X142120551Y-110094010D01*
X142252255Y-109892422D01*
X142348983Y-109671905D01*
X142408095Y-109438476D01*
X142423000Y-109258600D01*
X142423000Y-109043400D01*
X142408095Y-108863524D01*
X142348983Y-108630095D01*
X142252255Y-108409578D01*
X142120551Y-108207990D01*
X141957463Y-108030829D01*
X141767439Y-107882928D01*
X141555664Y-107768321D01*
X141555660Y-107768319D01*
X141555659Y-107768319D01*
X141327915Y-107690134D01*
X141090399Y-107650500D01*
X140849601Y-107650500D01*
X140612084Y-107690134D01*
X140384340Y-107768319D01*
X140384336Y-107768320D01*
X140384336Y-107768321D01*
X140243152Y-107844725D01*
X140172559Y-107882929D01*
X139982536Y-108030829D01*
X139819448Y-108207991D01*
X139803808Y-108231930D01*
X139759017Y-108273162D01*
X139700000Y-108288107D01*
X139640983Y-108273162D01*
X139596192Y-108231930D01*
X139592649Y-108226508D01*
X139580551Y-108207990D01*
X139417463Y-108030829D01*
X139227439Y-107882928D01*
X139015664Y-107768321D01*
X139015660Y-107768319D01*
X139015659Y-107768319D01*
X138787915Y-107690134D01*
X138550399Y-107650500D01*
X138309601Y-107650500D01*
X138072084Y-107690134D01*
X137844340Y-107768319D01*
X137844336Y-107768320D01*
X137844336Y-107768321D01*
X137632561Y-107882928D01*
X137632559Y-107882928D01*
X137632556Y-107882931D01*
X137490067Y-107993833D01*
X137437639Y-108017687D01*
X137380089Y-108015279D01*
X137329836Y-107987129D01*
X137297725Y-107939313D01*
X137286296Y-107908669D01*
X137200046Y-107793454D01*
X137084831Y-107707204D01*
X136949983Y-107656909D01*
X136890373Y-107650500D01*
X136890369Y-107650500D01*
X136764500Y-107650500D01*
X136702500Y-107633887D01*
X136657113Y-107588500D01*
X136640500Y-107526500D01*
X136640500Y-102298706D01*
X136641809Y-102280736D01*
X136642338Y-102277118D01*
X136645289Y-102256977D01*
X136640972Y-102207631D01*
X136640500Y-102196824D01*
X136640500Y-102165999D01*
X153634531Y-102165999D01*
X153654364Y-102392689D01*
X153713261Y-102612497D01*
X153809432Y-102818735D01*
X153939953Y-103005140D01*
X154100859Y-103166046D01*
X154287264Y-103296567D01*
X154287265Y-103296567D01*
X154287266Y-103296568D01*
X154493504Y-103392739D01*
X154713308Y-103451635D01*
X154940000Y-103471468D01*
X155166692Y-103451635D01*
X155386496Y-103392739D01*
X155592734Y-103296568D01*
X155779139Y-103166047D01*
X155940047Y-103005139D01*
X155965088Y-102969377D01*
X156009406Y-102930511D01*
X156066663Y-102916500D01*
X160415500Y-102916500D01*
X160477500Y-102933113D01*
X160522887Y-102978500D01*
X160539500Y-103040500D01*
X160539500Y-107526501D01*
X160522887Y-107588501D01*
X160477500Y-107633888D01*
X160415500Y-107650501D01*
X160289628Y-107650501D01*
X160259822Y-107653705D01*
X160230015Y-107656909D01*
X160095169Y-107707204D01*
X159979954Y-107793454D01*
X159893704Y-107908668D01*
X159843409Y-108043516D01*
X159837000Y-108103130D01*
X159837000Y-110198869D01*
X159843409Y-110258484D01*
X159864440Y-110314870D01*
X159893704Y-110393331D01*
X159979954Y-110508546D01*
X160095169Y-110594796D01*
X160230017Y-110645091D01*
X160289627Y-110651500D01*
X162290372Y-110651499D01*
X162349983Y-110645091D01*
X162484831Y-110594796D01*
X162600046Y-110508546D01*
X162686296Y-110393331D01*
X162697726Y-110362685D01*
X162729838Y-110314870D01*
X162780091Y-110286720D01*
X162837641Y-110284312D01*
X162890067Y-110308165D01*
X163032561Y-110419072D01*
X163244336Y-110533679D01*
X163472087Y-110611866D01*
X163709601Y-110651500D01*
X163950399Y-110651500D01*
X164187913Y-110611866D01*
X164415664Y-110533679D01*
X164627439Y-110419072D01*
X164817463Y-110271171D01*
X164980551Y-110094010D01*
X164996191Y-110070070D01*
X165040982Y-110028837D01*
X165100000Y-110013892D01*
X165159018Y-110028837D01*
X165203808Y-110070070D01*
X165219449Y-110094010D01*
X165382537Y-110271171D01*
X165572561Y-110419072D01*
X165784336Y-110533679D01*
X166012087Y-110611866D01*
X166249601Y-110651500D01*
X166490399Y-110651500D01*
X166727913Y-110611866D01*
X166955664Y-110533679D01*
X167167439Y-110419072D01*
X167357463Y-110271171D01*
X167520551Y-110094010D01*
X167652255Y-109892422D01*
X167748983Y-109671905D01*
X167782247Y-109540546D01*
X183919500Y-109540546D01*
X183925909Y-109600160D01*
X183976204Y-109735008D01*
X184062454Y-109850223D01*
X184177669Y-109936473D01*
X184312517Y-109986768D01*
X184372127Y-109993177D01*
X186467872Y-109993176D01*
X186527483Y-109986768D01*
X186662331Y-109936473D01*
X186777546Y-109850223D01*
X186863796Y-109735008D01*
X186872053Y-109712869D01*
X199159500Y-109712869D01*
X199165909Y-109772483D01*
X199216204Y-109907331D01*
X199302454Y-110022546D01*
X199417669Y-110108796D01*
X199552517Y-110159091D01*
X199612127Y-110165500D01*
X201707872Y-110165499D01*
X201767483Y-110159091D01*
X201902331Y-110108796D01*
X202017546Y-110022546D01*
X202103796Y-109907331D01*
X202154091Y-109772483D01*
X202160500Y-109712873D01*
X202160499Y-107617128D01*
X202154091Y-107557517D01*
X202103796Y-107422669D01*
X202017546Y-107307454D01*
X201902331Y-107221204D01*
X201767483Y-107170909D01*
X201707873Y-107164500D01*
X201707869Y-107164500D01*
X199612130Y-107164500D01*
X199552515Y-107170909D01*
X199417669Y-107221204D01*
X199302454Y-107307454D01*
X199216204Y-107422668D01*
X199165909Y-107557516D01*
X199159500Y-107617130D01*
X199159500Y-109712869D01*
X186872053Y-109712869D01*
X186914091Y-109600160D01*
X186920500Y-109540550D01*
X186920499Y-107444805D01*
X186914091Y-107385194D01*
X186863796Y-107250346D01*
X186777546Y-107135131D01*
X186662331Y-107048881D01*
X186527483Y-106998586D01*
X186467873Y-106992177D01*
X186467869Y-106992177D01*
X184372130Y-106992177D01*
X184312515Y-106998586D01*
X184177669Y-107048881D01*
X184062454Y-107135131D01*
X183976204Y-107250345D01*
X183925909Y-107385193D01*
X183919500Y-107444807D01*
X183919500Y-109540546D01*
X167782247Y-109540546D01*
X167808095Y-109438476D01*
X167823000Y-109258600D01*
X167823000Y-109043400D01*
X167808095Y-108863524D01*
X167748983Y-108630095D01*
X167652255Y-108409578D01*
X167520551Y-108207990D01*
X167357463Y-108030829D01*
X167167439Y-107882928D01*
X166955664Y-107768321D01*
X166955660Y-107768319D01*
X166955659Y-107768319D01*
X166727915Y-107690134D01*
X166490399Y-107650500D01*
X166249601Y-107650500D01*
X166012084Y-107690134D01*
X165784340Y-107768319D01*
X165784336Y-107768320D01*
X165784336Y-107768321D01*
X165643152Y-107844725D01*
X165572559Y-107882929D01*
X165382536Y-108030829D01*
X165219448Y-108207991D01*
X165203808Y-108231930D01*
X165159017Y-108273162D01*
X165100000Y-108288107D01*
X165040983Y-108273162D01*
X164996192Y-108231930D01*
X164992649Y-108226508D01*
X164980551Y-108207990D01*
X164817463Y-108030829D01*
X164627439Y-107882928D01*
X164415664Y-107768321D01*
X164415660Y-107768319D01*
X164415659Y-107768319D01*
X164187915Y-107690134D01*
X163950399Y-107650500D01*
X163709601Y-107650500D01*
X163472084Y-107690134D01*
X163244340Y-107768319D01*
X163244336Y-107768320D01*
X163244336Y-107768321D01*
X163032561Y-107882928D01*
X163032559Y-107882928D01*
X163032556Y-107882931D01*
X162890067Y-107993833D01*
X162837639Y-108017687D01*
X162780089Y-108015279D01*
X162729836Y-107987129D01*
X162697725Y-107939313D01*
X162686296Y-107908669D01*
X162600046Y-107793454D01*
X162484831Y-107707204D01*
X162349983Y-107656909D01*
X162290373Y-107650500D01*
X162290369Y-107650500D01*
X162164500Y-107650500D01*
X162102500Y-107633887D01*
X162057113Y-107588500D01*
X162040500Y-107526500D01*
X162040500Y-102990546D01*
X188564500Y-102990546D01*
X188570909Y-103050160D01*
X188621204Y-103185008D01*
X188707454Y-103300223D01*
X188822669Y-103386473D01*
X188957517Y-103436768D01*
X189017127Y-103443177D01*
X190712872Y-103443176D01*
X190772483Y-103436768D01*
X190907331Y-103386473D01*
X191022546Y-103300223D01*
X191081326Y-103221703D01*
X191679526Y-103221703D01*
X191752515Y-103272810D01*
X191958673Y-103368943D01*
X192178397Y-103427818D01*
X192405000Y-103447643D01*
X192631602Y-103427818D01*
X192851326Y-103368943D01*
X193057480Y-103272811D01*
X193130471Y-103221703D01*
X194219526Y-103221703D01*
X194292515Y-103272810D01*
X194498673Y-103368943D01*
X194718397Y-103427818D01*
X194945000Y-103447643D01*
X195171602Y-103427818D01*
X195391326Y-103368943D01*
X195597480Y-103272811D01*
X195670472Y-103221702D01*
X194945001Y-102496230D01*
X194945000Y-102496230D01*
X194219526Y-103221702D01*
X194219526Y-103221703D01*
X193130471Y-103221703D01*
X193130472Y-103221702D01*
X192405001Y-102496230D01*
X192405000Y-102496230D01*
X191679526Y-103221702D01*
X191679526Y-103221703D01*
X191081326Y-103221703D01*
X191108796Y-103185008D01*
X191159091Y-103050160D01*
X191165500Y-102990550D01*
X191165499Y-102989443D01*
X191165690Y-102988769D01*
X191166210Y-102983942D01*
X191167034Y-102984030D01*
X191183955Y-102924343D01*
X191233844Y-102878623D01*
X191300308Y-102865903D01*
X191325974Y-102868148D01*
X192051446Y-102142678D01*
X192758553Y-102142678D01*
X193484025Y-102868149D01*
X193535135Y-102795156D01*
X193562618Y-102736220D01*
X193608375Y-102684044D01*
X193675000Y-102664624D01*
X193741625Y-102684044D01*
X193787382Y-102736220D01*
X193814865Y-102795159D01*
X193865972Y-102868148D01*
X193865974Y-102868149D01*
X194591446Y-102142678D01*
X195298553Y-102142678D01*
X196024025Y-102868149D01*
X196075136Y-102795156D01*
X196102342Y-102736812D01*
X196148098Y-102684636D01*
X196214723Y-102665216D01*
X196281348Y-102684635D01*
X196327105Y-102736809D01*
X196354432Y-102795411D01*
X196354433Y-102795413D01*
X196484953Y-102981817D01*
X196645859Y-103142723D01*
X196832264Y-103273244D01*
X196832265Y-103273244D01*
X196832266Y-103273245D01*
X197038504Y-103369416D01*
X197258308Y-103428312D01*
X197485000Y-103448145D01*
X197711692Y-103428312D01*
X197931496Y-103369416D01*
X198137734Y-103273245D01*
X198324139Y-103142724D01*
X198485047Y-102981816D01*
X198615568Y-102795411D01*
X198711739Y-102589173D01*
X198770635Y-102369369D01*
X198790468Y-102142677D01*
X198770635Y-101915985D01*
X198711739Y-101696181D01*
X198615568Y-101489943D01*
X198603485Y-101472687D01*
X198485046Y-101303536D01*
X198324140Y-101142630D01*
X198137735Y-101012109D01*
X197931497Y-100915938D01*
X197711689Y-100857041D01*
X197485000Y-100837208D01*
X197258310Y-100857041D01*
X197038502Y-100915938D01*
X196832264Y-101012109D01*
X196645859Y-101142630D01*
X196484953Y-101303536D01*
X196354430Y-101489944D01*
X196327105Y-101548543D01*
X196281348Y-101600718D01*
X196214723Y-101620137D01*
X196148099Y-101600717D01*
X196102342Y-101548542D01*
X196075133Y-101490192D01*
X196024025Y-101417203D01*
X195298553Y-102142677D01*
X195298553Y-102142678D01*
X194591446Y-102142678D01*
X194591446Y-102142677D01*
X193865973Y-101417203D01*
X193865973Y-101417204D01*
X193814866Y-101490192D01*
X193787381Y-101549134D01*
X193741623Y-101601309D01*
X193674998Y-101620728D01*
X193608373Y-101601308D01*
X193562617Y-101549132D01*
X193535134Y-101490194D01*
X193484025Y-101417203D01*
X192758553Y-102142677D01*
X192758553Y-102142678D01*
X192051446Y-102142678D01*
X192051446Y-102142677D01*
X191325974Y-101417204D01*
X191300308Y-101419450D01*
X191233849Y-101406733D01*
X191183961Y-101361019D01*
X191167030Y-101301323D01*
X191166209Y-101301412D01*
X191165691Y-101296602D01*
X191165499Y-101295922D01*
X191165499Y-101294807D01*
X191165499Y-101294804D01*
X191159091Y-101235194D01*
X191108796Y-101100346D01*
X191081325Y-101063650D01*
X191679526Y-101063650D01*
X192405000Y-101789123D01*
X192405001Y-101789123D01*
X193130472Y-101063651D01*
X193130471Y-101063650D01*
X194219526Y-101063650D01*
X194945000Y-101789123D01*
X194945001Y-101789123D01*
X195670472Y-101063651D01*
X195670471Y-101063649D01*
X195597484Y-101012543D01*
X195391326Y-100916410D01*
X195171602Y-100857535D01*
X194945000Y-100837710D01*
X194718397Y-100857535D01*
X194498672Y-100916410D01*
X194292516Y-101012542D01*
X194219527Y-101063650D01*
X194219526Y-101063650D01*
X193130471Y-101063650D01*
X193130471Y-101063649D01*
X193057484Y-101012543D01*
X192851326Y-100916410D01*
X192631602Y-100857535D01*
X192405000Y-100837710D01*
X192178397Y-100857535D01*
X191958672Y-100916410D01*
X191752516Y-101012542D01*
X191679527Y-101063650D01*
X191679526Y-101063650D01*
X191081325Y-101063650D01*
X191022546Y-100985131D01*
X190907331Y-100898881D01*
X190772483Y-100848586D01*
X190712873Y-100842177D01*
X190712869Y-100842177D01*
X189017130Y-100842177D01*
X188957515Y-100848586D01*
X188822669Y-100898881D01*
X188707454Y-100985131D01*
X188621204Y-101100345D01*
X188570909Y-101235192D01*
X188570909Y-101235194D01*
X188564856Y-101291500D01*
X188564500Y-101294807D01*
X188564500Y-102990546D01*
X162040500Y-102990546D01*
X162040500Y-102298706D01*
X162041809Y-102280736D01*
X162042338Y-102277118D01*
X162045289Y-102256977D01*
X162040972Y-102207631D01*
X162040500Y-102196824D01*
X162040500Y-101885499D01*
X162057113Y-101823499D01*
X162102500Y-101778112D01*
X162164500Y-101761499D01*
X162290370Y-101761499D01*
X162290372Y-101761499D01*
X162349983Y-101755091D01*
X162484831Y-101704796D01*
X162600046Y-101618546D01*
X162686296Y-101503331D01*
X162697726Y-101472685D01*
X162729838Y-101424870D01*
X162780091Y-101396720D01*
X162837641Y-101394312D01*
X162890067Y-101418165D01*
X163032561Y-101529072D01*
X163244336Y-101643679D01*
X163472087Y-101721866D01*
X163709601Y-101761500D01*
X163950399Y-101761500D01*
X164187913Y-101721866D01*
X164415664Y-101643679D01*
X164627439Y-101529072D01*
X164817463Y-101381171D01*
X164980551Y-101204010D01*
X164996191Y-101180070D01*
X165040982Y-101138837D01*
X165100000Y-101123892D01*
X165159018Y-101138837D01*
X165203808Y-101180070D01*
X165219449Y-101204010D01*
X165382537Y-101381171D01*
X165572561Y-101529072D01*
X165784336Y-101643679D01*
X166012087Y-101721866D01*
X166249601Y-101761500D01*
X166490399Y-101761500D01*
X166727913Y-101721866D01*
X166955664Y-101643679D01*
X167167439Y-101529072D01*
X167357463Y-101381171D01*
X167520551Y-101204010D01*
X167652255Y-101002422D01*
X167748983Y-100781905D01*
X167808095Y-100548476D01*
X167816943Y-100441693D01*
X167823000Y-100368606D01*
X167823000Y-100153394D01*
X167808095Y-99973528D01*
X167808095Y-99973524D01*
X167748983Y-99740095D01*
X167652255Y-99519578D01*
X167520551Y-99317990D01*
X167357463Y-99140829D01*
X167167439Y-98992928D01*
X166955664Y-98878321D01*
X166955660Y-98878319D01*
X166955659Y-98878319D01*
X166727915Y-98800134D01*
X166490399Y-98760500D01*
X166249601Y-98760500D01*
X166012084Y-98800134D01*
X165784340Y-98878319D01*
X165784336Y-98878320D01*
X165784336Y-98878321D01*
X165729160Y-98908181D01*
X165572559Y-98992929D01*
X165382536Y-99140829D01*
X165219448Y-99317991D01*
X165203808Y-99341930D01*
X165159017Y-99383162D01*
X165100000Y-99398107D01*
X165040983Y-99383162D01*
X164996192Y-99341930D01*
X164992649Y-99336508D01*
X164980551Y-99317990D01*
X164817463Y-99140829D01*
X164627439Y-98992928D01*
X164415664Y-98878321D01*
X164415660Y-98878319D01*
X164415659Y-98878319D01*
X164187915Y-98800134D01*
X163950399Y-98760500D01*
X163709601Y-98760500D01*
X163472084Y-98800134D01*
X163244340Y-98878319D01*
X163244336Y-98878320D01*
X163244336Y-98878321D01*
X163032561Y-98992928D01*
X163032559Y-98992928D01*
X163032556Y-98992931D01*
X162890067Y-99103833D01*
X162837639Y-99127687D01*
X162780089Y-99125279D01*
X162729836Y-99097129D01*
X162697725Y-99049313D01*
X162686296Y-99018669D01*
X162600046Y-98903454D01*
X162484831Y-98817204D01*
X162349983Y-98766909D01*
X162290373Y-98760500D01*
X162290369Y-98760500D01*
X160289630Y-98760500D01*
X160230015Y-98766909D01*
X160095169Y-98817204D01*
X159979954Y-98903454D01*
X159893704Y-99018668D01*
X159893703Y-99018670D01*
X159843409Y-99153517D01*
X159837000Y-99213127D01*
X159837000Y-100256591D01*
X159837001Y-101291500D01*
X159820388Y-101353500D01*
X159775001Y-101398887D01*
X159713001Y-101415500D01*
X156066663Y-101415500D01*
X156009406Y-101401489D01*
X155965088Y-101362623D01*
X155940046Y-101326859D01*
X155779140Y-101165953D01*
X155592735Y-101035432D01*
X155386497Y-100939261D01*
X155166689Y-100880364D01*
X154940000Y-100860531D01*
X154713310Y-100880364D01*
X154493502Y-100939261D01*
X154287264Y-101035432D01*
X154100859Y-101165953D01*
X153939953Y-101326859D01*
X153809432Y-101513264D01*
X153713261Y-101719502D01*
X153654364Y-101939310D01*
X153634531Y-102165999D01*
X136640500Y-102165999D01*
X136640500Y-101885499D01*
X136657113Y-101823499D01*
X136702500Y-101778112D01*
X136764500Y-101761499D01*
X136890370Y-101761499D01*
X136890372Y-101761499D01*
X136949983Y-101755091D01*
X137084831Y-101704796D01*
X137200046Y-101618546D01*
X137286296Y-101503331D01*
X137297726Y-101472685D01*
X137329838Y-101424870D01*
X137380091Y-101396720D01*
X137437641Y-101394312D01*
X137490067Y-101418165D01*
X137632561Y-101529072D01*
X137844336Y-101643679D01*
X138072087Y-101721866D01*
X138309601Y-101761500D01*
X138550399Y-101761500D01*
X138787913Y-101721866D01*
X139015664Y-101643679D01*
X139227439Y-101529072D01*
X139417463Y-101381171D01*
X139580551Y-101204010D01*
X139596191Y-101180070D01*
X139640982Y-101138837D01*
X139700000Y-101123892D01*
X139759018Y-101138837D01*
X139803808Y-101180070D01*
X139819449Y-101204010D01*
X139982537Y-101381171D01*
X140172561Y-101529072D01*
X140384336Y-101643679D01*
X140612087Y-101721866D01*
X140849601Y-101761500D01*
X141090399Y-101761500D01*
X141327913Y-101721866D01*
X141555664Y-101643679D01*
X141767439Y-101529072D01*
X141957463Y-101381171D01*
X142120551Y-101204010D01*
X142252255Y-101002422D01*
X142348983Y-100781905D01*
X142408095Y-100548476D01*
X142416943Y-100441693D01*
X142423000Y-100368606D01*
X142423000Y-100153394D01*
X142408095Y-99973528D01*
X142408095Y-99973524D01*
X142348983Y-99740095D01*
X142252255Y-99519578D01*
X142120551Y-99317990D01*
X141957463Y-99140829D01*
X141767439Y-98992928D01*
X141555664Y-98878321D01*
X141555660Y-98878319D01*
X141555659Y-98878319D01*
X141327915Y-98800134D01*
X141090399Y-98760500D01*
X140849601Y-98760500D01*
X140612084Y-98800134D01*
X140384340Y-98878319D01*
X140384336Y-98878320D01*
X140384336Y-98878321D01*
X140329160Y-98908181D01*
X140172559Y-98992929D01*
X139982536Y-99140829D01*
X139819448Y-99317991D01*
X139803808Y-99341930D01*
X139759017Y-99383162D01*
X139700000Y-99398107D01*
X139640983Y-99383162D01*
X139596192Y-99341930D01*
X139592649Y-99336508D01*
X139580551Y-99317990D01*
X139417463Y-99140829D01*
X139227439Y-98992928D01*
X139015664Y-98878321D01*
X139015660Y-98878319D01*
X139015659Y-98878319D01*
X138787915Y-98800134D01*
X138550399Y-98760500D01*
X138309601Y-98760500D01*
X138072084Y-98800134D01*
X137844340Y-98878319D01*
X137844336Y-98878320D01*
X137844336Y-98878321D01*
X137632561Y-98992928D01*
X137632559Y-98992928D01*
X137632556Y-98992931D01*
X137490067Y-99103833D01*
X137437639Y-99127687D01*
X137380089Y-99125279D01*
X137329836Y-99097129D01*
X137297725Y-99049313D01*
X137286296Y-99018669D01*
X137200046Y-98903454D01*
X137084831Y-98817204D01*
X136949983Y-98766909D01*
X136890373Y-98760500D01*
X136890369Y-98760500D01*
X134889630Y-98760500D01*
X134830015Y-98766909D01*
X134695169Y-98817204D01*
X134579954Y-98903454D01*
X134493704Y-99018668D01*
X134493703Y-99018670D01*
X134443409Y-99153517D01*
X134437000Y-99213127D01*
X134437000Y-100256591D01*
X134437001Y-101291500D01*
X134420388Y-101353500D01*
X134375001Y-101398887D01*
X134313001Y-101415500D01*
X130666663Y-101415500D01*
X130609406Y-101401489D01*
X130565088Y-101362623D01*
X130540046Y-101326859D01*
X130379140Y-101165953D01*
X130192735Y-101035432D01*
X129986497Y-100939261D01*
X129766689Y-100880364D01*
X129540000Y-100860531D01*
X129313310Y-100880364D01*
X129093502Y-100939261D01*
X128887264Y-101035432D01*
X128700859Y-101165953D01*
X128539953Y-101326859D01*
X128409432Y-101513264D01*
X128313261Y-101719502D01*
X128254364Y-101939310D01*
X128234531Y-102166000D01*
X111795500Y-102166000D01*
X111795500Y-101885499D01*
X111812113Y-101823499D01*
X111857500Y-101778112D01*
X111919500Y-101761499D01*
X112045370Y-101761499D01*
X112045372Y-101761499D01*
X112104983Y-101755091D01*
X112239831Y-101704796D01*
X112355046Y-101618546D01*
X112441296Y-101503331D01*
X112452726Y-101472685D01*
X112484838Y-101424870D01*
X112535091Y-101396720D01*
X112592641Y-101394312D01*
X112645067Y-101418165D01*
X112787561Y-101529072D01*
X112999336Y-101643679D01*
X113227087Y-101721866D01*
X113464601Y-101761500D01*
X113705399Y-101761500D01*
X113942913Y-101721866D01*
X114170664Y-101643679D01*
X114382439Y-101529072D01*
X114572463Y-101381171D01*
X114735551Y-101204010D01*
X114751191Y-101180070D01*
X114795982Y-101138837D01*
X114855000Y-101123892D01*
X114914018Y-101138837D01*
X114958808Y-101180070D01*
X114974449Y-101204010D01*
X115137537Y-101381171D01*
X115327561Y-101529072D01*
X115539336Y-101643679D01*
X115767087Y-101721866D01*
X116004601Y-101761500D01*
X116245399Y-101761500D01*
X116482913Y-101721866D01*
X116710664Y-101643679D01*
X116922439Y-101529072D01*
X117112463Y-101381171D01*
X117275551Y-101204010D01*
X117407255Y-101002422D01*
X117503983Y-100781905D01*
X117563095Y-100548476D01*
X117571943Y-100441693D01*
X117578000Y-100368606D01*
X117578000Y-100153394D01*
X117563095Y-99973528D01*
X117563095Y-99973524D01*
X117503983Y-99740095D01*
X117407255Y-99519578D01*
X117275551Y-99317990D01*
X117112463Y-99140829D01*
X116922439Y-98992928D01*
X116710664Y-98878321D01*
X116710660Y-98878319D01*
X116710659Y-98878319D01*
X116482915Y-98800134D01*
X116245399Y-98760500D01*
X116004601Y-98760500D01*
X115767084Y-98800134D01*
X115539340Y-98878319D01*
X115539336Y-98878320D01*
X115539336Y-98878321D01*
X115484160Y-98908181D01*
X115327559Y-98992929D01*
X115137536Y-99140829D01*
X114974448Y-99317991D01*
X114958808Y-99341930D01*
X114914017Y-99383162D01*
X114855000Y-99398107D01*
X114795983Y-99383162D01*
X114751192Y-99341930D01*
X114747649Y-99336508D01*
X114735551Y-99317990D01*
X114572463Y-99140829D01*
X114382439Y-98992928D01*
X114170664Y-98878321D01*
X114170660Y-98878319D01*
X114170659Y-98878319D01*
X113942915Y-98800134D01*
X113705399Y-98760500D01*
X113464601Y-98760500D01*
X113227084Y-98800134D01*
X112999340Y-98878319D01*
X112999336Y-98878320D01*
X112999336Y-98878321D01*
X112787561Y-98992928D01*
X112787559Y-98992928D01*
X112787556Y-98992931D01*
X112645067Y-99103833D01*
X112592639Y-99127687D01*
X112535089Y-99125279D01*
X112484836Y-99097129D01*
X112452725Y-99049313D01*
X112441296Y-99018669D01*
X112355046Y-98903454D01*
X112239831Y-98817204D01*
X112104983Y-98766909D01*
X112045373Y-98760500D01*
X112045369Y-98760500D01*
X111959500Y-98760500D01*
X111897500Y-98743887D01*
X111852113Y-98698500D01*
X111835500Y-98636500D01*
X111835500Y-95250000D01*
X196179531Y-95250000D01*
X196199364Y-95476689D01*
X196258261Y-95696497D01*
X196354432Y-95902735D01*
X196484953Y-96089140D01*
X196645859Y-96250046D01*
X196832264Y-96380567D01*
X196832265Y-96380567D01*
X196832266Y-96380568D01*
X197038504Y-96476739D01*
X197258308Y-96535635D01*
X197485000Y-96555468D01*
X197711692Y-96535635D01*
X197931496Y-96476739D01*
X198137734Y-96380568D01*
X198324139Y-96250047D01*
X198485047Y-96089139D01*
X198615568Y-95902734D01*
X198711739Y-95696496D01*
X198770635Y-95476692D01*
X198790468Y-95250000D01*
X198770635Y-95023308D01*
X198711739Y-94803504D01*
X198615568Y-94597266D01*
X198485047Y-94410861D01*
X198485046Y-94410859D01*
X198324140Y-94249953D01*
X198137735Y-94119432D01*
X197931497Y-94023261D01*
X197711689Y-93964364D01*
X197485000Y-93944531D01*
X197258310Y-93964364D01*
X197038502Y-94023261D01*
X196832264Y-94119432D01*
X196645859Y-94249953D01*
X196484953Y-94410859D01*
X196354432Y-94597264D01*
X196258261Y-94803502D01*
X196199364Y-95023310D01*
X196179531Y-95250000D01*
X111835500Y-95250000D01*
X111835500Y-95037663D01*
X111849511Y-94980406D01*
X111888377Y-94936088D01*
X111924140Y-94911046D01*
X112085046Y-94750140D01*
X112215567Y-94563735D01*
X112215568Y-94563734D01*
X112311739Y-94357496D01*
X112370635Y-94137692D01*
X112390468Y-93911000D01*
X115534531Y-93911000D01*
X115554364Y-94137689D01*
X115613261Y-94357497D01*
X115709432Y-94563735D01*
X115839953Y-94750140D01*
X116000859Y-94911046D01*
X116187264Y-95041567D01*
X116187265Y-95041567D01*
X116187266Y-95041568D01*
X116393504Y-95137739D01*
X116613308Y-95196635D01*
X116840000Y-95216468D01*
X117066692Y-95196635D01*
X117286496Y-95137739D01*
X117492734Y-95041568D01*
X117679139Y-94911047D01*
X117840047Y-94750139D01*
X117970568Y-94563734D01*
X118066739Y-94357496D01*
X118119390Y-94161000D01*
X121276128Y-94161000D01*
X121328733Y-94357326D01*
X121424865Y-94563480D01*
X121555341Y-94749819D01*
X121716180Y-94910658D01*
X121902519Y-95041134D01*
X122108673Y-95137266D01*
X122304999Y-95189871D01*
X122305000Y-95189872D01*
X122305000Y-94161000D01*
X122805000Y-94161000D01*
X122805000Y-95189871D01*
X123001326Y-95137266D01*
X123207480Y-95041134D01*
X123393819Y-94910658D01*
X123554658Y-94749819D01*
X123685134Y-94563480D01*
X123781266Y-94357326D01*
X123833872Y-94161000D01*
X122805000Y-94161000D01*
X122305000Y-94161000D01*
X121276128Y-94161000D01*
X118119390Y-94161000D01*
X118125635Y-94137692D01*
X118145468Y-93911000D01*
X138394531Y-93911000D01*
X138414364Y-94137689D01*
X138473261Y-94357497D01*
X138569432Y-94563735D01*
X138699953Y-94750140D01*
X138860859Y-94911046D01*
X139047264Y-95041567D01*
X139047265Y-95041567D01*
X139047266Y-95041568D01*
X139253504Y-95137739D01*
X139473308Y-95196635D01*
X139700000Y-95216468D01*
X139926692Y-95196635D01*
X140146496Y-95137739D01*
X140352734Y-95041568D01*
X140539139Y-94911047D01*
X140700047Y-94750139D01*
X140830568Y-94563734D01*
X140926739Y-94357496D01*
X140979390Y-94161000D01*
X144136128Y-94161000D01*
X144188733Y-94357326D01*
X144284865Y-94563480D01*
X144415341Y-94749819D01*
X144576180Y-94910658D01*
X144762519Y-95041134D01*
X144968673Y-95137266D01*
X145164999Y-95189871D01*
X145165000Y-95189872D01*
X145165000Y-94161000D01*
X145665000Y-94161000D01*
X145665000Y-95189871D01*
X145861326Y-95137266D01*
X146067480Y-95041134D01*
X146253819Y-94910658D01*
X146414658Y-94749819D01*
X146545134Y-94563480D01*
X146641266Y-94357326D01*
X146693872Y-94161000D01*
X145665000Y-94161000D01*
X145165000Y-94161000D01*
X144136128Y-94161000D01*
X140979390Y-94161000D01*
X140985635Y-94137692D01*
X141005468Y-93911000D01*
X141005468Y-93910999D01*
X163794531Y-93910999D01*
X163814364Y-94137689D01*
X163873261Y-94357497D01*
X163969432Y-94563735D01*
X164099953Y-94750140D01*
X164260859Y-94911046D01*
X164447264Y-95041567D01*
X164447265Y-95041567D01*
X164447266Y-95041568D01*
X164653504Y-95137739D01*
X164873308Y-95196635D01*
X165100000Y-95216468D01*
X165326692Y-95196635D01*
X165546496Y-95137739D01*
X165752734Y-95041568D01*
X165939139Y-94911047D01*
X166100047Y-94750139D01*
X166230568Y-94563734D01*
X166326739Y-94357496D01*
X166379390Y-94161000D01*
X169536128Y-94161000D01*
X169588733Y-94357326D01*
X169684865Y-94563480D01*
X169815341Y-94749819D01*
X169976180Y-94910658D01*
X170162519Y-95041134D01*
X170368673Y-95137266D01*
X170564999Y-95189871D01*
X170565000Y-95189872D01*
X170565000Y-94161000D01*
X171065000Y-94161000D01*
X171065000Y-95189871D01*
X171261326Y-95137266D01*
X171467480Y-95041134D01*
X171653819Y-94910658D01*
X171814658Y-94749819D01*
X171945134Y-94563480D01*
X172041266Y-94357326D01*
X172093872Y-94161000D01*
X171065000Y-94161000D01*
X170565000Y-94161000D01*
X169536128Y-94161000D01*
X166379390Y-94161000D01*
X166385635Y-94137692D01*
X166405468Y-93911000D01*
X166385635Y-93684308D01*
X166379390Y-93661000D01*
X169536128Y-93661000D01*
X170565000Y-93661000D01*
X170565000Y-92632128D01*
X171065000Y-92632128D01*
X171065000Y-93661000D01*
X172093872Y-93661000D01*
X172093871Y-93660999D01*
X172041266Y-93464673D01*
X171945134Y-93258519D01*
X171814658Y-93072180D01*
X171653819Y-92911341D01*
X171467480Y-92780865D01*
X171261326Y-92684733D01*
X171065000Y-92632128D01*
X170565000Y-92632128D01*
X170564999Y-92632128D01*
X170368673Y-92684733D01*
X170162519Y-92780865D01*
X169976180Y-92911341D01*
X169815341Y-93072180D01*
X169684865Y-93258519D01*
X169588733Y-93464673D01*
X169536128Y-93660999D01*
X169536128Y-93661000D01*
X166379390Y-93661000D01*
X166326739Y-93464504D01*
X166230568Y-93258266D01*
X166212864Y-93232982D01*
X166100046Y-93071859D01*
X165939140Y-92910953D01*
X165752735Y-92780432D01*
X165546497Y-92684261D01*
X165326689Y-92625364D01*
X165100000Y-92605531D01*
X164873310Y-92625364D01*
X164653502Y-92684261D01*
X164447264Y-92780432D01*
X164260859Y-92910953D01*
X164099953Y-93071859D01*
X163969432Y-93258264D01*
X163873261Y-93464502D01*
X163814364Y-93684310D01*
X163794531Y-93910999D01*
X141005468Y-93910999D01*
X140985635Y-93684308D01*
X140979390Y-93661000D01*
X144136128Y-93661000D01*
X145165000Y-93661000D01*
X145165000Y-92632128D01*
X145665000Y-92632128D01*
X145665000Y-93661000D01*
X146693872Y-93661000D01*
X146693871Y-93660999D01*
X146641266Y-93464673D01*
X146545134Y-93258519D01*
X146414658Y-93072180D01*
X146253819Y-92911341D01*
X146067480Y-92780865D01*
X145861326Y-92684733D01*
X145665000Y-92632128D01*
X145165000Y-92632128D01*
X145164999Y-92632128D01*
X144968673Y-92684733D01*
X144762519Y-92780865D01*
X144576180Y-92911341D01*
X144415341Y-93072180D01*
X144284865Y-93258519D01*
X144188733Y-93464673D01*
X144136128Y-93660999D01*
X144136128Y-93661000D01*
X140979390Y-93661000D01*
X140926739Y-93464504D01*
X140830568Y-93258266D01*
X140812864Y-93232982D01*
X140700046Y-93071859D01*
X140539140Y-92910953D01*
X140352735Y-92780432D01*
X140146497Y-92684261D01*
X139926689Y-92625364D01*
X139700000Y-92605531D01*
X139473310Y-92625364D01*
X139253502Y-92684261D01*
X139047264Y-92780432D01*
X138860859Y-92910953D01*
X138699953Y-93071859D01*
X138569432Y-93258264D01*
X138473261Y-93464502D01*
X138414364Y-93684310D01*
X138394531Y-93911000D01*
X118145468Y-93911000D01*
X118125635Y-93684308D01*
X118119390Y-93661000D01*
X121276128Y-93661000D01*
X122305000Y-93661000D01*
X122305000Y-92632128D01*
X122805000Y-92632128D01*
X122805000Y-93661000D01*
X123833872Y-93661000D01*
X123833871Y-93660999D01*
X123781266Y-93464673D01*
X123685134Y-93258519D01*
X123554658Y-93072180D01*
X123393819Y-92911341D01*
X123207480Y-92780865D01*
X123001326Y-92684733D01*
X122805000Y-92632128D01*
X122305000Y-92632128D01*
X122304999Y-92632128D01*
X122108673Y-92684733D01*
X121902519Y-92780865D01*
X121716180Y-92911341D01*
X121555341Y-93072180D01*
X121424865Y-93258519D01*
X121328733Y-93464673D01*
X121276128Y-93660999D01*
X121276128Y-93661000D01*
X118119390Y-93661000D01*
X118066739Y-93464504D01*
X117970568Y-93258266D01*
X117952864Y-93232982D01*
X117840046Y-93071859D01*
X117679140Y-92910953D01*
X117492735Y-92780432D01*
X117286497Y-92684261D01*
X117066689Y-92625364D01*
X116840000Y-92605531D01*
X116613310Y-92625364D01*
X116393502Y-92684261D01*
X116187264Y-92780432D01*
X116000859Y-92910953D01*
X115839953Y-93071859D01*
X115709432Y-93258264D01*
X115613261Y-93464502D01*
X115554364Y-93684310D01*
X115534531Y-93911000D01*
X112390468Y-93911000D01*
X112370635Y-93684308D01*
X112311739Y-93464504D01*
X112215568Y-93258266D01*
X112197864Y-93232982D01*
X112085046Y-93071859D01*
X111924140Y-92910953D01*
X111737735Y-92780432D01*
X111531497Y-92684261D01*
X111311689Y-92625364D01*
X111085000Y-92605531D01*
X110858310Y-92625364D01*
X110638502Y-92684261D01*
X110432264Y-92780432D01*
X110245859Y-92910953D01*
X110084953Y-93071859D01*
X109954432Y-93258264D01*
X109858261Y-93464502D01*
X109799364Y-93684310D01*
X109779531Y-93911000D01*
X109799364Y-94137689D01*
X109858261Y-94357497D01*
X109954432Y-94563735D01*
X110084953Y-94750140D01*
X110245859Y-94911046D01*
X110281623Y-94936088D01*
X110320489Y-94980406D01*
X110334500Y-95037663D01*
X110334500Y-98636501D01*
X110317887Y-98698501D01*
X110272500Y-98743888D01*
X110210500Y-98760501D01*
X110044628Y-98760501D01*
X110014822Y-98763705D01*
X109985015Y-98766909D01*
X109850169Y-98817204D01*
X109734954Y-98903454D01*
X109648704Y-99018668D01*
X109598409Y-99153516D01*
X109592000Y-99213130D01*
X109592000Y-101308869D01*
X109598409Y-101368484D01*
X109617418Y-101419450D01*
X109648704Y-101503331D01*
X109734954Y-101618546D01*
X109850169Y-101704796D01*
X109985017Y-101755091D01*
X110044627Y-101761500D01*
X110170500Y-101761500D01*
X110232500Y-101778113D01*
X110277887Y-101823500D01*
X110294500Y-101885500D01*
X110294500Y-107526501D01*
X110277887Y-107588501D01*
X110232500Y-107633888D01*
X110170500Y-107650501D01*
X110044628Y-107650501D01*
X110014822Y-107653705D01*
X109985015Y-107656909D01*
X109850169Y-107707204D01*
X109734954Y-107793454D01*
X109648704Y-107908668D01*
X109598409Y-108043516D01*
X109592000Y-108103130D01*
X109592000Y-110198869D01*
X93345500Y-110198869D01*
X93345500Y-83751000D01*
X109779531Y-83751000D01*
X109799364Y-83977689D01*
X109858261Y-84197497D01*
X109954432Y-84403735D01*
X110084953Y-84590140D01*
X110245859Y-84751046D01*
X110432264Y-84881567D01*
X110432265Y-84881567D01*
X110432266Y-84881568D01*
X110638504Y-84977739D01*
X110858308Y-85036635D01*
X110998212Y-85048875D01*
X111084999Y-85056468D01*
X111084999Y-85056467D01*
X111085000Y-85056468D01*
X111311692Y-85036635D01*
X111531496Y-84977739D01*
X111737734Y-84881568D01*
X111924139Y-84751047D01*
X112085047Y-84590139D01*
X112215568Y-84403734D01*
X112311739Y-84197496D01*
X112370635Y-83977692D01*
X112390468Y-83751000D01*
X115534531Y-83751000D01*
X115554364Y-83977689D01*
X115613261Y-84197497D01*
X115709432Y-84403735D01*
X115839953Y-84590140D01*
X116000859Y-84751046D01*
X116187264Y-84881567D01*
X116187265Y-84881567D01*
X116187266Y-84881568D01*
X116393504Y-84977739D01*
X116613308Y-85036635D01*
X116753212Y-85048875D01*
X116839999Y-85056468D01*
X116839999Y-85056467D01*
X116840000Y-85056468D01*
X117066692Y-85036635D01*
X117286496Y-84977739D01*
X117492734Y-84881568D01*
X117679139Y-84751047D01*
X117840047Y-84590139D01*
X117970568Y-84403734D01*
X118066739Y-84197496D01*
X118125635Y-83977692D01*
X118145468Y-83751000D01*
X118125635Y-83524308D01*
X118066739Y-83304504D01*
X117970568Y-83098266D01*
X117960230Y-83083502D01*
X117840046Y-82911859D01*
X117679140Y-82750953D01*
X117492735Y-82620432D01*
X117286497Y-82524261D01*
X117066689Y-82465364D01*
X116840000Y-82445531D01*
X116613310Y-82465364D01*
X116393502Y-82524261D01*
X116187264Y-82620432D01*
X116000859Y-82750953D01*
X115839953Y-82911859D01*
X115709432Y-83098264D01*
X115613261Y-83304502D01*
X115554364Y-83524310D01*
X115534531Y-83751000D01*
X112390468Y-83751000D01*
X112370635Y-83524308D01*
X112311739Y-83304504D01*
X112215568Y-83098266D01*
X112205230Y-83083502D01*
X112085046Y-82911859D01*
X111924140Y-82750953D01*
X111737735Y-82620432D01*
X111531497Y-82524261D01*
X111311689Y-82465364D01*
X111085000Y-82445531D01*
X110858310Y-82465364D01*
X110638502Y-82524261D01*
X110432264Y-82620432D01*
X110245859Y-82750953D01*
X110084953Y-82911859D01*
X109954432Y-83098264D01*
X109858261Y-83304502D01*
X109799364Y-83524310D01*
X109779531Y-83751000D01*
X93345500Y-83751000D01*
X93345500Y-78105000D01*
X113629531Y-78105000D01*
X113649364Y-78331689D01*
X113708261Y-78551497D01*
X113804432Y-78757735D01*
X113934953Y-78944140D01*
X114095859Y-79105046D01*
X114282264Y-79235567D01*
X114282265Y-79235567D01*
X114282266Y-79235568D01*
X114488504Y-79331739D01*
X114708308Y-79390635D01*
X114842428Y-79402369D01*
X114934999Y-79410468D01*
X114934999Y-79410467D01*
X114935000Y-79410468D01*
X115161692Y-79390635D01*
X115381496Y-79331739D01*
X115587734Y-79235568D01*
X115774139Y-79105047D01*
X115935047Y-78944139D01*
X116065568Y-78757734D01*
X116092618Y-78699724D01*
X116138375Y-78647549D01*
X116205000Y-78628129D01*
X116271625Y-78647549D01*
X116317382Y-78699725D01*
X116344431Y-78757733D01*
X116474953Y-78944140D01*
X116635859Y-79105046D01*
X116822264Y-79235567D01*
X116822265Y-79235567D01*
X116822266Y-79235568D01*
X117028504Y-79331739D01*
X117248308Y-79390635D01*
X117382428Y-79402369D01*
X117474999Y-79410468D01*
X117474999Y-79410467D01*
X117475000Y-79410468D01*
X117701692Y-79390635D01*
X117921496Y-79331739D01*
X118127734Y-79235568D01*
X118314139Y-79105047D01*
X118475047Y-78944139D01*
X118605568Y-78757734D01*
X118632618Y-78699724D01*
X118678375Y-78647549D01*
X118745000Y-78628129D01*
X118811625Y-78647549D01*
X118857382Y-78699725D01*
X118884431Y-78757733D01*
X119014953Y-78944140D01*
X119175859Y-79105046D01*
X119211623Y-79130088D01*
X119250489Y-79174406D01*
X119264500Y-79231663D01*
X119264500Y-81147294D01*
X119263191Y-81165264D01*
X119259711Y-81189023D01*
X119264028Y-81238369D01*
X119264500Y-81249176D01*
X119264500Y-81254708D01*
X119268098Y-81285496D01*
X119268464Y-81289081D01*
X119272209Y-81331890D01*
X119275110Y-81365041D01*
X119279329Y-81384071D01*
X119279758Y-81385251D01*
X119279759Y-81385255D01*
X119305413Y-81455742D01*
X119306582Y-81459107D01*
X119330580Y-81531524D01*
X119339075Y-81549072D01*
X119380979Y-81612784D01*
X119382889Y-81615782D01*
X119422288Y-81679656D01*
X119422952Y-81680732D01*
X119435253Y-81695830D01*
X119436168Y-81696693D01*
X119436170Y-81696696D01*
X119490709Y-81748151D01*
X119493296Y-81750664D01*
X121228282Y-83485650D01*
X121257123Y-83530920D01*
X121264129Y-83584138D01*
X121249531Y-83750999D01*
X121269364Y-83977689D01*
X121328261Y-84197497D01*
X121424432Y-84403735D01*
X121554953Y-84590140D01*
X121715859Y-84751046D01*
X121902264Y-84881567D01*
X121902265Y-84881567D01*
X121902266Y-84881568D01*
X122108504Y-84977739D01*
X122328308Y-85036635D01*
X122468212Y-85048875D01*
X122554999Y-85056468D01*
X122554999Y-85056467D01*
X122555000Y-85056468D01*
X122781692Y-85036635D01*
X123001496Y-84977739D01*
X123207734Y-84881568D01*
X123394139Y-84751047D01*
X123555047Y-84590139D01*
X123685568Y-84403734D01*
X123781739Y-84197496D01*
X123840635Y-83977692D01*
X123860468Y-83751000D01*
X123840635Y-83524308D01*
X123781739Y-83304504D01*
X123685568Y-83098266D01*
X123675230Y-83083502D01*
X123555046Y-82911859D01*
X123394140Y-82750953D01*
X123207735Y-82620432D01*
X123001497Y-82524261D01*
X122781689Y-82465364D01*
X122554999Y-82445531D01*
X122388138Y-82460129D01*
X122334920Y-82453123D01*
X122289650Y-82424282D01*
X120801819Y-80936451D01*
X120774939Y-80896223D01*
X120765500Y-80848770D01*
X120765500Y-79231663D01*
X120779511Y-79174406D01*
X120818377Y-79130088D01*
X120854140Y-79105046D01*
X121015046Y-78944140D01*
X121015047Y-78944139D01*
X121145568Y-78757734D01*
X121172618Y-78699724D01*
X121218375Y-78647549D01*
X121285000Y-78628129D01*
X121351625Y-78647549D01*
X121397382Y-78699725D01*
X121424431Y-78757733D01*
X121554953Y-78944140D01*
X121715859Y-79105046D01*
X121902264Y-79235567D01*
X121902265Y-79235567D01*
X121902266Y-79235568D01*
X122108504Y-79331739D01*
X122328308Y-79390635D01*
X122462428Y-79402369D01*
X122554999Y-79410468D01*
X122554999Y-79410467D01*
X122555000Y-79410468D01*
X122781692Y-79390635D01*
X123001496Y-79331739D01*
X123207734Y-79235568D01*
X123394139Y-79105047D01*
X123555047Y-78944139D01*
X123685568Y-78757734D01*
X123781739Y-78551496D01*
X123840635Y-78331692D01*
X123860468Y-78105000D01*
X123840635Y-77878308D01*
X123781739Y-77658504D01*
X123685568Y-77452266D01*
X123555048Y-77265863D01*
X123555046Y-77265859D01*
X123394140Y-77104953D01*
X123207735Y-76974432D01*
X123001497Y-76878261D01*
X122781689Y-76819364D01*
X122554999Y-76799531D01*
X122328310Y-76819364D01*
X122108502Y-76878261D01*
X121902264Y-76974432D01*
X121715859Y-77104953D01*
X121554953Y-77265859D01*
X121424433Y-77452263D01*
X121397382Y-77510275D01*
X121351625Y-77562450D01*
X121285000Y-77581869D01*
X121218375Y-77562450D01*
X121172618Y-77510275D01*
X121145568Y-77452266D01*
X121145566Y-77452263D01*
X121015046Y-77265859D01*
X120854140Y-77104953D01*
X120667735Y-76974432D01*
X120461497Y-76878261D01*
X120241689Y-76819364D01*
X120014999Y-76799531D01*
X119788310Y-76819364D01*
X119568502Y-76878261D01*
X119362264Y-76974432D01*
X119175859Y-77104953D01*
X119014953Y-77265859D01*
X118884433Y-77452263D01*
X118857382Y-77510275D01*
X118811625Y-77562450D01*
X118745000Y-77581869D01*
X118678375Y-77562450D01*
X118632618Y-77510275D01*
X118605568Y-77452266D01*
X118605566Y-77452263D01*
X118475046Y-77265859D01*
X118314140Y-77104953D01*
X118278377Y-77079912D01*
X118239511Y-77035594D01*
X118225500Y-76978337D01*
X118225500Y-76562230D01*
X118234939Y-76514777D01*
X118261819Y-76474549D01*
X119654549Y-75081819D01*
X119694777Y-75054939D01*
X119742230Y-75045500D01*
X137588771Y-75045500D01*
X137645066Y-75059015D01*
X137689089Y-75096615D01*
X137711244Y-75150102D01*
X137706702Y-75207818D01*
X137676452Y-75257181D01*
X136634359Y-76299271D01*
X136620728Y-76311051D01*
X136601469Y-76325389D01*
X136569633Y-76363329D01*
X136562341Y-76371289D01*
X136558408Y-76375222D01*
X136539176Y-76399545D01*
X136536902Y-76402337D01*
X136487894Y-76460744D01*
X136477418Y-76477187D01*
X136445192Y-76546294D01*
X136443622Y-76549536D01*
X136409393Y-76617692D01*
X136402996Y-76636098D01*
X136387573Y-76710788D01*
X136386793Y-76714305D01*
X136369208Y-76788505D01*
X136367229Y-76807878D01*
X136369448Y-76884131D01*
X136369500Y-76887737D01*
X136369500Y-76978337D01*
X136355489Y-77035594D01*
X136316623Y-77079912D01*
X136280859Y-77104953D01*
X136119953Y-77265859D01*
X135989432Y-77452264D01*
X135893261Y-77658502D01*
X135834364Y-77878310D01*
X135814531Y-78105000D01*
X135834364Y-78331689D01*
X135893261Y-78551497D01*
X135989432Y-78757735D01*
X136119953Y-78944140D01*
X136280859Y-79105046D01*
X136467264Y-79235567D01*
X136467265Y-79235567D01*
X136467266Y-79235568D01*
X136673504Y-79331739D01*
X136893308Y-79390635D01*
X137027428Y-79402369D01*
X137119999Y-79410468D01*
X137119999Y-79410467D01*
X137120000Y-79410468D01*
X137346692Y-79390635D01*
X137566496Y-79331739D01*
X137772734Y-79235568D01*
X137959139Y-79105047D01*
X138120047Y-78944139D01*
X138250568Y-78757734D01*
X138277618Y-78699724D01*
X138323375Y-78647549D01*
X138390000Y-78628129D01*
X138456625Y-78647549D01*
X138502382Y-78699725D01*
X138529431Y-78757733D01*
X138659953Y-78944140D01*
X138820859Y-79105046D01*
X139007264Y-79235567D01*
X139007265Y-79235567D01*
X139007266Y-79235568D01*
X139213504Y-79331739D01*
X139433308Y-79390635D01*
X139567428Y-79402369D01*
X139659999Y-79410468D01*
X139659999Y-79410467D01*
X139660000Y-79410468D01*
X139886692Y-79390635D01*
X140106496Y-79331739D01*
X140312734Y-79235568D01*
X140499139Y-79105047D01*
X140660047Y-78944139D01*
X140790568Y-78757734D01*
X140817618Y-78699724D01*
X140863375Y-78647549D01*
X140930000Y-78628129D01*
X140996625Y-78647549D01*
X141042382Y-78699725D01*
X141069431Y-78757733D01*
X141199953Y-78944140D01*
X141360859Y-79105046D01*
X141547264Y-79235567D01*
X141547265Y-79235567D01*
X141547266Y-79235568D01*
X141753504Y-79331739D01*
X141973308Y-79390635D01*
X142107428Y-79402369D01*
X142199999Y-79410468D01*
X142199999Y-79410467D01*
X142200000Y-79410468D01*
X142426692Y-79390635D01*
X142646496Y-79331739D01*
X142852734Y-79235568D01*
X143039139Y-79105047D01*
X143200047Y-78944139D01*
X143330568Y-78757734D01*
X143357618Y-78699724D01*
X143403375Y-78647549D01*
X143470000Y-78628129D01*
X143536625Y-78647549D01*
X143582382Y-78699725D01*
X143609431Y-78757733D01*
X143739953Y-78944140D01*
X143900859Y-79105046D01*
X143936623Y-79130088D01*
X143975489Y-79174406D01*
X143989500Y-79231663D01*
X143989500Y-79687771D01*
X143980061Y-79735224D01*
X143953181Y-79775452D01*
X140846090Y-82882541D01*
X140790503Y-82914635D01*
X140726315Y-82914635D01*
X140670728Y-82882541D01*
X140539140Y-82750953D01*
X140352735Y-82620432D01*
X140146497Y-82524261D01*
X139926689Y-82465364D01*
X139700000Y-82445531D01*
X139473310Y-82465364D01*
X139253502Y-82524261D01*
X139047264Y-82620432D01*
X138860859Y-82750953D01*
X138699953Y-82911859D01*
X138674912Y-82947623D01*
X138630594Y-82986489D01*
X138573337Y-83000500D01*
X134673072Y-83000500D01*
X134655103Y-82999191D01*
X134631342Y-82995711D01*
X134581996Y-83000028D01*
X134571189Y-83000500D01*
X134565656Y-83000500D01*
X134534866Y-83004098D01*
X134531282Y-83004464D01*
X134455326Y-83011109D01*
X134436286Y-83015330D01*
X134364597Y-83041421D01*
X134361196Y-83042603D01*
X134288839Y-83066580D01*
X134271292Y-83075075D01*
X134207586Y-83116975D01*
X134204546Y-83118912D01*
X134139645Y-83158944D01*
X134124530Y-83171256D01*
X134072197Y-83226725D01*
X134069685Y-83229311D01*
X132904359Y-84394637D01*
X132890726Y-84406419D01*
X132871467Y-84420756D01*
X132839633Y-84458694D01*
X132832341Y-84466654D01*
X132828408Y-84470587D01*
X132809176Y-84494910D01*
X132806902Y-84497702D01*
X132757894Y-84556109D01*
X132747418Y-84572552D01*
X132715192Y-84641659D01*
X132713622Y-84644901D01*
X132679393Y-84713057D01*
X132672996Y-84731463D01*
X132657573Y-84806153D01*
X132656793Y-84809670D01*
X132639208Y-84883870D01*
X132637229Y-84903243D01*
X132639448Y-84979496D01*
X132639500Y-84983102D01*
X132639500Y-85345699D01*
X132628877Y-85395914D01*
X132598829Y-85437526D01*
X132554504Y-85463404D01*
X132521609Y-85474305D01*
X132470665Y-85491186D01*
X132321342Y-85583288D01*
X132197289Y-85707341D01*
X132101821Y-85862121D01*
X132062907Y-85901604D01*
X132010678Y-85920186D01*
X131955571Y-85914150D01*
X131908601Y-85884705D01*
X131761404Y-85737508D01*
X131761401Y-85737505D01*
X131567830Y-85601965D01*
X131353663Y-85502097D01*
X131270635Y-85479850D01*
X131125407Y-85440936D01*
X130890000Y-85420340D01*
X130654592Y-85440936D01*
X130426336Y-85502097D01*
X130212170Y-85601965D01*
X130018598Y-85737505D01*
X129851505Y-85904598D01*
X129715965Y-86098170D01*
X129616097Y-86312336D01*
X129554936Y-86540592D01*
X129539500Y-86717032D01*
X129539500Y-87134968D01*
X129554936Y-87311407D01*
X129591059Y-87446220D01*
X129616097Y-87539663D01*
X129715965Y-87753829D01*
X129851505Y-87947401D01*
X130018599Y-88114495D01*
X130212170Y-88250035D01*
X130426337Y-88349903D01*
X130626385Y-88403505D01*
X130654592Y-88411063D01*
X130889999Y-88431659D01*
X130889999Y-88431658D01*
X130890000Y-88431659D01*
X131125408Y-88411063D01*
X131353663Y-88349903D01*
X131567829Y-88250035D01*
X131761401Y-88114495D01*
X131908601Y-87967294D01*
X131955572Y-87937849D01*
X132010679Y-87931814D01*
X132062909Y-87950395D01*
X132101822Y-87989879D01*
X132105185Y-87995331D01*
X132105186Y-87995334D01*
X132150840Y-88069352D01*
X132197288Y-88144657D01*
X132321342Y-88268711D01*
X132321344Y-88268712D01*
X132470666Y-88360814D01*
X132514505Y-88375340D01*
X132558829Y-88401219D01*
X132588877Y-88442830D01*
X132599500Y-88493046D01*
X132599500Y-89172771D01*
X132590061Y-89220224D01*
X132563181Y-89260452D01*
X130686090Y-91137541D01*
X130630503Y-91169635D01*
X130566315Y-91169635D01*
X130510728Y-91137541D01*
X130379140Y-91005953D01*
X130192735Y-90875432D01*
X129986497Y-90779261D01*
X129766689Y-90720364D01*
X129540000Y-90700531D01*
X129313310Y-90720364D01*
X129093502Y-90779261D01*
X128887264Y-90875432D01*
X128700859Y-91005953D01*
X128539953Y-91166859D01*
X128409432Y-91353264D01*
X128313261Y-91559502D01*
X128254364Y-91779310D01*
X128234531Y-92006000D01*
X128254364Y-92232689D01*
X128313261Y-92452497D01*
X128409432Y-92658735D01*
X128539953Y-92845140D01*
X128700859Y-93006046D01*
X128887264Y-93136567D01*
X128887265Y-93136567D01*
X128887266Y-93136568D01*
X129093504Y-93232739D01*
X129313308Y-93291635D01*
X129432352Y-93302050D01*
X129539999Y-93311468D01*
X129539999Y-93311467D01*
X129540000Y-93311468D01*
X129766692Y-93291635D01*
X129986496Y-93232739D01*
X130192734Y-93136568D01*
X130379139Y-93006047D01*
X130379139Y-93006046D01*
X130523368Y-92861819D01*
X130563596Y-92834939D01*
X130611049Y-92825500D01*
X130746294Y-92825500D01*
X130764264Y-92826809D01*
X130768320Y-92827402D01*
X130788023Y-92830289D01*
X130837368Y-92825972D01*
X130848176Y-92825500D01*
X130853706Y-92825500D01*
X130853709Y-92825500D01*
X130884550Y-92821894D01*
X130888031Y-92821539D01*
X130962797Y-92814999D01*
X130962797Y-92814998D01*
X130964052Y-92814889D01*
X130983062Y-92810674D01*
X130984250Y-92810241D01*
X130984255Y-92810241D01*
X131054820Y-92784557D01*
X131058095Y-92783419D01*
X131129334Y-92759814D01*
X131129336Y-92759812D01*
X131130536Y-92759415D01*
X131148063Y-92750929D01*
X131149112Y-92750238D01*
X131149117Y-92750237D01*
X131211806Y-92709005D01*
X131214798Y-92707099D01*
X131278656Y-92667712D01*
X131278656Y-92667711D01*
X131279729Y-92667050D01*
X131294824Y-92654753D01*
X131295692Y-92653832D01*
X131295696Y-92653830D01*
X131347185Y-92599253D01*
X131349631Y-92596735D01*
X133835638Y-90110727D01*
X133849256Y-90098957D01*
X133868530Y-90084610D01*
X133900382Y-90046649D01*
X133907679Y-90038687D01*
X133911590Y-90034777D01*
X133930859Y-90010405D01*
X133933054Y-90007711D01*
X133981302Y-89950214D01*
X133981302Y-89950212D01*
X133982117Y-89949242D01*
X133992566Y-89932840D01*
X133993105Y-89931682D01*
X133993110Y-89931677D01*
X134024832Y-89863647D01*
X134026348Y-89860516D01*
X134060040Y-89793433D01*
X134060040Y-89793429D01*
X134060610Y-89792296D01*
X134066999Y-89773917D01*
X134067256Y-89772673D01*
X134082431Y-89699171D01*
X134083186Y-89695767D01*
X134100500Y-89622721D01*
X134100500Y-89622719D01*
X134100790Y-89621495D01*
X134102769Y-89602123D01*
X134102732Y-89600859D01*
X134102733Y-89600856D01*
X134100552Y-89525889D01*
X134100500Y-89522284D01*
X134100500Y-88519556D01*
X134111123Y-88469341D01*
X134141171Y-88427729D01*
X134185496Y-88401850D01*
X134194014Y-88399027D01*
X134309334Y-88360814D01*
X134458656Y-88268712D01*
X134582712Y-88144656D01*
X134674814Y-87995334D01*
X134729999Y-87828797D01*
X134740500Y-87726009D01*
X134740499Y-86125992D01*
X134729999Y-86023203D01*
X134697223Y-85924294D01*
X134693574Y-85859823D01*
X134722838Y-85802257D01*
X134777079Y-85767211D01*
X134841586Y-85764192D01*
X134897503Y-85776500D01*
X135036113Y-85776500D01*
X135036115Y-85776500D01*
X135105011Y-85769007D01*
X135173910Y-85761514D01*
X135349221Y-85702444D01*
X135507736Y-85607070D01*
X135642041Y-85479849D01*
X135745858Y-85326730D01*
X135814331Y-85154875D01*
X135844260Y-84972317D01*
X135834245Y-84787593D01*
X135824727Y-84753313D01*
X135798451Y-84658673D01*
X135796153Y-84602133D01*
X135819216Y-84550458D01*
X135862836Y-84514412D01*
X135917931Y-84501500D01*
X138573337Y-84501500D01*
X138630594Y-84515511D01*
X138674912Y-84554377D01*
X138699953Y-84590140D01*
X138860859Y-84751046D01*
X139047264Y-84881567D01*
X139047265Y-84881567D01*
X139047266Y-84881568D01*
X139253504Y-84977739D01*
X139473308Y-85036635D01*
X139613212Y-85048875D01*
X139699999Y-85056468D01*
X139699999Y-85056467D01*
X139700000Y-85056468D01*
X139926692Y-85036635D01*
X140146496Y-84977739D01*
X140352734Y-84881568D01*
X140539139Y-84751047D01*
X140700047Y-84590139D01*
X140725088Y-84554377D01*
X140769406Y-84515511D01*
X140826663Y-84501500D01*
X140975294Y-84501500D01*
X140993264Y-84502809D01*
X140997320Y-84503402D01*
X141017023Y-84506289D01*
X141066368Y-84501972D01*
X141077176Y-84501500D01*
X141082706Y-84501500D01*
X141082709Y-84501500D01*
X141113550Y-84497894D01*
X141117031Y-84497539D01*
X141191797Y-84490999D01*
X141191797Y-84490998D01*
X141193052Y-84490889D01*
X141212062Y-84486674D01*
X141213250Y-84486241D01*
X141213255Y-84486241D01*
X141283820Y-84460557D01*
X141287095Y-84459419D01*
X141358334Y-84435814D01*
X141358336Y-84435812D01*
X141359536Y-84435415D01*
X141377063Y-84426929D01*
X141378112Y-84426238D01*
X141378117Y-84426237D01*
X141440806Y-84385005D01*
X141443798Y-84383099D01*
X141507656Y-84343712D01*
X141507656Y-84343711D01*
X141508729Y-84343050D01*
X141523824Y-84330753D01*
X141524692Y-84329832D01*
X141524696Y-84329830D01*
X141576184Y-84275254D01*
X141578630Y-84272736D01*
X142100367Y-83750999D01*
X144109531Y-83750999D01*
X144129364Y-83977689D01*
X144188261Y-84197497D01*
X144284432Y-84403735D01*
X144414953Y-84590140D01*
X144575859Y-84751046D01*
X144762264Y-84881567D01*
X144762265Y-84881567D01*
X144762266Y-84881568D01*
X144968504Y-84977739D01*
X145188308Y-85036635D01*
X145328212Y-85048875D01*
X145414999Y-85056468D01*
X145414999Y-85056467D01*
X145415000Y-85056468D01*
X145641692Y-85036635D01*
X145861496Y-84977739D01*
X146067734Y-84881568D01*
X146254139Y-84751047D01*
X146415047Y-84590139D01*
X146545568Y-84403734D01*
X146641739Y-84197496D01*
X146700635Y-83977692D01*
X146720468Y-83751000D01*
X146700635Y-83524308D01*
X146641739Y-83304504D01*
X146545568Y-83098266D01*
X146535230Y-83083502D01*
X146415046Y-82911859D01*
X146254140Y-82750953D01*
X146067735Y-82620432D01*
X145861497Y-82524261D01*
X145641689Y-82465364D01*
X145415000Y-82445531D01*
X145188310Y-82465364D01*
X144968502Y-82524261D01*
X144762264Y-82620432D01*
X144575859Y-82750953D01*
X144414953Y-82911859D01*
X144284432Y-83098264D01*
X144188261Y-83304502D01*
X144129364Y-83524310D01*
X144109531Y-83750999D01*
X142100367Y-83750999D01*
X145292698Y-80558668D01*
X145297909Y-80553751D01*
X145344460Y-80512326D01*
X145380191Y-80461294D01*
X145384476Y-80455537D01*
X145423111Y-80406677D01*
X145427852Y-80396507D01*
X145438650Y-80377806D01*
X145445088Y-80368612D01*
X145468089Y-80310713D01*
X145470936Y-80304115D01*
X145497257Y-80247673D01*
X145499524Y-80236689D01*
X145505721Y-80215990D01*
X145509863Y-80205567D01*
X145518891Y-80143927D01*
X145520135Y-80136870D01*
X145532734Y-80075856D01*
X145532407Y-80064644D01*
X145533664Y-80043068D01*
X145535289Y-80031977D01*
X145529861Y-79969942D01*
X145529442Y-79962749D01*
X145527631Y-79900487D01*
X145524728Y-79889656D01*
X145520975Y-79868370D01*
X145519999Y-79857203D01*
X145500411Y-79798090D01*
X145498343Y-79791181D01*
X145494726Y-79777683D01*
X145490500Y-79745588D01*
X145490500Y-79231663D01*
X145504511Y-79174406D01*
X145543377Y-79130088D01*
X145579140Y-79105046D01*
X145740046Y-78944140D01*
X145750994Y-78928504D01*
X145870568Y-78757734D01*
X145966739Y-78551496D01*
X146025635Y-78331692D01*
X146045468Y-78105000D01*
X146025635Y-77878308D01*
X145966739Y-77658504D01*
X145870568Y-77452266D01*
X145740048Y-77265863D01*
X145740046Y-77265859D01*
X145579140Y-77104953D01*
X145392735Y-76974432D01*
X145186497Y-76878261D01*
X144966689Y-76819364D01*
X144739999Y-76799531D01*
X144513310Y-76819364D01*
X144293502Y-76878261D01*
X144087264Y-76974432D01*
X143900859Y-77104953D01*
X143739953Y-77265859D01*
X143609433Y-77452263D01*
X143582382Y-77510275D01*
X143536625Y-77562450D01*
X143470000Y-77581869D01*
X143403375Y-77562450D01*
X143357618Y-77510275D01*
X143330568Y-77452266D01*
X143330566Y-77452263D01*
X143200046Y-77265859D01*
X143039140Y-77104953D01*
X142852735Y-76974432D01*
X142646497Y-76878261D01*
X142426689Y-76819364D01*
X142199999Y-76799531D01*
X141973310Y-76819364D01*
X141753502Y-76878261D01*
X141547264Y-76974432D01*
X141360859Y-77104953D01*
X141199953Y-77265859D01*
X141069433Y-77452263D01*
X141042382Y-77510275D01*
X140996625Y-77562450D01*
X140930000Y-77581869D01*
X140863375Y-77562450D01*
X140817618Y-77510275D01*
X140790568Y-77452266D01*
X140790566Y-77452263D01*
X140660046Y-77265859D01*
X140499140Y-77104953D01*
X140312735Y-76974432D01*
X140106497Y-76878261D01*
X139886689Y-76819364D01*
X139659999Y-76799531D01*
X139433310Y-76819364D01*
X139213502Y-76878261D01*
X139007264Y-76974432D01*
X138820859Y-77104953D01*
X138659953Y-77265859D01*
X138529433Y-77452263D01*
X138502382Y-77510275D01*
X138456625Y-77562450D01*
X138390000Y-77581869D01*
X138323375Y-77562450D01*
X138277618Y-77510275D01*
X138250568Y-77452266D01*
X138250566Y-77452263D01*
X138120049Y-77265863D01*
X138120045Y-77265859D01*
X138042955Y-77188769D01*
X138010863Y-77133184D01*
X138010863Y-77068997D01*
X138042955Y-77013411D01*
X138704548Y-76351819D01*
X138744777Y-76324939D01*
X138792230Y-76315500D01*
X149497770Y-76315500D01*
X149545223Y-76324939D01*
X149585451Y-76351819D01*
X155463181Y-82229548D01*
X155490061Y-82269776D01*
X155499500Y-82317229D01*
X155499500Y-85588299D01*
X155485489Y-85645556D01*
X155446623Y-85689874D01*
X155378598Y-85737505D01*
X155211506Y-85904597D01*
X155075965Y-86098170D01*
X154976097Y-86312336D01*
X154914936Y-86540592D01*
X154899500Y-86717032D01*
X154899500Y-87134968D01*
X154914936Y-87311407D01*
X154951059Y-87446220D01*
X154976097Y-87539663D01*
X155075965Y-87753829D01*
X155211505Y-87947401D01*
X155378599Y-88114495D01*
X155572170Y-88250035D01*
X155786337Y-88349903D01*
X155986385Y-88403505D01*
X156014592Y-88411063D01*
X156249999Y-88431659D01*
X156249999Y-88431658D01*
X156250000Y-88431659D01*
X156485408Y-88411063D01*
X156713663Y-88349903D01*
X156927829Y-88250035D01*
X157121401Y-88114495D01*
X157268602Y-87967294D01*
X157315572Y-87937849D01*
X157370679Y-87931814D01*
X157422909Y-87950395D01*
X157461822Y-87989879D01*
X157465185Y-87995331D01*
X157465186Y-87995334D01*
X157510840Y-88069352D01*
X157557288Y-88144657D01*
X157681342Y-88268711D01*
X157681344Y-88268712D01*
X157830666Y-88360814D01*
X157914504Y-88388595D01*
X157958829Y-88414474D01*
X157988877Y-88456086D01*
X157999500Y-88506301D01*
X157999500Y-89172771D01*
X157990061Y-89220224D01*
X157963181Y-89260452D01*
X156086090Y-91137541D01*
X156030503Y-91169635D01*
X155966315Y-91169635D01*
X155910728Y-91137541D01*
X155779140Y-91005953D01*
X155592735Y-90875432D01*
X155386497Y-90779261D01*
X155166689Y-90720364D01*
X154940000Y-90700531D01*
X154713310Y-90720364D01*
X154493502Y-90779261D01*
X154287264Y-90875432D01*
X154100859Y-91005953D01*
X153939953Y-91166859D01*
X153809432Y-91353264D01*
X153713261Y-91559502D01*
X153654364Y-91779310D01*
X153634531Y-92005999D01*
X153654364Y-92232689D01*
X153713261Y-92452497D01*
X153809432Y-92658735D01*
X153939953Y-92845140D01*
X154100859Y-93006046D01*
X154287264Y-93136567D01*
X154287265Y-93136567D01*
X154287266Y-93136568D01*
X154493504Y-93232739D01*
X154713308Y-93291635D01*
X154832352Y-93302050D01*
X154939999Y-93311468D01*
X154939999Y-93311467D01*
X154940000Y-93311468D01*
X155166692Y-93291635D01*
X155386496Y-93232739D01*
X155592734Y-93136568D01*
X155779139Y-93006047D01*
X155940047Y-92845139D01*
X155963585Y-92811523D01*
X155965088Y-92809377D01*
X156009406Y-92770511D01*
X156066663Y-92756500D01*
X156215294Y-92756500D01*
X156233264Y-92757809D01*
X156237320Y-92758402D01*
X156257023Y-92761289D01*
X156306368Y-92756972D01*
X156317176Y-92756500D01*
X156322706Y-92756500D01*
X156322709Y-92756500D01*
X156353550Y-92752894D01*
X156357031Y-92752539D01*
X156431797Y-92745999D01*
X156431797Y-92745998D01*
X156433052Y-92745889D01*
X156452062Y-92741674D01*
X156453250Y-92741241D01*
X156453255Y-92741241D01*
X156523820Y-92715557D01*
X156527095Y-92714419D01*
X156598334Y-92690814D01*
X156598336Y-92690812D01*
X156599536Y-92690415D01*
X156617063Y-92681929D01*
X156618112Y-92681238D01*
X156618117Y-92681237D01*
X156680806Y-92640005D01*
X156683798Y-92638099D01*
X156747656Y-92598712D01*
X156747656Y-92598711D01*
X156748729Y-92598050D01*
X156763824Y-92585753D01*
X156764692Y-92584832D01*
X156764696Y-92584830D01*
X156816184Y-92530254D01*
X156818630Y-92527736D01*
X159235642Y-90110724D01*
X159249260Y-90098954D01*
X159268530Y-90084610D01*
X159300376Y-90046656D01*
X159307662Y-90038704D01*
X159311591Y-90034777D01*
X159330833Y-90010439D01*
X159333090Y-90007670D01*
X159347853Y-89990075D01*
X159381302Y-89950214D01*
X159381303Y-89950211D01*
X159382115Y-89949244D01*
X159392573Y-89932827D01*
X159393106Y-89931682D01*
X159393111Y-89931677D01*
X159424833Y-89863646D01*
X159426362Y-89860488D01*
X159460040Y-89793433D01*
X159460040Y-89793432D01*
X159460612Y-89792294D01*
X159467000Y-89773915D01*
X159467255Y-89772675D01*
X159467257Y-89772673D01*
X159482435Y-89699157D01*
X159483200Y-89695708D01*
X159500500Y-89622721D01*
X159500500Y-89622719D01*
X159500791Y-89621491D01*
X159502770Y-89602120D01*
X159502733Y-89600858D01*
X159502734Y-89600855D01*
X159500552Y-89525868D01*
X159500500Y-89522262D01*
X159500500Y-88506301D01*
X159511123Y-88456086D01*
X159541171Y-88414474D01*
X159585495Y-88388595D01*
X159669334Y-88360814D01*
X159818656Y-88268712D01*
X159942712Y-88144656D01*
X160034814Y-87995334D01*
X160089436Y-87830495D01*
X160115315Y-87786171D01*
X160156927Y-87756123D01*
X160207142Y-87745500D01*
X161899554Y-87745500D01*
X161906764Y-87745710D01*
X161909367Y-87745861D01*
X161968935Y-87749331D01*
X162030304Y-87738508D01*
X162037384Y-87737471D01*
X162099255Y-87730241D01*
X162109790Y-87726405D01*
X162130661Y-87720812D01*
X162141711Y-87718865D01*
X162198899Y-87694196D01*
X162205580Y-87691541D01*
X162264117Y-87670237D01*
X162273479Y-87664078D01*
X162292517Y-87653814D01*
X162294024Y-87653164D01*
X162302804Y-87649377D01*
X162352786Y-87612165D01*
X162358648Y-87608061D01*
X162410696Y-87573830D01*
X162418391Y-87565673D01*
X162434534Y-87551306D01*
X162443530Y-87544610D01*
X162483567Y-87496893D01*
X162488333Y-87491537D01*
X162531092Y-87446218D01*
X162536699Y-87436504D01*
X162549097Y-87418800D01*
X162556302Y-87410214D01*
X162584255Y-87354551D01*
X162587668Y-87348223D01*
X162593177Y-87338680D01*
X162611643Y-87306697D01*
X162631344Y-87281022D01*
X164834652Y-85077714D01*
X164879921Y-85048875D01*
X164933136Y-85041869D01*
X165100000Y-85056468D01*
X165326692Y-85036635D01*
X165546496Y-84977739D01*
X165752734Y-84881568D01*
X165939139Y-84751047D01*
X166100047Y-84590139D01*
X166230568Y-84403734D01*
X166326739Y-84197496D01*
X166385635Y-83977692D01*
X166405468Y-83751000D01*
X166385635Y-83524308D01*
X166326739Y-83304504D01*
X166230568Y-83098266D01*
X166220230Y-83083502D01*
X166100046Y-82911859D01*
X166065368Y-82877181D01*
X166035118Y-82827818D01*
X166030576Y-82770102D01*
X166052731Y-82716615D01*
X166096754Y-82679015D01*
X166153049Y-82665500D01*
X166642770Y-82665500D01*
X166690223Y-82674939D01*
X166730451Y-82701819D01*
X168265267Y-84236634D01*
X168277048Y-84250266D01*
X168285982Y-84262266D01*
X168291390Y-84269530D01*
X168329355Y-84301386D01*
X168337317Y-84308684D01*
X168341224Y-84312591D01*
X168365542Y-84331819D01*
X168368298Y-84334063D01*
X168425786Y-84382302D01*
X168425788Y-84382303D01*
X168426757Y-84383116D01*
X168443179Y-84393578D01*
X168512320Y-84425819D01*
X168515560Y-84427388D01*
X168580444Y-84459974D01*
X168583700Y-84461609D01*
X168602088Y-84468000D01*
X168603322Y-84468254D01*
X168603327Y-84468257D01*
X168676829Y-84483432D01*
X168680307Y-84484204D01*
X168708510Y-84490889D01*
X168754502Y-84501790D01*
X168773876Y-84503769D01*
X168775140Y-84503732D01*
X168775144Y-84503733D01*
X168850110Y-84501552D01*
X168853716Y-84501500D01*
X169688337Y-84501500D01*
X169745594Y-84515511D01*
X169789912Y-84554377D01*
X169814953Y-84590140D01*
X169975859Y-84751046D01*
X170162264Y-84881567D01*
X170162265Y-84881567D01*
X170162266Y-84881568D01*
X170368504Y-84977739D01*
X170588308Y-85036635D01*
X170728212Y-85048875D01*
X170814999Y-85056468D01*
X170814999Y-85056467D01*
X170815000Y-85056468D01*
X171041692Y-85036635D01*
X171261496Y-84977739D01*
X171467734Y-84881568D01*
X171654139Y-84751047D01*
X171815047Y-84590139D01*
X171945568Y-84403734D01*
X172041739Y-84197496D01*
X172100635Y-83977692D01*
X172120468Y-83751000D01*
X172100635Y-83524308D01*
X172041739Y-83304504D01*
X171945568Y-83098266D01*
X171935230Y-83083502D01*
X171815046Y-82911859D01*
X171654140Y-82750953D01*
X171467735Y-82620432D01*
X171261497Y-82524261D01*
X171041689Y-82465364D01*
X170815000Y-82445531D01*
X170588310Y-82465364D01*
X170368502Y-82524261D01*
X170162264Y-82620432D01*
X169975859Y-82750953D01*
X169814953Y-82911859D01*
X169789912Y-82947623D01*
X169745594Y-82986489D01*
X169688337Y-83000500D01*
X169203230Y-83000500D01*
X169155777Y-82991061D01*
X169115549Y-82964181D01*
X167580728Y-81429360D01*
X167568946Y-81415727D01*
X167554609Y-81396469D01*
X167516666Y-81364631D01*
X167508691Y-81357323D01*
X167504782Y-81353414D01*
X167504777Y-81353409D01*
X167480423Y-81334152D01*
X167477647Y-81331890D01*
X167419251Y-81282890D01*
X167402821Y-81272422D01*
X167333691Y-81240186D01*
X167330447Y-81238615D01*
X167262306Y-81204394D01*
X167243903Y-81197997D01*
X167169211Y-81182574D01*
X167165692Y-81181794D01*
X167091490Y-81164208D01*
X167072121Y-81162229D01*
X166995869Y-81164448D01*
X166992263Y-81164500D01*
X158813707Y-81164500D01*
X158795738Y-81163191D01*
X158771977Y-81159711D01*
X158722631Y-81164028D01*
X158711824Y-81164500D01*
X158706291Y-81164500D01*
X158675501Y-81168098D01*
X158671917Y-81168464D01*
X158595961Y-81175109D01*
X158576923Y-81179330D01*
X158528315Y-81197022D01*
X158485905Y-81204500D01*
X156612229Y-81204500D01*
X156564776Y-81195061D01*
X156524548Y-81168181D01*
X150613549Y-75257181D01*
X150583299Y-75207818D01*
X150578757Y-75150102D01*
X150600912Y-75096615D01*
X150644935Y-75059015D01*
X150701230Y-75045500D01*
X155847770Y-75045500D01*
X155895223Y-75054939D01*
X155935451Y-75081819D01*
X159444267Y-78590634D01*
X159456048Y-78604266D01*
X159470389Y-78623529D01*
X159508339Y-78655373D01*
X159516314Y-78662680D01*
X159520224Y-78666591D01*
X159538672Y-78681178D01*
X159544543Y-78685820D01*
X159547330Y-78688090D01*
X159604786Y-78736302D01*
X159604788Y-78736303D01*
X159605750Y-78737110D01*
X159622180Y-78747578D01*
X159623322Y-78748110D01*
X159623323Y-78748111D01*
X159691350Y-78779832D01*
X159694527Y-78781371D01*
X159761567Y-78815040D01*
X159762702Y-78815610D01*
X159781085Y-78821999D01*
X159782322Y-78822254D01*
X159782328Y-78822257D01*
X159855852Y-78837437D01*
X159859286Y-78838199D01*
X159905566Y-78849168D01*
X159933506Y-78855791D01*
X159952879Y-78857770D01*
X159954141Y-78857733D01*
X159954145Y-78857734D01*
X160026534Y-78855627D01*
X160029132Y-78855552D01*
X160032738Y-78855500D01*
X177437770Y-78855500D01*
X177485223Y-78864939D01*
X177525451Y-78891819D01*
X191829269Y-93195637D01*
X191841051Y-93209270D01*
X191855389Y-93228529D01*
X191893337Y-93260372D01*
X191901311Y-93267680D01*
X191905221Y-93271590D01*
X191929537Y-93290816D01*
X191932336Y-93293096D01*
X191990752Y-93342113D01*
X192007179Y-93352578D01*
X192076320Y-93384819D01*
X192079560Y-93386388D01*
X192144444Y-93418974D01*
X192147700Y-93420609D01*
X192166088Y-93427000D01*
X192167322Y-93427254D01*
X192167327Y-93427257D01*
X192240829Y-93442432D01*
X192244307Y-93443204D01*
X192272510Y-93449889D01*
X192318502Y-93460790D01*
X192337876Y-93462769D01*
X192339140Y-93462732D01*
X192339144Y-93462733D01*
X192414110Y-93460552D01*
X192417716Y-93460500D01*
X198392770Y-93460500D01*
X198440223Y-93469939D01*
X198480451Y-93496819D01*
X201143181Y-96159549D01*
X201170061Y-96199777D01*
X201179500Y-96247230D01*
X201179500Y-97726294D01*
X201178191Y-97744264D01*
X201174711Y-97768023D01*
X201179028Y-97817369D01*
X201179500Y-97828176D01*
X201179500Y-97833708D01*
X201183098Y-97864496D01*
X201183464Y-97868081D01*
X201190110Y-97944041D01*
X201194329Y-97963071D01*
X201194758Y-97964251D01*
X201194759Y-97964255D01*
X201220413Y-98034742D01*
X201221582Y-98038107D01*
X201245580Y-98110524D01*
X201254075Y-98128072D01*
X201295979Y-98191784D01*
X201297889Y-98194782D01*
X201337288Y-98258656D01*
X201337952Y-98259732D01*
X201350253Y-98274830D01*
X201351168Y-98275693D01*
X201351170Y-98275696D01*
X201373745Y-98296994D01*
X201405708Y-98327150D01*
X201408295Y-98329663D01*
X203259269Y-100180637D01*
X203271051Y-100194270D01*
X203285390Y-100213530D01*
X203292253Y-100219289D01*
X203323337Y-100245372D01*
X203331311Y-100252680D01*
X203335221Y-100256590D01*
X203359537Y-100275816D01*
X203362336Y-100278096D01*
X203420752Y-100327113D01*
X203437179Y-100337578D01*
X203506320Y-100369819D01*
X203509567Y-100371391D01*
X203577699Y-100405609D01*
X203596087Y-100412000D01*
X203597323Y-100412255D01*
X203597327Y-100412257D01*
X203670895Y-100427447D01*
X203674242Y-100428189D01*
X203747279Y-100445500D01*
X203747281Y-100445500D01*
X203748509Y-100445791D01*
X203767878Y-100447770D01*
X203769140Y-100447733D01*
X203769144Y-100447734D01*
X203841533Y-100445627D01*
X203844131Y-100445552D01*
X203847737Y-100445500D01*
X210121294Y-100445500D01*
X210139264Y-100446809D01*
X210143320Y-100447402D01*
X210163023Y-100450289D01*
X210212368Y-100445972D01*
X210223176Y-100445500D01*
X210228706Y-100445500D01*
X210228709Y-100445500D01*
X210259550Y-100441894D01*
X210263031Y-100441539D01*
X210337797Y-100434999D01*
X210337797Y-100434998D01*
X210339052Y-100434889D01*
X210358062Y-100430674D01*
X210359250Y-100430241D01*
X210359255Y-100430241D01*
X210429820Y-100404557D01*
X210433095Y-100403419D01*
X210504334Y-100379814D01*
X210504336Y-100379812D01*
X210505536Y-100379415D01*
X210523063Y-100370929D01*
X210524112Y-100370238D01*
X210524117Y-100370237D01*
X210586806Y-100329005D01*
X210589798Y-100327099D01*
X210653656Y-100287712D01*
X210653656Y-100287711D01*
X210654729Y-100287050D01*
X210669824Y-100274753D01*
X210670692Y-100273832D01*
X210670696Y-100273830D01*
X210722185Y-100219253D01*
X210724631Y-100216735D01*
X213210638Y-97730727D01*
X213224256Y-97718957D01*
X213243530Y-97704610D01*
X213275382Y-97666649D01*
X213282668Y-97658697D01*
X213286590Y-97654777D01*
X213305859Y-97630405D01*
X213308054Y-97627711D01*
X213356302Y-97570214D01*
X213356302Y-97570212D01*
X213357117Y-97569242D01*
X213367566Y-97552840D01*
X213368105Y-97551682D01*
X213368110Y-97551677D01*
X213399832Y-97483647D01*
X213401348Y-97480516D01*
X213435040Y-97413433D01*
X213435040Y-97413429D01*
X213435610Y-97412296D01*
X213441999Y-97393917D01*
X213442256Y-97392673D01*
X213457431Y-97319171D01*
X213458186Y-97315767D01*
X213475500Y-97242721D01*
X213475500Y-97242719D01*
X213475790Y-97241495D01*
X213477769Y-97222123D01*
X213477732Y-97220859D01*
X213477733Y-97220856D01*
X213475552Y-97145889D01*
X213475500Y-97142284D01*
X213475500Y-83845446D01*
X213475710Y-83838236D01*
X213479331Y-83776066D01*
X213468515Y-83714731D01*
X213467469Y-83707591D01*
X213465210Y-83688261D01*
X213460241Y-83645745D01*
X213456404Y-83635206D01*
X213450810Y-83614324D01*
X213448865Y-83603289D01*
X213424193Y-83546094D01*
X213421535Y-83539400D01*
X213400238Y-83480884D01*
X213394076Y-83471516D01*
X213383817Y-83452490D01*
X213379429Y-83442317D01*
X213379377Y-83442196D01*
X213342187Y-83392243D01*
X213338054Y-83386340D01*
X213328451Y-83371739D01*
X213303830Y-83334304D01*
X213295673Y-83326608D01*
X213281304Y-83310462D01*
X213274610Y-83301470D01*
X213226894Y-83261432D01*
X213221543Y-83256670D01*
X213176218Y-83213908D01*
X213176216Y-83213906D01*
X213176213Y-83213904D01*
X213166503Y-83208298D01*
X213148801Y-83195903D01*
X213141381Y-83189677D01*
X213133405Y-83182368D01*
X209591385Y-79640348D01*
X209562544Y-79595077D01*
X209555538Y-79541861D01*
X209570137Y-79375000D01*
X209550304Y-79148308D01*
X209491408Y-78928504D01*
X209395237Y-78722266D01*
X209369717Y-78685820D01*
X209264715Y-78535859D01*
X209103809Y-78374953D01*
X208917404Y-78244432D01*
X208711166Y-78148261D01*
X208491358Y-78089364D01*
X208264668Y-78069531D01*
X208037979Y-78089364D01*
X207818171Y-78148261D01*
X207611933Y-78244432D01*
X207425528Y-78374953D01*
X207264622Y-78535859D01*
X207134101Y-78722264D01*
X207037930Y-78928502D01*
X206979033Y-79148310D01*
X206959200Y-79375000D01*
X206979033Y-79601689D01*
X207037930Y-79821497D01*
X207134101Y-80027735D01*
X207264622Y-80214140D01*
X207425528Y-80375046D01*
X207611933Y-80505567D01*
X207611934Y-80505567D01*
X207611935Y-80505568D01*
X207818173Y-80601739D01*
X207932211Y-80632295D01*
X207961805Y-80640225D01*
X208017392Y-80672319D01*
X208049486Y-80727906D01*
X208049486Y-80792094D01*
X208017392Y-80847681D01*
X207961805Y-80879775D01*
X207818171Y-80918261D01*
X207611933Y-81014432D01*
X207425528Y-81144953D01*
X207264622Y-81305859D01*
X207134101Y-81492264D01*
X207037930Y-81698502D01*
X206979033Y-81918310D01*
X206959200Y-82144999D01*
X206979033Y-82371689D01*
X207037930Y-82591497D01*
X207134101Y-82797735D01*
X207264622Y-82984140D01*
X207425528Y-83145046D01*
X207611933Y-83275567D01*
X207611934Y-83275567D01*
X207611935Y-83275568D01*
X207818173Y-83371739D01*
X207961805Y-83410225D01*
X208017392Y-83442317D01*
X208049486Y-83497905D01*
X208049486Y-83562092D01*
X208017393Y-83617680D01*
X207961805Y-83649774D01*
X207818171Y-83688261D01*
X207611933Y-83784432D01*
X207425528Y-83914953D01*
X207264622Y-84075859D01*
X207134101Y-84262264D01*
X207037930Y-84468502D01*
X206979033Y-84688310D01*
X206959200Y-84914999D01*
X206979033Y-85141689D01*
X207037930Y-85361497D01*
X207134101Y-85567735D01*
X207264622Y-85754140D01*
X207425528Y-85915046D01*
X207611933Y-86045567D01*
X207611934Y-86045567D01*
X207611935Y-86045568D01*
X207818173Y-86141739D01*
X207932211Y-86172295D01*
X207961805Y-86180225D01*
X208017392Y-86212319D01*
X208049486Y-86267906D01*
X208049486Y-86332094D01*
X208017392Y-86387681D01*
X207961805Y-86419775D01*
X207818171Y-86458261D01*
X207611933Y-86554432D01*
X207425528Y-86684953D01*
X207264622Y-86845859D01*
X207134101Y-87032264D01*
X207037930Y-87238502D01*
X206979033Y-87458310D01*
X206959200Y-87685000D01*
X206979033Y-87911689D01*
X207037930Y-88131497D01*
X207134101Y-88337735D01*
X207264622Y-88524140D01*
X207425528Y-88685046D01*
X207611933Y-88815567D01*
X207611934Y-88815567D01*
X207611935Y-88815568D01*
X207818173Y-88911739D01*
X208037977Y-88970635D01*
X208264669Y-88990468D01*
X208491361Y-88970635D01*
X208711165Y-88911739D01*
X208917403Y-88815568D01*
X209103808Y-88685047D01*
X209264716Y-88524139D01*
X209395237Y-88337734D01*
X209491408Y-88131496D01*
X209550304Y-87911692D01*
X209570137Y-87685000D01*
X209550304Y-87458308D01*
X209491408Y-87238504D01*
X209395237Y-87032266D01*
X209339549Y-86952735D01*
X209264715Y-86845859D01*
X209103809Y-86684953D01*
X208917404Y-86554432D01*
X208711165Y-86458261D01*
X208567533Y-86419775D01*
X208511945Y-86387681D01*
X208479851Y-86332094D01*
X208479851Y-86267906D01*
X208511945Y-86212319D01*
X208567533Y-86180225D01*
X208582971Y-86176088D01*
X208711165Y-86141739D01*
X208917403Y-86045568D01*
X209103808Y-85915047D01*
X209264716Y-85754139D01*
X209395237Y-85567734D01*
X209491408Y-85361496D01*
X209550304Y-85141692D01*
X209570137Y-84915000D01*
X209568273Y-84893690D01*
X209561176Y-84812571D01*
X209570561Y-84753313D01*
X209606668Y-84705398D01*
X209661044Y-84680042D01*
X209720958Y-84683182D01*
X209772385Y-84714083D01*
X210668181Y-85609879D01*
X210695061Y-85650107D01*
X210704500Y-85697560D01*
X210704500Y-89172770D01*
X210695061Y-89220223D01*
X210668181Y-89260451D01*
X208005451Y-91923181D01*
X207965223Y-91950061D01*
X207917770Y-91959500D01*
X201022230Y-91959500D01*
X200974777Y-91950061D01*
X200934549Y-91923181D01*
X199965728Y-90954360D01*
X199953946Y-90940727D01*
X199939609Y-90921469D01*
X199901666Y-90889631D01*
X199893691Y-90882323D01*
X199889782Y-90878414D01*
X199889777Y-90878409D01*
X199865423Y-90859152D01*
X199862647Y-90856890D01*
X199804251Y-90807890D01*
X199787821Y-90797422D01*
X199718691Y-90765186D01*
X199715447Y-90763615D01*
X199647306Y-90729394D01*
X199628903Y-90722997D01*
X199627673Y-90722743D01*
X199554206Y-90707572D01*
X199550692Y-90706794D01*
X199476490Y-90689208D01*
X199457121Y-90687229D01*
X199380869Y-90689448D01*
X199377263Y-90689500D01*
X193402230Y-90689500D01*
X193354777Y-90680061D01*
X193314549Y-90653181D01*
X192810394Y-90149026D01*
X204699195Y-90149026D01*
X204772184Y-90200133D01*
X204978342Y-90296266D01*
X205198066Y-90355141D01*
X205424668Y-90374966D01*
X205651271Y-90355141D01*
X205870995Y-90296266D01*
X206077149Y-90200134D01*
X206150141Y-90149025D01*
X205424670Y-89423553D01*
X205424669Y-89423553D01*
X204699195Y-90149025D01*
X204699195Y-90149026D01*
X192810394Y-90149026D01*
X191731368Y-89070000D01*
X204119702Y-89070000D01*
X204139527Y-89296602D01*
X204198402Y-89516326D01*
X204294535Y-89722484D01*
X204345641Y-89795471D01*
X204345642Y-89795472D01*
X205071115Y-89070000D01*
X205778222Y-89070000D01*
X206503694Y-89795472D01*
X206554803Y-89722480D01*
X206650935Y-89516326D01*
X206709810Y-89296602D01*
X206729635Y-89070000D01*
X206709810Y-88843397D01*
X206650935Y-88623673D01*
X206554802Y-88417515D01*
X206503694Y-88344526D01*
X205778222Y-89069998D01*
X205778222Y-89070000D01*
X205071115Y-89070000D01*
X205071115Y-89069998D01*
X204345642Y-88344527D01*
X204294534Y-88417516D01*
X204198402Y-88623672D01*
X204139527Y-88843397D01*
X204119702Y-89070000D01*
X191731368Y-89070000D01*
X187751368Y-85090000D01*
X196179531Y-85090000D01*
X196199364Y-85316689D01*
X196258261Y-85536497D01*
X196354432Y-85742735D01*
X196484953Y-85929140D01*
X196645859Y-86090046D01*
X196832264Y-86220567D01*
X196832265Y-86220567D01*
X196832266Y-86220568D01*
X197038504Y-86316739D01*
X197258308Y-86375635D01*
X197485000Y-86395468D01*
X197711692Y-86375635D01*
X197931496Y-86316739D01*
X198137734Y-86220568D01*
X198324139Y-86090047D01*
X198485047Y-85929139D01*
X198615568Y-85742734D01*
X198711739Y-85536496D01*
X198770635Y-85316692D01*
X198790468Y-85090000D01*
X198770635Y-84863308D01*
X198711739Y-84643504D01*
X198615568Y-84437266D01*
X198614551Y-84435814D01*
X198485046Y-84250859D01*
X198324140Y-84089953D01*
X198137735Y-83959432D01*
X197931497Y-83863261D01*
X197711689Y-83804364D01*
X197485000Y-83784531D01*
X197258310Y-83804364D01*
X197038502Y-83863261D01*
X196832264Y-83959432D01*
X196645859Y-84089953D01*
X196484953Y-84250859D01*
X196354432Y-84437264D01*
X196258261Y-84643502D01*
X196199364Y-84863310D01*
X196179531Y-85090000D01*
X187751368Y-85090000D01*
X179010728Y-76349360D01*
X178998946Y-76335727D01*
X178991250Y-76325390D01*
X178984610Y-76316470D01*
X178946667Y-76284631D01*
X178938691Y-76277323D01*
X178934782Y-76273414D01*
X178934782Y-76273413D01*
X178934777Y-76273409D01*
X178910423Y-76254152D01*
X178907647Y-76251890D01*
X178849251Y-76202890D01*
X178832821Y-76192422D01*
X178763691Y-76160186D01*
X178760447Y-76158615D01*
X178692306Y-76124394D01*
X178673903Y-76117997D01*
X178599211Y-76102574D01*
X178595692Y-76101794D01*
X178521490Y-76084208D01*
X178502121Y-76082229D01*
X178425869Y-76084448D01*
X178422263Y-76084500D01*
X161017229Y-76084500D01*
X160969776Y-76075061D01*
X160929548Y-76048181D01*
X159176367Y-74295000D01*
X157420728Y-72539360D01*
X157408946Y-72525727D01*
X157394609Y-72506469D01*
X157356666Y-72474631D01*
X157348691Y-72467323D01*
X157344782Y-72463414D01*
X157344777Y-72463409D01*
X157320423Y-72444152D01*
X157317647Y-72441890D01*
X157259251Y-72392890D01*
X157242821Y-72382422D01*
X157173691Y-72350186D01*
X157170447Y-72348615D01*
X157102306Y-72314394D01*
X157083903Y-72307997D01*
X157009211Y-72292574D01*
X157005692Y-72291794D01*
X156931490Y-72274208D01*
X156912121Y-72272229D01*
X156835869Y-72274448D01*
X156832263Y-72274500D01*
X118173706Y-72274500D01*
X118155736Y-72273191D01*
X118141853Y-72271157D01*
X118131977Y-72269711D01*
X118131976Y-72269711D01*
X118082631Y-72274028D01*
X118071824Y-72274500D01*
X118066291Y-72274500D01*
X118035501Y-72278098D01*
X118031917Y-72278464D01*
X117955961Y-72285109D01*
X117936921Y-72289330D01*
X117865232Y-72315421D01*
X117861831Y-72316603D01*
X117789479Y-72340579D01*
X117771925Y-72349077D01*
X117708228Y-72390970D01*
X117705190Y-72392905D01*
X117640281Y-72432943D01*
X117625164Y-72445256D01*
X117572848Y-72500708D01*
X117570336Y-72503294D01*
X114449358Y-75624272D01*
X114435727Y-75636053D01*
X114416467Y-75650392D01*
X114384633Y-75688329D01*
X114377341Y-75696289D01*
X114373408Y-75700222D01*
X114354176Y-75724545D01*
X114351902Y-75727337D01*
X114302894Y-75785744D01*
X114292418Y-75802187D01*
X114260192Y-75871294D01*
X114258622Y-75874536D01*
X114224393Y-75942692D01*
X114217996Y-75961098D01*
X114202573Y-76035788D01*
X114201793Y-76039305D01*
X114184208Y-76113505D01*
X114182229Y-76132878D01*
X114184448Y-76209131D01*
X114184500Y-76212737D01*
X114184500Y-76978337D01*
X114170489Y-77035594D01*
X114131623Y-77079912D01*
X114095859Y-77104953D01*
X113934953Y-77265859D01*
X113804432Y-77452264D01*
X113708261Y-77658502D01*
X113649364Y-77878310D01*
X113629531Y-78105000D01*
X93345500Y-78105000D01*
X93345500Y-70485000D01*
X113629531Y-70485000D01*
X113649364Y-70711689D01*
X113708261Y-70931497D01*
X113804432Y-71137735D01*
X113934953Y-71324140D01*
X114095859Y-71485046D01*
X114282264Y-71615567D01*
X114282265Y-71615567D01*
X114282266Y-71615568D01*
X114488504Y-71711739D01*
X114708308Y-71770635D01*
X114859436Y-71783857D01*
X114934999Y-71790468D01*
X114934999Y-71790467D01*
X114935000Y-71790468D01*
X115161692Y-71770635D01*
X115381496Y-71711739D01*
X115587734Y-71615568D01*
X115774139Y-71485047D01*
X115935047Y-71324139D01*
X116065568Y-71137734D01*
X116092618Y-71079724D01*
X116138375Y-71027549D01*
X116205000Y-71008129D01*
X116271625Y-71027549D01*
X116317382Y-71079725D01*
X116344431Y-71137733D01*
X116474953Y-71324140D01*
X116635859Y-71485046D01*
X116822264Y-71615567D01*
X116822265Y-71615567D01*
X116822266Y-71615568D01*
X117028504Y-71711739D01*
X117248308Y-71770635D01*
X117399436Y-71783857D01*
X117474999Y-71790468D01*
X117474999Y-71790467D01*
X117475000Y-71790468D01*
X117701692Y-71770635D01*
X117921496Y-71711739D01*
X118127734Y-71615568D01*
X118314139Y-71485047D01*
X118475047Y-71324139D01*
X118605568Y-71137734D01*
X118632618Y-71079724D01*
X118678375Y-71027549D01*
X118745000Y-71008129D01*
X118811625Y-71027549D01*
X118857382Y-71079725D01*
X118884431Y-71137733D01*
X119014953Y-71324140D01*
X119175859Y-71485046D01*
X119362264Y-71615567D01*
X119362265Y-71615567D01*
X119362266Y-71615568D01*
X119568504Y-71711739D01*
X119788308Y-71770635D01*
X119939436Y-71783857D01*
X120014999Y-71790468D01*
X120014999Y-71790467D01*
X120015000Y-71790468D01*
X120241692Y-71770635D01*
X120461496Y-71711739D01*
X120667734Y-71615568D01*
X120854139Y-71485047D01*
X121015047Y-71324139D01*
X121032273Y-71299536D01*
X121077113Y-71260400D01*
X121135027Y-71246666D01*
X121192669Y-71261499D01*
X121236758Y-71301483D01*
X121257138Y-71357405D01*
X121260909Y-71392483D01*
X121311204Y-71527331D01*
X121397454Y-71642546D01*
X121512669Y-71728796D01*
X121647517Y-71779091D01*
X121707127Y-71785500D01*
X123402872Y-71785499D01*
X123462483Y-71779091D01*
X123597331Y-71728796D01*
X123712546Y-71642546D01*
X123798796Y-71527331D01*
X123849091Y-71392483D01*
X123855500Y-71332873D01*
X123855499Y-70485000D01*
X135814531Y-70485000D01*
X135834364Y-70711689D01*
X135893261Y-70931497D01*
X135989432Y-71137735D01*
X136119953Y-71324140D01*
X136280859Y-71485046D01*
X136467264Y-71615567D01*
X136467265Y-71615567D01*
X136467266Y-71615568D01*
X136673504Y-71711739D01*
X136893308Y-71770635D01*
X137044436Y-71783857D01*
X137119999Y-71790468D01*
X137119999Y-71790467D01*
X137120000Y-71790468D01*
X137346692Y-71770635D01*
X137566496Y-71711739D01*
X137772734Y-71615568D01*
X137959139Y-71485047D01*
X138120047Y-71324139D01*
X138250568Y-71137734D01*
X138277618Y-71079724D01*
X138323375Y-71027549D01*
X138390000Y-71008129D01*
X138456625Y-71027549D01*
X138502382Y-71079725D01*
X138529431Y-71137733D01*
X138659953Y-71324140D01*
X138820859Y-71485046D01*
X139007264Y-71615567D01*
X139007265Y-71615567D01*
X139007266Y-71615568D01*
X139213504Y-71711739D01*
X139433308Y-71770635D01*
X139584436Y-71783857D01*
X139659999Y-71790468D01*
X139659999Y-71790467D01*
X139660000Y-71790468D01*
X139886692Y-71770635D01*
X140106496Y-71711739D01*
X140312734Y-71615568D01*
X140499139Y-71485047D01*
X140660047Y-71324139D01*
X140790568Y-71137734D01*
X140817618Y-71079724D01*
X140863375Y-71027549D01*
X140930000Y-71008129D01*
X140996625Y-71027549D01*
X141042382Y-71079725D01*
X141069431Y-71137733D01*
X141199953Y-71324140D01*
X141360859Y-71485046D01*
X141547264Y-71615567D01*
X141547265Y-71615567D01*
X141547266Y-71615568D01*
X141753504Y-71711739D01*
X141973308Y-71770635D01*
X142124436Y-71783857D01*
X142199999Y-71790468D01*
X142199999Y-71790467D01*
X142200000Y-71790468D01*
X142426692Y-71770635D01*
X142646496Y-71711739D01*
X142852734Y-71615568D01*
X143039139Y-71485047D01*
X143200047Y-71324139D01*
X143217273Y-71299536D01*
X143262113Y-71260400D01*
X143320027Y-71246666D01*
X143377669Y-71261499D01*
X143421758Y-71301483D01*
X143442138Y-71357405D01*
X143445909Y-71392483D01*
X143496204Y-71527331D01*
X143582454Y-71642546D01*
X143697669Y-71728796D01*
X143832517Y-71779091D01*
X143892127Y-71785500D01*
X145587872Y-71785499D01*
X145647483Y-71779091D01*
X145782331Y-71728796D01*
X145897546Y-71642546D01*
X145983796Y-71527331D01*
X146034091Y-71392483D01*
X146040500Y-71332873D01*
X146040499Y-69637128D01*
X146034091Y-69577517D01*
X145983796Y-69442669D01*
X145897546Y-69327454D01*
X145782331Y-69241204D01*
X145647483Y-69190909D01*
X145587873Y-69184500D01*
X145587869Y-69184500D01*
X143892130Y-69184500D01*
X143832515Y-69190909D01*
X143697669Y-69241204D01*
X143582454Y-69327454D01*
X143496204Y-69442668D01*
X143445909Y-69577516D01*
X143442138Y-69612593D01*
X143421759Y-69668515D01*
X143377670Y-69708498D01*
X143320029Y-69723332D01*
X143262116Y-69709599D01*
X143217273Y-69670462D01*
X143200044Y-69645857D01*
X143039140Y-69484953D01*
X142852735Y-69354432D01*
X142646497Y-69258261D01*
X142426689Y-69199364D01*
X142200000Y-69179531D01*
X141973310Y-69199364D01*
X141753502Y-69258261D01*
X141547264Y-69354432D01*
X141360859Y-69484953D01*
X141199953Y-69645859D01*
X141069433Y-69832263D01*
X141042382Y-69890275D01*
X140996625Y-69942450D01*
X140930000Y-69961869D01*
X140863375Y-69942450D01*
X140817618Y-69890275D01*
X140815158Y-69884999D01*
X140790568Y-69832266D01*
X140790566Y-69832263D01*
X140660046Y-69645859D01*
X140499140Y-69484953D01*
X140312735Y-69354432D01*
X140106497Y-69258261D01*
X139886689Y-69199364D01*
X139660000Y-69179531D01*
X139433310Y-69199364D01*
X139213502Y-69258261D01*
X139007264Y-69354432D01*
X138820859Y-69484953D01*
X138659953Y-69645859D01*
X138529433Y-69832263D01*
X138502382Y-69890275D01*
X138456625Y-69942450D01*
X138390000Y-69961869D01*
X138323375Y-69942450D01*
X138277618Y-69890275D01*
X138275158Y-69884999D01*
X138250568Y-69832266D01*
X138250566Y-69832263D01*
X138120046Y-69645859D01*
X137959140Y-69484953D01*
X137772735Y-69354432D01*
X137566497Y-69258261D01*
X137346689Y-69199364D01*
X137120000Y-69179531D01*
X136893310Y-69199364D01*
X136673502Y-69258261D01*
X136467264Y-69354432D01*
X136280859Y-69484953D01*
X136119953Y-69645859D01*
X135989432Y-69832264D01*
X135893261Y-70038502D01*
X135834364Y-70258310D01*
X135814531Y-70485000D01*
X123855499Y-70485000D01*
X123855499Y-69637128D01*
X123849091Y-69577517D01*
X123798796Y-69442669D01*
X123712546Y-69327454D01*
X123597331Y-69241204D01*
X123462483Y-69190909D01*
X123402873Y-69184500D01*
X123402869Y-69184500D01*
X121707130Y-69184500D01*
X121647515Y-69190909D01*
X121512669Y-69241204D01*
X121397454Y-69327454D01*
X121311204Y-69442668D01*
X121260909Y-69577516D01*
X121257138Y-69612593D01*
X121236759Y-69668515D01*
X121192670Y-69708498D01*
X121135029Y-69723332D01*
X121077116Y-69709599D01*
X121032273Y-69670462D01*
X121015044Y-69645857D01*
X120854140Y-69484953D01*
X120667735Y-69354432D01*
X120461497Y-69258261D01*
X120241689Y-69199364D01*
X120015000Y-69179531D01*
X119788310Y-69199364D01*
X119568502Y-69258261D01*
X119362264Y-69354432D01*
X119175859Y-69484953D01*
X119014953Y-69645859D01*
X118884433Y-69832263D01*
X118857382Y-69890275D01*
X118811625Y-69942450D01*
X118745000Y-69961869D01*
X118678375Y-69942450D01*
X118632618Y-69890275D01*
X118630158Y-69884999D01*
X118605568Y-69832266D01*
X118605566Y-69832263D01*
X118475046Y-69645859D01*
X118314140Y-69484953D01*
X118127735Y-69354432D01*
X117921497Y-69258261D01*
X117701689Y-69199364D01*
X117475000Y-69179531D01*
X117248310Y-69199364D01*
X117028502Y-69258261D01*
X116822264Y-69354432D01*
X116635859Y-69484953D01*
X116474953Y-69645859D01*
X116344433Y-69832263D01*
X116317382Y-69890275D01*
X116271625Y-69942450D01*
X116205000Y-69961869D01*
X116138375Y-69942450D01*
X116092618Y-69890275D01*
X116090158Y-69884999D01*
X116065568Y-69832266D01*
X116065566Y-69832263D01*
X115935046Y-69645859D01*
X115774140Y-69484953D01*
X115587735Y-69354432D01*
X115381497Y-69258261D01*
X115161689Y-69199364D01*
X114935000Y-69179531D01*
X114708310Y-69199364D01*
X114488502Y-69258261D01*
X114282264Y-69354432D01*
X114095859Y-69484953D01*
X113934953Y-69645859D01*
X113804432Y-69832264D01*
X113708261Y-70038502D01*
X113649364Y-70258310D01*
X113629531Y-70485000D01*
X93345500Y-70485000D01*
X93345500Y-63430999D01*
X108549531Y-63430999D01*
X108569364Y-63657689D01*
X108628261Y-63877497D01*
X108724432Y-64083735D01*
X108854953Y-64270140D01*
X109015859Y-64431046D01*
X109202264Y-64561567D01*
X109202265Y-64561567D01*
X109202266Y-64561568D01*
X109408504Y-64657739D01*
X109628308Y-64716635D01*
X109855000Y-64736468D01*
X110081692Y-64716635D01*
X110301496Y-64657739D01*
X110507734Y-64561568D01*
X110694139Y-64431047D01*
X110855047Y-64270139D01*
X110985568Y-64083734D01*
X111081739Y-63877496D01*
X111140635Y-63657692D01*
X111160468Y-63431000D01*
X111160468Y-63430999D01*
X113629531Y-63430999D01*
X113649364Y-63657689D01*
X113708261Y-63877497D01*
X113804432Y-64083735D01*
X113934953Y-64270140D01*
X114095859Y-64431046D01*
X114282264Y-64561567D01*
X114282265Y-64561567D01*
X114282266Y-64561568D01*
X114488504Y-64657739D01*
X114708308Y-64716635D01*
X114935000Y-64736468D01*
X115161692Y-64716635D01*
X115381496Y-64657739D01*
X115587734Y-64561568D01*
X115774139Y-64431047D01*
X115935047Y-64270139D01*
X116065568Y-64083734D01*
X116161739Y-63877496D01*
X116220635Y-63657692D01*
X116240468Y-63431000D01*
X116240468Y-63430999D01*
X118709531Y-63430999D01*
X118729364Y-63657689D01*
X118788261Y-63877497D01*
X118884432Y-64083735D01*
X119014953Y-64270140D01*
X119175859Y-64431046D01*
X119362264Y-64561567D01*
X119362265Y-64561567D01*
X119362266Y-64561568D01*
X119568504Y-64657739D01*
X119788308Y-64716635D01*
X120015000Y-64736468D01*
X120241692Y-64716635D01*
X120461496Y-64657739D01*
X120667734Y-64561568D01*
X120854139Y-64431047D01*
X121015047Y-64270139D01*
X121145568Y-64083734D01*
X121241739Y-63877496D01*
X121300635Y-63657692D01*
X121320468Y-63431000D01*
X121300635Y-63204308D01*
X121241739Y-62984504D01*
X121145568Y-62778266D01*
X121105442Y-62720960D01*
X121015046Y-62591859D01*
X120854140Y-62430953D01*
X120667735Y-62300432D01*
X120461497Y-62204261D01*
X120241689Y-62145364D01*
X120015000Y-62125531D01*
X119788310Y-62145364D01*
X119568502Y-62204261D01*
X119362264Y-62300432D01*
X119175859Y-62430953D01*
X119014953Y-62591859D01*
X118884432Y-62778264D01*
X118788261Y-62984502D01*
X118729364Y-63204310D01*
X118709531Y-63430999D01*
X116240468Y-63430999D01*
X116225869Y-63264136D01*
X116232875Y-63210921D01*
X116261714Y-63165652D01*
X122125548Y-57301819D01*
X122165777Y-57274939D01*
X122213230Y-57265500D01*
X156146294Y-57265500D01*
X156164264Y-57266809D01*
X156168320Y-57267402D01*
X156188023Y-57270289D01*
X156237368Y-57265972D01*
X156248176Y-57265500D01*
X156253706Y-57265500D01*
X156253709Y-57265500D01*
X156284550Y-57261894D01*
X156288031Y-57261539D01*
X156362797Y-57254999D01*
X156362797Y-57254998D01*
X156364052Y-57254889D01*
X156383062Y-57250674D01*
X156384250Y-57250241D01*
X156384255Y-57250241D01*
X156454820Y-57224557D01*
X156458095Y-57223419D01*
X156529334Y-57199814D01*
X156529336Y-57199812D01*
X156530536Y-57199415D01*
X156548063Y-57190929D01*
X156549112Y-57190238D01*
X156549117Y-57190237D01*
X156611806Y-57149005D01*
X156614798Y-57147099D01*
X156678656Y-57107712D01*
X156678656Y-57107711D01*
X156679729Y-57107050D01*
X156694824Y-57094753D01*
X156695692Y-57093832D01*
X156695696Y-57093830D01*
X156747184Y-57039254D01*
X156749630Y-57036736D01*
X158354548Y-55431819D01*
X158394777Y-55404939D01*
X158442230Y-55395500D01*
X165733337Y-55395500D01*
X165790594Y-55409511D01*
X165834912Y-55448377D01*
X165859953Y-55484140D01*
X166020859Y-55645046D01*
X166196895Y-55768306D01*
X166207266Y-55775568D01*
X166265275Y-55802618D01*
X166317450Y-55848375D01*
X166336869Y-55915000D01*
X166317450Y-55981625D01*
X166265275Y-56027382D01*
X166207263Y-56054433D01*
X166020859Y-56184953D01*
X165859953Y-56345859D01*
X165834912Y-56381623D01*
X165790594Y-56420489D01*
X165733337Y-56434500D01*
X160913850Y-56434500D01*
X160888766Y-56431936D01*
X160881677Y-56430472D01*
X160860989Y-56424278D01*
X160850565Y-56420137D01*
X160788948Y-56411111D01*
X160781846Y-56409859D01*
X160720858Y-56397265D01*
X160709636Y-56397592D01*
X160688066Y-56396335D01*
X160686946Y-56396171D01*
X160676975Y-56394710D01*
X160614956Y-56400136D01*
X160607759Y-56400555D01*
X160545489Y-56402368D01*
X160534646Y-56405273D01*
X160513377Y-56409023D01*
X160502204Y-56410001D01*
X160443092Y-56429587D01*
X160436189Y-56431654D01*
X160376021Y-56447777D01*
X160366145Y-56453102D01*
X160346316Y-56461655D01*
X160335668Y-56465184D01*
X160282664Y-56497876D01*
X160276422Y-56501480D01*
X160221597Y-56531042D01*
X160213214Y-56538502D01*
X160195888Y-56551400D01*
X160186342Y-56557288D01*
X160142307Y-56601323D01*
X160137064Y-56606270D01*
X160090539Y-56647674D01*
X160084107Y-56656861D01*
X160070217Y-56673413D01*
X159110451Y-57633181D01*
X159070223Y-57660061D01*
X159022770Y-57669500D01*
X130169706Y-57669500D01*
X130151736Y-57668191D01*
X130137853Y-57666157D01*
X130127977Y-57664711D01*
X130127976Y-57664711D01*
X130078634Y-57669028D01*
X130067827Y-57669500D01*
X130062289Y-57669500D01*
X130031487Y-57673099D01*
X130027906Y-57673465D01*
X129951952Y-57680111D01*
X129932923Y-57684329D01*
X129861271Y-57710408D01*
X129857868Y-57711591D01*
X129785479Y-57735579D01*
X129767927Y-57744076D01*
X129704228Y-57785970D01*
X129701190Y-57787905D01*
X129636281Y-57827943D01*
X129621164Y-57840256D01*
X129568848Y-57895708D01*
X129566336Y-57898294D01*
X125360348Y-62104282D01*
X125315078Y-62133123D01*
X125261860Y-62140129D01*
X125095000Y-62125531D01*
X124868310Y-62145364D01*
X124648502Y-62204261D01*
X124442264Y-62300432D01*
X124255859Y-62430953D01*
X124094953Y-62591859D01*
X123964432Y-62778264D01*
X123868261Y-62984502D01*
X123809364Y-63204310D01*
X123789531Y-63430999D01*
X123809364Y-63657689D01*
X123868261Y-63877497D01*
X123964432Y-64083735D01*
X124094953Y-64270140D01*
X124255859Y-64431046D01*
X124442264Y-64561567D01*
X124442265Y-64561567D01*
X124442266Y-64561568D01*
X124648504Y-64657739D01*
X124868308Y-64716635D01*
X125095000Y-64736468D01*
X125321692Y-64716635D01*
X125541496Y-64657739D01*
X125747734Y-64561568D01*
X125934139Y-64431047D01*
X126095047Y-64270139D01*
X126225568Y-64083734D01*
X126321739Y-63877496D01*
X126380635Y-63657692D01*
X126400468Y-63431000D01*
X126400468Y-63430999D01*
X133314531Y-63430999D01*
X133334364Y-63657689D01*
X133393261Y-63877497D01*
X133489432Y-64083735D01*
X133619953Y-64270140D01*
X133780859Y-64431046D01*
X133967264Y-64561567D01*
X133967265Y-64561567D01*
X133967266Y-64561568D01*
X134173504Y-64657739D01*
X134393308Y-64716635D01*
X134620000Y-64736468D01*
X134846692Y-64716635D01*
X135066496Y-64657739D01*
X135272734Y-64561568D01*
X135459139Y-64431047D01*
X135620047Y-64270139D01*
X135750568Y-64083734D01*
X135846739Y-63877496D01*
X135905635Y-63657692D01*
X135925468Y-63431000D01*
X135905635Y-63204308D01*
X135846739Y-62984504D01*
X135750568Y-62778266D01*
X135710442Y-62720960D01*
X135620046Y-62591859D01*
X135459140Y-62430953D01*
X135272735Y-62300432D01*
X135066497Y-62204261D01*
X134846689Y-62145364D01*
X134620000Y-62125531D01*
X134393310Y-62145364D01*
X134173502Y-62204261D01*
X133967264Y-62300432D01*
X133780859Y-62430953D01*
X133619953Y-62591859D01*
X133489432Y-62778264D01*
X133393261Y-62984502D01*
X133334364Y-63204310D01*
X133314531Y-63430999D01*
X126400468Y-63430999D01*
X126385869Y-63264136D01*
X126392875Y-63210921D01*
X126421714Y-63165652D01*
X130380548Y-59206818D01*
X130420776Y-59179939D01*
X130468229Y-59170500D01*
X159321294Y-59170500D01*
X159339264Y-59171809D01*
X159343320Y-59172402D01*
X159363023Y-59175289D01*
X159412368Y-59170972D01*
X159423176Y-59170500D01*
X159428706Y-59170500D01*
X159428709Y-59170500D01*
X159459550Y-59166894D01*
X159463031Y-59166539D01*
X159537797Y-59159999D01*
X159537797Y-59159998D01*
X159539052Y-59159889D01*
X159558062Y-59155674D01*
X159559250Y-59155241D01*
X159559255Y-59155241D01*
X159629820Y-59129557D01*
X159633095Y-59128419D01*
X159704334Y-59104814D01*
X159704336Y-59104812D01*
X159705536Y-59104415D01*
X159723063Y-59095929D01*
X159724112Y-59095238D01*
X159724117Y-59095237D01*
X159786806Y-59054005D01*
X159789798Y-59052099D01*
X159853656Y-59012712D01*
X159853656Y-59012711D01*
X159854729Y-59012050D01*
X159869824Y-58999753D01*
X159870692Y-58998832D01*
X159870696Y-58998830D01*
X159922185Y-58944253D01*
X159924631Y-58941735D01*
X160894548Y-57971819D01*
X160934776Y-57944939D01*
X160982229Y-57935500D01*
X165733337Y-57935500D01*
X165790594Y-57949511D01*
X165834912Y-57988377D01*
X165859953Y-58024140D01*
X166020859Y-58185046D01*
X166207265Y-58315567D01*
X166207266Y-58315568D01*
X166265273Y-58342617D01*
X166317449Y-58388373D01*
X166336869Y-58454997D01*
X166317451Y-58521622D01*
X166265276Y-58567380D01*
X166207266Y-58594431D01*
X166020859Y-58724953D01*
X165859953Y-58885859D01*
X165729432Y-59072264D01*
X165633261Y-59278502D01*
X165578575Y-59482594D01*
X165553789Y-59530206D01*
X165511205Y-59562882D01*
X165458800Y-59574500D01*
X141668706Y-59574500D01*
X141650736Y-59573191D01*
X141636853Y-59571157D01*
X141626977Y-59569711D01*
X141626976Y-59569711D01*
X141577631Y-59574028D01*
X141566824Y-59574500D01*
X141561291Y-59574500D01*
X141530501Y-59578098D01*
X141526917Y-59578464D01*
X141450961Y-59585109D01*
X141431921Y-59589330D01*
X141360232Y-59615421D01*
X141356831Y-59616603D01*
X141284474Y-59640580D01*
X141266927Y-59649075D01*
X141203221Y-59690975D01*
X141200181Y-59692912D01*
X141135280Y-59732944D01*
X141120164Y-59745257D01*
X141067831Y-59800726D01*
X141065319Y-59803312D01*
X139214358Y-61654272D01*
X139200727Y-61666053D01*
X139181467Y-61680392D01*
X139149633Y-61718329D01*
X139142341Y-61726289D01*
X139138408Y-61730222D01*
X139119176Y-61754545D01*
X139116902Y-61757337D01*
X139067894Y-61815744D01*
X139057418Y-61832187D01*
X139025192Y-61901294D01*
X139023622Y-61904536D01*
X138989393Y-61972692D01*
X138982996Y-61991098D01*
X138967573Y-62065788D01*
X138966793Y-62069305D01*
X138949208Y-62143505D01*
X138947229Y-62162878D01*
X138949448Y-62239131D01*
X138949500Y-62242737D01*
X138949500Y-62304337D01*
X138935489Y-62361594D01*
X138896623Y-62405912D01*
X138860859Y-62430953D01*
X138699953Y-62591859D01*
X138569432Y-62778264D01*
X138473261Y-62984502D01*
X138414364Y-63204310D01*
X138394531Y-63430999D01*
X138414364Y-63657689D01*
X138473261Y-63877497D01*
X138569432Y-64083735D01*
X138699953Y-64270140D01*
X138860859Y-64431046D01*
X139047264Y-64561567D01*
X139047265Y-64561567D01*
X139047266Y-64561568D01*
X139253504Y-64657739D01*
X139473308Y-64716635D01*
X139700000Y-64736468D01*
X139926692Y-64716635D01*
X140146496Y-64657739D01*
X140352734Y-64561568D01*
X140539139Y-64431047D01*
X140700047Y-64270139D01*
X140830568Y-64083734D01*
X140926739Y-63877496D01*
X140985635Y-63657692D01*
X141005468Y-63431000D01*
X141005468Y-63430999D01*
X143474531Y-63430999D01*
X143494364Y-63657689D01*
X143553261Y-63877497D01*
X143649432Y-64083735D01*
X143779953Y-64270140D01*
X143940859Y-64431046D01*
X144127264Y-64561567D01*
X144127265Y-64561567D01*
X144127266Y-64561568D01*
X144333504Y-64657739D01*
X144553308Y-64716635D01*
X144780000Y-64736468D01*
X145006692Y-64716635D01*
X145226496Y-64657739D01*
X145432734Y-64561568D01*
X145619139Y-64431047D01*
X145780047Y-64270139D01*
X145910568Y-64083734D01*
X146006739Y-63877496D01*
X146065635Y-63657692D01*
X146085468Y-63431000D01*
X146065635Y-63204308D01*
X146006739Y-62984504D01*
X145910568Y-62778266D01*
X145870442Y-62720960D01*
X145780046Y-62591859D01*
X145619140Y-62430953D01*
X145432735Y-62300432D01*
X145226497Y-62204261D01*
X145006689Y-62145364D01*
X144780000Y-62125531D01*
X144553310Y-62145364D01*
X144333502Y-62204261D01*
X144127264Y-62300432D01*
X143940859Y-62430953D01*
X143779953Y-62591859D01*
X143649432Y-62778264D01*
X143553261Y-62984502D01*
X143494364Y-63204310D01*
X143474531Y-63430999D01*
X141005468Y-63430999D01*
X140985635Y-63204308D01*
X140926739Y-62984504D01*
X140830568Y-62778266D01*
X140790442Y-62720960D01*
X140700046Y-62591859D01*
X140637458Y-62529271D01*
X140605364Y-62473684D01*
X140605364Y-62409496D01*
X140637456Y-62353911D01*
X141879549Y-61111819D01*
X141919777Y-61084939D01*
X141967230Y-61075500D01*
X165910951Y-61075500D01*
X165967246Y-61089015D01*
X166011269Y-61126615D01*
X166033424Y-61180102D01*
X166028882Y-61237818D01*
X165998632Y-61287181D01*
X165859953Y-61425859D01*
X165729432Y-61612264D01*
X165633261Y-61818502D01*
X165574364Y-62038310D01*
X165554531Y-62265000D01*
X165574364Y-62491689D01*
X165633261Y-62711497D01*
X165729432Y-62917735D01*
X165859953Y-63104140D01*
X166020859Y-63265046D01*
X166207263Y-63395566D01*
X166207266Y-63395568D01*
X166265275Y-63422618D01*
X166317450Y-63468375D01*
X166336869Y-63535000D01*
X166317450Y-63601625D01*
X166265275Y-63647382D01*
X166207263Y-63674433D01*
X166020859Y-63804953D01*
X165859953Y-63965859D01*
X165729432Y-64152264D01*
X165633261Y-64358502D01*
X165574364Y-64578310D01*
X165554531Y-64804999D01*
X165574364Y-65031689D01*
X165633261Y-65251497D01*
X165729432Y-65457735D01*
X165859953Y-65644140D01*
X166020859Y-65805046D01*
X166207263Y-65935566D01*
X166207266Y-65935568D01*
X166265275Y-65962618D01*
X166317450Y-66008375D01*
X166336869Y-66075000D01*
X166317450Y-66141625D01*
X166265275Y-66187382D01*
X166207263Y-66214433D01*
X166020859Y-66344953D01*
X165859953Y-66505859D01*
X165729432Y-66692264D01*
X165633261Y-66898502D01*
X165574364Y-67118310D01*
X165554531Y-67344999D01*
X165574364Y-67571689D01*
X165633261Y-67791497D01*
X165729432Y-67997735D01*
X165859953Y-68184140D01*
X166020859Y-68345046D01*
X166206645Y-68475133D01*
X166207266Y-68475568D01*
X166264683Y-68502342D01*
X166265275Y-68502618D01*
X166317450Y-68548375D01*
X166336869Y-68615000D01*
X166317450Y-68681625D01*
X166265275Y-68727382D01*
X166207263Y-68754433D01*
X166020859Y-68884953D01*
X165859953Y-69045859D01*
X165729432Y-69232264D01*
X165633261Y-69438502D01*
X165574364Y-69658310D01*
X165554531Y-69884999D01*
X165574364Y-70111689D01*
X165633261Y-70331497D01*
X165729432Y-70537735D01*
X165859953Y-70724140D01*
X166020859Y-70885046D01*
X166207264Y-71015567D01*
X166207265Y-71015567D01*
X166207266Y-71015568D01*
X166413504Y-71111739D01*
X166633308Y-71170635D01*
X166860000Y-71190468D01*
X167086692Y-71170635D01*
X167306496Y-71111739D01*
X167512734Y-71015568D01*
X167699139Y-70885047D01*
X167860047Y-70724139D01*
X167990568Y-70537734D01*
X168017618Y-70479724D01*
X168063375Y-70427549D01*
X168130000Y-70408129D01*
X168196625Y-70427549D01*
X168242382Y-70479725D01*
X168269431Y-70537733D01*
X168399953Y-70724140D01*
X168560859Y-70885046D01*
X168747264Y-71015567D01*
X168747265Y-71015567D01*
X168747266Y-71015568D01*
X168953504Y-71111739D01*
X169173308Y-71170635D01*
X169400000Y-71190468D01*
X169626692Y-71170635D01*
X169846496Y-71111739D01*
X170052734Y-71015568D01*
X170239139Y-70885047D01*
X170400047Y-70724139D01*
X170530568Y-70537734D01*
X170626739Y-70331496D01*
X170685635Y-70111692D01*
X170705468Y-69885000D01*
X170685635Y-69658308D01*
X170626739Y-69438504D01*
X170530568Y-69232266D01*
X170497122Y-69184500D01*
X170400046Y-69045859D01*
X170239140Y-68884953D01*
X170052733Y-68754431D01*
X169994725Y-68727382D01*
X169942549Y-68681625D01*
X169923129Y-68615000D01*
X169942549Y-68548375D01*
X169994725Y-68502618D01*
X169995317Y-68502342D01*
X170052734Y-68475568D01*
X170239139Y-68345047D01*
X170400047Y-68184139D01*
X170530568Y-67997734D01*
X170626739Y-67791496D01*
X170685635Y-67571692D01*
X170705468Y-67345000D01*
X170685635Y-67118308D01*
X170626739Y-66898504D01*
X170530568Y-66692266D01*
X170518478Y-66675000D01*
X170400046Y-66505859D01*
X170239140Y-66344953D01*
X170052733Y-66214431D01*
X169994725Y-66187382D01*
X169942549Y-66141625D01*
X169923129Y-66075000D01*
X169942549Y-66008375D01*
X169994725Y-65962618D01*
X170052734Y-65935568D01*
X170239139Y-65805047D01*
X170400047Y-65644139D01*
X170530568Y-65457734D01*
X170626739Y-65251496D01*
X170685635Y-65031692D01*
X170705468Y-64805000D01*
X170685635Y-64578308D01*
X170626739Y-64358504D01*
X170530568Y-64152266D01*
X170400047Y-63965861D01*
X170400046Y-63965859D01*
X170239140Y-63804953D01*
X170052733Y-63674431D01*
X169994725Y-63647382D01*
X169942549Y-63601625D01*
X169923129Y-63535000D01*
X169942549Y-63468375D01*
X169994725Y-63422618D01*
X170052734Y-63395568D01*
X170239139Y-63265047D01*
X170400047Y-63104139D01*
X170530568Y-62917734D01*
X170626739Y-62711496D01*
X170685635Y-62491692D01*
X170705468Y-62265000D01*
X170685635Y-62038308D01*
X170626739Y-61818504D01*
X170530568Y-61612266D01*
X170491747Y-61556824D01*
X170400046Y-61425859D01*
X170239140Y-61264953D01*
X170052732Y-61134430D01*
X169994724Y-61107380D01*
X169942549Y-61061623D01*
X169923130Y-60994997D01*
X169942550Y-60928373D01*
X169994721Y-60882619D01*
X170052734Y-60855568D01*
X170239139Y-60725047D01*
X170400047Y-60564139D01*
X170409068Y-60551254D01*
X170448642Y-60514990D01*
X170499835Y-60498847D01*
X170553054Y-60505853D01*
X170598326Y-60534694D01*
X171298181Y-61234549D01*
X171325061Y-61274777D01*
X171334500Y-61322230D01*
X171334500Y-70757770D01*
X171325061Y-70805223D01*
X171298181Y-70845451D01*
X170540451Y-71603181D01*
X170500223Y-71630061D01*
X170452770Y-71639500D01*
X164827230Y-71639500D01*
X164779777Y-71630061D01*
X164739549Y-71603181D01*
X156081728Y-62945360D01*
X156069946Y-62931727D01*
X156059529Y-62917735D01*
X156055610Y-62912470D01*
X156017667Y-62880631D01*
X156009691Y-62873323D01*
X156005782Y-62869414D01*
X156005777Y-62869409D01*
X155981423Y-62850152D01*
X155978647Y-62847890D01*
X155920251Y-62798890D01*
X155903821Y-62788422D01*
X155834691Y-62756186D01*
X155831447Y-62754615D01*
X155763306Y-62720394D01*
X155744903Y-62713997D01*
X155670211Y-62698574D01*
X155666692Y-62697794D01*
X155592490Y-62680208D01*
X155573121Y-62678229D01*
X155496869Y-62680448D01*
X155493263Y-62680500D01*
X150986663Y-62680500D01*
X150929406Y-62666489D01*
X150885088Y-62627623D01*
X150860046Y-62591859D01*
X150699140Y-62430953D01*
X150512735Y-62300432D01*
X150306497Y-62204261D01*
X150086689Y-62145364D01*
X149860000Y-62125531D01*
X149633310Y-62145364D01*
X149413502Y-62204261D01*
X149207264Y-62300432D01*
X149020859Y-62430953D01*
X148859953Y-62591859D01*
X148729432Y-62778264D01*
X148633261Y-62984502D01*
X148574364Y-63204310D01*
X148554531Y-63430999D01*
X148574364Y-63657689D01*
X148633261Y-63877497D01*
X148729432Y-64083735D01*
X148859953Y-64270140D01*
X149020859Y-64431046D01*
X149207264Y-64561567D01*
X149207265Y-64561567D01*
X149207266Y-64561568D01*
X149413504Y-64657739D01*
X149633308Y-64716635D01*
X149860000Y-64736468D01*
X150086692Y-64716635D01*
X150306496Y-64657739D01*
X150512734Y-64561568D01*
X150699139Y-64431047D01*
X150860047Y-64270139D01*
X150885088Y-64234377D01*
X150929406Y-64195511D01*
X150986663Y-64181500D01*
X155143770Y-64181500D01*
X155191223Y-64190939D01*
X155231451Y-64217819D01*
X163889267Y-72875634D01*
X163901048Y-72889266D01*
X163915390Y-72908530D01*
X163953355Y-72940386D01*
X163961317Y-72947684D01*
X163965224Y-72951591D01*
X163989542Y-72970819D01*
X163992298Y-72973063D01*
X164049786Y-73021302D01*
X164049788Y-73021303D01*
X164050757Y-73022116D01*
X164067177Y-73032576D01*
X164068321Y-73033109D01*
X164068323Y-73033111D01*
X164136357Y-73064835D01*
X164139456Y-73066335D01*
X164205667Y-73099588D01*
X164207704Y-73100611D01*
X164226084Y-73106998D01*
X164227321Y-73107253D01*
X164227327Y-73107256D01*
X164300862Y-73122439D01*
X164304209Y-73123181D01*
X164377279Y-73140500D01*
X164377281Y-73140500D01*
X164378505Y-73140790D01*
X164397876Y-73142769D01*
X164399140Y-73142732D01*
X164399144Y-73142733D01*
X164474110Y-73140552D01*
X164477716Y-73140500D01*
X170751294Y-73140500D01*
X170769264Y-73141809D01*
X170773320Y-73142402D01*
X170793023Y-73145289D01*
X170842368Y-73140972D01*
X170853176Y-73140500D01*
X170858706Y-73140500D01*
X170858709Y-73140500D01*
X170889550Y-73136894D01*
X170893031Y-73136539D01*
X170967797Y-73129999D01*
X170967797Y-73129998D01*
X170969052Y-73129889D01*
X170988062Y-73125674D01*
X170989250Y-73125241D01*
X170989255Y-73125241D01*
X171059820Y-73099557D01*
X171063095Y-73098419D01*
X171134334Y-73074814D01*
X171134336Y-73074812D01*
X171135536Y-73074415D01*
X171153063Y-73065929D01*
X171154112Y-73065238D01*
X171154117Y-73065237D01*
X171216806Y-73024005D01*
X171219798Y-73022099D01*
X171283656Y-72982712D01*
X171283656Y-72982711D01*
X171284729Y-72982050D01*
X171299824Y-72969753D01*
X171300692Y-72968832D01*
X171300696Y-72968830D01*
X171352185Y-72914253D01*
X171354631Y-72911735D01*
X172570638Y-71695727D01*
X172584256Y-71683957D01*
X172603530Y-71669610D01*
X172635382Y-71631649D01*
X172642668Y-71623697D01*
X172646590Y-71619777D01*
X172665863Y-71595399D01*
X172668030Y-71592739D01*
X172716302Y-71535214D01*
X172716303Y-71535210D01*
X172717119Y-71534239D01*
X172727575Y-71517825D01*
X172728109Y-71516679D01*
X172728111Y-71516677D01*
X172759816Y-71448682D01*
X172761369Y-71445475D01*
X172795040Y-71378433D01*
X172795040Y-71378429D01*
X172795610Y-71377296D01*
X172801999Y-71358917D01*
X172802311Y-71357405D01*
X172817431Y-71284171D01*
X172818186Y-71280767D01*
X172835500Y-71207721D01*
X172835500Y-71207719D01*
X172835790Y-71206495D01*
X172837769Y-71187123D01*
X172837732Y-71185859D01*
X172837733Y-71185856D01*
X172835552Y-71110889D01*
X172835500Y-71107284D01*
X172835500Y-69884999D01*
X186124531Y-69884999D01*
X186144364Y-70111689D01*
X186203261Y-70331497D01*
X186299432Y-70537735D01*
X186429953Y-70724140D01*
X186590859Y-70885046D01*
X186777264Y-71015567D01*
X186777265Y-71015567D01*
X186777266Y-71015568D01*
X186983504Y-71111739D01*
X187203308Y-71170635D01*
X187430000Y-71190468D01*
X187656692Y-71170635D01*
X187876496Y-71111739D01*
X188082734Y-71015568D01*
X188269139Y-70885047D01*
X188430047Y-70724139D01*
X188560568Y-70537734D01*
X188587618Y-70479724D01*
X188633375Y-70427549D01*
X188700000Y-70408129D01*
X188766625Y-70427549D01*
X188812382Y-70479725D01*
X188839431Y-70537733D01*
X188969953Y-70724140D01*
X189130859Y-70885046D01*
X189317264Y-71015567D01*
X189317265Y-71015567D01*
X189317266Y-71015568D01*
X189523504Y-71111739D01*
X189743308Y-71170635D01*
X189970000Y-71190468D01*
X190196692Y-71170635D01*
X190416496Y-71111739D01*
X190622734Y-71015568D01*
X190809139Y-70885047D01*
X190970047Y-70724139D01*
X191100568Y-70537734D01*
X191196739Y-70331496D01*
X191255635Y-70111692D01*
X191275468Y-69885000D01*
X191255635Y-69658308D01*
X191196739Y-69438504D01*
X191100568Y-69232266D01*
X191067122Y-69184500D01*
X190970046Y-69045859D01*
X190809140Y-68884953D01*
X190622736Y-68754433D01*
X190564725Y-68727382D01*
X190564132Y-68727105D01*
X190511958Y-68681348D01*
X190492539Y-68614723D01*
X190511959Y-68548098D01*
X190564135Y-68502342D01*
X190622479Y-68475136D01*
X190695472Y-68424025D01*
X189970001Y-67698553D01*
X189970000Y-67698553D01*
X189244526Y-68424025D01*
X189244526Y-68424026D01*
X189317515Y-68475133D01*
X189375865Y-68502342D01*
X189428040Y-68548099D01*
X189447460Y-68614723D01*
X189428041Y-68681348D01*
X189375866Y-68727105D01*
X189317267Y-68754430D01*
X189130859Y-68884953D01*
X188969953Y-69045859D01*
X188839433Y-69232263D01*
X188812382Y-69290275D01*
X188766625Y-69342450D01*
X188700000Y-69361869D01*
X188633375Y-69342450D01*
X188587618Y-69290275D01*
X188560568Y-69232266D01*
X188430047Y-69045861D01*
X188430046Y-69045859D01*
X188269140Y-68884953D01*
X188082736Y-68754433D01*
X188024725Y-68727382D01*
X188024132Y-68727105D01*
X187971958Y-68681348D01*
X187952539Y-68614723D01*
X187971959Y-68548098D01*
X188024135Y-68502342D01*
X188082479Y-68475136D01*
X188155472Y-68424025D01*
X187430001Y-67698553D01*
X187430000Y-67698553D01*
X186704526Y-68424025D01*
X186704526Y-68424026D01*
X186777515Y-68475133D01*
X186835865Y-68502342D01*
X186888040Y-68548099D01*
X186907460Y-68614723D01*
X186888041Y-68681348D01*
X186835866Y-68727105D01*
X186777267Y-68754430D01*
X186590859Y-68884953D01*
X186429953Y-69045859D01*
X186299432Y-69232264D01*
X186203261Y-69438502D01*
X186144364Y-69658310D01*
X186124531Y-69884999D01*
X172835500Y-69884999D01*
X172835500Y-67344999D01*
X186125033Y-67344999D01*
X186144858Y-67571602D01*
X186203733Y-67791326D01*
X186299866Y-67997484D01*
X186350972Y-68070471D01*
X186350974Y-68070472D01*
X187076446Y-67345001D01*
X187076446Y-67345000D01*
X187076445Y-67344999D01*
X187783553Y-67344999D01*
X188509025Y-68070472D01*
X188560135Y-67997479D01*
X188587618Y-67938543D01*
X188633375Y-67886367D01*
X188700000Y-67866947D01*
X188766625Y-67886367D01*
X188812382Y-67938543D01*
X188839865Y-67997482D01*
X188890972Y-68070471D01*
X188890974Y-68070472D01*
X189616446Y-67345001D01*
X189616446Y-67345000D01*
X189616445Y-67344999D01*
X190323553Y-67344999D01*
X191049025Y-68070472D01*
X191100134Y-67997480D01*
X191196266Y-67791326D01*
X191255141Y-67571602D01*
X191274966Y-67344999D01*
X191255141Y-67118397D01*
X191196266Y-66898673D01*
X191100133Y-66692515D01*
X191049025Y-66619526D01*
X190323553Y-67344998D01*
X190323553Y-67344999D01*
X189616445Y-67344999D01*
X188890973Y-66619526D01*
X188890973Y-66619527D01*
X188839866Y-66692515D01*
X188812381Y-66751457D01*
X188766623Y-66803632D01*
X188699998Y-66823051D01*
X188633373Y-66803631D01*
X188587617Y-66751455D01*
X188560134Y-66692517D01*
X188509025Y-66619526D01*
X187783553Y-67344999D01*
X187076445Y-67344999D01*
X186350973Y-66619526D01*
X186350973Y-66619527D01*
X186299865Y-66692516D01*
X186203733Y-66898672D01*
X186144858Y-67118397D01*
X186125033Y-67344999D01*
X172835500Y-67344999D01*
X172835500Y-64804999D01*
X186124531Y-64804999D01*
X186144364Y-65031689D01*
X186203261Y-65251497D01*
X186299432Y-65457735D01*
X186429953Y-65644140D01*
X186590859Y-65805046D01*
X186777264Y-65935567D01*
X186777265Y-65935567D01*
X186777266Y-65935568D01*
X186835865Y-65962893D01*
X186888040Y-66008650D01*
X186907460Y-66075275D01*
X186888041Y-66141900D01*
X186835865Y-66187657D01*
X186777517Y-66214865D01*
X186704527Y-66265973D01*
X186704526Y-66265973D01*
X187430000Y-66991446D01*
X187430001Y-66991446D01*
X188155472Y-66265974D01*
X188155471Y-66265972D01*
X188082485Y-66214867D01*
X188024133Y-66187657D01*
X187971958Y-66141899D01*
X187952539Y-66075274D01*
X187971959Y-66008649D01*
X188024134Y-65962893D01*
X188082734Y-65935568D01*
X188269139Y-65805047D01*
X188430047Y-65644139D01*
X188560568Y-65457734D01*
X188587618Y-65399724D01*
X188633375Y-65347549D01*
X188700000Y-65328129D01*
X188766625Y-65347549D01*
X188812382Y-65399725D01*
X188839431Y-65457733D01*
X188969953Y-65644140D01*
X189130859Y-65805046D01*
X189317264Y-65935567D01*
X189317265Y-65935567D01*
X189317266Y-65935568D01*
X189375865Y-65962893D01*
X189428040Y-66008650D01*
X189447460Y-66075275D01*
X189428041Y-66141900D01*
X189375865Y-66187657D01*
X189317517Y-66214865D01*
X189244527Y-66265973D01*
X189244526Y-66265973D01*
X189970000Y-66991446D01*
X189970001Y-66991446D01*
X190695472Y-66265974D01*
X190695471Y-66265972D01*
X190622485Y-66214867D01*
X190564133Y-66187657D01*
X190511958Y-66141899D01*
X190492539Y-66075274D01*
X190511959Y-66008649D01*
X190564134Y-65962893D01*
X190622734Y-65935568D01*
X190809139Y-65805047D01*
X190970047Y-65644139D01*
X191100568Y-65457734D01*
X191196739Y-65251496D01*
X191255635Y-65031692D01*
X191275468Y-64805000D01*
X191255635Y-64578308D01*
X191196739Y-64358504D01*
X191100568Y-64152266D01*
X190970047Y-63965861D01*
X190970046Y-63965859D01*
X190809140Y-63804953D01*
X190622733Y-63674431D01*
X190564725Y-63647382D01*
X190512549Y-63601625D01*
X190493129Y-63535000D01*
X190512549Y-63468375D01*
X190564725Y-63422618D01*
X190622734Y-63395568D01*
X190809139Y-63265047D01*
X190970047Y-63104139D01*
X191100568Y-62917734D01*
X191196739Y-62711496D01*
X191255635Y-62491692D01*
X191275468Y-62265000D01*
X191255635Y-62038308D01*
X191196739Y-61818504D01*
X191100568Y-61612266D01*
X191061747Y-61556824D01*
X190970046Y-61425859D01*
X190809140Y-61264953D01*
X190622732Y-61134430D01*
X190564724Y-61107380D01*
X190512549Y-61061623D01*
X190493130Y-60994997D01*
X190512550Y-60928373D01*
X190564721Y-60882619D01*
X190622734Y-60855568D01*
X190809139Y-60725047D01*
X190970047Y-60564139D01*
X191100568Y-60377734D01*
X191196739Y-60171496D01*
X191255635Y-59951692D01*
X191275468Y-59725000D01*
X191255635Y-59498308D01*
X191196739Y-59278504D01*
X191100568Y-59072266D01*
X191060442Y-59014960D01*
X190970046Y-58885859D01*
X190809140Y-58724953D01*
X190622733Y-58594431D01*
X190564725Y-58567382D01*
X190512549Y-58521625D01*
X190493129Y-58455000D01*
X190512549Y-58388375D01*
X190564725Y-58342618D01*
X190622734Y-58315568D01*
X190809139Y-58185047D01*
X190970047Y-58024139D01*
X190995088Y-57988377D01*
X191039406Y-57949511D01*
X191096663Y-57935500D01*
X193982770Y-57935500D01*
X194030223Y-57944939D01*
X194070451Y-57971819D01*
X199238181Y-63139549D01*
X199265061Y-63179777D01*
X199274500Y-63227230D01*
X199274500Y-79311294D01*
X199273191Y-79329264D01*
X199269711Y-79353023D01*
X199274028Y-79402369D01*
X199274500Y-79413176D01*
X199274500Y-79418708D01*
X199278098Y-79449496D01*
X199278464Y-79453081D01*
X199285110Y-79529041D01*
X199289329Y-79548071D01*
X199289758Y-79549251D01*
X199289759Y-79549255D01*
X199315413Y-79619742D01*
X199316582Y-79623107D01*
X199340580Y-79695524D01*
X199349075Y-79713072D01*
X199390979Y-79776784D01*
X199392889Y-79779782D01*
X199432288Y-79843656D01*
X199432952Y-79844732D01*
X199445253Y-79859830D01*
X199446168Y-79860693D01*
X199446170Y-79860696D01*
X199488345Y-79900486D01*
X199500709Y-79912151D01*
X199503296Y-79914664D01*
X203604267Y-84015634D01*
X203616048Y-84029266D01*
X203630390Y-84048530D01*
X203668355Y-84080386D01*
X203676317Y-84087684D01*
X203680224Y-84091591D01*
X203704542Y-84110819D01*
X203707298Y-84113063D01*
X203764786Y-84161302D01*
X203764788Y-84161303D01*
X203765757Y-84162116D01*
X203782177Y-84172576D01*
X203783321Y-84173109D01*
X203783323Y-84173111D01*
X203851357Y-84204835D01*
X203854456Y-84206335D01*
X203921567Y-84240040D01*
X203922704Y-84240611D01*
X203941084Y-84246998D01*
X203942321Y-84247253D01*
X203942327Y-84247256D01*
X204015862Y-84262439D01*
X204019209Y-84263181D01*
X204092279Y-84280500D01*
X204092281Y-84280500D01*
X204093505Y-84280790D01*
X204112876Y-84282769D01*
X204114140Y-84282732D01*
X204114144Y-84282733D01*
X204189110Y-84280552D01*
X204192716Y-84280500D01*
X204298006Y-84280500D01*
X204355263Y-84294511D01*
X204399581Y-84333377D01*
X204424622Y-84369140D01*
X204585528Y-84530046D01*
X204771933Y-84660567D01*
X204771934Y-84660567D01*
X204771935Y-84660568D01*
X204978173Y-84756739D01*
X205092211Y-84787295D01*
X205121805Y-84795225D01*
X205177392Y-84827319D01*
X205209486Y-84882906D01*
X205209486Y-84947094D01*
X205177392Y-85002681D01*
X205121805Y-85034775D01*
X204978171Y-85073261D01*
X204771933Y-85169432D01*
X204585528Y-85299953D01*
X204424622Y-85460859D01*
X204294101Y-85647264D01*
X204197930Y-85853502D01*
X204139033Y-86073310D01*
X204119200Y-86299999D01*
X204139033Y-86526689D01*
X204197930Y-86746497D01*
X204294101Y-86952735D01*
X204424622Y-87139140D01*
X204585528Y-87300046D01*
X204771933Y-87430567D01*
X204771934Y-87430567D01*
X204771935Y-87430568D01*
X204978173Y-87526739D01*
X205122769Y-87565483D01*
X205178357Y-87597576D01*
X205210451Y-87653164D01*
X205210451Y-87717351D01*
X205178358Y-87772939D01*
X205122771Y-87805033D01*
X204978340Y-87843734D01*
X204772185Y-87939865D01*
X204699196Y-87990973D01*
X204699195Y-87990973D01*
X205424669Y-88716446D01*
X205424670Y-88716446D01*
X206150141Y-87990974D01*
X206150140Y-87990972D01*
X206077153Y-87939866D01*
X205870995Y-87843733D01*
X205726567Y-87805033D01*
X205670979Y-87772939D01*
X205638886Y-87717351D01*
X205638886Y-87653164D01*
X205670980Y-87597576D01*
X205726566Y-87565483D01*
X205871165Y-87526739D01*
X206077403Y-87430568D01*
X206263808Y-87300047D01*
X206424716Y-87139139D01*
X206555237Y-86952734D01*
X206651408Y-86746496D01*
X206710304Y-86526692D01*
X206730137Y-86300000D01*
X206710304Y-86073308D01*
X206651408Y-85853504D01*
X206555237Y-85647266D01*
X206554489Y-85646198D01*
X206424715Y-85460859D01*
X206263809Y-85299953D01*
X206077404Y-85169432D01*
X205871165Y-85073261D01*
X205727533Y-85034775D01*
X205671945Y-85002681D01*
X205639851Y-84947094D01*
X205639851Y-84882906D01*
X205671945Y-84827319D01*
X205727533Y-84795225D01*
X205742971Y-84791088D01*
X205871165Y-84756739D01*
X206077403Y-84660568D01*
X206263808Y-84530047D01*
X206424716Y-84369139D01*
X206555237Y-84182734D01*
X206651408Y-83976496D01*
X206710304Y-83756692D01*
X206730137Y-83530000D01*
X206710304Y-83303308D01*
X206651408Y-83083504D01*
X206555237Y-82877266D01*
X206555177Y-82877181D01*
X206424715Y-82690859D01*
X206263809Y-82529953D01*
X206077404Y-82399432D01*
X205871165Y-82303261D01*
X205727533Y-82264775D01*
X205671945Y-82232681D01*
X205639851Y-82177094D01*
X205639851Y-82112906D01*
X205671945Y-82057319D01*
X205727533Y-82025225D01*
X205742971Y-82021088D01*
X205871165Y-81986739D01*
X206077403Y-81890568D01*
X206263808Y-81760047D01*
X206424716Y-81599139D01*
X206555237Y-81412734D01*
X206651408Y-81206496D01*
X206710304Y-80986692D01*
X206730137Y-80760000D01*
X206710304Y-80533308D01*
X206651408Y-80313504D01*
X206555237Y-80107266D01*
X206510285Y-80043068D01*
X206424715Y-79920859D01*
X206263809Y-79759953D01*
X206077404Y-79629432D01*
X205861333Y-79528676D01*
X205862027Y-79527186D01*
X205823266Y-79505921D01*
X205790517Y-79456909D01*
X205784100Y-79398314D01*
X205805464Y-79343375D01*
X205849782Y-79304510D01*
X205907038Y-79290499D01*
X206272541Y-79290499D01*
X206332152Y-79284091D01*
X206467000Y-79233796D01*
X206582215Y-79147546D01*
X206668465Y-79032331D01*
X206718760Y-78897483D01*
X206725169Y-78837873D01*
X206725168Y-77142128D01*
X206718760Y-77082517D01*
X206668465Y-76947669D01*
X206582215Y-76832454D01*
X206467000Y-76746204D01*
X206332152Y-76695909D01*
X206272542Y-76689500D01*
X206272538Y-76689500D01*
X205236899Y-76689500D01*
X205189446Y-76680061D01*
X205149218Y-76653181D01*
X202716819Y-74220782D01*
X202689939Y-74180554D01*
X202680500Y-74133101D01*
X202680500Y-66675000D01*
X203835000Y-66675000D01*
X203835000Y-74295000D01*
X210820000Y-74295000D01*
X210820000Y-66675000D01*
X203835000Y-66675000D01*
X202680500Y-66675000D01*
X202680500Y-61658706D01*
X202681809Y-61640736D01*
X202682338Y-61637118D01*
X202685289Y-61616977D01*
X202680972Y-61567631D01*
X202680500Y-61556824D01*
X202680500Y-61551289D01*
X202676903Y-61520521D01*
X202676536Y-61516929D01*
X202669889Y-61440949D01*
X202665672Y-61421930D01*
X202639592Y-61350274D01*
X202638408Y-61346868D01*
X202630244Y-61322230D01*
X202614814Y-61275666D01*
X202614812Y-61275663D01*
X202614415Y-61274464D01*
X202605929Y-61256936D01*
X202605237Y-61255884D01*
X202605237Y-61255883D01*
X202564001Y-61193188D01*
X202562086Y-61190181D01*
X202527699Y-61134430D01*
X202522712Y-61126345D01*
X202522711Y-61126344D01*
X202522048Y-61125269D01*
X202509748Y-61110170D01*
X202454272Y-61057831D01*
X202451685Y-61055318D01*
X193015728Y-51619360D01*
X193003946Y-51605727D01*
X192989609Y-51586469D01*
X192951666Y-51554631D01*
X192943691Y-51547323D01*
X192939782Y-51543414D01*
X192939782Y-51543413D01*
X192939777Y-51543409D01*
X192915423Y-51524152D01*
X192912647Y-51521890D01*
X192854251Y-51472890D01*
X192837821Y-51462422D01*
X192768691Y-51430186D01*
X192765447Y-51428615D01*
X192697306Y-51394394D01*
X192678903Y-51387997D01*
X192604211Y-51372574D01*
X192600692Y-51371794D01*
X192526490Y-51354208D01*
X192507121Y-51352229D01*
X192430869Y-51354448D01*
X192427263Y-51354500D01*
X191096663Y-51354500D01*
X191039406Y-51340489D01*
X190995088Y-51301623D01*
X190970046Y-51265859D01*
X190809140Y-51104953D01*
X190622735Y-50974432D01*
X190416497Y-50878261D01*
X190196689Y-50819364D01*
X189970000Y-50799531D01*
X189743310Y-50819364D01*
X189523502Y-50878261D01*
X189317264Y-50974432D01*
X189130859Y-51104953D01*
X188969953Y-51265859D01*
X188839433Y-51452263D01*
X188812382Y-51510275D01*
X188766625Y-51562450D01*
X188700000Y-51581869D01*
X188633375Y-51562450D01*
X188587618Y-51510275D01*
X188570185Y-51472890D01*
X188560568Y-51452266D01*
X188504511Y-51372207D01*
X188430046Y-51265859D01*
X188269140Y-51104953D01*
X188082735Y-50974432D01*
X187876497Y-50878261D01*
X187656689Y-50819364D01*
X187430000Y-50799531D01*
X187203310Y-50819364D01*
X186983502Y-50878261D01*
X186777264Y-50974432D01*
X186590859Y-51104953D01*
X186429953Y-51265859D01*
X186299432Y-51452264D01*
X186203261Y-51658502D01*
X186144364Y-51878310D01*
X186124531Y-52105000D01*
X186144364Y-52331689D01*
X186203261Y-52551497D01*
X186299432Y-52757735D01*
X186429953Y-52944140D01*
X186590859Y-53105046D01*
X186651248Y-53147330D01*
X186777266Y-53235568D01*
X186835273Y-53262617D01*
X186887449Y-53308373D01*
X186906869Y-53374997D01*
X186887451Y-53441622D01*
X186835276Y-53487380D01*
X186777266Y-53514431D01*
X186590859Y-53644953D01*
X186429953Y-53805859D01*
X186299432Y-53992264D01*
X186203261Y-54198502D01*
X186144364Y-54418310D01*
X186124531Y-54645000D01*
X186144364Y-54871689D01*
X186203261Y-55091497D01*
X186299432Y-55297735D01*
X186429953Y-55484140D01*
X186590859Y-55645046D01*
X186766895Y-55768306D01*
X186777266Y-55775568D01*
X186835275Y-55802618D01*
X186887450Y-55848375D01*
X186906869Y-55915000D01*
X186887450Y-55981625D01*
X186835275Y-56027382D01*
X186777263Y-56054433D01*
X186590859Y-56184953D01*
X186429953Y-56345859D01*
X186299432Y-56532264D01*
X186203261Y-56738502D01*
X186144364Y-56958310D01*
X186124531Y-57185000D01*
X186144364Y-57411689D01*
X186203261Y-57631497D01*
X186299432Y-57837735D01*
X186429953Y-58024140D01*
X186590859Y-58185046D01*
X186777265Y-58315567D01*
X186777266Y-58315568D01*
X186835273Y-58342617D01*
X186887449Y-58388373D01*
X186906869Y-58454997D01*
X186887451Y-58521622D01*
X186835276Y-58567380D01*
X186777266Y-58594431D01*
X186590859Y-58724953D01*
X186429953Y-58885859D01*
X186299432Y-59072264D01*
X186203261Y-59278502D01*
X186144364Y-59498310D01*
X186124531Y-59725000D01*
X186144364Y-59951689D01*
X186203261Y-60171497D01*
X186299432Y-60377735D01*
X186429953Y-60564140D01*
X186590859Y-60725046D01*
X186706402Y-60805949D01*
X186777266Y-60855568D01*
X186835273Y-60882617D01*
X186887449Y-60928373D01*
X186906869Y-60994997D01*
X186887451Y-61061622D01*
X186835276Y-61107380D01*
X186777266Y-61134431D01*
X186590859Y-61264953D01*
X186429953Y-61425859D01*
X186299432Y-61612264D01*
X186203261Y-61818502D01*
X186144364Y-62038310D01*
X186124531Y-62265000D01*
X186144364Y-62491689D01*
X186203261Y-62711497D01*
X186299432Y-62917735D01*
X186429953Y-63104140D01*
X186590859Y-63265046D01*
X186777263Y-63395566D01*
X186777266Y-63395568D01*
X186835275Y-63422618D01*
X186887450Y-63468375D01*
X186906869Y-63535000D01*
X186887450Y-63601625D01*
X186835275Y-63647382D01*
X186777263Y-63674433D01*
X186590859Y-63804953D01*
X186429953Y-63965859D01*
X186299432Y-64152264D01*
X186203261Y-64358502D01*
X186144364Y-64578310D01*
X186124531Y-64804999D01*
X172835500Y-64804999D01*
X172835500Y-61023706D01*
X172836809Y-61005736D01*
X172837338Y-61002118D01*
X172840289Y-60981977D01*
X172835972Y-60932631D01*
X172835500Y-60921824D01*
X172835500Y-60916289D01*
X172831903Y-60885521D01*
X172831536Y-60881929D01*
X172824889Y-60805949D01*
X172820672Y-60786930D01*
X172794592Y-60715274D01*
X172793408Y-60711868D01*
X172769814Y-60640666D01*
X172769812Y-60640663D01*
X172769415Y-60639464D01*
X172760929Y-60621936D01*
X172760237Y-60620884D01*
X172760237Y-60620883D01*
X172719001Y-60558188D01*
X172717086Y-60555181D01*
X172692296Y-60514990D01*
X172677712Y-60491345D01*
X172677711Y-60491344D01*
X172677048Y-60490269D01*
X172664748Y-60475170D01*
X172609273Y-60422832D01*
X172606686Y-60420319D01*
X171425728Y-59239360D01*
X171413946Y-59225727D01*
X171399609Y-59206469D01*
X171361666Y-59174631D01*
X171353691Y-59167323D01*
X171349782Y-59163414D01*
X171349777Y-59163409D01*
X171325423Y-59144152D01*
X171322647Y-59141890D01*
X171264251Y-59092890D01*
X171247821Y-59082422D01*
X171178691Y-59050186D01*
X171175447Y-59048615D01*
X171107306Y-59014394D01*
X171088903Y-59007997D01*
X171014211Y-58992574D01*
X171010692Y-58991794D01*
X170936490Y-58974208D01*
X170917121Y-58972229D01*
X170840869Y-58974448D01*
X170837263Y-58974500D01*
X170526663Y-58974500D01*
X170469406Y-58960489D01*
X170425088Y-58921623D01*
X170400046Y-58885859D01*
X170239140Y-58724953D01*
X170052733Y-58594431D01*
X169994725Y-58567382D01*
X169942549Y-58521625D01*
X169923129Y-58455000D01*
X169942549Y-58388375D01*
X169994725Y-58342618D01*
X170052734Y-58315568D01*
X170239139Y-58185047D01*
X170400047Y-58024139D01*
X170530568Y-57837734D01*
X170626739Y-57631496D01*
X170685635Y-57411692D01*
X170705468Y-57185000D01*
X170685635Y-56958308D01*
X170626739Y-56738504D01*
X170530568Y-56532266D01*
X170529710Y-56531041D01*
X170400046Y-56345859D01*
X170239140Y-56184953D01*
X170052736Y-56054433D01*
X169994723Y-56027381D01*
X169942548Y-55981623D01*
X169923129Y-55914997D01*
X169942549Y-55848372D01*
X169994721Y-55802619D01*
X170052734Y-55775568D01*
X170239139Y-55645047D01*
X170400047Y-55484139D01*
X170530568Y-55297734D01*
X170626739Y-55091496D01*
X170685635Y-54871692D01*
X170705468Y-54645000D01*
X170685635Y-54418308D01*
X170626739Y-54198504D01*
X170530568Y-53992266D01*
X170529710Y-53991041D01*
X170400046Y-53805859D01*
X170239140Y-53644953D01*
X170052733Y-53514431D01*
X169994725Y-53487382D01*
X169942549Y-53441625D01*
X169923129Y-53375000D01*
X169942549Y-53308375D01*
X169994725Y-53262618D01*
X170052734Y-53235568D01*
X170239139Y-53105047D01*
X170400047Y-52944139D01*
X170530568Y-52757734D01*
X170626739Y-52551496D01*
X170685635Y-52331692D01*
X170705468Y-52105000D01*
X170685635Y-51878308D01*
X170626739Y-51658504D01*
X170530568Y-51452266D01*
X170490442Y-51394960D01*
X170400046Y-51265859D01*
X170239140Y-51104953D01*
X170052735Y-50974432D01*
X169846497Y-50878261D01*
X169626689Y-50819364D01*
X169400000Y-50799531D01*
X169173310Y-50819364D01*
X168953502Y-50878261D01*
X168747264Y-50974432D01*
X168560859Y-51104953D01*
X168399951Y-51265861D01*
X168382725Y-51290463D01*
X168337882Y-51329600D01*
X168279969Y-51343333D01*
X168222328Y-51328499D01*
X168178239Y-51288514D01*
X168157861Y-51232592D01*
X168154091Y-51197517D01*
X168103796Y-51062669D01*
X168017546Y-50947454D01*
X167902331Y-50861204D01*
X167767483Y-50810909D01*
X167707873Y-50804500D01*
X167707869Y-50804500D01*
X166012130Y-50804500D01*
X165952515Y-50810909D01*
X165817669Y-50861204D01*
X165702454Y-50947454D01*
X165616204Y-51062668D01*
X165565909Y-51197516D01*
X165559500Y-51257130D01*
X165559500Y-52952869D01*
X165565909Y-53012484D01*
X165577812Y-53044397D01*
X165616204Y-53147331D01*
X165702454Y-53262546D01*
X165817669Y-53348796D01*
X165952517Y-53399091D01*
X165987594Y-53402862D01*
X166043513Y-53423239D01*
X166083497Y-53467327D01*
X166098332Y-53524968D01*
X166084600Y-53582881D01*
X166045464Y-53627724D01*
X166020860Y-53644952D01*
X165859953Y-53805859D01*
X165834912Y-53841623D01*
X165790594Y-53880489D01*
X165733337Y-53894500D01*
X158373850Y-53894500D01*
X158348761Y-53891935D01*
X158341675Y-53890471D01*
X158320986Y-53884277D01*
X158310568Y-53880138D01*
X158274920Y-53874916D01*
X158248948Y-53871112D01*
X158241853Y-53869860D01*
X158233219Y-53868078D01*
X158180856Y-53857265D01*
X158169636Y-53857592D01*
X158148067Y-53856335D01*
X158145380Y-53855941D01*
X158136975Y-53854710D01*
X158074951Y-53860136D01*
X158067755Y-53860555D01*
X158005490Y-53862368D01*
X157994660Y-53865270D01*
X157973377Y-53869023D01*
X157962201Y-53870000D01*
X157903081Y-53889591D01*
X157896192Y-53891654D01*
X157842283Y-53906099D01*
X157836020Y-53907778D01*
X157826148Y-53913101D01*
X157806311Y-53921658D01*
X157795663Y-53925186D01*
X157742661Y-53957877D01*
X157736419Y-53961481D01*
X157681601Y-53991039D01*
X157673221Y-53998497D01*
X157655893Y-54011397D01*
X157646348Y-54017284D01*
X157602317Y-54061315D01*
X157597073Y-54066262D01*
X157550538Y-54107675D01*
X157544101Y-54116868D01*
X157530212Y-54133419D01*
X155935451Y-55728181D01*
X155895223Y-55755061D01*
X155847770Y-55764500D01*
X121914706Y-55764500D01*
X121896736Y-55763191D01*
X121882853Y-55761157D01*
X121872977Y-55759711D01*
X121872976Y-55759711D01*
X121823631Y-55764028D01*
X121812824Y-55764500D01*
X121807291Y-55764500D01*
X121776501Y-55768098D01*
X121772917Y-55768464D01*
X121696961Y-55775109D01*
X121677921Y-55779330D01*
X121606232Y-55805421D01*
X121602831Y-55806603D01*
X121530479Y-55830579D01*
X121512925Y-55839077D01*
X121449228Y-55880970D01*
X121446190Y-55882905D01*
X121381281Y-55922943D01*
X121366164Y-55935256D01*
X121313848Y-55990708D01*
X121311336Y-55993294D01*
X115200348Y-62104282D01*
X115155078Y-62133123D01*
X115101860Y-62140129D01*
X114935000Y-62125531D01*
X114708310Y-62145364D01*
X114488502Y-62204261D01*
X114282264Y-62300432D01*
X114095859Y-62430953D01*
X113934953Y-62591859D01*
X113804432Y-62778264D01*
X113708261Y-62984502D01*
X113649364Y-63204310D01*
X113629531Y-63430999D01*
X111160468Y-63430999D01*
X111140635Y-63204308D01*
X111081739Y-62984504D01*
X110985568Y-62778266D01*
X110945442Y-62720960D01*
X110855046Y-62591859D01*
X110694140Y-62430953D01*
X110507735Y-62300432D01*
X110301497Y-62204261D01*
X110081689Y-62145364D01*
X109855000Y-62125531D01*
X109628310Y-62145364D01*
X109408502Y-62204261D01*
X109202264Y-62300432D01*
X109015859Y-62430953D01*
X108854953Y-62591859D01*
X108724432Y-62778264D01*
X108628261Y-62984502D01*
X108569364Y-63204310D01*
X108549531Y-63430999D01*
X93345500Y-63430999D01*
X93345500Y-54350026D01*
X109129526Y-54350026D01*
X109202515Y-54401133D01*
X109408673Y-54497266D01*
X109628397Y-54556141D01*
X109855000Y-54575966D01*
X110081602Y-54556141D01*
X110301326Y-54497266D01*
X110507480Y-54401134D01*
X110580471Y-54350026D01*
X114209526Y-54350026D01*
X114282515Y-54401133D01*
X114488673Y-54497266D01*
X114708397Y-54556141D01*
X114935000Y-54575966D01*
X115161602Y-54556141D01*
X115381326Y-54497266D01*
X115587480Y-54401134D01*
X115660471Y-54350026D01*
X119289526Y-54350026D01*
X119362515Y-54401133D01*
X119568673Y-54497266D01*
X119788397Y-54556141D01*
X120015000Y-54575966D01*
X120241602Y-54556141D01*
X120461326Y-54497266D01*
X120667480Y-54401134D01*
X120740471Y-54350026D01*
X124369526Y-54350026D01*
X124442515Y-54401133D01*
X124648673Y-54497266D01*
X124868397Y-54556141D01*
X125095000Y-54575966D01*
X125321602Y-54556141D01*
X125541326Y-54497266D01*
X125747480Y-54401134D01*
X125820472Y-54350025D01*
X125095001Y-53624553D01*
X125095000Y-53624553D01*
X124369526Y-54350025D01*
X124369526Y-54350026D01*
X120740471Y-54350026D01*
X120740472Y-54350025D01*
X120015001Y-53624553D01*
X120015000Y-53624553D01*
X119289526Y-54350025D01*
X119289526Y-54350026D01*
X115660471Y-54350026D01*
X115660472Y-54350025D01*
X114935001Y-53624553D01*
X114935000Y-53624553D01*
X114209526Y-54350025D01*
X114209526Y-54350026D01*
X110580471Y-54350026D01*
X110580472Y-54350025D01*
X109855001Y-53624553D01*
X109855000Y-53624553D01*
X109129526Y-54350025D01*
X109129526Y-54350026D01*
X93345500Y-54350026D01*
X93345500Y-53270999D01*
X108550033Y-53270999D01*
X108569858Y-53497602D01*
X108628733Y-53717326D01*
X108724866Y-53923484D01*
X108775972Y-53996471D01*
X108775974Y-53996472D01*
X109501446Y-53271001D01*
X109501446Y-53271000D01*
X109501445Y-53270999D01*
X110208553Y-53270999D01*
X110934025Y-53996472D01*
X110985134Y-53923480D01*
X111081266Y-53717326D01*
X111140141Y-53497602D01*
X111159966Y-53270999D01*
X113630033Y-53270999D01*
X113649858Y-53497602D01*
X113708733Y-53717326D01*
X113804866Y-53923484D01*
X113855972Y-53996471D01*
X113855974Y-53996472D01*
X114581446Y-53271001D01*
X114581446Y-53271000D01*
X114581445Y-53270999D01*
X115288553Y-53270999D01*
X116014025Y-53996472D01*
X116065134Y-53923480D01*
X116161266Y-53717326D01*
X116220141Y-53497602D01*
X116239966Y-53270999D01*
X118710033Y-53270999D01*
X118729858Y-53497602D01*
X118788733Y-53717326D01*
X118884866Y-53923484D01*
X118935972Y-53996471D01*
X118935974Y-53996472D01*
X119661446Y-53271001D01*
X119661446Y-53271000D01*
X119661445Y-53270999D01*
X120368553Y-53270999D01*
X121094025Y-53996472D01*
X121145134Y-53923480D01*
X121241266Y-53717326D01*
X121300141Y-53497602D01*
X121319966Y-53270999D01*
X123790033Y-53270999D01*
X123809858Y-53497602D01*
X123868733Y-53717326D01*
X123964866Y-53923484D01*
X124015972Y-53996471D01*
X124015974Y-53996472D01*
X124741446Y-53271001D01*
X124741446Y-53271000D01*
X124741445Y-53270999D01*
X125448553Y-53270999D01*
X126174025Y-53996472D01*
X126225134Y-53923480D01*
X126321266Y-53717326D01*
X126373872Y-53521000D01*
X133341128Y-53521000D01*
X133393733Y-53717326D01*
X133489865Y-53923480D01*
X133620341Y-54109819D01*
X133781180Y-54270658D01*
X133967519Y-54401134D01*
X134173673Y-54497266D01*
X134369999Y-54549871D01*
X134370000Y-54549872D01*
X134370000Y-53521000D01*
X134870000Y-53521000D01*
X134870000Y-54549871D01*
X135066326Y-54497266D01*
X135272480Y-54401134D01*
X135345470Y-54350026D01*
X138974526Y-54350026D01*
X139047515Y-54401133D01*
X139253673Y-54497266D01*
X139473397Y-54556141D01*
X139700000Y-54575966D01*
X139926602Y-54556141D01*
X140146326Y-54497266D01*
X140352480Y-54401134D01*
X140425472Y-54350025D01*
X139700001Y-53624553D01*
X139700000Y-53624553D01*
X138974526Y-54350025D01*
X138974526Y-54350026D01*
X135345470Y-54350026D01*
X135458819Y-54270658D01*
X135619658Y-54109819D01*
X135750134Y-53923480D01*
X135846266Y-53717326D01*
X135898872Y-53521000D01*
X134870000Y-53521000D01*
X134370000Y-53521000D01*
X133341128Y-53521000D01*
X126373872Y-53521000D01*
X126380141Y-53497602D01*
X126399966Y-53270999D01*
X138395033Y-53270999D01*
X138414858Y-53497602D01*
X138473733Y-53717326D01*
X138569866Y-53923484D01*
X138620972Y-53996471D01*
X138620974Y-53996472D01*
X139346446Y-53271001D01*
X139346446Y-53271000D01*
X140053553Y-53271000D01*
X140779025Y-53996472D01*
X140830134Y-53923480D01*
X140926266Y-53717326D01*
X140978872Y-53521000D01*
X143501128Y-53521000D01*
X143553733Y-53717326D01*
X143649865Y-53923480D01*
X143780341Y-54109819D01*
X143941180Y-54270658D01*
X144127519Y-54401134D01*
X144333673Y-54497266D01*
X144529999Y-54549871D01*
X144530000Y-54549872D01*
X144530000Y-53521000D01*
X145030000Y-53521000D01*
X145030000Y-54549871D01*
X145226326Y-54497266D01*
X145432480Y-54401134D01*
X145505470Y-54350026D01*
X149134526Y-54350026D01*
X149207515Y-54401133D01*
X149413673Y-54497266D01*
X149633397Y-54556141D01*
X149860000Y-54575966D01*
X150086602Y-54556141D01*
X150306326Y-54497266D01*
X150512480Y-54401134D01*
X150585472Y-54350025D01*
X149860001Y-53624553D01*
X149860000Y-53624553D01*
X149134526Y-54350025D01*
X149134526Y-54350026D01*
X145505470Y-54350026D01*
X145618819Y-54270658D01*
X145779658Y-54109819D01*
X145910134Y-53923480D01*
X146006266Y-53717326D01*
X146058872Y-53521000D01*
X145030000Y-53521000D01*
X144530000Y-53521000D01*
X143501128Y-53521000D01*
X140978872Y-53521000D01*
X140985141Y-53497602D01*
X141004966Y-53270999D01*
X148555033Y-53270999D01*
X148574858Y-53497602D01*
X148633733Y-53717326D01*
X148729866Y-53923484D01*
X148780972Y-53996471D01*
X148780974Y-53996472D01*
X149506446Y-53271001D01*
X149506446Y-53271000D01*
X150213553Y-53271000D01*
X150939025Y-53996472D01*
X150990134Y-53923480D01*
X151086266Y-53717326D01*
X151145141Y-53497602D01*
X151164966Y-53270999D01*
X151145141Y-53044397D01*
X151086266Y-52824673D01*
X150990133Y-52618515D01*
X150939025Y-52545526D01*
X150213553Y-53270998D01*
X150213553Y-53271000D01*
X149506446Y-53271000D01*
X148780973Y-52545526D01*
X148780973Y-52545527D01*
X148729865Y-52618516D01*
X148633733Y-52824672D01*
X148574858Y-53044397D01*
X148555033Y-53270999D01*
X141004966Y-53270999D01*
X140985141Y-53044397D01*
X140978872Y-53021000D01*
X143501128Y-53021000D01*
X144530000Y-53021000D01*
X144530000Y-51992128D01*
X145030000Y-51992128D01*
X145030000Y-53021000D01*
X146058872Y-53021000D01*
X146058871Y-53020999D01*
X146006266Y-52824673D01*
X145910134Y-52618519D01*
X145779658Y-52432180D01*
X145618819Y-52271341D01*
X145505470Y-52191973D01*
X149134526Y-52191973D01*
X149860000Y-52917446D01*
X149860001Y-52917446D01*
X150585472Y-52191974D01*
X150585471Y-52191972D01*
X150512484Y-52140866D01*
X150306326Y-52044733D01*
X150086602Y-51985858D01*
X149860000Y-51966033D01*
X149633397Y-51985858D01*
X149413672Y-52044733D01*
X149207516Y-52140865D01*
X149134527Y-52191973D01*
X149134526Y-52191973D01*
X145505470Y-52191973D01*
X145432480Y-52140865D01*
X145226326Y-52044733D01*
X145030000Y-51992128D01*
X144530000Y-51992128D01*
X144529999Y-51992128D01*
X144333673Y-52044733D01*
X144127519Y-52140865D01*
X143941180Y-52271341D01*
X143780341Y-52432180D01*
X143649865Y-52618519D01*
X143553733Y-52824673D01*
X143501128Y-53020999D01*
X143501128Y-53021000D01*
X140978872Y-53021000D01*
X140926266Y-52824673D01*
X140830133Y-52618515D01*
X140779025Y-52545526D01*
X140053553Y-53270998D01*
X140053553Y-53271000D01*
X139346446Y-53271000D01*
X138620973Y-52545526D01*
X138620973Y-52545527D01*
X138569865Y-52618516D01*
X138473733Y-52824672D01*
X138414858Y-53044397D01*
X138395033Y-53270999D01*
X126399966Y-53270999D01*
X126380141Y-53044397D01*
X126373872Y-53021000D01*
X133341128Y-53021000D01*
X134370000Y-53021000D01*
X134370000Y-51992128D01*
X134870000Y-51992128D01*
X134870000Y-53021000D01*
X135898872Y-53021000D01*
X135898871Y-53020999D01*
X135846266Y-52824673D01*
X135750134Y-52618519D01*
X135619658Y-52432180D01*
X135458819Y-52271341D01*
X135345470Y-52191973D01*
X138974526Y-52191973D01*
X139700000Y-52917446D01*
X139700001Y-52917446D01*
X140425472Y-52191974D01*
X140425471Y-52191972D01*
X140352484Y-52140866D01*
X140146326Y-52044733D01*
X139926602Y-51985858D01*
X139700000Y-51966033D01*
X139473397Y-51985858D01*
X139253672Y-52044733D01*
X139047516Y-52140865D01*
X138974527Y-52191973D01*
X138974526Y-52191973D01*
X135345470Y-52191973D01*
X135272480Y-52140865D01*
X135066326Y-52044733D01*
X134870000Y-51992128D01*
X134370000Y-51992128D01*
X134369999Y-51992128D01*
X134173673Y-52044733D01*
X133967519Y-52140865D01*
X133781180Y-52271341D01*
X133620341Y-52432180D01*
X133489865Y-52618519D01*
X133393733Y-52824673D01*
X133341128Y-53020999D01*
X133341128Y-53021000D01*
X126373872Y-53021000D01*
X126321266Y-52824673D01*
X126225133Y-52618515D01*
X126174025Y-52545526D01*
X125448553Y-53270998D01*
X125448553Y-53270999D01*
X124741445Y-53270999D01*
X124015973Y-52545526D01*
X124015973Y-52545527D01*
X123964865Y-52618516D01*
X123868733Y-52824672D01*
X123809858Y-53044397D01*
X123790033Y-53270999D01*
X121319966Y-53270999D01*
X121300141Y-53044397D01*
X121241266Y-52824673D01*
X121145133Y-52618515D01*
X121094025Y-52545526D01*
X120368553Y-53270998D01*
X120368553Y-53270999D01*
X119661445Y-53270999D01*
X118935973Y-52545526D01*
X118935973Y-52545527D01*
X118884865Y-52618516D01*
X118788733Y-52824672D01*
X118729858Y-53044397D01*
X118710033Y-53270999D01*
X116239966Y-53270999D01*
X116220141Y-53044397D01*
X116161266Y-52824673D01*
X116065133Y-52618515D01*
X116014025Y-52545526D01*
X115288553Y-53270998D01*
X115288553Y-53270999D01*
X114581445Y-53270999D01*
X113855973Y-52545526D01*
X113855973Y-52545527D01*
X113804865Y-52618516D01*
X113708733Y-52824672D01*
X113649858Y-53044397D01*
X113630033Y-53270999D01*
X111159966Y-53270999D01*
X111140141Y-53044397D01*
X111081266Y-52824673D01*
X110985133Y-52618515D01*
X110934025Y-52545526D01*
X110208553Y-53270998D01*
X110208553Y-53270999D01*
X109501445Y-53270999D01*
X108775973Y-52545526D01*
X108775973Y-52545527D01*
X108724865Y-52618516D01*
X108628733Y-52824672D01*
X108569858Y-53044397D01*
X108550033Y-53270999D01*
X93345500Y-53270999D01*
X93345500Y-52191973D01*
X109129526Y-52191973D01*
X109855000Y-52917446D01*
X109855001Y-52917446D01*
X110580472Y-52191974D01*
X110580471Y-52191973D01*
X114209526Y-52191973D01*
X114935000Y-52917446D01*
X114935001Y-52917446D01*
X115660472Y-52191974D01*
X115660471Y-52191973D01*
X119289526Y-52191973D01*
X120015000Y-52917446D01*
X120015001Y-52917446D01*
X120740472Y-52191974D01*
X120740471Y-52191973D01*
X124369526Y-52191973D01*
X125095000Y-52917446D01*
X125095001Y-52917446D01*
X125820472Y-52191974D01*
X125820471Y-52191972D01*
X125747484Y-52140866D01*
X125541326Y-52044733D01*
X125321602Y-51985858D01*
X125095000Y-51966033D01*
X124868397Y-51985858D01*
X124648672Y-52044733D01*
X124442516Y-52140865D01*
X124369527Y-52191973D01*
X124369526Y-52191973D01*
X120740471Y-52191973D01*
X120740471Y-52191972D01*
X120667484Y-52140866D01*
X120461326Y-52044733D01*
X120241602Y-51985858D01*
X120015000Y-51966033D01*
X119788397Y-51985858D01*
X119568672Y-52044733D01*
X119362516Y-52140865D01*
X119289527Y-52191973D01*
X119289526Y-52191973D01*
X115660471Y-52191973D01*
X115660471Y-52191972D01*
X115587484Y-52140866D01*
X115381326Y-52044733D01*
X115161602Y-51985858D01*
X114935000Y-51966033D01*
X114708397Y-51985858D01*
X114488672Y-52044733D01*
X114282516Y-52140865D01*
X114209527Y-52191973D01*
X114209526Y-52191973D01*
X110580471Y-52191973D01*
X110580471Y-52191972D01*
X110507484Y-52140866D01*
X110301326Y-52044733D01*
X110081602Y-51985858D01*
X109855000Y-51966033D01*
X109628397Y-51985858D01*
X109408672Y-52044733D01*
X109202516Y-52140865D01*
X109129527Y-52191973D01*
X109129526Y-52191973D01*
X93345500Y-52191973D01*
X93345500Y-50289000D01*
X93362113Y-50227000D01*
X93407500Y-50181613D01*
X93469500Y-50165000D01*
X218315500Y-50165000D01*
X218377500Y-50181613D01*
G37*
G04 #@! TD.AperFunction*
G04 #@! TA.AperFunction,Conductor*
G36*
X218439500Y-131955500D02*
G01*
X218422887Y-132017500D01*
X218377500Y-132062887D01*
X218315500Y-132079500D01*
X93469500Y-132079500D01*
X93407500Y-132062887D01*
X93362113Y-132017500D01*
X93345500Y-131955500D01*
X93345500Y-125162764D01*
X96570787Y-125162764D01*
X96600413Y-125432016D01*
X96600414Y-125432018D01*
X96668928Y-125694088D01*
X96723369Y-125822198D01*
X96774871Y-125943392D01*
X96915982Y-126174611D01*
X97048197Y-126333484D01*
X97089255Y-126382820D01*
X97290998Y-126563582D01*
X97516910Y-126713044D01*
X97623211Y-126762876D01*
X97762177Y-126828021D01*
X98021562Y-126906058D01*
X98021569Y-126906060D01*
X98289561Y-126945500D01*
X98492631Y-126945500D01*
X98492634Y-126945500D01*
X98695156Y-126930677D01*
X98695156Y-126930676D01*
X98959553Y-126871780D01*
X99212558Y-126775014D01*
X99448777Y-126642441D01*
X99663177Y-126476888D01*
X99851186Y-126281881D01*
X99856918Y-126273869D01*
X110734500Y-126273869D01*
X110740909Y-126333483D01*
X110791204Y-126468331D01*
X110877454Y-126583546D01*
X110992669Y-126669796D01*
X111127517Y-126720091D01*
X111187127Y-126726500D01*
X113682872Y-126726499D01*
X113742483Y-126720091D01*
X113877331Y-126669796D01*
X113992546Y-126583546D01*
X114033089Y-126529387D01*
X116638718Y-126529387D01*
X116812179Y-126612922D01*
X117055654Y-126688025D01*
X117307603Y-126726000D01*
X117562397Y-126726000D01*
X117814345Y-126688025D01*
X118057823Y-126612921D01*
X118231281Y-126529389D01*
X118231281Y-126529388D01*
X117975762Y-126273869D01*
X135499500Y-126273869D01*
X135505909Y-126333483D01*
X135556204Y-126468331D01*
X135642454Y-126583546D01*
X135757669Y-126669796D01*
X135892517Y-126720091D01*
X135952127Y-126726500D01*
X138447872Y-126726499D01*
X138507483Y-126720091D01*
X138642331Y-126669796D01*
X138757546Y-126583546D01*
X138798089Y-126529387D01*
X141403718Y-126529387D01*
X141577179Y-126612922D01*
X141820654Y-126688025D01*
X142072603Y-126726000D01*
X142327397Y-126726000D01*
X142579345Y-126688025D01*
X142822823Y-126612921D01*
X142996281Y-126529389D01*
X142996281Y-126529388D01*
X142740762Y-126273869D01*
X160899500Y-126273869D01*
X160905909Y-126333483D01*
X160956204Y-126468331D01*
X161042454Y-126583546D01*
X161157669Y-126669796D01*
X161292517Y-126720091D01*
X161352127Y-126726500D01*
X163847872Y-126726499D01*
X163907483Y-126720091D01*
X164042331Y-126669796D01*
X164157546Y-126583546D01*
X164198089Y-126529387D01*
X166803718Y-126529387D01*
X166977179Y-126612922D01*
X167220654Y-126688025D01*
X167472603Y-126726000D01*
X167727397Y-126726000D01*
X167979345Y-126688025D01*
X168222823Y-126612921D01*
X168396281Y-126529389D01*
X168396281Y-126529388D01*
X168140762Y-126273869D01*
X188839500Y-126273869D01*
X188845909Y-126333483D01*
X188896204Y-126468331D01*
X188982454Y-126583546D01*
X189097669Y-126669796D01*
X189232517Y-126720091D01*
X189292127Y-126726500D01*
X191787872Y-126726499D01*
X191847483Y-126720091D01*
X191982331Y-126669796D01*
X192097546Y-126583546D01*
X192138089Y-126529387D01*
X194743718Y-126529387D01*
X194917179Y-126612922D01*
X195160654Y-126688025D01*
X195412603Y-126726000D01*
X195667397Y-126726000D01*
X195919345Y-126688025D01*
X196162823Y-126612921D01*
X196336281Y-126529389D01*
X196336281Y-126529388D01*
X195540000Y-125733107D01*
X194743718Y-126529387D01*
X192138089Y-126529387D01*
X192183796Y-126468331D01*
X192234091Y-126333483D01*
X192240500Y-126273873D01*
X192240499Y-125026000D01*
X193835232Y-125026000D01*
X193854273Y-125280080D01*
X193910971Y-125528491D01*
X194004057Y-125765669D01*
X194036694Y-125822198D01*
X194832893Y-125026001D01*
X196247107Y-125026001D01*
X197043305Y-125822198D01*
X197043305Y-125822197D01*
X197075942Y-125765671D01*
X197169028Y-125528491D01*
X197225726Y-125280080D01*
X197234518Y-125162764D01*
X209600787Y-125162764D01*
X209630413Y-125432016D01*
X209630414Y-125432018D01*
X209698928Y-125694088D01*
X209753369Y-125822198D01*
X209804871Y-125943392D01*
X209945982Y-126174611D01*
X210078197Y-126333484D01*
X210119255Y-126382820D01*
X210320998Y-126563582D01*
X210546910Y-126713044D01*
X210653211Y-126762876D01*
X210792177Y-126828021D01*
X211051562Y-126906058D01*
X211051569Y-126906060D01*
X211319561Y-126945500D01*
X211522631Y-126945500D01*
X211522634Y-126945500D01*
X211725156Y-126930677D01*
X211725156Y-126930676D01*
X211989553Y-126871780D01*
X212242558Y-126775014D01*
X212478777Y-126642441D01*
X212693177Y-126476888D01*
X212881186Y-126281881D01*
X213038799Y-126061579D01*
X213162656Y-125820675D01*
X213250118Y-125564305D01*
X213299319Y-125297933D01*
X213309212Y-125027235D01*
X213279586Y-124757982D01*
X213211072Y-124495912D01*
X213105130Y-124246610D01*
X212964018Y-124015390D01*
X212964017Y-124015388D01*
X212790746Y-123807181D01*
X212685758Y-123713112D01*
X212589002Y-123626418D01*
X212363090Y-123476956D01*
X212344954Y-123468454D01*
X212117822Y-123361978D01*
X211858437Y-123283941D01*
X211858431Y-123283940D01*
X211590439Y-123244500D01*
X211387369Y-123244500D01*
X211387366Y-123244500D01*
X211184843Y-123259322D01*
X210920449Y-123318219D01*
X210667441Y-123414986D01*
X210431223Y-123547559D01*
X210216825Y-123713109D01*
X210028813Y-123908120D01*
X209871201Y-124128420D01*
X209747342Y-124369329D01*
X209659881Y-124625695D01*
X209610680Y-124892066D01*
X209600787Y-125162764D01*
X197234518Y-125162764D01*
X197244767Y-125026000D01*
X197225726Y-124771919D01*
X197169028Y-124523508D01*
X197075944Y-124286333D01*
X197043303Y-124229801D01*
X196247107Y-125026000D01*
X196247107Y-125026001D01*
X194832893Y-125026001D01*
X194832893Y-125026000D01*
X194036694Y-124229800D01*
X194036693Y-124229801D01*
X194004056Y-124286330D01*
X193910972Y-124523508D01*
X193854273Y-124771919D01*
X193835232Y-125026000D01*
X192240499Y-125026000D01*
X192240499Y-123778128D01*
X192234091Y-123718517D01*
X192183796Y-123583669D01*
X192138088Y-123522611D01*
X194743718Y-123522611D01*
X195540000Y-124318893D01*
X195540001Y-124318893D01*
X196336282Y-123522611D01*
X196336281Y-123522609D01*
X196162823Y-123439078D01*
X195919345Y-123363974D01*
X195667397Y-123326000D01*
X195412603Y-123326000D01*
X195160654Y-123363974D01*
X194917176Y-123439078D01*
X194743718Y-123522610D01*
X194743718Y-123522611D01*
X192138088Y-123522611D01*
X192097546Y-123468454D01*
X191982331Y-123382204D01*
X191847483Y-123331909D01*
X191787873Y-123325500D01*
X191787869Y-123325500D01*
X189292130Y-123325500D01*
X189232515Y-123331909D01*
X189097669Y-123382204D01*
X188982454Y-123468454D01*
X188896204Y-123583668D01*
X188845909Y-123718516D01*
X188839500Y-123778130D01*
X188839500Y-126273869D01*
X168140762Y-126273869D01*
X167600000Y-125733107D01*
X166803718Y-126529387D01*
X164198089Y-126529387D01*
X164243796Y-126468331D01*
X164294091Y-126333483D01*
X164300500Y-126273873D01*
X164300499Y-125026000D01*
X165895232Y-125026000D01*
X165914273Y-125280080D01*
X165970971Y-125528491D01*
X166064057Y-125765669D01*
X166096694Y-125822198D01*
X166892893Y-125026001D01*
X166892893Y-125026000D01*
X168307107Y-125026000D01*
X169103305Y-125822198D01*
X169103305Y-125822197D01*
X169135942Y-125765671D01*
X169229028Y-125528491D01*
X169285726Y-125280080D01*
X169304767Y-125026000D01*
X169285726Y-124771919D01*
X169229028Y-124523508D01*
X169135944Y-124286333D01*
X169103303Y-124229801D01*
X168307107Y-125026000D01*
X166892893Y-125026000D01*
X166096694Y-124229800D01*
X166096693Y-124229801D01*
X166064056Y-124286330D01*
X165970972Y-124523508D01*
X165914273Y-124771919D01*
X165895232Y-125026000D01*
X164300499Y-125026000D01*
X164300499Y-123778128D01*
X164294091Y-123718517D01*
X164243796Y-123583669D01*
X164198088Y-123522611D01*
X166803718Y-123522611D01*
X167600000Y-124318893D01*
X167600001Y-124318893D01*
X168396282Y-123522611D01*
X168396281Y-123522609D01*
X168222823Y-123439078D01*
X167979345Y-123363974D01*
X167727397Y-123326000D01*
X167472603Y-123326000D01*
X167220654Y-123363974D01*
X166977176Y-123439078D01*
X166803718Y-123522610D01*
X166803718Y-123522611D01*
X164198088Y-123522611D01*
X164157546Y-123468454D01*
X164042331Y-123382204D01*
X163907483Y-123331909D01*
X163847873Y-123325500D01*
X163847869Y-123325500D01*
X161352130Y-123325500D01*
X161292515Y-123331909D01*
X161157669Y-123382204D01*
X161042454Y-123468454D01*
X160956204Y-123583668D01*
X160905909Y-123718516D01*
X160899500Y-123778130D01*
X160899500Y-126273869D01*
X142740762Y-126273869D01*
X142200000Y-125733107D01*
X141403718Y-126529387D01*
X138798089Y-126529387D01*
X138843796Y-126468331D01*
X138894091Y-126333483D01*
X138900500Y-126273873D01*
X138900499Y-125025999D01*
X140495232Y-125025999D01*
X140514273Y-125280080D01*
X140570971Y-125528491D01*
X140664057Y-125765669D01*
X140696694Y-125822198D01*
X141492893Y-125026001D01*
X142907107Y-125026001D01*
X143703305Y-125822198D01*
X143703305Y-125822197D01*
X143735942Y-125765671D01*
X143829028Y-125528491D01*
X143885726Y-125280080D01*
X143904767Y-125026000D01*
X143885726Y-124771919D01*
X143829028Y-124523508D01*
X143735944Y-124286333D01*
X143703303Y-124229801D01*
X142907107Y-125026000D01*
X142907107Y-125026001D01*
X141492893Y-125026001D01*
X141492893Y-125026000D01*
X140696694Y-124229800D01*
X140696693Y-124229801D01*
X140664056Y-124286330D01*
X140570972Y-124523508D01*
X140514273Y-124771919D01*
X140495232Y-125025999D01*
X138900499Y-125025999D01*
X138900499Y-123778128D01*
X138894091Y-123718517D01*
X138843796Y-123583669D01*
X138798088Y-123522611D01*
X141403718Y-123522611D01*
X142200000Y-124318893D01*
X142200001Y-124318893D01*
X142996282Y-123522611D01*
X142996281Y-123522609D01*
X142822823Y-123439078D01*
X142579345Y-123363974D01*
X142327397Y-123326000D01*
X142072603Y-123326000D01*
X141820654Y-123363974D01*
X141577176Y-123439078D01*
X141403718Y-123522610D01*
X141403718Y-123522611D01*
X138798088Y-123522611D01*
X138757546Y-123468454D01*
X138642331Y-123382204D01*
X138507483Y-123331909D01*
X138447873Y-123325500D01*
X138447869Y-123325500D01*
X135952130Y-123325500D01*
X135892515Y-123331909D01*
X135757669Y-123382204D01*
X135642454Y-123468454D01*
X135556204Y-123583668D01*
X135505909Y-123718516D01*
X135499500Y-123778130D01*
X135499500Y-126273869D01*
X117975762Y-126273869D01*
X117435000Y-125733107D01*
X116638718Y-126529387D01*
X114033089Y-126529387D01*
X114078796Y-126468331D01*
X114129091Y-126333483D01*
X114135500Y-126273873D01*
X114135499Y-125025999D01*
X115730232Y-125025999D01*
X115749273Y-125280080D01*
X115805971Y-125528491D01*
X115899057Y-125765669D01*
X115931694Y-125822198D01*
X116727893Y-125026001D01*
X116727893Y-125026000D01*
X118142107Y-125026000D01*
X118938305Y-125822198D01*
X118938305Y-125822197D01*
X118970942Y-125765671D01*
X119064028Y-125528491D01*
X119120726Y-125280080D01*
X119139767Y-125025999D01*
X119120726Y-124771919D01*
X119064028Y-124523508D01*
X118970944Y-124286333D01*
X118938303Y-124229801D01*
X118142107Y-125026000D01*
X116727893Y-125026000D01*
X115931694Y-124229801D01*
X115931693Y-124229801D01*
X115899056Y-124286330D01*
X115805972Y-124523508D01*
X115749273Y-124771919D01*
X115730232Y-125025999D01*
X114135499Y-125025999D01*
X114135499Y-123778128D01*
X114129091Y-123718517D01*
X114078796Y-123583669D01*
X114033088Y-123522611D01*
X116638718Y-123522611D01*
X117435000Y-124318893D01*
X117435001Y-124318893D01*
X118231282Y-123522611D01*
X118231281Y-123522609D01*
X118057823Y-123439078D01*
X117814345Y-123363974D01*
X117562397Y-123326000D01*
X117307603Y-123326000D01*
X117055654Y-123363974D01*
X116812176Y-123439078D01*
X116638718Y-123522610D01*
X116638718Y-123522611D01*
X114033088Y-123522611D01*
X113992546Y-123468454D01*
X113877331Y-123382204D01*
X113742483Y-123331909D01*
X113682873Y-123325500D01*
X113682869Y-123325500D01*
X111187130Y-123325500D01*
X111127515Y-123331909D01*
X110992669Y-123382204D01*
X110877454Y-123468454D01*
X110791204Y-123583668D01*
X110740909Y-123718516D01*
X110734500Y-123778130D01*
X110734500Y-126273869D01*
X99856918Y-126273869D01*
X100008799Y-126061579D01*
X100132656Y-125820675D01*
X100220118Y-125564305D01*
X100269319Y-125297933D01*
X100279212Y-125027235D01*
X100249586Y-124757982D01*
X100181072Y-124495912D01*
X100075130Y-124246610D01*
X99934018Y-124015390D01*
X99934017Y-124015388D01*
X99760746Y-123807181D01*
X99655758Y-123713112D01*
X99559002Y-123626418D01*
X99333090Y-123476956D01*
X99314954Y-123468454D01*
X99087822Y-123361978D01*
X98828437Y-123283941D01*
X98828431Y-123283940D01*
X98560439Y-123244500D01*
X98357369Y-123244500D01*
X98357366Y-123244500D01*
X98154843Y-123259322D01*
X97890449Y-123318219D01*
X97637441Y-123414986D01*
X97401223Y-123547559D01*
X97186825Y-123713109D01*
X96998813Y-123908120D01*
X96841201Y-124128420D01*
X96717342Y-124369329D01*
X96629881Y-124625695D01*
X96580680Y-124892066D01*
X96570787Y-125162764D01*
X93345500Y-125162764D01*
X93345500Y-116948869D01*
X106944500Y-116948869D01*
X106950909Y-117008483D01*
X107001204Y-117143331D01*
X107087454Y-117258546D01*
X107202669Y-117344796D01*
X107337517Y-117395091D01*
X107397127Y-117401500D01*
X109692872Y-117401499D01*
X109752483Y-117395091D01*
X109887331Y-117344796D01*
X110002546Y-117258546D01*
X110088796Y-117143331D01*
X110139091Y-117008483D01*
X110145500Y-116948873D01*
X110145500Y-116301000D01*
X117180279Y-116301000D01*
X117274982Y-116529632D01*
X117406569Y-116744364D01*
X117570130Y-116935869D01*
X117761635Y-117099430D01*
X117976367Y-117231017D01*
X118204999Y-117325720D01*
X118205000Y-117325721D01*
X118205000Y-116301000D01*
X119205000Y-116301000D01*
X119205000Y-117325720D01*
X119433632Y-117231017D01*
X119648364Y-117099430D01*
X119824648Y-116948869D01*
X131749500Y-116948869D01*
X131755909Y-117008483D01*
X131806204Y-117143331D01*
X131892454Y-117258546D01*
X132007669Y-117344796D01*
X132142517Y-117395091D01*
X132202127Y-117401500D01*
X134497872Y-117401499D01*
X134557483Y-117395091D01*
X134692331Y-117344796D01*
X134807546Y-117258546D01*
X134893796Y-117143331D01*
X134944091Y-117008483D01*
X134950500Y-116948873D01*
X134950500Y-116301000D01*
X141985279Y-116301000D01*
X142079982Y-116529632D01*
X142211569Y-116744364D01*
X142375130Y-116935869D01*
X142566635Y-117099430D01*
X142781367Y-117231017D01*
X143009999Y-117325720D01*
X143010000Y-117325721D01*
X143010000Y-116301000D01*
X144010000Y-116301000D01*
X144010000Y-117325720D01*
X144238632Y-117231017D01*
X144453364Y-117099430D01*
X144629648Y-116948869D01*
X157149500Y-116948869D01*
X157155909Y-117008483D01*
X157206204Y-117143331D01*
X157292454Y-117258546D01*
X157407669Y-117344796D01*
X157542517Y-117395091D01*
X157602127Y-117401500D01*
X159897872Y-117401499D01*
X159957483Y-117395091D01*
X160092331Y-117344796D01*
X160207546Y-117258546D01*
X160293796Y-117143331D01*
X160344091Y-117008483D01*
X160350500Y-116948873D01*
X160350500Y-116301000D01*
X167385279Y-116301000D01*
X167479982Y-116529632D01*
X167611569Y-116744364D01*
X167775130Y-116935869D01*
X167966635Y-117099430D01*
X168181367Y-117231017D01*
X168409999Y-117325720D01*
X168410000Y-117325721D01*
X168410000Y-116301000D01*
X169410000Y-116301000D01*
X169410000Y-117325720D01*
X169638632Y-117231017D01*
X169853364Y-117099430D01*
X170044869Y-116935869D01*
X170208430Y-116744364D01*
X170340017Y-116529632D01*
X170434721Y-116301000D01*
X169410000Y-116301000D01*
X168410000Y-116301000D01*
X167385279Y-116301000D01*
X160350500Y-116301000D01*
X160350499Y-115301000D01*
X167385279Y-115301000D01*
X168410000Y-115301000D01*
X168410000Y-114276279D01*
X169410000Y-114276279D01*
X169410000Y-115301000D01*
X170434721Y-115301000D01*
X170434720Y-115300999D01*
X170340017Y-115072367D01*
X170307904Y-115019963D01*
X200012143Y-115019963D01*
X200055393Y-115043368D01*
X200290506Y-115124083D01*
X200535707Y-115165000D01*
X200784293Y-115165000D01*
X201029493Y-115124083D01*
X201264603Y-115043369D01*
X201307855Y-115019962D01*
X200660001Y-114372107D01*
X200660000Y-114372107D01*
X200012143Y-115019963D01*
X170307904Y-115019963D01*
X170208430Y-114857635D01*
X170199893Y-114847640D01*
X184772143Y-114847640D01*
X184815393Y-114871045D01*
X185050506Y-114951760D01*
X185295707Y-114992677D01*
X185544293Y-114992677D01*
X185789493Y-114951760D01*
X186024603Y-114871046D01*
X186067855Y-114847639D01*
X185420001Y-114199784D01*
X185420000Y-114199784D01*
X184772143Y-114847640D01*
X170199893Y-114847640D01*
X170044869Y-114666130D01*
X169853364Y-114502569D01*
X169638632Y-114370982D01*
X169410000Y-114276279D01*
X168410000Y-114276279D01*
X168409999Y-114276279D01*
X168181367Y-114370982D01*
X167966635Y-114502569D01*
X167775130Y-114666130D01*
X167611569Y-114857635D01*
X167479982Y-115072367D01*
X167385279Y-115300999D01*
X167385279Y-115301000D01*
X160350499Y-115301000D01*
X160350499Y-114653128D01*
X160344091Y-114593517D01*
X160293796Y-114458669D01*
X160207546Y-114343454D01*
X160092331Y-114257204D01*
X159957483Y-114206909D01*
X159897873Y-114200500D01*
X159897869Y-114200500D01*
X157602130Y-114200500D01*
X157542515Y-114206909D01*
X157407669Y-114257204D01*
X157292454Y-114343454D01*
X157206204Y-114458668D01*
X157155909Y-114593516D01*
X157149500Y-114653130D01*
X157149500Y-116948869D01*
X144629648Y-116948869D01*
X144644869Y-116935869D01*
X144808430Y-116744364D01*
X144940017Y-116529632D01*
X145034721Y-116301000D01*
X144010000Y-116301000D01*
X143010000Y-116301000D01*
X141985279Y-116301000D01*
X134950500Y-116301000D01*
X134950499Y-115301000D01*
X141985279Y-115301000D01*
X143010000Y-115301000D01*
X143010000Y-114276279D01*
X144010000Y-114276279D01*
X144010000Y-115301000D01*
X145034721Y-115301000D01*
X145034720Y-115300999D01*
X144940017Y-115072367D01*
X144808430Y-114857635D01*
X144644869Y-114666130D01*
X144453364Y-114502569D01*
X144238632Y-114370982D01*
X144010000Y-114276279D01*
X143010000Y-114276279D01*
X143009999Y-114276279D01*
X142781367Y-114370982D01*
X142566635Y-114502569D01*
X142375130Y-114666130D01*
X142211569Y-114857635D01*
X142079982Y-115072367D01*
X141985279Y-115300999D01*
X141985279Y-115301000D01*
X134950499Y-115301000D01*
X134950499Y-114653128D01*
X134944091Y-114593517D01*
X134893796Y-114458669D01*
X134807546Y-114343454D01*
X134692331Y-114257204D01*
X134557483Y-114206909D01*
X134497873Y-114200500D01*
X134497869Y-114200500D01*
X132202130Y-114200500D01*
X132142515Y-114206909D01*
X132007669Y-114257204D01*
X131892454Y-114343454D01*
X131806204Y-114458668D01*
X131755909Y-114593516D01*
X131749500Y-114653130D01*
X131749500Y-116948869D01*
X119824648Y-116948869D01*
X119839869Y-116935869D01*
X120003430Y-116744364D01*
X120135017Y-116529632D01*
X120229721Y-116301000D01*
X119205000Y-116301000D01*
X118205000Y-116301000D01*
X117180279Y-116301000D01*
X110145500Y-116301000D01*
X110145499Y-115301000D01*
X117180279Y-115301000D01*
X118205000Y-115301000D01*
X118205000Y-114276279D01*
X119205000Y-114276279D01*
X119205000Y-115301000D01*
X120229721Y-115301000D01*
X120229720Y-115300999D01*
X120135017Y-115072367D01*
X120003430Y-114857635D01*
X119839869Y-114666130D01*
X119648364Y-114502569D01*
X119433632Y-114370982D01*
X119205000Y-114276279D01*
X118205000Y-114276279D01*
X118204999Y-114276279D01*
X117976367Y-114370982D01*
X117761635Y-114502569D01*
X117570130Y-114666130D01*
X117406569Y-114857635D01*
X117274982Y-115072367D01*
X117180279Y-115300999D01*
X117180279Y-115301000D01*
X110145499Y-115301000D01*
X110145499Y-114653128D01*
X110139091Y-114593517D01*
X110088796Y-114458669D01*
X110002546Y-114343454D01*
X109887331Y-114257204D01*
X109752483Y-114206909D01*
X109692873Y-114200500D01*
X109692869Y-114200500D01*
X107397130Y-114200500D01*
X107337515Y-114206909D01*
X107202669Y-114257204D01*
X107087454Y-114343454D01*
X107001204Y-114458668D01*
X106950909Y-114593516D01*
X106944500Y-114653130D01*
X106944500Y-116948869D01*
X93345500Y-116948869D01*
X93345500Y-113492677D01*
X183914858Y-113492677D01*
X183935386Y-113740409D01*
X183996413Y-113981398D01*
X184065856Y-114139713D01*
X184712893Y-113492678D01*
X184712893Y-113492677D01*
X186127107Y-113492677D01*
X186774142Y-114139713D01*
X186774143Y-114139712D01*
X186843586Y-113981398D01*
X186904613Y-113740409D01*
X186910862Y-113665000D01*
X199154858Y-113665000D01*
X199175386Y-113912732D01*
X199236413Y-114153721D01*
X199305856Y-114312036D01*
X199952893Y-113665001D01*
X201367107Y-113665001D01*
X202014142Y-114312036D01*
X202014143Y-114312035D01*
X202083586Y-114153721D01*
X202144613Y-113912732D01*
X202165141Y-113665000D01*
X202144613Y-113417267D01*
X202083586Y-113176278D01*
X202014143Y-113017963D01*
X202014142Y-113017962D01*
X201367107Y-113665000D01*
X201367107Y-113665001D01*
X199952893Y-113665001D01*
X199952893Y-113665000D01*
X199305856Y-113017963D01*
X199236413Y-113176279D01*
X199175386Y-113417267D01*
X199154858Y-113665000D01*
X186910862Y-113665000D01*
X186925141Y-113492677D01*
X186904613Y-113244944D01*
X186843586Y-113003955D01*
X186774143Y-112845640D01*
X186774142Y-112845639D01*
X186127107Y-113492677D01*
X184712893Y-113492677D01*
X184065856Y-112845640D01*
X183996413Y-113003956D01*
X183935386Y-113244944D01*
X183914858Y-113492677D01*
X93345500Y-113492677D01*
X93345500Y-112137713D01*
X184772143Y-112137713D01*
X185420000Y-112785570D01*
X185420001Y-112785570D01*
X185895534Y-112310036D01*
X200012143Y-112310036D01*
X200660000Y-112957893D01*
X200660001Y-112957893D01*
X201307856Y-112310036D01*
X201264609Y-112286632D01*
X201029493Y-112205916D01*
X200784293Y-112165000D01*
X200535707Y-112165000D01*
X200290506Y-112205916D01*
X200055395Y-112286629D01*
X200012143Y-112310036D01*
X185895534Y-112310036D01*
X186067856Y-112137713D01*
X186024609Y-112114309D01*
X185789493Y-112033593D01*
X185544293Y-111992677D01*
X185295707Y-111992677D01*
X185050506Y-112033593D01*
X184815395Y-112114306D01*
X184772143Y-112137713D01*
X93345500Y-112137713D01*
X93345500Y-111760000D01*
X218439500Y-111760000D01*
X218439500Y-131955500D01*
G37*
G04 #@! TD.AperFunction*
M02*
