%TF.GenerationSoftware,KiCad,Pcbnew,7.0.1*%
%TF.CreationDate,2023-03-31T10:13:54+02:00*%
%TF.ProjectId,ESP32-BMS_Ctrl,45535033-322d-4424-9d53-5f4374726c2e,rev?*%
%TF.SameCoordinates,Original*%
%TF.FileFunction,Drillmap*%
%TF.FilePolarity,Positive*%
%FSLAX45Y45*%
G04 Gerber Fmt 4.5, Leading zero omitted, Abs format (unit mm)*
G04 Created by KiCad (PCBNEW 7.0.1) date 2023-03-31 10:13:54*
%MOMM*%
%LPD*%
G01*
G04 APERTURE LIST*
%ADD10C,0.100000*%
%ADD11C,0.200000*%
%ADD12C,0.080000*%
%ADD13C,0.110000*%
%ADD14C,0.320000*%
G04 APERTURE END LIST*
D10*
X9334500Y-4191000D02*
X21844000Y-4191000D01*
X21844000Y-13208000D01*
X9334500Y-13208000D01*
X9334500Y-4191000D01*
D11*
D12*
X10945500Y-5287100D02*
X11025500Y-5367100D01*
X11025500Y-5287100D02*
X10945500Y-5367100D01*
X10945500Y-6303100D02*
X11025500Y-6383100D01*
X11025500Y-6303100D02*
X10945500Y-6383100D01*
X11068500Y-8335100D02*
X11148500Y-8415100D01*
X11148500Y-8335100D02*
X11068500Y-8415100D01*
X11068500Y-9351100D02*
X11148500Y-9431100D01*
X11148500Y-9351100D02*
X11068500Y-9431100D01*
X11453500Y-5287100D02*
X11533500Y-5367100D01*
X11533500Y-5287100D02*
X11453500Y-5367100D01*
X11453500Y-6303100D02*
X11533500Y-6383100D01*
X11533500Y-6303100D02*
X11453500Y-6383100D01*
X11453500Y-7008500D02*
X11533500Y-7088500D01*
X11533500Y-7008500D02*
X11453500Y-7088500D01*
X11453500Y-7770500D02*
X11533500Y-7850500D01*
X11533500Y-7770500D02*
X11453500Y-7850500D01*
X11644000Y-8335100D02*
X11724000Y-8415100D01*
X11724000Y-8335100D02*
X11644000Y-8415100D01*
X11644000Y-9351100D02*
X11724000Y-9431100D01*
X11724000Y-9351100D02*
X11644000Y-9431100D01*
X11707500Y-7008500D02*
X11787500Y-7088500D01*
X11787500Y-7008500D02*
X11707500Y-7088500D01*
X11707500Y-7770500D02*
X11787500Y-7850500D01*
X11787500Y-7770500D02*
X11707500Y-7850500D01*
X11961500Y-5287100D02*
X12041500Y-5367100D01*
X12041500Y-5287100D02*
X11961500Y-5367100D01*
X11961500Y-6303100D02*
X12041500Y-6383100D01*
X12041500Y-6303100D02*
X11961500Y-6383100D01*
X11961500Y-7008500D02*
X12041500Y-7088500D01*
X12041500Y-7008500D02*
X11961500Y-7088500D01*
X11961500Y-7770500D02*
X12041500Y-7850500D01*
X12041500Y-7770500D02*
X11961500Y-7850500D01*
X12215500Y-7008500D02*
X12295500Y-7088500D01*
X12295500Y-7008500D02*
X12215500Y-7088500D01*
X12215500Y-7770500D02*
X12295500Y-7850500D01*
X12295500Y-7770500D02*
X12215500Y-7850500D01*
X12215500Y-8335100D02*
X12295500Y-8415100D01*
X12295500Y-8335100D02*
X12215500Y-8415100D01*
X12215500Y-9351100D02*
X12295500Y-9431100D01*
X12295500Y-9351100D02*
X12215500Y-9431100D01*
X12469500Y-5287100D02*
X12549500Y-5367100D01*
X12549500Y-5287100D02*
X12469500Y-5367100D01*
X12469500Y-6303100D02*
X12549500Y-6383100D01*
X12549500Y-6303100D02*
X12469500Y-6383100D01*
X12914000Y-9160600D02*
X12994000Y-9240600D01*
X12994000Y-9160600D02*
X12914000Y-9240600D01*
X12914000Y-10176600D02*
X12994000Y-10256600D01*
X12994000Y-10176600D02*
X12914000Y-10256600D01*
X13422000Y-5287100D02*
X13502000Y-5367100D01*
X13502000Y-5287100D02*
X13422000Y-5367100D01*
X13422000Y-6303100D02*
X13502000Y-6383100D01*
X13502000Y-6303100D02*
X13422000Y-6383100D01*
X13672000Y-7008500D02*
X13752000Y-7088500D01*
X13752000Y-7008500D02*
X13672000Y-7088500D01*
X13672000Y-7770500D02*
X13752000Y-7850500D01*
X13752000Y-7770500D02*
X13672000Y-7850500D01*
X13926000Y-7008500D02*
X14006000Y-7088500D01*
X14006000Y-7008500D02*
X13926000Y-7088500D01*
X13926000Y-7770500D02*
X14006000Y-7850500D01*
X14006000Y-7770500D02*
X13926000Y-7850500D01*
X13930000Y-5287100D02*
X14010000Y-5367100D01*
X14010000Y-5287100D02*
X13930000Y-5367100D01*
X13930000Y-6303100D02*
X14010000Y-6383100D01*
X14010000Y-6303100D02*
X13930000Y-6383100D01*
X13930000Y-8335100D02*
X14010000Y-8415100D01*
X14010000Y-8335100D02*
X13930000Y-8415100D01*
X13930000Y-9351100D02*
X14010000Y-9431100D01*
X14010000Y-9351100D02*
X13930000Y-9431100D01*
X14180000Y-7008500D02*
X14260000Y-7088500D01*
X14260000Y-7008500D02*
X14180000Y-7088500D01*
X14180000Y-7770500D02*
X14260000Y-7850500D01*
X14260000Y-7770500D02*
X14180000Y-7850500D01*
X14434000Y-7008500D02*
X14514000Y-7088500D01*
X14514000Y-7008500D02*
X14434000Y-7088500D01*
X14434000Y-7770500D02*
X14514000Y-7850500D01*
X14514000Y-7770500D02*
X14434000Y-7850500D01*
X14438000Y-5287100D02*
X14518000Y-5367100D01*
X14518000Y-5287100D02*
X14438000Y-5367100D01*
X14438000Y-6303100D02*
X14518000Y-6383100D01*
X14518000Y-6303100D02*
X14438000Y-6383100D01*
X14501500Y-8335100D02*
X14581500Y-8415100D01*
X14581500Y-8335100D02*
X14501500Y-8415100D01*
X14501500Y-9351100D02*
X14581500Y-9431100D01*
X14581500Y-9351100D02*
X14501500Y-9431100D01*
X14946000Y-5287100D02*
X15026000Y-5367100D01*
X15026000Y-5287100D02*
X14946000Y-5367100D01*
X14946000Y-6303100D02*
X15026000Y-6383100D01*
X15026000Y-6303100D02*
X14946000Y-6383100D01*
X15454000Y-9160600D02*
X15534000Y-9240600D01*
X15534000Y-9160600D02*
X15454000Y-9240600D01*
X15454000Y-10176600D02*
X15534000Y-10256600D01*
X15534000Y-10176600D02*
X15454000Y-10256600D01*
X16470000Y-8335100D02*
X16550000Y-8415100D01*
X16550000Y-8335100D02*
X16470000Y-8415100D01*
X16470000Y-9351100D02*
X16550000Y-9431100D01*
X16550000Y-9351100D02*
X16470000Y-9431100D01*
X16646000Y-5170500D02*
X16726000Y-5250500D01*
X16726000Y-5170500D02*
X16646000Y-5250500D01*
X16646000Y-5424500D02*
X16726000Y-5504500D01*
X16726000Y-5424500D02*
X16646000Y-5504500D01*
X16646000Y-5678500D02*
X16726000Y-5758500D01*
X16726000Y-5678500D02*
X16646000Y-5758500D01*
X16646000Y-5932500D02*
X16726000Y-6012500D01*
X16726000Y-5932500D02*
X16646000Y-6012500D01*
X16646000Y-6186500D02*
X16726000Y-6266500D01*
X16726000Y-6186500D02*
X16646000Y-6266500D01*
X16646000Y-6440500D02*
X16726000Y-6520500D01*
X16726000Y-6440500D02*
X16646000Y-6520500D01*
X16646000Y-6694500D02*
X16726000Y-6774500D01*
X16726000Y-6694500D02*
X16646000Y-6774500D01*
X16646000Y-6948500D02*
X16726000Y-7028500D01*
X16726000Y-6948500D02*
X16646000Y-7028500D01*
X16900000Y-5170500D02*
X16980000Y-5250500D01*
X16980000Y-5170500D02*
X16900000Y-5250500D01*
X16900000Y-5424500D02*
X16980000Y-5504500D01*
X16980000Y-5424500D02*
X16900000Y-5504500D01*
X16900000Y-5678500D02*
X16980000Y-5758500D01*
X16980000Y-5678500D02*
X16900000Y-5758500D01*
X16900000Y-5932500D02*
X16980000Y-6012500D01*
X16980000Y-5932500D02*
X16900000Y-6012500D01*
X16900000Y-6186500D02*
X16980000Y-6266500D01*
X16980000Y-6186500D02*
X16900000Y-6266500D01*
X16900000Y-6440500D02*
X16980000Y-6520500D01*
X16980000Y-6440500D02*
X16900000Y-6520500D01*
X16900000Y-6694500D02*
X16980000Y-6774500D01*
X16980000Y-6694500D02*
X16900000Y-6774500D01*
X16900000Y-6948500D02*
X16980000Y-7028500D01*
X16980000Y-6948500D02*
X16900000Y-7028500D01*
X17041500Y-8335100D02*
X17121500Y-8415100D01*
X17121500Y-8335100D02*
X17041500Y-8415100D01*
X17041500Y-9351100D02*
X17121500Y-9431100D01*
X17121500Y-9351100D02*
X17041500Y-9431100D01*
X18502000Y-10809268D02*
X18582000Y-10889268D01*
X18582000Y-10809268D02*
X18502000Y-10889268D01*
X18502000Y-11309268D02*
X18582000Y-11389268D01*
X18582000Y-11309268D02*
X18502000Y-11389268D01*
X18703000Y-5170500D02*
X18783000Y-5250500D01*
X18783000Y-5170500D02*
X18703000Y-5250500D01*
X18703000Y-5424500D02*
X18783000Y-5504500D01*
X18783000Y-5424500D02*
X18703000Y-5504500D01*
X18703000Y-5678500D02*
X18783000Y-5758500D01*
X18783000Y-5678500D02*
X18703000Y-5758500D01*
X18703000Y-5932500D02*
X18783000Y-6012500D01*
X18783000Y-5932500D02*
X18703000Y-6012500D01*
X18703000Y-6186500D02*
X18783000Y-6266500D01*
X18783000Y-6186500D02*
X18703000Y-6266500D01*
X18703000Y-6440500D02*
X18783000Y-6520500D01*
X18783000Y-6440500D02*
X18703000Y-6520500D01*
X18703000Y-6694500D02*
X18783000Y-6774500D01*
X18783000Y-6694500D02*
X18703000Y-6774500D01*
X18703000Y-6948500D02*
X18783000Y-7028500D01*
X18783000Y-6948500D02*
X18703000Y-7028500D01*
X18946500Y-10174268D02*
X19026500Y-10254268D01*
X19026500Y-10174268D02*
X18946500Y-10254268D01*
X18957000Y-5170500D02*
X19037000Y-5250500D01*
X19037000Y-5170500D02*
X18957000Y-5250500D01*
X18957000Y-5424500D02*
X19037000Y-5504500D01*
X19037000Y-5424500D02*
X18957000Y-5504500D01*
X18957000Y-5678500D02*
X19037000Y-5758500D01*
X19037000Y-5678500D02*
X18957000Y-5758500D01*
X18957000Y-5932500D02*
X19037000Y-6012500D01*
X19037000Y-5932500D02*
X18957000Y-6012500D01*
X18957000Y-6186500D02*
X19037000Y-6266500D01*
X19037000Y-6186500D02*
X18957000Y-6266500D01*
X18957000Y-6440500D02*
X19037000Y-6520500D01*
X19037000Y-6440500D02*
X18957000Y-6520500D01*
X18957000Y-6694500D02*
X19037000Y-6774500D01*
X19037000Y-6694500D02*
X18957000Y-6774500D01*
X18957000Y-6948500D02*
X19037000Y-7028500D01*
X19037000Y-6948500D02*
X18957000Y-7028500D01*
X19200500Y-10174268D02*
X19280500Y-10254268D01*
X19280500Y-10174268D02*
X19200500Y-10254268D01*
X19454500Y-10174268D02*
X19534500Y-10254268D01*
X19534500Y-10174268D02*
X19454500Y-10254268D01*
X19708500Y-8469000D02*
X19788500Y-8549000D01*
X19788500Y-8469000D02*
X19708500Y-8549000D01*
X19708500Y-9485000D02*
X19788500Y-9565000D01*
X19788500Y-9485000D02*
X19708500Y-9565000D01*
X19708500Y-10174268D02*
X19788500Y-10254268D01*
X19788500Y-10174268D02*
X19708500Y-10254268D01*
X20026000Y-10826500D02*
X20106000Y-10906500D01*
X20106000Y-10826500D02*
X20026000Y-10906500D01*
X20026000Y-11326500D02*
X20106000Y-11406500D01*
X20106000Y-11326500D02*
X20026000Y-11406500D01*
D10*
X13139000Y-8692600D02*
G75*
G03*
X13139000Y-8692600I-50000J0D01*
G01*
X13389000Y-8692600D02*
G75*
G03*
X13389000Y-8692600I-50000J0D01*
G01*
X15675000Y-8692600D02*
G75*
G03*
X15675000Y-8692600I-50000J0D01*
G01*
X15925000Y-8692600D02*
G75*
G03*
X15925000Y-8692600I-50000J0D01*
G01*
X20592467Y-7799000D02*
G75*
G03*
X20592467Y-7799000I-50000J0D01*
G01*
X20592467Y-8076000D02*
G75*
G03*
X20592467Y-8076000I-50000J0D01*
G01*
X20592467Y-8353000D02*
G75*
G03*
X20592467Y-8353000I-50000J0D01*
G01*
X20592467Y-8630000D02*
G75*
G03*
X20592467Y-8630000I-50000J0D01*
G01*
X20592467Y-8907000D02*
G75*
G03*
X20592467Y-8907000I-50000J0D01*
G01*
X20876467Y-7937500D02*
G75*
G03*
X20876467Y-7937500I-50000J0D01*
G01*
X20876467Y-8214500D02*
G75*
G03*
X20876467Y-8214500I-50000J0D01*
G01*
X20876467Y-8491500D02*
G75*
G03*
X20876467Y-8491500I-50000J0D01*
G01*
X20876467Y-8768500D02*
G75*
G03*
X20876467Y-8768500I-50000J0D01*
G01*
D13*
X10854500Y-11525100D02*
X10854500Y-11635100D01*
X10799500Y-11580100D02*
X10909500Y-11580100D01*
X11104500Y-9971100D02*
X11104500Y-10081100D01*
X11049500Y-10026100D02*
X11159500Y-10026100D01*
X11104500Y-10860100D02*
X11104500Y-10970100D01*
X11049500Y-10915100D02*
X11159500Y-10915100D01*
X11243500Y-12447600D02*
X11243500Y-12557600D01*
X11188500Y-12502600D02*
X11298500Y-12502600D01*
X11358500Y-9971100D02*
X11358500Y-10081100D01*
X11303500Y-10026100D02*
X11413500Y-10026100D01*
X11358500Y-10860100D02*
X11358500Y-10970100D01*
X11303500Y-10915100D02*
X11413500Y-10915100D01*
X11612500Y-9971100D02*
X11612500Y-10081100D01*
X11557500Y-10026100D02*
X11667500Y-10026100D01*
X11612500Y-10860100D02*
X11612500Y-10970100D01*
X11557500Y-10915100D02*
X11667500Y-10915100D01*
X11743500Y-12447600D02*
X11743500Y-12557600D01*
X11688500Y-12502600D02*
X11798500Y-12502600D01*
X11870500Y-11525100D02*
X11870500Y-11635100D01*
X11815500Y-11580100D02*
X11925500Y-11580100D01*
X13335000Y-11525100D02*
X13335000Y-11635100D01*
X13280000Y-11580100D02*
X13390000Y-11580100D01*
X13589000Y-9971100D02*
X13589000Y-10081100D01*
X13534000Y-10026100D02*
X13644000Y-10026100D01*
X13589000Y-10860100D02*
X13589000Y-10970100D01*
X13534000Y-10915100D02*
X13644000Y-10915100D01*
X13720000Y-12447600D02*
X13720000Y-12557600D01*
X13665000Y-12502600D02*
X13775000Y-12502600D01*
X13843000Y-9971100D02*
X13843000Y-10081100D01*
X13788000Y-10026100D02*
X13898000Y-10026100D01*
X13843000Y-10860100D02*
X13843000Y-10970100D01*
X13788000Y-10915100D02*
X13898000Y-10915100D01*
X14097000Y-9971100D02*
X14097000Y-10081100D01*
X14042000Y-10026100D02*
X14152000Y-10026100D01*
X14097000Y-10860100D02*
X14097000Y-10970100D01*
X14042000Y-10915100D02*
X14152000Y-10915100D01*
X14220000Y-12447600D02*
X14220000Y-12557600D01*
X14165000Y-12502600D02*
X14275000Y-12502600D01*
X14351000Y-11525100D02*
X14351000Y-11635100D01*
X14296000Y-11580100D02*
X14406000Y-11580100D01*
X15875000Y-11525100D02*
X15875000Y-11635100D01*
X15820000Y-11580100D02*
X15930000Y-11580100D01*
X16129000Y-9971100D02*
X16129000Y-10081100D01*
X16074000Y-10026100D02*
X16184000Y-10026100D01*
X16129000Y-10860100D02*
X16129000Y-10970100D01*
X16074000Y-10915100D02*
X16184000Y-10915100D01*
X16260000Y-12447600D02*
X16260000Y-12557600D01*
X16205000Y-12502600D02*
X16315000Y-12502600D01*
X16383000Y-9971100D02*
X16383000Y-10081100D01*
X16328000Y-10026100D02*
X16438000Y-10026100D01*
X16383000Y-10860100D02*
X16383000Y-10970100D01*
X16328000Y-10915100D02*
X16438000Y-10915100D01*
X16637000Y-9971100D02*
X16637000Y-10081100D01*
X16582000Y-10026100D02*
X16692000Y-10026100D01*
X16637000Y-10860100D02*
X16637000Y-10970100D01*
X16582000Y-10915100D02*
X16692000Y-10915100D01*
X16760000Y-12447600D02*
X16760000Y-12557600D01*
X16705000Y-12502600D02*
X16815000Y-12502600D01*
X16891000Y-11525100D02*
X16891000Y-11635100D01*
X16836000Y-11580100D02*
X16946000Y-11580100D01*
X19054000Y-12447600D02*
X19054000Y-12557600D01*
X18999000Y-12502600D02*
X19109000Y-12502600D01*
X19554000Y-12447600D02*
X19554000Y-12557600D01*
X19499000Y-12502600D02*
X19609000Y-12502600D01*
D14*
X20797605Y-7216138D02*
X20797605Y-6989862D01*
X20571329Y-6989862D01*
X20571329Y-7216138D01*
X20797605Y-7216138D01*
X20797605Y-9716138D02*
X20797605Y-9489862D01*
X20571329Y-9489862D01*
X20571329Y-9716138D01*
X20797605Y-9716138D01*
D11*
X9577119Y-13525524D02*
X9577119Y-13325524D01*
X9577119Y-13325524D02*
X9624738Y-13325524D01*
X9624738Y-13325524D02*
X9653310Y-13335048D01*
X9653310Y-13335048D02*
X9672357Y-13354095D01*
X9672357Y-13354095D02*
X9681881Y-13373143D01*
X9681881Y-13373143D02*
X9691405Y-13411238D01*
X9691405Y-13411238D02*
X9691405Y-13439809D01*
X9691405Y-13439809D02*
X9681881Y-13477905D01*
X9681881Y-13477905D02*
X9672357Y-13496952D01*
X9672357Y-13496952D02*
X9653310Y-13516000D01*
X9653310Y-13516000D02*
X9624738Y-13525524D01*
X9624738Y-13525524D02*
X9577119Y-13525524D01*
X9777119Y-13525524D02*
X9777119Y-13392190D01*
X9777119Y-13430286D02*
X9786643Y-13411238D01*
X9786643Y-13411238D02*
X9796167Y-13401714D01*
X9796167Y-13401714D02*
X9815214Y-13392190D01*
X9815214Y-13392190D02*
X9834262Y-13392190D01*
X9900929Y-13525524D02*
X9900929Y-13392190D01*
X9900929Y-13325524D02*
X9891405Y-13335048D01*
X9891405Y-13335048D02*
X9900929Y-13344571D01*
X9900929Y-13344571D02*
X9910452Y-13335048D01*
X9910452Y-13335048D02*
X9900929Y-13325524D01*
X9900929Y-13325524D02*
X9900929Y-13344571D01*
X10024738Y-13525524D02*
X10005690Y-13516000D01*
X10005690Y-13516000D02*
X9996167Y-13496952D01*
X9996167Y-13496952D02*
X9996167Y-13325524D01*
X10129500Y-13525524D02*
X10110452Y-13516000D01*
X10110452Y-13516000D02*
X10100929Y-13496952D01*
X10100929Y-13496952D02*
X10100929Y-13325524D01*
X10358071Y-13525524D02*
X10358071Y-13325524D01*
X10358071Y-13325524D02*
X10424738Y-13468381D01*
X10424738Y-13468381D02*
X10491405Y-13325524D01*
X10491405Y-13325524D02*
X10491405Y-13525524D01*
X10672357Y-13525524D02*
X10672357Y-13420762D01*
X10672357Y-13420762D02*
X10662833Y-13401714D01*
X10662833Y-13401714D02*
X10643786Y-13392190D01*
X10643786Y-13392190D02*
X10605690Y-13392190D01*
X10605690Y-13392190D02*
X10586643Y-13401714D01*
X10672357Y-13516000D02*
X10653310Y-13525524D01*
X10653310Y-13525524D02*
X10605690Y-13525524D01*
X10605690Y-13525524D02*
X10586643Y-13516000D01*
X10586643Y-13516000D02*
X10577119Y-13496952D01*
X10577119Y-13496952D02*
X10577119Y-13477905D01*
X10577119Y-13477905D02*
X10586643Y-13458857D01*
X10586643Y-13458857D02*
X10605690Y-13449333D01*
X10605690Y-13449333D02*
X10653310Y-13449333D01*
X10653310Y-13449333D02*
X10672357Y-13439809D01*
X10767595Y-13392190D02*
X10767595Y-13592190D01*
X10767595Y-13401714D02*
X10786643Y-13392190D01*
X10786643Y-13392190D02*
X10824738Y-13392190D01*
X10824738Y-13392190D02*
X10843786Y-13401714D01*
X10843786Y-13401714D02*
X10853310Y-13411238D01*
X10853310Y-13411238D02*
X10862833Y-13430286D01*
X10862833Y-13430286D02*
X10862833Y-13487428D01*
X10862833Y-13487428D02*
X10853310Y-13506476D01*
X10853310Y-13506476D02*
X10843786Y-13516000D01*
X10843786Y-13516000D02*
X10824738Y-13525524D01*
X10824738Y-13525524D02*
X10786643Y-13525524D01*
X10786643Y-13525524D02*
X10767595Y-13516000D01*
X10948548Y-13506476D02*
X10958071Y-13516000D01*
X10958071Y-13516000D02*
X10948548Y-13525524D01*
X10948548Y-13525524D02*
X10939024Y-13516000D01*
X10939024Y-13516000D02*
X10948548Y-13506476D01*
X10948548Y-13506476D02*
X10948548Y-13525524D01*
X10948548Y-13401714D02*
X10958071Y-13411238D01*
X10958071Y-13411238D02*
X10948548Y-13420762D01*
X10948548Y-13420762D02*
X10939024Y-13411238D01*
X10939024Y-13411238D02*
X10948548Y-13401714D01*
X10948548Y-13401714D02*
X10948548Y-13420762D01*
D12*
X9249500Y-13813000D02*
X9329500Y-13893000D01*
X9329500Y-13813000D02*
X9249500Y-13893000D01*
D11*
X9615214Y-13745524D02*
X9634262Y-13745524D01*
X9634262Y-13745524D02*
X9653310Y-13755048D01*
X9653310Y-13755048D02*
X9662833Y-13764571D01*
X9662833Y-13764571D02*
X9672357Y-13783619D01*
X9672357Y-13783619D02*
X9681881Y-13821714D01*
X9681881Y-13821714D02*
X9681881Y-13869333D01*
X9681881Y-13869333D02*
X9672357Y-13907428D01*
X9672357Y-13907428D02*
X9662833Y-13926476D01*
X9662833Y-13926476D02*
X9653310Y-13936000D01*
X9653310Y-13936000D02*
X9634262Y-13945524D01*
X9634262Y-13945524D02*
X9615214Y-13945524D01*
X9615214Y-13945524D02*
X9596167Y-13936000D01*
X9596167Y-13936000D02*
X9586643Y-13926476D01*
X9586643Y-13926476D02*
X9577119Y-13907428D01*
X9577119Y-13907428D02*
X9567595Y-13869333D01*
X9567595Y-13869333D02*
X9567595Y-13821714D01*
X9567595Y-13821714D02*
X9577119Y-13783619D01*
X9577119Y-13783619D02*
X9586643Y-13764571D01*
X9586643Y-13764571D02*
X9596167Y-13755048D01*
X9596167Y-13755048D02*
X9615214Y-13745524D01*
X9767595Y-13926476D02*
X9777119Y-13936000D01*
X9777119Y-13936000D02*
X9767595Y-13945524D01*
X9767595Y-13945524D02*
X9758071Y-13936000D01*
X9758071Y-13936000D02*
X9767595Y-13926476D01*
X9767595Y-13926476D02*
X9767595Y-13945524D01*
X9891405Y-13831238D02*
X9872357Y-13821714D01*
X9872357Y-13821714D02*
X9862833Y-13812190D01*
X9862833Y-13812190D02*
X9853310Y-13793143D01*
X9853310Y-13793143D02*
X9853310Y-13783619D01*
X9853310Y-13783619D02*
X9862833Y-13764571D01*
X9862833Y-13764571D02*
X9872357Y-13755048D01*
X9872357Y-13755048D02*
X9891405Y-13745524D01*
X9891405Y-13745524D02*
X9929500Y-13745524D01*
X9929500Y-13745524D02*
X9948548Y-13755048D01*
X9948548Y-13755048D02*
X9958071Y-13764571D01*
X9958071Y-13764571D02*
X9967595Y-13783619D01*
X9967595Y-13783619D02*
X9967595Y-13793143D01*
X9967595Y-13793143D02*
X9958071Y-13812190D01*
X9958071Y-13812190D02*
X9948548Y-13821714D01*
X9948548Y-13821714D02*
X9929500Y-13831238D01*
X9929500Y-13831238D02*
X9891405Y-13831238D01*
X9891405Y-13831238D02*
X9872357Y-13840762D01*
X9872357Y-13840762D02*
X9862833Y-13850286D01*
X9862833Y-13850286D02*
X9853310Y-13869333D01*
X9853310Y-13869333D02*
X9853310Y-13907428D01*
X9853310Y-13907428D02*
X9862833Y-13926476D01*
X9862833Y-13926476D02*
X9872357Y-13936000D01*
X9872357Y-13936000D02*
X9891405Y-13945524D01*
X9891405Y-13945524D02*
X9929500Y-13945524D01*
X9929500Y-13945524D02*
X9948548Y-13936000D01*
X9948548Y-13936000D02*
X9958071Y-13926476D01*
X9958071Y-13926476D02*
X9967595Y-13907428D01*
X9967595Y-13907428D02*
X9967595Y-13869333D01*
X9967595Y-13869333D02*
X9958071Y-13850286D01*
X9958071Y-13850286D02*
X9948548Y-13840762D01*
X9948548Y-13840762D02*
X9929500Y-13831238D01*
X10091405Y-13745524D02*
X10110452Y-13745524D01*
X10110452Y-13745524D02*
X10129500Y-13755048D01*
X10129500Y-13755048D02*
X10139024Y-13764571D01*
X10139024Y-13764571D02*
X10148548Y-13783619D01*
X10148548Y-13783619D02*
X10158071Y-13821714D01*
X10158071Y-13821714D02*
X10158071Y-13869333D01*
X10158071Y-13869333D02*
X10148548Y-13907428D01*
X10148548Y-13907428D02*
X10139024Y-13926476D01*
X10139024Y-13926476D02*
X10129500Y-13936000D01*
X10129500Y-13936000D02*
X10110452Y-13945524D01*
X10110452Y-13945524D02*
X10091405Y-13945524D01*
X10091405Y-13945524D02*
X10072357Y-13936000D01*
X10072357Y-13936000D02*
X10062833Y-13926476D01*
X10062833Y-13926476D02*
X10053310Y-13907428D01*
X10053310Y-13907428D02*
X10043786Y-13869333D01*
X10043786Y-13869333D02*
X10043786Y-13821714D01*
X10043786Y-13821714D02*
X10053310Y-13783619D01*
X10053310Y-13783619D02*
X10062833Y-13764571D01*
X10062833Y-13764571D02*
X10072357Y-13755048D01*
X10072357Y-13755048D02*
X10091405Y-13745524D01*
X10281881Y-13745524D02*
X10300929Y-13745524D01*
X10300929Y-13745524D02*
X10319976Y-13755048D01*
X10319976Y-13755048D02*
X10329500Y-13764571D01*
X10329500Y-13764571D02*
X10339024Y-13783619D01*
X10339024Y-13783619D02*
X10348548Y-13821714D01*
X10348548Y-13821714D02*
X10348548Y-13869333D01*
X10348548Y-13869333D02*
X10339024Y-13907428D01*
X10339024Y-13907428D02*
X10329500Y-13926476D01*
X10329500Y-13926476D02*
X10319976Y-13936000D01*
X10319976Y-13936000D02*
X10300929Y-13945524D01*
X10300929Y-13945524D02*
X10281881Y-13945524D01*
X10281881Y-13945524D02*
X10262833Y-13936000D01*
X10262833Y-13936000D02*
X10253310Y-13926476D01*
X10253310Y-13926476D02*
X10243786Y-13907428D01*
X10243786Y-13907428D02*
X10234262Y-13869333D01*
X10234262Y-13869333D02*
X10234262Y-13821714D01*
X10234262Y-13821714D02*
X10243786Y-13783619D01*
X10243786Y-13783619D02*
X10253310Y-13764571D01*
X10253310Y-13764571D02*
X10262833Y-13755048D01*
X10262833Y-13755048D02*
X10281881Y-13745524D01*
X10434262Y-13945524D02*
X10434262Y-13812190D01*
X10434262Y-13831238D02*
X10443786Y-13821714D01*
X10443786Y-13821714D02*
X10462833Y-13812190D01*
X10462833Y-13812190D02*
X10491405Y-13812190D01*
X10491405Y-13812190D02*
X10510452Y-13821714D01*
X10510452Y-13821714D02*
X10519976Y-13840762D01*
X10519976Y-13840762D02*
X10519976Y-13945524D01*
X10519976Y-13840762D02*
X10529500Y-13821714D01*
X10529500Y-13821714D02*
X10548548Y-13812190D01*
X10548548Y-13812190D02*
X10577119Y-13812190D01*
X10577119Y-13812190D02*
X10596167Y-13821714D01*
X10596167Y-13821714D02*
X10605691Y-13840762D01*
X10605691Y-13840762D02*
X10605691Y-13945524D01*
X10700929Y-13945524D02*
X10700929Y-13812190D01*
X10700929Y-13831238D02*
X10710452Y-13821714D01*
X10710452Y-13821714D02*
X10729500Y-13812190D01*
X10729500Y-13812190D02*
X10758072Y-13812190D01*
X10758072Y-13812190D02*
X10777119Y-13821714D01*
X10777119Y-13821714D02*
X10786643Y-13840762D01*
X10786643Y-13840762D02*
X10786643Y-13945524D01*
X10786643Y-13840762D02*
X10796167Y-13821714D01*
X10796167Y-13821714D02*
X10815214Y-13812190D01*
X10815214Y-13812190D02*
X10843786Y-13812190D01*
X10843786Y-13812190D02*
X10862833Y-13821714D01*
X10862833Y-13821714D02*
X10872357Y-13840762D01*
X10872357Y-13840762D02*
X10872357Y-13945524D01*
X11262833Y-13736000D02*
X11091405Y-13993143D01*
X11519976Y-13745524D02*
X11539024Y-13745524D01*
X11539024Y-13745524D02*
X11558072Y-13755048D01*
X11558072Y-13755048D02*
X11567595Y-13764571D01*
X11567595Y-13764571D02*
X11577119Y-13783619D01*
X11577119Y-13783619D02*
X11586643Y-13821714D01*
X11586643Y-13821714D02*
X11586643Y-13869333D01*
X11586643Y-13869333D02*
X11577119Y-13907428D01*
X11577119Y-13907428D02*
X11567595Y-13926476D01*
X11567595Y-13926476D02*
X11558072Y-13936000D01*
X11558072Y-13936000D02*
X11539024Y-13945524D01*
X11539024Y-13945524D02*
X11519976Y-13945524D01*
X11519976Y-13945524D02*
X11500929Y-13936000D01*
X11500929Y-13936000D02*
X11491405Y-13926476D01*
X11491405Y-13926476D02*
X11481881Y-13907428D01*
X11481881Y-13907428D02*
X11472357Y-13869333D01*
X11472357Y-13869333D02*
X11472357Y-13821714D01*
X11472357Y-13821714D02*
X11481881Y-13783619D01*
X11481881Y-13783619D02*
X11491405Y-13764571D01*
X11491405Y-13764571D02*
X11500929Y-13755048D01*
X11500929Y-13755048D02*
X11519976Y-13745524D01*
X11672357Y-13926476D02*
X11681881Y-13936000D01*
X11681881Y-13936000D02*
X11672357Y-13945524D01*
X11672357Y-13945524D02*
X11662833Y-13936000D01*
X11662833Y-13936000D02*
X11672357Y-13926476D01*
X11672357Y-13926476D02*
X11672357Y-13945524D01*
X11805691Y-13745524D02*
X11824738Y-13745524D01*
X11824738Y-13745524D02*
X11843786Y-13755048D01*
X11843786Y-13755048D02*
X11853310Y-13764571D01*
X11853310Y-13764571D02*
X11862833Y-13783619D01*
X11862833Y-13783619D02*
X11872357Y-13821714D01*
X11872357Y-13821714D02*
X11872357Y-13869333D01*
X11872357Y-13869333D02*
X11862833Y-13907428D01*
X11862833Y-13907428D02*
X11853310Y-13926476D01*
X11853310Y-13926476D02*
X11843786Y-13936000D01*
X11843786Y-13936000D02*
X11824738Y-13945524D01*
X11824738Y-13945524D02*
X11805691Y-13945524D01*
X11805691Y-13945524D02*
X11786643Y-13936000D01*
X11786643Y-13936000D02*
X11777119Y-13926476D01*
X11777119Y-13926476D02*
X11767595Y-13907428D01*
X11767595Y-13907428D02*
X11758072Y-13869333D01*
X11758072Y-13869333D02*
X11758072Y-13821714D01*
X11758072Y-13821714D02*
X11767595Y-13783619D01*
X11767595Y-13783619D02*
X11777119Y-13764571D01*
X11777119Y-13764571D02*
X11786643Y-13755048D01*
X11786643Y-13755048D02*
X11805691Y-13745524D01*
X11939024Y-13745524D02*
X12062833Y-13745524D01*
X12062833Y-13745524D02*
X11996167Y-13821714D01*
X11996167Y-13821714D02*
X12024738Y-13821714D01*
X12024738Y-13821714D02*
X12043786Y-13831238D01*
X12043786Y-13831238D02*
X12053310Y-13840762D01*
X12053310Y-13840762D02*
X12062833Y-13859809D01*
X12062833Y-13859809D02*
X12062833Y-13907428D01*
X12062833Y-13907428D02*
X12053310Y-13926476D01*
X12053310Y-13926476D02*
X12043786Y-13936000D01*
X12043786Y-13936000D02*
X12024738Y-13945524D01*
X12024738Y-13945524D02*
X11967595Y-13945524D01*
X11967595Y-13945524D02*
X11948548Y-13936000D01*
X11948548Y-13936000D02*
X11939024Y-13926476D01*
X12253310Y-13945524D02*
X12139024Y-13945524D01*
X12196167Y-13945524D02*
X12196167Y-13745524D01*
X12196167Y-13745524D02*
X12177119Y-13774095D01*
X12177119Y-13774095D02*
X12158072Y-13793143D01*
X12158072Y-13793143D02*
X12139024Y-13802667D01*
X12434262Y-13745524D02*
X12339024Y-13745524D01*
X12339024Y-13745524D02*
X12329500Y-13840762D01*
X12329500Y-13840762D02*
X12339024Y-13831238D01*
X12339024Y-13831238D02*
X12358072Y-13821714D01*
X12358072Y-13821714D02*
X12405691Y-13821714D01*
X12405691Y-13821714D02*
X12424738Y-13831238D01*
X12424738Y-13831238D02*
X12434262Y-13840762D01*
X12434262Y-13840762D02*
X12443786Y-13859809D01*
X12443786Y-13859809D02*
X12443786Y-13907428D01*
X12443786Y-13907428D02*
X12434262Y-13926476D01*
X12434262Y-13926476D02*
X12424738Y-13936000D01*
X12424738Y-13936000D02*
X12405691Y-13945524D01*
X12405691Y-13945524D02*
X12358072Y-13945524D01*
X12358072Y-13945524D02*
X12339024Y-13936000D01*
X12339024Y-13936000D02*
X12329500Y-13926476D01*
X12519976Y-13745524D02*
X12519976Y-13783619D01*
X12596167Y-13745524D02*
X12596167Y-13783619D01*
X12891405Y-14021714D02*
X12881881Y-14012190D01*
X12881881Y-14012190D02*
X12862834Y-13983619D01*
X12862834Y-13983619D02*
X12853310Y-13964571D01*
X12853310Y-13964571D02*
X12843786Y-13936000D01*
X12843786Y-13936000D02*
X12834262Y-13888381D01*
X12834262Y-13888381D02*
X12834262Y-13850286D01*
X12834262Y-13850286D02*
X12843786Y-13802667D01*
X12843786Y-13802667D02*
X12853310Y-13774095D01*
X12853310Y-13774095D02*
X12862834Y-13755048D01*
X12862834Y-13755048D02*
X12881881Y-13726476D01*
X12881881Y-13726476D02*
X12891405Y-13716952D01*
X12977119Y-13945524D02*
X13015214Y-13945524D01*
X13015214Y-13945524D02*
X13034262Y-13936000D01*
X13034262Y-13936000D02*
X13043786Y-13926476D01*
X13043786Y-13926476D02*
X13062834Y-13897905D01*
X13062834Y-13897905D02*
X13072357Y-13859809D01*
X13072357Y-13859809D02*
X13072357Y-13783619D01*
X13072357Y-13783619D02*
X13062834Y-13764571D01*
X13062834Y-13764571D02*
X13053310Y-13755048D01*
X13053310Y-13755048D02*
X13034262Y-13745524D01*
X13034262Y-13745524D02*
X12996167Y-13745524D01*
X12996167Y-13745524D02*
X12977119Y-13755048D01*
X12977119Y-13755048D02*
X12967595Y-13764571D01*
X12967595Y-13764571D02*
X12958072Y-13783619D01*
X12958072Y-13783619D02*
X12958072Y-13831238D01*
X12958072Y-13831238D02*
X12967595Y-13850286D01*
X12967595Y-13850286D02*
X12977119Y-13859809D01*
X12977119Y-13859809D02*
X12996167Y-13869333D01*
X12996167Y-13869333D02*
X13034262Y-13869333D01*
X13034262Y-13869333D02*
X13053310Y-13859809D01*
X13053310Y-13859809D02*
X13062834Y-13850286D01*
X13062834Y-13850286D02*
X13072357Y-13831238D01*
X13148548Y-13764571D02*
X13158072Y-13755048D01*
X13158072Y-13755048D02*
X13177119Y-13745524D01*
X13177119Y-13745524D02*
X13224738Y-13745524D01*
X13224738Y-13745524D02*
X13243786Y-13755048D01*
X13243786Y-13755048D02*
X13253310Y-13764571D01*
X13253310Y-13764571D02*
X13262834Y-13783619D01*
X13262834Y-13783619D02*
X13262834Y-13802667D01*
X13262834Y-13802667D02*
X13253310Y-13831238D01*
X13253310Y-13831238D02*
X13139024Y-13945524D01*
X13139024Y-13945524D02*
X13262834Y-13945524D01*
X13500929Y-13945524D02*
X13500929Y-13745524D01*
X13586643Y-13945524D02*
X13586643Y-13840762D01*
X13586643Y-13840762D02*
X13577119Y-13821714D01*
X13577119Y-13821714D02*
X13558072Y-13812190D01*
X13558072Y-13812190D02*
X13529500Y-13812190D01*
X13529500Y-13812190D02*
X13510453Y-13821714D01*
X13510453Y-13821714D02*
X13500929Y-13831238D01*
X13710453Y-13945524D02*
X13691405Y-13936000D01*
X13691405Y-13936000D02*
X13681881Y-13926476D01*
X13681881Y-13926476D02*
X13672357Y-13907428D01*
X13672357Y-13907428D02*
X13672357Y-13850286D01*
X13672357Y-13850286D02*
X13681881Y-13831238D01*
X13681881Y-13831238D02*
X13691405Y-13821714D01*
X13691405Y-13821714D02*
X13710453Y-13812190D01*
X13710453Y-13812190D02*
X13739024Y-13812190D01*
X13739024Y-13812190D02*
X13758072Y-13821714D01*
X13758072Y-13821714D02*
X13767596Y-13831238D01*
X13767596Y-13831238D02*
X13777119Y-13850286D01*
X13777119Y-13850286D02*
X13777119Y-13907428D01*
X13777119Y-13907428D02*
X13767596Y-13926476D01*
X13767596Y-13926476D02*
X13758072Y-13936000D01*
X13758072Y-13936000D02*
X13739024Y-13945524D01*
X13739024Y-13945524D02*
X13710453Y-13945524D01*
X13891405Y-13945524D02*
X13872357Y-13936000D01*
X13872357Y-13936000D02*
X13862834Y-13916952D01*
X13862834Y-13916952D02*
X13862834Y-13745524D01*
X14043786Y-13936000D02*
X14024738Y-13945524D01*
X14024738Y-13945524D02*
X13986643Y-13945524D01*
X13986643Y-13945524D02*
X13967596Y-13936000D01*
X13967596Y-13936000D02*
X13958072Y-13916952D01*
X13958072Y-13916952D02*
X13958072Y-13840762D01*
X13958072Y-13840762D02*
X13967596Y-13821714D01*
X13967596Y-13821714D02*
X13986643Y-13812190D01*
X13986643Y-13812190D02*
X14024738Y-13812190D01*
X14024738Y-13812190D02*
X14043786Y-13821714D01*
X14043786Y-13821714D02*
X14053310Y-13840762D01*
X14053310Y-13840762D02*
X14053310Y-13859809D01*
X14053310Y-13859809D02*
X13958072Y-13878857D01*
X14129500Y-13936000D02*
X14148548Y-13945524D01*
X14148548Y-13945524D02*
X14186643Y-13945524D01*
X14186643Y-13945524D02*
X14205691Y-13936000D01*
X14205691Y-13936000D02*
X14215215Y-13916952D01*
X14215215Y-13916952D02*
X14215215Y-13907428D01*
X14215215Y-13907428D02*
X14205691Y-13888381D01*
X14205691Y-13888381D02*
X14186643Y-13878857D01*
X14186643Y-13878857D02*
X14158072Y-13878857D01*
X14158072Y-13878857D02*
X14139024Y-13869333D01*
X14139024Y-13869333D02*
X14129500Y-13850286D01*
X14129500Y-13850286D02*
X14129500Y-13840762D01*
X14129500Y-13840762D02*
X14139024Y-13821714D01*
X14139024Y-13821714D02*
X14158072Y-13812190D01*
X14158072Y-13812190D02*
X14186643Y-13812190D01*
X14186643Y-13812190D02*
X14205691Y-13821714D01*
X14281881Y-14021714D02*
X14291405Y-14012190D01*
X14291405Y-14012190D02*
X14310453Y-13983619D01*
X14310453Y-13983619D02*
X14319977Y-13964571D01*
X14319977Y-13964571D02*
X14329500Y-13936000D01*
X14329500Y-13936000D02*
X14339024Y-13888381D01*
X14339024Y-13888381D02*
X14339024Y-13850286D01*
X14339024Y-13850286D02*
X14329500Y-13802667D01*
X14329500Y-13802667D02*
X14319977Y-13774095D01*
X14319977Y-13774095D02*
X14310453Y-13755048D01*
X14310453Y-13755048D02*
X14291405Y-13726476D01*
X14291405Y-13726476D02*
X14281881Y-13716952D01*
D10*
X9329500Y-14117000D02*
G75*
G03*
X9329500Y-14117000I-50000J0D01*
G01*
D11*
X9681881Y-14209524D02*
X9567595Y-14209524D01*
X9624738Y-14209524D02*
X9624738Y-14009524D01*
X9624738Y-14009524D02*
X9605690Y-14038095D01*
X9605690Y-14038095D02*
X9586643Y-14057143D01*
X9586643Y-14057143D02*
X9567595Y-14066667D01*
X9767595Y-14190476D02*
X9777119Y-14200000D01*
X9777119Y-14200000D02*
X9767595Y-14209524D01*
X9767595Y-14209524D02*
X9758071Y-14200000D01*
X9758071Y-14200000D02*
X9767595Y-14190476D01*
X9767595Y-14190476D02*
X9767595Y-14209524D01*
X9900929Y-14009524D02*
X9919976Y-14009524D01*
X9919976Y-14009524D02*
X9939024Y-14019048D01*
X9939024Y-14019048D02*
X9948548Y-14028571D01*
X9948548Y-14028571D02*
X9958071Y-14047619D01*
X9958071Y-14047619D02*
X9967595Y-14085714D01*
X9967595Y-14085714D02*
X9967595Y-14133333D01*
X9967595Y-14133333D02*
X9958071Y-14171428D01*
X9958071Y-14171428D02*
X9948548Y-14190476D01*
X9948548Y-14190476D02*
X9939024Y-14200000D01*
X9939024Y-14200000D02*
X9919976Y-14209524D01*
X9919976Y-14209524D02*
X9900929Y-14209524D01*
X9900929Y-14209524D02*
X9881881Y-14200000D01*
X9881881Y-14200000D02*
X9872357Y-14190476D01*
X9872357Y-14190476D02*
X9862833Y-14171428D01*
X9862833Y-14171428D02*
X9853310Y-14133333D01*
X9853310Y-14133333D02*
X9853310Y-14085714D01*
X9853310Y-14085714D02*
X9862833Y-14047619D01*
X9862833Y-14047619D02*
X9872357Y-14028571D01*
X9872357Y-14028571D02*
X9881881Y-14019048D01*
X9881881Y-14019048D02*
X9900929Y-14009524D01*
X10091405Y-14009524D02*
X10110452Y-14009524D01*
X10110452Y-14009524D02*
X10129500Y-14019048D01*
X10129500Y-14019048D02*
X10139024Y-14028571D01*
X10139024Y-14028571D02*
X10148548Y-14047619D01*
X10148548Y-14047619D02*
X10158071Y-14085714D01*
X10158071Y-14085714D02*
X10158071Y-14133333D01*
X10158071Y-14133333D02*
X10148548Y-14171428D01*
X10148548Y-14171428D02*
X10139024Y-14190476D01*
X10139024Y-14190476D02*
X10129500Y-14200000D01*
X10129500Y-14200000D02*
X10110452Y-14209524D01*
X10110452Y-14209524D02*
X10091405Y-14209524D01*
X10091405Y-14209524D02*
X10072357Y-14200000D01*
X10072357Y-14200000D02*
X10062833Y-14190476D01*
X10062833Y-14190476D02*
X10053310Y-14171428D01*
X10053310Y-14171428D02*
X10043786Y-14133333D01*
X10043786Y-14133333D02*
X10043786Y-14085714D01*
X10043786Y-14085714D02*
X10053310Y-14047619D01*
X10053310Y-14047619D02*
X10062833Y-14028571D01*
X10062833Y-14028571D02*
X10072357Y-14019048D01*
X10072357Y-14019048D02*
X10091405Y-14009524D01*
X10281881Y-14009524D02*
X10300929Y-14009524D01*
X10300929Y-14009524D02*
X10319976Y-14019048D01*
X10319976Y-14019048D02*
X10329500Y-14028571D01*
X10329500Y-14028571D02*
X10339024Y-14047619D01*
X10339024Y-14047619D02*
X10348548Y-14085714D01*
X10348548Y-14085714D02*
X10348548Y-14133333D01*
X10348548Y-14133333D02*
X10339024Y-14171428D01*
X10339024Y-14171428D02*
X10329500Y-14190476D01*
X10329500Y-14190476D02*
X10319976Y-14200000D01*
X10319976Y-14200000D02*
X10300929Y-14209524D01*
X10300929Y-14209524D02*
X10281881Y-14209524D01*
X10281881Y-14209524D02*
X10262833Y-14200000D01*
X10262833Y-14200000D02*
X10253310Y-14190476D01*
X10253310Y-14190476D02*
X10243786Y-14171428D01*
X10243786Y-14171428D02*
X10234262Y-14133333D01*
X10234262Y-14133333D02*
X10234262Y-14085714D01*
X10234262Y-14085714D02*
X10243786Y-14047619D01*
X10243786Y-14047619D02*
X10253310Y-14028571D01*
X10253310Y-14028571D02*
X10262833Y-14019048D01*
X10262833Y-14019048D02*
X10281881Y-14009524D01*
X10434262Y-14209524D02*
X10434262Y-14076190D01*
X10434262Y-14095238D02*
X10443786Y-14085714D01*
X10443786Y-14085714D02*
X10462833Y-14076190D01*
X10462833Y-14076190D02*
X10491405Y-14076190D01*
X10491405Y-14076190D02*
X10510452Y-14085714D01*
X10510452Y-14085714D02*
X10519976Y-14104762D01*
X10519976Y-14104762D02*
X10519976Y-14209524D01*
X10519976Y-14104762D02*
X10529500Y-14085714D01*
X10529500Y-14085714D02*
X10548548Y-14076190D01*
X10548548Y-14076190D02*
X10577119Y-14076190D01*
X10577119Y-14076190D02*
X10596167Y-14085714D01*
X10596167Y-14085714D02*
X10605691Y-14104762D01*
X10605691Y-14104762D02*
X10605691Y-14209524D01*
X10700929Y-14209524D02*
X10700929Y-14076190D01*
X10700929Y-14095238D02*
X10710452Y-14085714D01*
X10710452Y-14085714D02*
X10729500Y-14076190D01*
X10729500Y-14076190D02*
X10758072Y-14076190D01*
X10758072Y-14076190D02*
X10777119Y-14085714D01*
X10777119Y-14085714D02*
X10786643Y-14104762D01*
X10786643Y-14104762D02*
X10786643Y-14209524D01*
X10786643Y-14104762D02*
X10796167Y-14085714D01*
X10796167Y-14085714D02*
X10815214Y-14076190D01*
X10815214Y-14076190D02*
X10843786Y-14076190D01*
X10843786Y-14076190D02*
X10862833Y-14085714D01*
X10862833Y-14085714D02*
X10872357Y-14104762D01*
X10872357Y-14104762D02*
X10872357Y-14209524D01*
X11262833Y-14000000D02*
X11091405Y-14257143D01*
X11519976Y-14009524D02*
X11539024Y-14009524D01*
X11539024Y-14009524D02*
X11558072Y-14019048D01*
X11558072Y-14019048D02*
X11567595Y-14028571D01*
X11567595Y-14028571D02*
X11577119Y-14047619D01*
X11577119Y-14047619D02*
X11586643Y-14085714D01*
X11586643Y-14085714D02*
X11586643Y-14133333D01*
X11586643Y-14133333D02*
X11577119Y-14171428D01*
X11577119Y-14171428D02*
X11567595Y-14190476D01*
X11567595Y-14190476D02*
X11558072Y-14200000D01*
X11558072Y-14200000D02*
X11539024Y-14209524D01*
X11539024Y-14209524D02*
X11519976Y-14209524D01*
X11519976Y-14209524D02*
X11500929Y-14200000D01*
X11500929Y-14200000D02*
X11491405Y-14190476D01*
X11491405Y-14190476D02*
X11481881Y-14171428D01*
X11481881Y-14171428D02*
X11472357Y-14133333D01*
X11472357Y-14133333D02*
X11472357Y-14085714D01*
X11472357Y-14085714D02*
X11481881Y-14047619D01*
X11481881Y-14047619D02*
X11491405Y-14028571D01*
X11491405Y-14028571D02*
X11500929Y-14019048D01*
X11500929Y-14019048D02*
X11519976Y-14009524D01*
X11672357Y-14190476D02*
X11681881Y-14200000D01*
X11681881Y-14200000D02*
X11672357Y-14209524D01*
X11672357Y-14209524D02*
X11662833Y-14200000D01*
X11662833Y-14200000D02*
X11672357Y-14190476D01*
X11672357Y-14190476D02*
X11672357Y-14209524D01*
X11805691Y-14009524D02*
X11824738Y-14009524D01*
X11824738Y-14009524D02*
X11843786Y-14019048D01*
X11843786Y-14019048D02*
X11853310Y-14028571D01*
X11853310Y-14028571D02*
X11862833Y-14047619D01*
X11862833Y-14047619D02*
X11872357Y-14085714D01*
X11872357Y-14085714D02*
X11872357Y-14133333D01*
X11872357Y-14133333D02*
X11862833Y-14171428D01*
X11862833Y-14171428D02*
X11853310Y-14190476D01*
X11853310Y-14190476D02*
X11843786Y-14200000D01*
X11843786Y-14200000D02*
X11824738Y-14209524D01*
X11824738Y-14209524D02*
X11805691Y-14209524D01*
X11805691Y-14209524D02*
X11786643Y-14200000D01*
X11786643Y-14200000D02*
X11777119Y-14190476D01*
X11777119Y-14190476D02*
X11767595Y-14171428D01*
X11767595Y-14171428D02*
X11758072Y-14133333D01*
X11758072Y-14133333D02*
X11758072Y-14085714D01*
X11758072Y-14085714D02*
X11767595Y-14047619D01*
X11767595Y-14047619D02*
X11777119Y-14028571D01*
X11777119Y-14028571D02*
X11786643Y-14019048D01*
X11786643Y-14019048D02*
X11805691Y-14009524D01*
X11939024Y-14009524D02*
X12062833Y-14009524D01*
X12062833Y-14009524D02*
X11996167Y-14085714D01*
X11996167Y-14085714D02*
X12024738Y-14085714D01*
X12024738Y-14085714D02*
X12043786Y-14095238D01*
X12043786Y-14095238D02*
X12053310Y-14104762D01*
X12053310Y-14104762D02*
X12062833Y-14123809D01*
X12062833Y-14123809D02*
X12062833Y-14171428D01*
X12062833Y-14171428D02*
X12053310Y-14190476D01*
X12053310Y-14190476D02*
X12043786Y-14200000D01*
X12043786Y-14200000D02*
X12024738Y-14209524D01*
X12024738Y-14209524D02*
X11967595Y-14209524D01*
X11967595Y-14209524D02*
X11948548Y-14200000D01*
X11948548Y-14200000D02*
X11939024Y-14190476D01*
X12158072Y-14209524D02*
X12196167Y-14209524D01*
X12196167Y-14209524D02*
X12215214Y-14200000D01*
X12215214Y-14200000D02*
X12224738Y-14190476D01*
X12224738Y-14190476D02*
X12243786Y-14161905D01*
X12243786Y-14161905D02*
X12253310Y-14123809D01*
X12253310Y-14123809D02*
X12253310Y-14047619D01*
X12253310Y-14047619D02*
X12243786Y-14028571D01*
X12243786Y-14028571D02*
X12234262Y-14019048D01*
X12234262Y-14019048D02*
X12215214Y-14009524D01*
X12215214Y-14009524D02*
X12177119Y-14009524D01*
X12177119Y-14009524D02*
X12158072Y-14019048D01*
X12158072Y-14019048D02*
X12148548Y-14028571D01*
X12148548Y-14028571D02*
X12139024Y-14047619D01*
X12139024Y-14047619D02*
X12139024Y-14095238D01*
X12139024Y-14095238D02*
X12148548Y-14114286D01*
X12148548Y-14114286D02*
X12158072Y-14123809D01*
X12158072Y-14123809D02*
X12177119Y-14133333D01*
X12177119Y-14133333D02*
X12215214Y-14133333D01*
X12215214Y-14133333D02*
X12234262Y-14123809D01*
X12234262Y-14123809D02*
X12243786Y-14114286D01*
X12243786Y-14114286D02*
X12253310Y-14095238D01*
X12424738Y-14076190D02*
X12424738Y-14209524D01*
X12377119Y-14000000D02*
X12329500Y-14142857D01*
X12329500Y-14142857D02*
X12453310Y-14142857D01*
X12519976Y-14009524D02*
X12519976Y-14047619D01*
X12596167Y-14009524D02*
X12596167Y-14047619D01*
X12891405Y-14285714D02*
X12881881Y-14276190D01*
X12881881Y-14276190D02*
X12862834Y-14247619D01*
X12862834Y-14247619D02*
X12853310Y-14228571D01*
X12853310Y-14228571D02*
X12843786Y-14200000D01*
X12843786Y-14200000D02*
X12834262Y-14152381D01*
X12834262Y-14152381D02*
X12834262Y-14114286D01*
X12834262Y-14114286D02*
X12843786Y-14066667D01*
X12843786Y-14066667D02*
X12853310Y-14038095D01*
X12853310Y-14038095D02*
X12862834Y-14019048D01*
X12862834Y-14019048D02*
X12881881Y-13990476D01*
X12881881Y-13990476D02*
X12891405Y-13980952D01*
X13072357Y-14209524D02*
X12958072Y-14209524D01*
X13015214Y-14209524D02*
X13015214Y-14009524D01*
X13015214Y-14009524D02*
X12996167Y-14038095D01*
X12996167Y-14038095D02*
X12977119Y-14057143D01*
X12977119Y-14057143D02*
X12958072Y-14066667D01*
X13139024Y-14009524D02*
X13262834Y-14009524D01*
X13262834Y-14009524D02*
X13196167Y-14085714D01*
X13196167Y-14085714D02*
X13224738Y-14085714D01*
X13224738Y-14085714D02*
X13243786Y-14095238D01*
X13243786Y-14095238D02*
X13253310Y-14104762D01*
X13253310Y-14104762D02*
X13262834Y-14123809D01*
X13262834Y-14123809D02*
X13262834Y-14171428D01*
X13262834Y-14171428D02*
X13253310Y-14190476D01*
X13253310Y-14190476D02*
X13243786Y-14200000D01*
X13243786Y-14200000D02*
X13224738Y-14209524D01*
X13224738Y-14209524D02*
X13167595Y-14209524D01*
X13167595Y-14209524D02*
X13148548Y-14200000D01*
X13148548Y-14200000D02*
X13139024Y-14190476D01*
X13500929Y-14209524D02*
X13500929Y-14009524D01*
X13586643Y-14209524D02*
X13586643Y-14104762D01*
X13586643Y-14104762D02*
X13577119Y-14085714D01*
X13577119Y-14085714D02*
X13558072Y-14076190D01*
X13558072Y-14076190D02*
X13529500Y-14076190D01*
X13529500Y-14076190D02*
X13510453Y-14085714D01*
X13510453Y-14085714D02*
X13500929Y-14095238D01*
X13710453Y-14209524D02*
X13691405Y-14200000D01*
X13691405Y-14200000D02*
X13681881Y-14190476D01*
X13681881Y-14190476D02*
X13672357Y-14171428D01*
X13672357Y-14171428D02*
X13672357Y-14114286D01*
X13672357Y-14114286D02*
X13681881Y-14095238D01*
X13681881Y-14095238D02*
X13691405Y-14085714D01*
X13691405Y-14085714D02*
X13710453Y-14076190D01*
X13710453Y-14076190D02*
X13739024Y-14076190D01*
X13739024Y-14076190D02*
X13758072Y-14085714D01*
X13758072Y-14085714D02*
X13767596Y-14095238D01*
X13767596Y-14095238D02*
X13777119Y-14114286D01*
X13777119Y-14114286D02*
X13777119Y-14171428D01*
X13777119Y-14171428D02*
X13767596Y-14190476D01*
X13767596Y-14190476D02*
X13758072Y-14200000D01*
X13758072Y-14200000D02*
X13739024Y-14209524D01*
X13739024Y-14209524D02*
X13710453Y-14209524D01*
X13891405Y-14209524D02*
X13872357Y-14200000D01*
X13872357Y-14200000D02*
X13862834Y-14180952D01*
X13862834Y-14180952D02*
X13862834Y-14009524D01*
X14043786Y-14200000D02*
X14024738Y-14209524D01*
X14024738Y-14209524D02*
X13986643Y-14209524D01*
X13986643Y-14209524D02*
X13967596Y-14200000D01*
X13967596Y-14200000D02*
X13958072Y-14180952D01*
X13958072Y-14180952D02*
X13958072Y-14104762D01*
X13958072Y-14104762D02*
X13967596Y-14085714D01*
X13967596Y-14085714D02*
X13986643Y-14076190D01*
X13986643Y-14076190D02*
X14024738Y-14076190D01*
X14024738Y-14076190D02*
X14043786Y-14085714D01*
X14043786Y-14085714D02*
X14053310Y-14104762D01*
X14053310Y-14104762D02*
X14053310Y-14123809D01*
X14053310Y-14123809D02*
X13958072Y-14142857D01*
X14129500Y-14200000D02*
X14148548Y-14209524D01*
X14148548Y-14209524D02*
X14186643Y-14209524D01*
X14186643Y-14209524D02*
X14205691Y-14200000D01*
X14205691Y-14200000D02*
X14215215Y-14180952D01*
X14215215Y-14180952D02*
X14215215Y-14171428D01*
X14215215Y-14171428D02*
X14205691Y-14152381D01*
X14205691Y-14152381D02*
X14186643Y-14142857D01*
X14186643Y-14142857D02*
X14158072Y-14142857D01*
X14158072Y-14142857D02*
X14139024Y-14133333D01*
X14139024Y-14133333D02*
X14129500Y-14114286D01*
X14129500Y-14114286D02*
X14129500Y-14104762D01*
X14129500Y-14104762D02*
X14139024Y-14085714D01*
X14139024Y-14085714D02*
X14158072Y-14076190D01*
X14158072Y-14076190D02*
X14186643Y-14076190D01*
X14186643Y-14076190D02*
X14205691Y-14085714D01*
X14281881Y-14285714D02*
X14291405Y-14276190D01*
X14291405Y-14276190D02*
X14310453Y-14247619D01*
X14310453Y-14247619D02*
X14319977Y-14228571D01*
X14319977Y-14228571D02*
X14329500Y-14200000D01*
X14329500Y-14200000D02*
X14339024Y-14152381D01*
X14339024Y-14152381D02*
X14339024Y-14114286D01*
X14339024Y-14114286D02*
X14329500Y-14066667D01*
X14329500Y-14066667D02*
X14319977Y-14038095D01*
X14319977Y-14038095D02*
X14310453Y-14019048D01*
X14310453Y-14019048D02*
X14291405Y-13990476D01*
X14291405Y-13990476D02*
X14281881Y-13980952D01*
D13*
X9274500Y-14326000D02*
X9274500Y-14436000D01*
X9219500Y-14381000D02*
X9329500Y-14381000D01*
D11*
X9681881Y-14473524D02*
X9567595Y-14473524D01*
X9624738Y-14473524D02*
X9624738Y-14273524D01*
X9624738Y-14273524D02*
X9605690Y-14302095D01*
X9605690Y-14302095D02*
X9586643Y-14321143D01*
X9586643Y-14321143D02*
X9567595Y-14330667D01*
X9767595Y-14454476D02*
X9777119Y-14464000D01*
X9777119Y-14464000D02*
X9767595Y-14473524D01*
X9767595Y-14473524D02*
X9758071Y-14464000D01*
X9758071Y-14464000D02*
X9767595Y-14454476D01*
X9767595Y-14454476D02*
X9767595Y-14473524D01*
X9967595Y-14473524D02*
X9853310Y-14473524D01*
X9910452Y-14473524D02*
X9910452Y-14273524D01*
X9910452Y-14273524D02*
X9891405Y-14302095D01*
X9891405Y-14302095D02*
X9872357Y-14321143D01*
X9872357Y-14321143D02*
X9853310Y-14330667D01*
X10091405Y-14273524D02*
X10110452Y-14273524D01*
X10110452Y-14273524D02*
X10129500Y-14283048D01*
X10129500Y-14283048D02*
X10139024Y-14292571D01*
X10139024Y-14292571D02*
X10148548Y-14311619D01*
X10148548Y-14311619D02*
X10158071Y-14349714D01*
X10158071Y-14349714D02*
X10158071Y-14397333D01*
X10158071Y-14397333D02*
X10148548Y-14435428D01*
X10148548Y-14435428D02*
X10139024Y-14454476D01*
X10139024Y-14454476D02*
X10129500Y-14464000D01*
X10129500Y-14464000D02*
X10110452Y-14473524D01*
X10110452Y-14473524D02*
X10091405Y-14473524D01*
X10091405Y-14473524D02*
X10072357Y-14464000D01*
X10072357Y-14464000D02*
X10062833Y-14454476D01*
X10062833Y-14454476D02*
X10053310Y-14435428D01*
X10053310Y-14435428D02*
X10043786Y-14397333D01*
X10043786Y-14397333D02*
X10043786Y-14349714D01*
X10043786Y-14349714D02*
X10053310Y-14311619D01*
X10053310Y-14311619D02*
X10062833Y-14292571D01*
X10062833Y-14292571D02*
X10072357Y-14283048D01*
X10072357Y-14283048D02*
X10091405Y-14273524D01*
X10281881Y-14273524D02*
X10300929Y-14273524D01*
X10300929Y-14273524D02*
X10319976Y-14283048D01*
X10319976Y-14283048D02*
X10329500Y-14292571D01*
X10329500Y-14292571D02*
X10339024Y-14311619D01*
X10339024Y-14311619D02*
X10348548Y-14349714D01*
X10348548Y-14349714D02*
X10348548Y-14397333D01*
X10348548Y-14397333D02*
X10339024Y-14435428D01*
X10339024Y-14435428D02*
X10329500Y-14454476D01*
X10329500Y-14454476D02*
X10319976Y-14464000D01*
X10319976Y-14464000D02*
X10300929Y-14473524D01*
X10300929Y-14473524D02*
X10281881Y-14473524D01*
X10281881Y-14473524D02*
X10262833Y-14464000D01*
X10262833Y-14464000D02*
X10253310Y-14454476D01*
X10253310Y-14454476D02*
X10243786Y-14435428D01*
X10243786Y-14435428D02*
X10234262Y-14397333D01*
X10234262Y-14397333D02*
X10234262Y-14349714D01*
X10234262Y-14349714D02*
X10243786Y-14311619D01*
X10243786Y-14311619D02*
X10253310Y-14292571D01*
X10253310Y-14292571D02*
X10262833Y-14283048D01*
X10262833Y-14283048D02*
X10281881Y-14273524D01*
X10434262Y-14473524D02*
X10434262Y-14340190D01*
X10434262Y-14359238D02*
X10443786Y-14349714D01*
X10443786Y-14349714D02*
X10462833Y-14340190D01*
X10462833Y-14340190D02*
X10491405Y-14340190D01*
X10491405Y-14340190D02*
X10510452Y-14349714D01*
X10510452Y-14349714D02*
X10519976Y-14368762D01*
X10519976Y-14368762D02*
X10519976Y-14473524D01*
X10519976Y-14368762D02*
X10529500Y-14349714D01*
X10529500Y-14349714D02*
X10548548Y-14340190D01*
X10548548Y-14340190D02*
X10577119Y-14340190D01*
X10577119Y-14340190D02*
X10596167Y-14349714D01*
X10596167Y-14349714D02*
X10605691Y-14368762D01*
X10605691Y-14368762D02*
X10605691Y-14473524D01*
X10700929Y-14473524D02*
X10700929Y-14340190D01*
X10700929Y-14359238D02*
X10710452Y-14349714D01*
X10710452Y-14349714D02*
X10729500Y-14340190D01*
X10729500Y-14340190D02*
X10758072Y-14340190D01*
X10758072Y-14340190D02*
X10777119Y-14349714D01*
X10777119Y-14349714D02*
X10786643Y-14368762D01*
X10786643Y-14368762D02*
X10786643Y-14473524D01*
X10786643Y-14368762D02*
X10796167Y-14349714D01*
X10796167Y-14349714D02*
X10815214Y-14340190D01*
X10815214Y-14340190D02*
X10843786Y-14340190D01*
X10843786Y-14340190D02*
X10862833Y-14349714D01*
X10862833Y-14349714D02*
X10872357Y-14368762D01*
X10872357Y-14368762D02*
X10872357Y-14473524D01*
X11262833Y-14264000D02*
X11091405Y-14521143D01*
X11519976Y-14273524D02*
X11539024Y-14273524D01*
X11539024Y-14273524D02*
X11558072Y-14283048D01*
X11558072Y-14283048D02*
X11567595Y-14292571D01*
X11567595Y-14292571D02*
X11577119Y-14311619D01*
X11577119Y-14311619D02*
X11586643Y-14349714D01*
X11586643Y-14349714D02*
X11586643Y-14397333D01*
X11586643Y-14397333D02*
X11577119Y-14435428D01*
X11577119Y-14435428D02*
X11567595Y-14454476D01*
X11567595Y-14454476D02*
X11558072Y-14464000D01*
X11558072Y-14464000D02*
X11539024Y-14473524D01*
X11539024Y-14473524D02*
X11519976Y-14473524D01*
X11519976Y-14473524D02*
X11500929Y-14464000D01*
X11500929Y-14464000D02*
X11491405Y-14454476D01*
X11491405Y-14454476D02*
X11481881Y-14435428D01*
X11481881Y-14435428D02*
X11472357Y-14397333D01*
X11472357Y-14397333D02*
X11472357Y-14349714D01*
X11472357Y-14349714D02*
X11481881Y-14311619D01*
X11481881Y-14311619D02*
X11491405Y-14292571D01*
X11491405Y-14292571D02*
X11500929Y-14283048D01*
X11500929Y-14283048D02*
X11519976Y-14273524D01*
X11672357Y-14454476D02*
X11681881Y-14464000D01*
X11681881Y-14464000D02*
X11672357Y-14473524D01*
X11672357Y-14473524D02*
X11662833Y-14464000D01*
X11662833Y-14464000D02*
X11672357Y-14454476D01*
X11672357Y-14454476D02*
X11672357Y-14473524D01*
X11805691Y-14273524D02*
X11824738Y-14273524D01*
X11824738Y-14273524D02*
X11843786Y-14283048D01*
X11843786Y-14283048D02*
X11853310Y-14292571D01*
X11853310Y-14292571D02*
X11862833Y-14311619D01*
X11862833Y-14311619D02*
X11872357Y-14349714D01*
X11872357Y-14349714D02*
X11872357Y-14397333D01*
X11872357Y-14397333D02*
X11862833Y-14435428D01*
X11862833Y-14435428D02*
X11853310Y-14454476D01*
X11853310Y-14454476D02*
X11843786Y-14464000D01*
X11843786Y-14464000D02*
X11824738Y-14473524D01*
X11824738Y-14473524D02*
X11805691Y-14473524D01*
X11805691Y-14473524D02*
X11786643Y-14464000D01*
X11786643Y-14464000D02*
X11777119Y-14454476D01*
X11777119Y-14454476D02*
X11767595Y-14435428D01*
X11767595Y-14435428D02*
X11758072Y-14397333D01*
X11758072Y-14397333D02*
X11758072Y-14349714D01*
X11758072Y-14349714D02*
X11767595Y-14311619D01*
X11767595Y-14311619D02*
X11777119Y-14292571D01*
X11777119Y-14292571D02*
X11786643Y-14283048D01*
X11786643Y-14283048D02*
X11805691Y-14273524D01*
X12043786Y-14340190D02*
X12043786Y-14473524D01*
X11996167Y-14264000D02*
X11948548Y-14406857D01*
X11948548Y-14406857D02*
X12072357Y-14406857D01*
X12129500Y-14273524D02*
X12253310Y-14273524D01*
X12253310Y-14273524D02*
X12186643Y-14349714D01*
X12186643Y-14349714D02*
X12215214Y-14349714D01*
X12215214Y-14349714D02*
X12234262Y-14359238D01*
X12234262Y-14359238D02*
X12243786Y-14368762D01*
X12243786Y-14368762D02*
X12253310Y-14387809D01*
X12253310Y-14387809D02*
X12253310Y-14435428D01*
X12253310Y-14435428D02*
X12243786Y-14454476D01*
X12243786Y-14454476D02*
X12234262Y-14464000D01*
X12234262Y-14464000D02*
X12215214Y-14473524D01*
X12215214Y-14473524D02*
X12158072Y-14473524D01*
X12158072Y-14473524D02*
X12139024Y-14464000D01*
X12139024Y-14464000D02*
X12129500Y-14454476D01*
X12319976Y-14273524D02*
X12443786Y-14273524D01*
X12443786Y-14273524D02*
X12377119Y-14349714D01*
X12377119Y-14349714D02*
X12405691Y-14349714D01*
X12405691Y-14349714D02*
X12424738Y-14359238D01*
X12424738Y-14359238D02*
X12434262Y-14368762D01*
X12434262Y-14368762D02*
X12443786Y-14387809D01*
X12443786Y-14387809D02*
X12443786Y-14435428D01*
X12443786Y-14435428D02*
X12434262Y-14454476D01*
X12434262Y-14454476D02*
X12424738Y-14464000D01*
X12424738Y-14464000D02*
X12405691Y-14473524D01*
X12405691Y-14473524D02*
X12348548Y-14473524D01*
X12348548Y-14473524D02*
X12329500Y-14464000D01*
X12329500Y-14464000D02*
X12319976Y-14454476D01*
X12519976Y-14273524D02*
X12519976Y-14311619D01*
X12596167Y-14273524D02*
X12596167Y-14311619D01*
X12891405Y-14549714D02*
X12881881Y-14540190D01*
X12881881Y-14540190D02*
X12862834Y-14511619D01*
X12862834Y-14511619D02*
X12853310Y-14492571D01*
X12853310Y-14492571D02*
X12843786Y-14464000D01*
X12843786Y-14464000D02*
X12834262Y-14416381D01*
X12834262Y-14416381D02*
X12834262Y-14378286D01*
X12834262Y-14378286D02*
X12843786Y-14330667D01*
X12843786Y-14330667D02*
X12853310Y-14302095D01*
X12853310Y-14302095D02*
X12862834Y-14283048D01*
X12862834Y-14283048D02*
X12881881Y-14254476D01*
X12881881Y-14254476D02*
X12891405Y-14244952D01*
X12948548Y-14273524D02*
X13072357Y-14273524D01*
X13072357Y-14273524D02*
X13005691Y-14349714D01*
X13005691Y-14349714D02*
X13034262Y-14349714D01*
X13034262Y-14349714D02*
X13053310Y-14359238D01*
X13053310Y-14359238D02*
X13062834Y-14368762D01*
X13062834Y-14368762D02*
X13072357Y-14387809D01*
X13072357Y-14387809D02*
X13072357Y-14435428D01*
X13072357Y-14435428D02*
X13062834Y-14454476D01*
X13062834Y-14454476D02*
X13053310Y-14464000D01*
X13053310Y-14464000D02*
X13034262Y-14473524D01*
X13034262Y-14473524D02*
X12977119Y-14473524D01*
X12977119Y-14473524D02*
X12958072Y-14464000D01*
X12958072Y-14464000D02*
X12948548Y-14454476D01*
X13148548Y-14292571D02*
X13158072Y-14283048D01*
X13158072Y-14283048D02*
X13177119Y-14273524D01*
X13177119Y-14273524D02*
X13224738Y-14273524D01*
X13224738Y-14273524D02*
X13243786Y-14283048D01*
X13243786Y-14283048D02*
X13253310Y-14292571D01*
X13253310Y-14292571D02*
X13262834Y-14311619D01*
X13262834Y-14311619D02*
X13262834Y-14330667D01*
X13262834Y-14330667D02*
X13253310Y-14359238D01*
X13253310Y-14359238D02*
X13139024Y-14473524D01*
X13139024Y-14473524D02*
X13262834Y-14473524D01*
X13500929Y-14473524D02*
X13500929Y-14273524D01*
X13586643Y-14473524D02*
X13586643Y-14368762D01*
X13586643Y-14368762D02*
X13577119Y-14349714D01*
X13577119Y-14349714D02*
X13558072Y-14340190D01*
X13558072Y-14340190D02*
X13529500Y-14340190D01*
X13529500Y-14340190D02*
X13510453Y-14349714D01*
X13510453Y-14349714D02*
X13500929Y-14359238D01*
X13710453Y-14473524D02*
X13691405Y-14464000D01*
X13691405Y-14464000D02*
X13681881Y-14454476D01*
X13681881Y-14454476D02*
X13672357Y-14435428D01*
X13672357Y-14435428D02*
X13672357Y-14378286D01*
X13672357Y-14378286D02*
X13681881Y-14359238D01*
X13681881Y-14359238D02*
X13691405Y-14349714D01*
X13691405Y-14349714D02*
X13710453Y-14340190D01*
X13710453Y-14340190D02*
X13739024Y-14340190D01*
X13739024Y-14340190D02*
X13758072Y-14349714D01*
X13758072Y-14349714D02*
X13767596Y-14359238D01*
X13767596Y-14359238D02*
X13777119Y-14378286D01*
X13777119Y-14378286D02*
X13777119Y-14435428D01*
X13777119Y-14435428D02*
X13767596Y-14454476D01*
X13767596Y-14454476D02*
X13758072Y-14464000D01*
X13758072Y-14464000D02*
X13739024Y-14473524D01*
X13739024Y-14473524D02*
X13710453Y-14473524D01*
X13891405Y-14473524D02*
X13872357Y-14464000D01*
X13872357Y-14464000D02*
X13862834Y-14444952D01*
X13862834Y-14444952D02*
X13862834Y-14273524D01*
X14043786Y-14464000D02*
X14024738Y-14473524D01*
X14024738Y-14473524D02*
X13986643Y-14473524D01*
X13986643Y-14473524D02*
X13967596Y-14464000D01*
X13967596Y-14464000D02*
X13958072Y-14444952D01*
X13958072Y-14444952D02*
X13958072Y-14368762D01*
X13958072Y-14368762D02*
X13967596Y-14349714D01*
X13967596Y-14349714D02*
X13986643Y-14340190D01*
X13986643Y-14340190D02*
X14024738Y-14340190D01*
X14024738Y-14340190D02*
X14043786Y-14349714D01*
X14043786Y-14349714D02*
X14053310Y-14368762D01*
X14053310Y-14368762D02*
X14053310Y-14387809D01*
X14053310Y-14387809D02*
X13958072Y-14406857D01*
X14129500Y-14464000D02*
X14148548Y-14473524D01*
X14148548Y-14473524D02*
X14186643Y-14473524D01*
X14186643Y-14473524D02*
X14205691Y-14464000D01*
X14205691Y-14464000D02*
X14215215Y-14444952D01*
X14215215Y-14444952D02*
X14215215Y-14435428D01*
X14215215Y-14435428D02*
X14205691Y-14416381D01*
X14205691Y-14416381D02*
X14186643Y-14406857D01*
X14186643Y-14406857D02*
X14158072Y-14406857D01*
X14158072Y-14406857D02*
X14139024Y-14397333D01*
X14139024Y-14397333D02*
X14129500Y-14378286D01*
X14129500Y-14378286D02*
X14129500Y-14368762D01*
X14129500Y-14368762D02*
X14139024Y-14349714D01*
X14139024Y-14349714D02*
X14158072Y-14340190D01*
X14158072Y-14340190D02*
X14186643Y-14340190D01*
X14186643Y-14340190D02*
X14205691Y-14349714D01*
X14281881Y-14549714D02*
X14291405Y-14540190D01*
X14291405Y-14540190D02*
X14310453Y-14511619D01*
X14310453Y-14511619D02*
X14319977Y-14492571D01*
X14319977Y-14492571D02*
X14329500Y-14464000D01*
X14329500Y-14464000D02*
X14339024Y-14416381D01*
X14339024Y-14416381D02*
X14339024Y-14378286D01*
X14339024Y-14378286D02*
X14329500Y-14330667D01*
X14329500Y-14330667D02*
X14319977Y-14302095D01*
X14319977Y-14302095D02*
X14310453Y-14283048D01*
X14310453Y-14283048D02*
X14291405Y-14254476D01*
X14291405Y-14254476D02*
X14281881Y-14244952D01*
X9300211Y-14715711D02*
X9300211Y-14574289D01*
X9158789Y-14574289D01*
X9158789Y-14715711D01*
X9300211Y-14715711D01*
X9558071Y-14537524D02*
X9681881Y-14537524D01*
X9681881Y-14537524D02*
X9615214Y-14613714D01*
X9615214Y-14613714D02*
X9643786Y-14613714D01*
X9643786Y-14613714D02*
X9662833Y-14623238D01*
X9662833Y-14623238D02*
X9672357Y-14632762D01*
X9672357Y-14632762D02*
X9681881Y-14651809D01*
X9681881Y-14651809D02*
X9681881Y-14699428D01*
X9681881Y-14699428D02*
X9672357Y-14718476D01*
X9672357Y-14718476D02*
X9662833Y-14728000D01*
X9662833Y-14728000D02*
X9643786Y-14737524D01*
X9643786Y-14737524D02*
X9586643Y-14737524D01*
X9586643Y-14737524D02*
X9567595Y-14728000D01*
X9567595Y-14728000D02*
X9558071Y-14718476D01*
X9767595Y-14718476D02*
X9777119Y-14728000D01*
X9777119Y-14728000D02*
X9767595Y-14737524D01*
X9767595Y-14737524D02*
X9758071Y-14728000D01*
X9758071Y-14728000D02*
X9767595Y-14718476D01*
X9767595Y-14718476D02*
X9767595Y-14737524D01*
X9853310Y-14556571D02*
X9862833Y-14547048D01*
X9862833Y-14547048D02*
X9881881Y-14537524D01*
X9881881Y-14537524D02*
X9929500Y-14537524D01*
X9929500Y-14537524D02*
X9948548Y-14547048D01*
X9948548Y-14547048D02*
X9958071Y-14556571D01*
X9958071Y-14556571D02*
X9967595Y-14575619D01*
X9967595Y-14575619D02*
X9967595Y-14594667D01*
X9967595Y-14594667D02*
X9958071Y-14623238D01*
X9958071Y-14623238D02*
X9843786Y-14737524D01*
X9843786Y-14737524D02*
X9967595Y-14737524D01*
X10091405Y-14537524D02*
X10110452Y-14537524D01*
X10110452Y-14537524D02*
X10129500Y-14547048D01*
X10129500Y-14547048D02*
X10139024Y-14556571D01*
X10139024Y-14556571D02*
X10148548Y-14575619D01*
X10148548Y-14575619D02*
X10158071Y-14613714D01*
X10158071Y-14613714D02*
X10158071Y-14661333D01*
X10158071Y-14661333D02*
X10148548Y-14699428D01*
X10148548Y-14699428D02*
X10139024Y-14718476D01*
X10139024Y-14718476D02*
X10129500Y-14728000D01*
X10129500Y-14728000D02*
X10110452Y-14737524D01*
X10110452Y-14737524D02*
X10091405Y-14737524D01*
X10091405Y-14737524D02*
X10072357Y-14728000D01*
X10072357Y-14728000D02*
X10062833Y-14718476D01*
X10062833Y-14718476D02*
X10053310Y-14699428D01*
X10053310Y-14699428D02*
X10043786Y-14661333D01*
X10043786Y-14661333D02*
X10043786Y-14613714D01*
X10043786Y-14613714D02*
X10053310Y-14575619D01*
X10053310Y-14575619D02*
X10062833Y-14556571D01*
X10062833Y-14556571D02*
X10072357Y-14547048D01*
X10072357Y-14547048D02*
X10091405Y-14537524D01*
X10281881Y-14537524D02*
X10300929Y-14537524D01*
X10300929Y-14537524D02*
X10319976Y-14547048D01*
X10319976Y-14547048D02*
X10329500Y-14556571D01*
X10329500Y-14556571D02*
X10339024Y-14575619D01*
X10339024Y-14575619D02*
X10348548Y-14613714D01*
X10348548Y-14613714D02*
X10348548Y-14661333D01*
X10348548Y-14661333D02*
X10339024Y-14699428D01*
X10339024Y-14699428D02*
X10329500Y-14718476D01*
X10329500Y-14718476D02*
X10319976Y-14728000D01*
X10319976Y-14728000D02*
X10300929Y-14737524D01*
X10300929Y-14737524D02*
X10281881Y-14737524D01*
X10281881Y-14737524D02*
X10262833Y-14728000D01*
X10262833Y-14728000D02*
X10253310Y-14718476D01*
X10253310Y-14718476D02*
X10243786Y-14699428D01*
X10243786Y-14699428D02*
X10234262Y-14661333D01*
X10234262Y-14661333D02*
X10234262Y-14613714D01*
X10234262Y-14613714D02*
X10243786Y-14575619D01*
X10243786Y-14575619D02*
X10253310Y-14556571D01*
X10253310Y-14556571D02*
X10262833Y-14547048D01*
X10262833Y-14547048D02*
X10281881Y-14537524D01*
X10434262Y-14737524D02*
X10434262Y-14604190D01*
X10434262Y-14623238D02*
X10443786Y-14613714D01*
X10443786Y-14613714D02*
X10462833Y-14604190D01*
X10462833Y-14604190D02*
X10491405Y-14604190D01*
X10491405Y-14604190D02*
X10510452Y-14613714D01*
X10510452Y-14613714D02*
X10519976Y-14632762D01*
X10519976Y-14632762D02*
X10519976Y-14737524D01*
X10519976Y-14632762D02*
X10529500Y-14613714D01*
X10529500Y-14613714D02*
X10548548Y-14604190D01*
X10548548Y-14604190D02*
X10577119Y-14604190D01*
X10577119Y-14604190D02*
X10596167Y-14613714D01*
X10596167Y-14613714D02*
X10605691Y-14632762D01*
X10605691Y-14632762D02*
X10605691Y-14737524D01*
X10700929Y-14737524D02*
X10700929Y-14604190D01*
X10700929Y-14623238D02*
X10710452Y-14613714D01*
X10710452Y-14613714D02*
X10729500Y-14604190D01*
X10729500Y-14604190D02*
X10758072Y-14604190D01*
X10758072Y-14604190D02*
X10777119Y-14613714D01*
X10777119Y-14613714D02*
X10786643Y-14632762D01*
X10786643Y-14632762D02*
X10786643Y-14737524D01*
X10786643Y-14632762D02*
X10796167Y-14613714D01*
X10796167Y-14613714D02*
X10815214Y-14604190D01*
X10815214Y-14604190D02*
X10843786Y-14604190D01*
X10843786Y-14604190D02*
X10862833Y-14613714D01*
X10862833Y-14613714D02*
X10872357Y-14632762D01*
X10872357Y-14632762D02*
X10872357Y-14737524D01*
X11262833Y-14528000D02*
X11091405Y-14785143D01*
X11519976Y-14537524D02*
X11539024Y-14537524D01*
X11539024Y-14537524D02*
X11558072Y-14547048D01*
X11558072Y-14547048D02*
X11567595Y-14556571D01*
X11567595Y-14556571D02*
X11577119Y-14575619D01*
X11577119Y-14575619D02*
X11586643Y-14613714D01*
X11586643Y-14613714D02*
X11586643Y-14661333D01*
X11586643Y-14661333D02*
X11577119Y-14699428D01*
X11577119Y-14699428D02*
X11567595Y-14718476D01*
X11567595Y-14718476D02*
X11558072Y-14728000D01*
X11558072Y-14728000D02*
X11539024Y-14737524D01*
X11539024Y-14737524D02*
X11519976Y-14737524D01*
X11519976Y-14737524D02*
X11500929Y-14728000D01*
X11500929Y-14728000D02*
X11491405Y-14718476D01*
X11491405Y-14718476D02*
X11481881Y-14699428D01*
X11481881Y-14699428D02*
X11472357Y-14661333D01*
X11472357Y-14661333D02*
X11472357Y-14613714D01*
X11472357Y-14613714D02*
X11481881Y-14575619D01*
X11481881Y-14575619D02*
X11491405Y-14556571D01*
X11491405Y-14556571D02*
X11500929Y-14547048D01*
X11500929Y-14547048D02*
X11519976Y-14537524D01*
X11672357Y-14718476D02*
X11681881Y-14728000D01*
X11681881Y-14728000D02*
X11672357Y-14737524D01*
X11672357Y-14737524D02*
X11662833Y-14728000D01*
X11662833Y-14728000D02*
X11672357Y-14718476D01*
X11672357Y-14718476D02*
X11672357Y-14737524D01*
X11872357Y-14737524D02*
X11758072Y-14737524D01*
X11815214Y-14737524D02*
X11815214Y-14537524D01*
X11815214Y-14537524D02*
X11796167Y-14566095D01*
X11796167Y-14566095D02*
X11777119Y-14585143D01*
X11777119Y-14585143D02*
X11758072Y-14594667D01*
X11948548Y-14556571D02*
X11958072Y-14547048D01*
X11958072Y-14547048D02*
X11977119Y-14537524D01*
X11977119Y-14537524D02*
X12024738Y-14537524D01*
X12024738Y-14537524D02*
X12043786Y-14547048D01*
X12043786Y-14547048D02*
X12053310Y-14556571D01*
X12053310Y-14556571D02*
X12062833Y-14575619D01*
X12062833Y-14575619D02*
X12062833Y-14594667D01*
X12062833Y-14594667D02*
X12053310Y-14623238D01*
X12053310Y-14623238D02*
X11939024Y-14737524D01*
X11939024Y-14737524D02*
X12062833Y-14737524D01*
X12234262Y-14537524D02*
X12196167Y-14537524D01*
X12196167Y-14537524D02*
X12177119Y-14547048D01*
X12177119Y-14547048D02*
X12167595Y-14556571D01*
X12167595Y-14556571D02*
X12148548Y-14585143D01*
X12148548Y-14585143D02*
X12139024Y-14623238D01*
X12139024Y-14623238D02*
X12139024Y-14699428D01*
X12139024Y-14699428D02*
X12148548Y-14718476D01*
X12148548Y-14718476D02*
X12158072Y-14728000D01*
X12158072Y-14728000D02*
X12177119Y-14737524D01*
X12177119Y-14737524D02*
X12215214Y-14737524D01*
X12215214Y-14737524D02*
X12234262Y-14728000D01*
X12234262Y-14728000D02*
X12243786Y-14718476D01*
X12243786Y-14718476D02*
X12253310Y-14699428D01*
X12253310Y-14699428D02*
X12253310Y-14651809D01*
X12253310Y-14651809D02*
X12243786Y-14632762D01*
X12243786Y-14632762D02*
X12234262Y-14623238D01*
X12234262Y-14623238D02*
X12215214Y-14613714D01*
X12215214Y-14613714D02*
X12177119Y-14613714D01*
X12177119Y-14613714D02*
X12158072Y-14623238D01*
X12158072Y-14623238D02*
X12148548Y-14632762D01*
X12148548Y-14632762D02*
X12139024Y-14651809D01*
X12377119Y-14537524D02*
X12396167Y-14537524D01*
X12396167Y-14537524D02*
X12415214Y-14547048D01*
X12415214Y-14547048D02*
X12424738Y-14556571D01*
X12424738Y-14556571D02*
X12434262Y-14575619D01*
X12434262Y-14575619D02*
X12443786Y-14613714D01*
X12443786Y-14613714D02*
X12443786Y-14661333D01*
X12443786Y-14661333D02*
X12434262Y-14699428D01*
X12434262Y-14699428D02*
X12424738Y-14718476D01*
X12424738Y-14718476D02*
X12415214Y-14728000D01*
X12415214Y-14728000D02*
X12396167Y-14737524D01*
X12396167Y-14737524D02*
X12377119Y-14737524D01*
X12377119Y-14737524D02*
X12358072Y-14728000D01*
X12358072Y-14728000D02*
X12348548Y-14718476D01*
X12348548Y-14718476D02*
X12339024Y-14699428D01*
X12339024Y-14699428D02*
X12329500Y-14661333D01*
X12329500Y-14661333D02*
X12329500Y-14613714D01*
X12329500Y-14613714D02*
X12339024Y-14575619D01*
X12339024Y-14575619D02*
X12348548Y-14556571D01*
X12348548Y-14556571D02*
X12358072Y-14547048D01*
X12358072Y-14547048D02*
X12377119Y-14537524D01*
X12519976Y-14537524D02*
X12519976Y-14575619D01*
X12596167Y-14537524D02*
X12596167Y-14575619D01*
X12891405Y-14813714D02*
X12881881Y-14804190D01*
X12881881Y-14804190D02*
X12862834Y-14775619D01*
X12862834Y-14775619D02*
X12853310Y-14756571D01*
X12853310Y-14756571D02*
X12843786Y-14728000D01*
X12843786Y-14728000D02*
X12834262Y-14680381D01*
X12834262Y-14680381D02*
X12834262Y-14642286D01*
X12834262Y-14642286D02*
X12843786Y-14594667D01*
X12843786Y-14594667D02*
X12853310Y-14566095D01*
X12853310Y-14566095D02*
X12862834Y-14547048D01*
X12862834Y-14547048D02*
X12881881Y-14518476D01*
X12881881Y-14518476D02*
X12891405Y-14508952D01*
X12958072Y-14556571D02*
X12967595Y-14547048D01*
X12967595Y-14547048D02*
X12986643Y-14537524D01*
X12986643Y-14537524D02*
X13034262Y-14537524D01*
X13034262Y-14537524D02*
X13053310Y-14547048D01*
X13053310Y-14547048D02*
X13062834Y-14556571D01*
X13062834Y-14556571D02*
X13072357Y-14575619D01*
X13072357Y-14575619D02*
X13072357Y-14594667D01*
X13072357Y-14594667D02*
X13062834Y-14623238D01*
X13062834Y-14623238D02*
X12948548Y-14737524D01*
X12948548Y-14737524D02*
X13072357Y-14737524D01*
X13310453Y-14737524D02*
X13310453Y-14537524D01*
X13396167Y-14737524D02*
X13396167Y-14632762D01*
X13396167Y-14632762D02*
X13386643Y-14613714D01*
X13386643Y-14613714D02*
X13367596Y-14604190D01*
X13367596Y-14604190D02*
X13339024Y-14604190D01*
X13339024Y-14604190D02*
X13319976Y-14613714D01*
X13319976Y-14613714D02*
X13310453Y-14623238D01*
X13519976Y-14737524D02*
X13500929Y-14728000D01*
X13500929Y-14728000D02*
X13491405Y-14718476D01*
X13491405Y-14718476D02*
X13481881Y-14699428D01*
X13481881Y-14699428D02*
X13481881Y-14642286D01*
X13481881Y-14642286D02*
X13491405Y-14623238D01*
X13491405Y-14623238D02*
X13500929Y-14613714D01*
X13500929Y-14613714D02*
X13519976Y-14604190D01*
X13519976Y-14604190D02*
X13548548Y-14604190D01*
X13548548Y-14604190D02*
X13567596Y-14613714D01*
X13567596Y-14613714D02*
X13577119Y-14623238D01*
X13577119Y-14623238D02*
X13586643Y-14642286D01*
X13586643Y-14642286D02*
X13586643Y-14699428D01*
X13586643Y-14699428D02*
X13577119Y-14718476D01*
X13577119Y-14718476D02*
X13567596Y-14728000D01*
X13567596Y-14728000D02*
X13548548Y-14737524D01*
X13548548Y-14737524D02*
X13519976Y-14737524D01*
X13700929Y-14737524D02*
X13681881Y-14728000D01*
X13681881Y-14728000D02*
X13672357Y-14708952D01*
X13672357Y-14708952D02*
X13672357Y-14537524D01*
X13853310Y-14728000D02*
X13834262Y-14737524D01*
X13834262Y-14737524D02*
X13796167Y-14737524D01*
X13796167Y-14737524D02*
X13777119Y-14728000D01*
X13777119Y-14728000D02*
X13767596Y-14708952D01*
X13767596Y-14708952D02*
X13767596Y-14632762D01*
X13767596Y-14632762D02*
X13777119Y-14613714D01*
X13777119Y-14613714D02*
X13796167Y-14604190D01*
X13796167Y-14604190D02*
X13834262Y-14604190D01*
X13834262Y-14604190D02*
X13853310Y-14613714D01*
X13853310Y-14613714D02*
X13862834Y-14632762D01*
X13862834Y-14632762D02*
X13862834Y-14651809D01*
X13862834Y-14651809D02*
X13767596Y-14670857D01*
X13939024Y-14728000D02*
X13958072Y-14737524D01*
X13958072Y-14737524D02*
X13996167Y-14737524D01*
X13996167Y-14737524D02*
X14015215Y-14728000D01*
X14015215Y-14728000D02*
X14024738Y-14708952D01*
X14024738Y-14708952D02*
X14024738Y-14699428D01*
X14024738Y-14699428D02*
X14015215Y-14680381D01*
X14015215Y-14680381D02*
X13996167Y-14670857D01*
X13996167Y-14670857D02*
X13967596Y-14670857D01*
X13967596Y-14670857D02*
X13948548Y-14661333D01*
X13948548Y-14661333D02*
X13939024Y-14642286D01*
X13939024Y-14642286D02*
X13939024Y-14632762D01*
X13939024Y-14632762D02*
X13948548Y-14613714D01*
X13948548Y-14613714D02*
X13967596Y-14604190D01*
X13967596Y-14604190D02*
X13996167Y-14604190D01*
X13996167Y-14604190D02*
X14015215Y-14613714D01*
X14091405Y-14813714D02*
X14100929Y-14804190D01*
X14100929Y-14804190D02*
X14119977Y-14775619D01*
X14119977Y-14775619D02*
X14129500Y-14756571D01*
X14129500Y-14756571D02*
X14139024Y-14728000D01*
X14139024Y-14728000D02*
X14148548Y-14680381D01*
X14148548Y-14680381D02*
X14148548Y-14642286D01*
X14148548Y-14642286D02*
X14139024Y-14594667D01*
X14139024Y-14594667D02*
X14129500Y-14566095D01*
X14129500Y-14566095D02*
X14119977Y-14547048D01*
X14119977Y-14547048D02*
X14100929Y-14518476D01*
X14100929Y-14518476D02*
X14091405Y-14508952D01*
M02*
