G04 #@! TF.GenerationSoftware,KiCad,Pcbnew,7.0.1*
G04 #@! TF.CreationDate,2023-04-09T10:36:52+02:00*
G04 #@! TF.ProjectId,ESP32-BMS_Ctrl,45535033-322d-4424-9d53-5f4374726c2e,rev?*
G04 #@! TF.SameCoordinates,Original*
G04 #@! TF.FileFunction,Legend,Top*
G04 #@! TF.FilePolarity,Positive*
%FSLAX46Y46*%
G04 Gerber Fmt 4.6, Leading zero omitted, Abs format (unit mm)*
G04 Created by KiCad (PCBNEW 7.0.1) date 2023-04-09 10:36:52*
%MOMM*%
%LPD*%
G01*
G04 APERTURE LIST*
G04 Aperture macros list*
%AMRoundRect*
0 Rectangle with rounded corners*
0 $1 Rounding radius*
0 $2 $3 $4 $5 $6 $7 $8 $9 X,Y pos of 4 corners*
0 Add a 4 corners polygon primitive as box body*
4,1,4,$2,$3,$4,$5,$6,$7,$8,$9,$2,$3,0*
0 Add four circle primitives for the rounded corners*
1,1,$1+$1,$2,$3*
1,1,$1+$1,$4,$5*
1,1,$1+$1,$6,$7*
1,1,$1+$1,$8,$9*
0 Add four rect primitives between the rounded corners*
20,1,$1+$1,$2,$3,$4,$5,0*
20,1,$1+$1,$4,$5,$6,$7,0*
20,1,$1+$1,$6,$7,$8,$9,0*
20,1,$1+$1,$8,$9,$2,$3,0*%
G04 Aperture macros list end*
%ADD10C,0.150000*%
%ADD11C,0.100000*%
%ADD12C,0.120000*%
%ADD13RoundRect,0.250000X0.600000X0.750000X-0.600000X0.750000X-0.600000X-0.750000X0.600000X-0.750000X0*%
%ADD14O,1.700000X2.000000*%
%ADD15C,1.600000*%
%ADD16O,1.600000X1.600000*%
%ADD17R,2.200000X2.200000*%
%ADD18O,2.200000X2.200000*%
%ADD19R,2.000000X2.000000*%
%ADD20C,2.000000*%
%ADD21R,1.905000X2.000000*%
%ADD22O,1.905000X2.000000*%
%ADD23R,1.600000X1.600000*%
%ADD24C,3.200000*%
%ADD25R,2.400000X2.400000*%
%ADD26C,2.400000*%
%ADD27C,4.000000*%
G04 APERTURE END LIST*
D10*
X172442142Y-75786428D02*
X172442142Y-77000714D01*
X172442142Y-77000714D02*
X172513571Y-77143571D01*
X172513571Y-77143571D02*
X172585000Y-77215000D01*
X172585000Y-77215000D02*
X172727857Y-77286428D01*
X172727857Y-77286428D02*
X173013571Y-77286428D01*
X173013571Y-77286428D02*
X173156428Y-77215000D01*
X173156428Y-77215000D02*
X173227857Y-77143571D01*
X173227857Y-77143571D02*
X173299285Y-77000714D01*
X173299285Y-77000714D02*
X173299285Y-75786428D01*
X173942143Y-77215000D02*
X174156429Y-77286428D01*
X174156429Y-77286428D02*
X174513571Y-77286428D01*
X174513571Y-77286428D02*
X174656429Y-77215000D01*
X174656429Y-77215000D02*
X174727857Y-77143571D01*
X174727857Y-77143571D02*
X174799286Y-77000714D01*
X174799286Y-77000714D02*
X174799286Y-76857857D01*
X174799286Y-76857857D02*
X174727857Y-76715000D01*
X174727857Y-76715000D02*
X174656429Y-76643571D01*
X174656429Y-76643571D02*
X174513571Y-76572142D01*
X174513571Y-76572142D02*
X174227857Y-76500714D01*
X174227857Y-76500714D02*
X174085000Y-76429285D01*
X174085000Y-76429285D02*
X174013571Y-76357857D01*
X174013571Y-76357857D02*
X173942143Y-76215000D01*
X173942143Y-76215000D02*
X173942143Y-76072142D01*
X173942143Y-76072142D02*
X174013571Y-75929285D01*
X174013571Y-75929285D02*
X174085000Y-75857857D01*
X174085000Y-75857857D02*
X174227857Y-75786428D01*
X174227857Y-75786428D02*
X174585000Y-75786428D01*
X174585000Y-75786428D02*
X174799286Y-75857857D01*
X175942142Y-76500714D02*
X176156428Y-76572142D01*
X176156428Y-76572142D02*
X176227857Y-76643571D01*
X176227857Y-76643571D02*
X176299285Y-76786428D01*
X176299285Y-76786428D02*
X176299285Y-77000714D01*
X176299285Y-77000714D02*
X176227857Y-77143571D01*
X176227857Y-77143571D02*
X176156428Y-77215000D01*
X176156428Y-77215000D02*
X176013571Y-77286428D01*
X176013571Y-77286428D02*
X175442142Y-77286428D01*
X175442142Y-77286428D02*
X175442142Y-75786428D01*
X175442142Y-75786428D02*
X175942142Y-75786428D01*
X175942142Y-75786428D02*
X176085000Y-75857857D01*
X176085000Y-75857857D02*
X176156428Y-75929285D01*
X176156428Y-75929285D02*
X176227857Y-76072142D01*
X176227857Y-76072142D02*
X176227857Y-76215000D01*
X176227857Y-76215000D02*
X176156428Y-76357857D01*
X176156428Y-76357857D02*
X176085000Y-76429285D01*
X176085000Y-76429285D02*
X175942142Y-76500714D01*
X175942142Y-76500714D02*
X175442142Y-76500714D01*
X176942142Y-76715000D02*
X178085000Y-76715000D01*
X179656428Y-77143571D02*
X179585000Y-77215000D01*
X179585000Y-77215000D02*
X179370714Y-77286428D01*
X179370714Y-77286428D02*
X179227857Y-77286428D01*
X179227857Y-77286428D02*
X179013571Y-77215000D01*
X179013571Y-77215000D02*
X178870714Y-77072142D01*
X178870714Y-77072142D02*
X178799285Y-76929285D01*
X178799285Y-76929285D02*
X178727857Y-76643571D01*
X178727857Y-76643571D02*
X178727857Y-76429285D01*
X178727857Y-76429285D02*
X178799285Y-76143571D01*
X178799285Y-76143571D02*
X178870714Y-76000714D01*
X178870714Y-76000714D02*
X179013571Y-75857857D01*
X179013571Y-75857857D02*
X179227857Y-75786428D01*
X179227857Y-75786428D02*
X179370714Y-75786428D01*
X179370714Y-75786428D02*
X179585000Y-75857857D01*
X179585000Y-75857857D02*
X179656428Y-75929285D01*
X180513571Y-77286428D02*
X180370714Y-77215000D01*
X180370714Y-77215000D02*
X180299285Y-77143571D01*
X180299285Y-77143571D02*
X180227857Y-77000714D01*
X180227857Y-77000714D02*
X180227857Y-76572142D01*
X180227857Y-76572142D02*
X180299285Y-76429285D01*
X180299285Y-76429285D02*
X180370714Y-76357857D01*
X180370714Y-76357857D02*
X180513571Y-76286428D01*
X180513571Y-76286428D02*
X180727857Y-76286428D01*
X180727857Y-76286428D02*
X180870714Y-76357857D01*
X180870714Y-76357857D02*
X180942143Y-76429285D01*
X180942143Y-76429285D02*
X181013571Y-76572142D01*
X181013571Y-76572142D02*
X181013571Y-77000714D01*
X181013571Y-77000714D02*
X180942143Y-77143571D01*
X180942143Y-77143571D02*
X180870714Y-77215000D01*
X180870714Y-77215000D02*
X180727857Y-77286428D01*
X180727857Y-77286428D02*
X180513571Y-77286428D01*
X181656428Y-76286428D02*
X181656428Y-77286428D01*
X181656428Y-76429285D02*
X181727857Y-76357857D01*
X181727857Y-76357857D02*
X181870714Y-76286428D01*
X181870714Y-76286428D02*
X182085000Y-76286428D01*
X182085000Y-76286428D02*
X182227857Y-76357857D01*
X182227857Y-76357857D02*
X182299286Y-76500714D01*
X182299286Y-76500714D02*
X182299286Y-77286428D01*
X183013571Y-76286428D02*
X183013571Y-77286428D01*
X183013571Y-76429285D02*
X183085000Y-76357857D01*
X183085000Y-76357857D02*
X183227857Y-76286428D01*
X183227857Y-76286428D02*
X183442143Y-76286428D01*
X183442143Y-76286428D02*
X183585000Y-76357857D01*
X183585000Y-76357857D02*
X183656429Y-76500714D01*
X183656429Y-76500714D02*
X183656429Y-77286428D01*
X184370714Y-77143571D02*
X184442143Y-77215000D01*
X184442143Y-77215000D02*
X184370714Y-77286428D01*
X184370714Y-77286428D02*
X184299286Y-77215000D01*
X184299286Y-77215000D02*
X184370714Y-77143571D01*
X184370714Y-77143571D02*
X184370714Y-77286428D01*
X173100952Y-47443809D02*
X174053333Y-47443809D01*
X172910476Y-48015238D02*
X173577142Y-46015238D01*
X173577142Y-46015238D02*
X174243809Y-48015238D01*
X174910476Y-46681904D02*
X174910476Y-48015238D01*
X174910476Y-46872380D02*
X175005714Y-46777142D01*
X175005714Y-46777142D02*
X175196190Y-46681904D01*
X175196190Y-46681904D02*
X175481905Y-46681904D01*
X175481905Y-46681904D02*
X175672381Y-46777142D01*
X175672381Y-46777142D02*
X175767619Y-46967619D01*
X175767619Y-46967619D02*
X175767619Y-48015238D01*
X176434286Y-46681904D02*
X177196190Y-46681904D01*
X176720000Y-46015238D02*
X176720000Y-47729523D01*
X176720000Y-47729523D02*
X176815238Y-47920000D01*
X176815238Y-47920000D02*
X177005714Y-48015238D01*
X177005714Y-48015238D02*
X177196190Y-48015238D01*
X178624762Y-47920000D02*
X178434286Y-48015238D01*
X178434286Y-48015238D02*
X178053333Y-48015238D01*
X178053333Y-48015238D02*
X177862857Y-47920000D01*
X177862857Y-47920000D02*
X177767619Y-47729523D01*
X177767619Y-47729523D02*
X177767619Y-46967619D01*
X177767619Y-46967619D02*
X177862857Y-46777142D01*
X177862857Y-46777142D02*
X178053333Y-46681904D01*
X178053333Y-46681904D02*
X178434286Y-46681904D01*
X178434286Y-46681904D02*
X178624762Y-46777142D01*
X178624762Y-46777142D02*
X178720000Y-46967619D01*
X178720000Y-46967619D02*
X178720000Y-47158095D01*
X178720000Y-47158095D02*
X177767619Y-47348571D01*
X179577143Y-46681904D02*
X179577143Y-48015238D01*
X179577143Y-46872380D02*
X179672381Y-46777142D01*
X179672381Y-46777142D02*
X179862857Y-46681904D01*
X179862857Y-46681904D02*
X180148572Y-46681904D01*
X180148572Y-46681904D02*
X180339048Y-46777142D01*
X180339048Y-46777142D02*
X180434286Y-46967619D01*
X180434286Y-46967619D02*
X180434286Y-48015238D01*
X181386667Y-46681904D02*
X181386667Y-48015238D01*
X181386667Y-46872380D02*
X181481905Y-46777142D01*
X181481905Y-46777142D02*
X181672381Y-46681904D01*
X181672381Y-46681904D02*
X181958096Y-46681904D01*
X181958096Y-46681904D02*
X182148572Y-46777142D01*
X182148572Y-46777142D02*
X182243810Y-46967619D01*
X182243810Y-46967619D02*
X182243810Y-48015238D01*
X184053334Y-48015238D02*
X184053334Y-46967619D01*
X184053334Y-46967619D02*
X183958096Y-46777142D01*
X183958096Y-46777142D02*
X183767620Y-46681904D01*
X183767620Y-46681904D02*
X183386667Y-46681904D01*
X183386667Y-46681904D02*
X183196191Y-46777142D01*
X184053334Y-47920000D02*
X183862858Y-48015238D01*
X183862858Y-48015238D02*
X183386667Y-48015238D01*
X183386667Y-48015238D02*
X183196191Y-47920000D01*
X183196191Y-47920000D02*
X183100953Y-47729523D01*
X183100953Y-47729523D02*
X183100953Y-47539047D01*
X183100953Y-47539047D02*
X183196191Y-47348571D01*
X183196191Y-47348571D02*
X183386667Y-47253333D01*
X183386667Y-47253333D02*
X183862858Y-47253333D01*
X183862858Y-47253333D02*
X184053334Y-47158095D01*
X131806666Y-89938619D02*
X131806666Y-90652904D01*
X131806666Y-90652904D02*
X131759047Y-90795761D01*
X131759047Y-90795761D02*
X131663809Y-90891000D01*
X131663809Y-90891000D02*
X131520952Y-90938619D01*
X131520952Y-90938619D02*
X131425714Y-90938619D01*
X132711428Y-90271952D02*
X132711428Y-90938619D01*
X132473333Y-89891000D02*
X132235238Y-90605285D01*
X132235238Y-90605285D02*
X132854285Y-90605285D01*
X140162619Y-58993857D02*
X139686428Y-59327190D01*
X140162619Y-59565285D02*
X139162619Y-59565285D01*
X139162619Y-59565285D02*
X139162619Y-59184333D01*
X139162619Y-59184333D02*
X139210238Y-59089095D01*
X139210238Y-59089095D02*
X139257857Y-59041476D01*
X139257857Y-59041476D02*
X139353095Y-58993857D01*
X139353095Y-58993857D02*
X139495952Y-58993857D01*
X139495952Y-58993857D02*
X139591190Y-59041476D01*
X139591190Y-59041476D02*
X139638809Y-59089095D01*
X139638809Y-59089095D02*
X139686428Y-59184333D01*
X139686428Y-59184333D02*
X139686428Y-59565285D01*
X140162619Y-58041476D02*
X140162619Y-58612904D01*
X140162619Y-58327190D02*
X139162619Y-58327190D01*
X139162619Y-58327190D02*
X139305476Y-58422428D01*
X139305476Y-58422428D02*
X139400714Y-58517666D01*
X139400714Y-58517666D02*
X139448333Y-58612904D01*
X139162619Y-57136714D02*
X139162619Y-57612904D01*
X139162619Y-57612904D02*
X139638809Y-57660523D01*
X139638809Y-57660523D02*
X139591190Y-57612904D01*
X139591190Y-57612904D02*
X139543571Y-57517666D01*
X139543571Y-57517666D02*
X139543571Y-57279571D01*
X139543571Y-57279571D02*
X139591190Y-57184333D01*
X139591190Y-57184333D02*
X139638809Y-57136714D01*
X139638809Y-57136714D02*
X139734047Y-57089095D01*
X139734047Y-57089095D02*
X139972142Y-57089095D01*
X139972142Y-57089095D02*
X140067380Y-57136714D01*
X140067380Y-57136714D02*
X140115000Y-57184333D01*
X140115000Y-57184333D02*
X140162619Y-57279571D01*
X140162619Y-57279571D02*
X140162619Y-57517666D01*
X140162619Y-57517666D02*
X140115000Y-57612904D01*
X140115000Y-57612904D02*
X140067380Y-57660523D01*
X170711905Y-118341619D02*
X170711905Y-117341619D01*
X170711905Y-117341619D02*
X170950000Y-117341619D01*
X170950000Y-117341619D02*
X171092857Y-117389238D01*
X171092857Y-117389238D02*
X171188095Y-117484476D01*
X171188095Y-117484476D02*
X171235714Y-117579714D01*
X171235714Y-117579714D02*
X171283333Y-117770190D01*
X171283333Y-117770190D02*
X171283333Y-117913047D01*
X171283333Y-117913047D02*
X171235714Y-118103523D01*
X171235714Y-118103523D02*
X171188095Y-118198761D01*
X171188095Y-118198761D02*
X171092857Y-118294000D01*
X171092857Y-118294000D02*
X170950000Y-118341619D01*
X170950000Y-118341619D02*
X170711905Y-118341619D01*
X171616667Y-117341619D02*
X172235714Y-117341619D01*
X172235714Y-117341619D02*
X171902381Y-117722571D01*
X171902381Y-117722571D02*
X172045238Y-117722571D01*
X172045238Y-117722571D02*
X172140476Y-117770190D01*
X172140476Y-117770190D02*
X172188095Y-117817809D01*
X172188095Y-117817809D02*
X172235714Y-117913047D01*
X172235714Y-117913047D02*
X172235714Y-118151142D01*
X172235714Y-118151142D02*
X172188095Y-118246380D01*
X172188095Y-118246380D02*
X172140476Y-118294000D01*
X172140476Y-118294000D02*
X172045238Y-118341619D01*
X172045238Y-118341619D02*
X171759524Y-118341619D01*
X171759524Y-118341619D02*
X171664286Y-118294000D01*
X171664286Y-118294000D02*
X171616667Y-118246380D01*
X158488095Y-116472619D02*
X158488095Y-115472619D01*
X159059523Y-116472619D02*
X158630952Y-115901190D01*
X159059523Y-115472619D02*
X158488095Y-116044047D01*
X207277380Y-111331666D02*
X207325000Y-111379285D01*
X207325000Y-111379285D02*
X207372619Y-111522142D01*
X207372619Y-111522142D02*
X207372619Y-111617380D01*
X207372619Y-111617380D02*
X207325000Y-111760237D01*
X207325000Y-111760237D02*
X207229761Y-111855475D01*
X207229761Y-111855475D02*
X207134523Y-111903094D01*
X207134523Y-111903094D02*
X206944047Y-111950713D01*
X206944047Y-111950713D02*
X206801190Y-111950713D01*
X206801190Y-111950713D02*
X206610714Y-111903094D01*
X206610714Y-111903094D02*
X206515476Y-111855475D01*
X206515476Y-111855475D02*
X206420238Y-111760237D01*
X206420238Y-111760237D02*
X206372619Y-111617380D01*
X206372619Y-111617380D02*
X206372619Y-111522142D01*
X206372619Y-111522142D02*
X206420238Y-111379285D01*
X206420238Y-111379285D02*
X206467857Y-111331666D01*
X206467857Y-110950713D02*
X206420238Y-110903094D01*
X206420238Y-110903094D02*
X206372619Y-110807856D01*
X206372619Y-110807856D02*
X206372619Y-110569761D01*
X206372619Y-110569761D02*
X206420238Y-110474523D01*
X206420238Y-110474523D02*
X206467857Y-110426904D01*
X206467857Y-110426904D02*
X206563095Y-110379285D01*
X206563095Y-110379285D02*
X206658333Y-110379285D01*
X206658333Y-110379285D02*
X206801190Y-110426904D01*
X206801190Y-110426904D02*
X207372619Y-110998332D01*
X207372619Y-110998332D02*
X207372619Y-110379285D01*
X192037380Y-111159343D02*
X192085000Y-111206962D01*
X192085000Y-111206962D02*
X192132619Y-111349819D01*
X192132619Y-111349819D02*
X192132619Y-111445057D01*
X192132619Y-111445057D02*
X192085000Y-111587914D01*
X192085000Y-111587914D02*
X191989761Y-111683152D01*
X191989761Y-111683152D02*
X191894523Y-111730771D01*
X191894523Y-111730771D02*
X191704047Y-111778390D01*
X191704047Y-111778390D02*
X191561190Y-111778390D01*
X191561190Y-111778390D02*
X191370714Y-111730771D01*
X191370714Y-111730771D02*
X191275476Y-111683152D01*
X191275476Y-111683152D02*
X191180238Y-111587914D01*
X191180238Y-111587914D02*
X191132619Y-111445057D01*
X191132619Y-111445057D02*
X191132619Y-111349819D01*
X191132619Y-111349819D02*
X191180238Y-111206962D01*
X191180238Y-111206962D02*
X191227857Y-111159343D01*
X192132619Y-110206962D02*
X192132619Y-110778390D01*
X192132619Y-110492676D02*
X191132619Y-110492676D01*
X191132619Y-110492676D02*
X191275476Y-110587914D01*
X191275476Y-110587914D02*
X191370714Y-110683152D01*
X191370714Y-110683152D02*
X191418333Y-110778390D01*
X145877619Y-88997666D02*
X145401428Y-89330999D01*
X145877619Y-89569094D02*
X144877619Y-89569094D01*
X144877619Y-89569094D02*
X144877619Y-89188142D01*
X144877619Y-89188142D02*
X144925238Y-89092904D01*
X144925238Y-89092904D02*
X144972857Y-89045285D01*
X144972857Y-89045285D02*
X145068095Y-88997666D01*
X145068095Y-88997666D02*
X145210952Y-88997666D01*
X145210952Y-88997666D02*
X145306190Y-89045285D01*
X145306190Y-89045285D02*
X145353809Y-89092904D01*
X145353809Y-89092904D02*
X145401428Y-89188142D01*
X145401428Y-89188142D02*
X145401428Y-89569094D01*
X144877619Y-88664332D02*
X144877619Y-87997666D01*
X144877619Y-87997666D02*
X145877619Y-88426237D01*
X144684761Y-111751857D02*
X144589523Y-111704238D01*
X144589523Y-111704238D02*
X144494285Y-111609000D01*
X144494285Y-111609000D02*
X144351428Y-111466142D01*
X144351428Y-111466142D02*
X144256190Y-111418523D01*
X144256190Y-111418523D02*
X144160952Y-111418523D01*
X144208571Y-111656619D02*
X144113333Y-111609000D01*
X144113333Y-111609000D02*
X144018095Y-111513761D01*
X144018095Y-111513761D02*
X143970476Y-111323285D01*
X143970476Y-111323285D02*
X143970476Y-110989952D01*
X143970476Y-110989952D02*
X144018095Y-110799476D01*
X144018095Y-110799476D02*
X144113333Y-110704238D01*
X144113333Y-110704238D02*
X144208571Y-110656619D01*
X144208571Y-110656619D02*
X144399047Y-110656619D01*
X144399047Y-110656619D02*
X144494285Y-110704238D01*
X144494285Y-110704238D02*
X144589523Y-110799476D01*
X144589523Y-110799476D02*
X144637142Y-110989952D01*
X144637142Y-110989952D02*
X144637142Y-111323285D01*
X144637142Y-111323285D02*
X144589523Y-111513761D01*
X144589523Y-111513761D02*
X144494285Y-111609000D01*
X144494285Y-111609000D02*
X144399047Y-111656619D01*
X144399047Y-111656619D02*
X144208571Y-111656619D01*
X145018095Y-110751857D02*
X145065714Y-110704238D01*
X145065714Y-110704238D02*
X145160952Y-110656619D01*
X145160952Y-110656619D02*
X145399047Y-110656619D01*
X145399047Y-110656619D02*
X145494285Y-110704238D01*
X145494285Y-110704238D02*
X145541904Y-110751857D01*
X145541904Y-110751857D02*
X145589523Y-110847095D01*
X145589523Y-110847095D02*
X145589523Y-110942333D01*
X145589523Y-110942333D02*
X145541904Y-111085190D01*
X145541904Y-111085190D02*
X144970476Y-111656619D01*
X144970476Y-111656619D02*
X145589523Y-111656619D01*
X130002619Y-97252666D02*
X129526428Y-97585999D01*
X130002619Y-97824094D02*
X129002619Y-97824094D01*
X129002619Y-97824094D02*
X129002619Y-97443142D01*
X129002619Y-97443142D02*
X129050238Y-97347904D01*
X129050238Y-97347904D02*
X129097857Y-97300285D01*
X129097857Y-97300285D02*
X129193095Y-97252666D01*
X129193095Y-97252666D02*
X129335952Y-97252666D01*
X129335952Y-97252666D02*
X129431190Y-97300285D01*
X129431190Y-97300285D02*
X129478809Y-97347904D01*
X129478809Y-97347904D02*
X129526428Y-97443142D01*
X129526428Y-97443142D02*
X129526428Y-97824094D01*
X129097857Y-96871713D02*
X129050238Y-96824094D01*
X129050238Y-96824094D02*
X129002619Y-96728856D01*
X129002619Y-96728856D02*
X129002619Y-96490761D01*
X129002619Y-96490761D02*
X129050238Y-96395523D01*
X129050238Y-96395523D02*
X129097857Y-96347904D01*
X129097857Y-96347904D02*
X129193095Y-96300285D01*
X129193095Y-96300285D02*
X129288333Y-96300285D01*
X129288333Y-96300285D02*
X129431190Y-96347904D01*
X129431190Y-96347904D02*
X130002619Y-96919332D01*
X130002619Y-96919332D02*
X130002619Y-96300285D01*
X171277619Y-88997666D02*
X170801428Y-89330999D01*
X171277619Y-89569094D02*
X170277619Y-89569094D01*
X170277619Y-89569094D02*
X170277619Y-89188142D01*
X170277619Y-89188142D02*
X170325238Y-89092904D01*
X170325238Y-89092904D02*
X170372857Y-89045285D01*
X170372857Y-89045285D02*
X170468095Y-88997666D01*
X170468095Y-88997666D02*
X170610952Y-88997666D01*
X170610952Y-88997666D02*
X170706190Y-89045285D01*
X170706190Y-89045285D02*
X170753809Y-89092904D01*
X170753809Y-89092904D02*
X170801428Y-89188142D01*
X170801428Y-89188142D02*
X170801428Y-89569094D01*
X171277619Y-88521475D02*
X171277619Y-88330999D01*
X171277619Y-88330999D02*
X171230000Y-88235761D01*
X171230000Y-88235761D02*
X171182380Y-88188142D01*
X171182380Y-88188142D02*
X171039523Y-88092904D01*
X171039523Y-88092904D02*
X170849047Y-88045285D01*
X170849047Y-88045285D02*
X170468095Y-88045285D01*
X170468095Y-88045285D02*
X170372857Y-88092904D01*
X170372857Y-88092904D02*
X170325238Y-88140523D01*
X170325238Y-88140523D02*
X170277619Y-88235761D01*
X170277619Y-88235761D02*
X170277619Y-88426237D01*
X170277619Y-88426237D02*
X170325238Y-88521475D01*
X170325238Y-88521475D02*
X170372857Y-88569094D01*
X170372857Y-88569094D02*
X170468095Y-88616713D01*
X170468095Y-88616713D02*
X170706190Y-88616713D01*
X170706190Y-88616713D02*
X170801428Y-88569094D01*
X170801428Y-88569094D02*
X170849047Y-88521475D01*
X170849047Y-88521475D02*
X170896666Y-88426237D01*
X170896666Y-88426237D02*
X170896666Y-88235761D01*
X170896666Y-88235761D02*
X170849047Y-88140523D01*
X170849047Y-88140523D02*
X170801428Y-88092904D01*
X170801428Y-88092904D02*
X170706190Y-88045285D01*
X147193095Y-69947619D02*
X147193095Y-70757142D01*
X147193095Y-70757142D02*
X147240714Y-70852380D01*
X147240714Y-70852380D02*
X147288333Y-70900000D01*
X147288333Y-70900000D02*
X147383571Y-70947619D01*
X147383571Y-70947619D02*
X147574047Y-70947619D01*
X147574047Y-70947619D02*
X147669285Y-70900000D01*
X147669285Y-70900000D02*
X147716904Y-70852380D01*
X147716904Y-70852380D02*
X147764523Y-70757142D01*
X147764523Y-70757142D02*
X147764523Y-69947619D01*
X148193095Y-70042857D02*
X148240714Y-69995238D01*
X148240714Y-69995238D02*
X148335952Y-69947619D01*
X148335952Y-69947619D02*
X148574047Y-69947619D01*
X148574047Y-69947619D02*
X148669285Y-69995238D01*
X148669285Y-69995238D02*
X148716904Y-70042857D01*
X148716904Y-70042857D02*
X148764523Y-70138095D01*
X148764523Y-70138095D02*
X148764523Y-70233333D01*
X148764523Y-70233333D02*
X148716904Y-70376190D01*
X148716904Y-70376190D02*
X148145476Y-70947619D01*
X148145476Y-70947619D02*
X148764523Y-70947619D01*
X145311905Y-118341619D02*
X145311905Y-117341619D01*
X145311905Y-117341619D02*
X145550000Y-117341619D01*
X145550000Y-117341619D02*
X145692857Y-117389238D01*
X145692857Y-117389238D02*
X145788095Y-117484476D01*
X145788095Y-117484476D02*
X145835714Y-117579714D01*
X145835714Y-117579714D02*
X145883333Y-117770190D01*
X145883333Y-117770190D02*
X145883333Y-117913047D01*
X145883333Y-117913047D02*
X145835714Y-118103523D01*
X145835714Y-118103523D02*
X145788095Y-118198761D01*
X145788095Y-118198761D02*
X145692857Y-118294000D01*
X145692857Y-118294000D02*
X145550000Y-118341619D01*
X145550000Y-118341619D02*
X145311905Y-118341619D01*
X146264286Y-117436857D02*
X146311905Y-117389238D01*
X146311905Y-117389238D02*
X146407143Y-117341619D01*
X146407143Y-117341619D02*
X146645238Y-117341619D01*
X146645238Y-117341619D02*
X146740476Y-117389238D01*
X146740476Y-117389238D02*
X146788095Y-117436857D01*
X146788095Y-117436857D02*
X146835714Y-117532095D01*
X146835714Y-117532095D02*
X146835714Y-117627333D01*
X146835714Y-117627333D02*
X146788095Y-117770190D01*
X146788095Y-117770190D02*
X146216667Y-118341619D01*
X146216667Y-118341619D02*
X146835714Y-118341619D01*
X133088095Y-116472619D02*
X133088095Y-115472619D01*
X133659523Y-116472619D02*
X133230952Y-115901190D01*
X133659523Y-115472619D02*
X133088095Y-116044047D01*
X155402619Y-97321666D02*
X154926428Y-97654999D01*
X155402619Y-97893094D02*
X154402619Y-97893094D01*
X154402619Y-97893094D02*
X154402619Y-97512142D01*
X154402619Y-97512142D02*
X154450238Y-97416904D01*
X154450238Y-97416904D02*
X154497857Y-97369285D01*
X154497857Y-97369285D02*
X154593095Y-97321666D01*
X154593095Y-97321666D02*
X154735952Y-97321666D01*
X154735952Y-97321666D02*
X154831190Y-97369285D01*
X154831190Y-97369285D02*
X154878809Y-97416904D01*
X154878809Y-97416904D02*
X154926428Y-97512142D01*
X154926428Y-97512142D02*
X154926428Y-97893094D01*
X154402619Y-96988332D02*
X154402619Y-96369285D01*
X154402619Y-96369285D02*
X154783571Y-96702618D01*
X154783571Y-96702618D02*
X154783571Y-96559761D01*
X154783571Y-96559761D02*
X154831190Y-96464523D01*
X154831190Y-96464523D02*
X154878809Y-96416904D01*
X154878809Y-96416904D02*
X154974047Y-96369285D01*
X154974047Y-96369285D02*
X155212142Y-96369285D01*
X155212142Y-96369285D02*
X155307380Y-96416904D01*
X155307380Y-96416904D02*
X155355000Y-96464523D01*
X155355000Y-96464523D02*
X155402619Y-96559761D01*
X155402619Y-96559761D02*
X155402619Y-96845475D01*
X155402619Y-96845475D02*
X155355000Y-96940713D01*
X155355000Y-96940713D02*
X155307380Y-96988332D01*
X205613095Y-125557619D02*
X205613095Y-124557619D01*
X205613095Y-125033809D02*
X206184523Y-125033809D01*
X206184523Y-125557619D02*
X206184523Y-124557619D01*
X207089285Y-124890952D02*
X207089285Y-125557619D01*
X206851190Y-124510000D02*
X206613095Y-125224285D01*
X206613095Y-125224285D02*
X207232142Y-125224285D01*
X157166666Y-89938619D02*
X157166666Y-90652904D01*
X157166666Y-90652904D02*
X157119047Y-90795761D01*
X157119047Y-90795761D02*
X157023809Y-90891000D01*
X157023809Y-90891000D02*
X156880952Y-90938619D01*
X156880952Y-90938619D02*
X156785714Y-90938619D01*
X158119047Y-89938619D02*
X157642857Y-89938619D01*
X157642857Y-89938619D02*
X157595238Y-90414809D01*
X157595238Y-90414809D02*
X157642857Y-90367190D01*
X157642857Y-90367190D02*
X157738095Y-90319571D01*
X157738095Y-90319571D02*
X157976190Y-90319571D01*
X157976190Y-90319571D02*
X158071428Y-90367190D01*
X158071428Y-90367190D02*
X158119047Y-90414809D01*
X158119047Y-90414809D02*
X158166666Y-90510047D01*
X158166666Y-90510047D02*
X158166666Y-90748142D01*
X158166666Y-90748142D02*
X158119047Y-90843380D01*
X158119047Y-90843380D02*
X158071428Y-90891000D01*
X158071428Y-90891000D02*
X157976190Y-90938619D01*
X157976190Y-90938619D02*
X157738095Y-90938619D01*
X157738095Y-90938619D02*
X157642857Y-90891000D01*
X157642857Y-90891000D02*
X157595238Y-90843380D01*
X140162619Y-88997666D02*
X139686428Y-89330999D01*
X140162619Y-89569094D02*
X139162619Y-89569094D01*
X139162619Y-89569094D02*
X139162619Y-89188142D01*
X139162619Y-89188142D02*
X139210238Y-89092904D01*
X139210238Y-89092904D02*
X139257857Y-89045285D01*
X139257857Y-89045285D02*
X139353095Y-88997666D01*
X139353095Y-88997666D02*
X139495952Y-88997666D01*
X139495952Y-88997666D02*
X139591190Y-89045285D01*
X139591190Y-89045285D02*
X139638809Y-89092904D01*
X139638809Y-89092904D02*
X139686428Y-89188142D01*
X139686428Y-89188142D02*
X139686428Y-89569094D01*
X139162619Y-88140523D02*
X139162619Y-88330999D01*
X139162619Y-88330999D02*
X139210238Y-88426237D01*
X139210238Y-88426237D02*
X139257857Y-88473856D01*
X139257857Y-88473856D02*
X139400714Y-88569094D01*
X139400714Y-88569094D02*
X139591190Y-88616713D01*
X139591190Y-88616713D02*
X139972142Y-88616713D01*
X139972142Y-88616713D02*
X140067380Y-88569094D01*
X140067380Y-88569094D02*
X140115000Y-88521475D01*
X140115000Y-88521475D02*
X140162619Y-88426237D01*
X140162619Y-88426237D02*
X140162619Y-88235761D01*
X140162619Y-88235761D02*
X140115000Y-88140523D01*
X140115000Y-88140523D02*
X140067380Y-88092904D01*
X140067380Y-88092904D02*
X139972142Y-88045285D01*
X139972142Y-88045285D02*
X139734047Y-88045285D01*
X139734047Y-88045285D02*
X139638809Y-88092904D01*
X139638809Y-88092904D02*
X139591190Y-88140523D01*
X139591190Y-88140523D02*
X139543571Y-88235761D01*
X139543571Y-88235761D02*
X139543571Y-88426237D01*
X139543571Y-88426237D02*
X139591190Y-88521475D01*
X139591190Y-88521475D02*
X139638809Y-88569094D01*
X139638809Y-88569094D02*
X139734047Y-88616713D01*
X144684761Y-100252857D02*
X144589523Y-100205238D01*
X144589523Y-100205238D02*
X144494285Y-100110000D01*
X144494285Y-100110000D02*
X144351428Y-99967142D01*
X144351428Y-99967142D02*
X144256190Y-99919523D01*
X144256190Y-99919523D02*
X144160952Y-99919523D01*
X144208571Y-100157619D02*
X144113333Y-100110000D01*
X144113333Y-100110000D02*
X144018095Y-100014761D01*
X144018095Y-100014761D02*
X143970476Y-99824285D01*
X143970476Y-99824285D02*
X143970476Y-99490952D01*
X143970476Y-99490952D02*
X144018095Y-99300476D01*
X144018095Y-99300476D02*
X144113333Y-99205238D01*
X144113333Y-99205238D02*
X144208571Y-99157619D01*
X144208571Y-99157619D02*
X144399047Y-99157619D01*
X144399047Y-99157619D02*
X144494285Y-99205238D01*
X144494285Y-99205238D02*
X144589523Y-99300476D01*
X144589523Y-99300476D02*
X144637142Y-99490952D01*
X144637142Y-99490952D02*
X144637142Y-99824285D01*
X144637142Y-99824285D02*
X144589523Y-100014761D01*
X144589523Y-100014761D02*
X144494285Y-100110000D01*
X144494285Y-100110000D02*
X144399047Y-100157619D01*
X144399047Y-100157619D02*
X144208571Y-100157619D01*
X145541904Y-99157619D02*
X145065714Y-99157619D01*
X145065714Y-99157619D02*
X145018095Y-99633809D01*
X145018095Y-99633809D02*
X145065714Y-99586190D01*
X145065714Y-99586190D02*
X145160952Y-99538571D01*
X145160952Y-99538571D02*
X145399047Y-99538571D01*
X145399047Y-99538571D02*
X145494285Y-99586190D01*
X145494285Y-99586190D02*
X145541904Y-99633809D01*
X145541904Y-99633809D02*
X145589523Y-99729047D01*
X145589523Y-99729047D02*
X145589523Y-99967142D01*
X145589523Y-99967142D02*
X145541904Y-100062380D01*
X145541904Y-100062380D02*
X145494285Y-100110000D01*
X145494285Y-100110000D02*
X145399047Y-100157619D01*
X145399047Y-100157619D02*
X145160952Y-100157619D01*
X145160952Y-100157619D02*
X145065714Y-100110000D01*
X145065714Y-100110000D02*
X145018095Y-100062380D01*
X125557619Y-59062857D02*
X125081428Y-59396190D01*
X125557619Y-59634285D02*
X124557619Y-59634285D01*
X124557619Y-59634285D02*
X124557619Y-59253333D01*
X124557619Y-59253333D02*
X124605238Y-59158095D01*
X124605238Y-59158095D02*
X124652857Y-59110476D01*
X124652857Y-59110476D02*
X124748095Y-59062857D01*
X124748095Y-59062857D02*
X124890952Y-59062857D01*
X124890952Y-59062857D02*
X124986190Y-59110476D01*
X124986190Y-59110476D02*
X125033809Y-59158095D01*
X125033809Y-59158095D02*
X125081428Y-59253333D01*
X125081428Y-59253333D02*
X125081428Y-59634285D01*
X125557619Y-58110476D02*
X125557619Y-58681904D01*
X125557619Y-58396190D02*
X124557619Y-58396190D01*
X124557619Y-58396190D02*
X124700476Y-58491428D01*
X124700476Y-58491428D02*
X124795714Y-58586666D01*
X124795714Y-58586666D02*
X124843333Y-58681904D01*
X124557619Y-57777142D02*
X124557619Y-57158095D01*
X124557619Y-57158095D02*
X124938571Y-57491428D01*
X124938571Y-57491428D02*
X124938571Y-57348571D01*
X124938571Y-57348571D02*
X124986190Y-57253333D01*
X124986190Y-57253333D02*
X125033809Y-57205714D01*
X125033809Y-57205714D02*
X125129047Y-57158095D01*
X125129047Y-57158095D02*
X125367142Y-57158095D01*
X125367142Y-57158095D02*
X125462380Y-57205714D01*
X125462380Y-57205714D02*
X125510000Y-57253333D01*
X125510000Y-57253333D02*
X125557619Y-57348571D01*
X125557619Y-57348571D02*
X125557619Y-57634285D01*
X125557619Y-57634285D02*
X125510000Y-57729523D01*
X125510000Y-57729523D02*
X125462380Y-57777142D01*
X102743095Y-48087619D02*
X102743095Y-47087619D01*
X102743095Y-47563809D02*
X103314523Y-47563809D01*
X103314523Y-48087619D02*
X103314523Y-47087619D01*
X103743095Y-47182857D02*
X103790714Y-47135238D01*
X103790714Y-47135238D02*
X103885952Y-47087619D01*
X103885952Y-47087619D02*
X104124047Y-47087619D01*
X104124047Y-47087619D02*
X104219285Y-47135238D01*
X104219285Y-47135238D02*
X104266904Y-47182857D01*
X104266904Y-47182857D02*
X104314523Y-47278095D01*
X104314523Y-47278095D02*
X104314523Y-47373333D01*
X104314523Y-47373333D02*
X104266904Y-47516190D01*
X104266904Y-47516190D02*
X103695476Y-48087619D01*
X103695476Y-48087619D02*
X104314523Y-48087619D01*
X150322619Y-58993857D02*
X149846428Y-59327190D01*
X150322619Y-59565285D02*
X149322619Y-59565285D01*
X149322619Y-59565285D02*
X149322619Y-59184333D01*
X149322619Y-59184333D02*
X149370238Y-59089095D01*
X149370238Y-59089095D02*
X149417857Y-59041476D01*
X149417857Y-59041476D02*
X149513095Y-58993857D01*
X149513095Y-58993857D02*
X149655952Y-58993857D01*
X149655952Y-58993857D02*
X149751190Y-59041476D01*
X149751190Y-59041476D02*
X149798809Y-59089095D01*
X149798809Y-59089095D02*
X149846428Y-59184333D01*
X149846428Y-59184333D02*
X149846428Y-59565285D01*
X150322619Y-58041476D02*
X150322619Y-58612904D01*
X150322619Y-58327190D02*
X149322619Y-58327190D01*
X149322619Y-58327190D02*
X149465476Y-58422428D01*
X149465476Y-58422428D02*
X149560714Y-58517666D01*
X149560714Y-58517666D02*
X149608333Y-58612904D01*
X149655952Y-57184333D02*
X150322619Y-57184333D01*
X149275000Y-57422428D02*
X149989285Y-57660523D01*
X149989285Y-57660523D02*
X149989285Y-57041476D01*
X119919761Y-111751857D02*
X119824523Y-111704238D01*
X119824523Y-111704238D02*
X119729285Y-111609000D01*
X119729285Y-111609000D02*
X119586428Y-111466142D01*
X119586428Y-111466142D02*
X119491190Y-111418523D01*
X119491190Y-111418523D02*
X119395952Y-111418523D01*
X119443571Y-111656619D02*
X119348333Y-111609000D01*
X119348333Y-111609000D02*
X119253095Y-111513761D01*
X119253095Y-111513761D02*
X119205476Y-111323285D01*
X119205476Y-111323285D02*
X119205476Y-110989952D01*
X119205476Y-110989952D02*
X119253095Y-110799476D01*
X119253095Y-110799476D02*
X119348333Y-110704238D01*
X119348333Y-110704238D02*
X119443571Y-110656619D01*
X119443571Y-110656619D02*
X119634047Y-110656619D01*
X119634047Y-110656619D02*
X119729285Y-110704238D01*
X119729285Y-110704238D02*
X119824523Y-110799476D01*
X119824523Y-110799476D02*
X119872142Y-110989952D01*
X119872142Y-110989952D02*
X119872142Y-111323285D01*
X119872142Y-111323285D02*
X119824523Y-111513761D01*
X119824523Y-111513761D02*
X119729285Y-111609000D01*
X119729285Y-111609000D02*
X119634047Y-111656619D01*
X119634047Y-111656619D02*
X119443571Y-111656619D01*
X120824523Y-111656619D02*
X120253095Y-111656619D01*
X120538809Y-111656619D02*
X120538809Y-110656619D01*
X120538809Y-110656619D02*
X120443571Y-110799476D01*
X120443571Y-110799476D02*
X120348333Y-110894714D01*
X120348333Y-110894714D02*
X120253095Y-110942333D01*
X135082619Y-58993857D02*
X134606428Y-59327190D01*
X135082619Y-59565285D02*
X134082619Y-59565285D01*
X134082619Y-59565285D02*
X134082619Y-59184333D01*
X134082619Y-59184333D02*
X134130238Y-59089095D01*
X134130238Y-59089095D02*
X134177857Y-59041476D01*
X134177857Y-59041476D02*
X134273095Y-58993857D01*
X134273095Y-58993857D02*
X134415952Y-58993857D01*
X134415952Y-58993857D02*
X134511190Y-59041476D01*
X134511190Y-59041476D02*
X134558809Y-59089095D01*
X134558809Y-59089095D02*
X134606428Y-59184333D01*
X134606428Y-59184333D02*
X134606428Y-59565285D01*
X135082619Y-58041476D02*
X135082619Y-58612904D01*
X135082619Y-58327190D02*
X134082619Y-58327190D01*
X134082619Y-58327190D02*
X134225476Y-58422428D01*
X134225476Y-58422428D02*
X134320714Y-58517666D01*
X134320714Y-58517666D02*
X134368333Y-58612904D01*
X134177857Y-57660523D02*
X134130238Y-57612904D01*
X134130238Y-57612904D02*
X134082619Y-57517666D01*
X134082619Y-57517666D02*
X134082619Y-57279571D01*
X134082619Y-57279571D02*
X134130238Y-57184333D01*
X134130238Y-57184333D02*
X134177857Y-57136714D01*
X134177857Y-57136714D02*
X134273095Y-57089095D01*
X134273095Y-57089095D02*
X134368333Y-57089095D01*
X134368333Y-57089095D02*
X134511190Y-57136714D01*
X134511190Y-57136714D02*
X135082619Y-57708142D01*
X135082619Y-57708142D02*
X135082619Y-57089095D01*
X121586666Y-120181619D02*
X121586666Y-120895904D01*
X121586666Y-120895904D02*
X121539047Y-121038761D01*
X121539047Y-121038761D02*
X121443809Y-121134000D01*
X121443809Y-121134000D02*
X121300952Y-121181619D01*
X121300952Y-121181619D02*
X121205714Y-121181619D01*
X122586666Y-121181619D02*
X122015238Y-121181619D01*
X122300952Y-121181619D02*
X122300952Y-120181619D01*
X122300952Y-120181619D02*
X122205714Y-120324476D01*
X122205714Y-120324476D02*
X122110476Y-120419714D01*
X122110476Y-120419714D02*
X122015238Y-120467333D01*
X197947619Y-90812857D02*
X197471428Y-91146190D01*
X197947619Y-91384285D02*
X196947619Y-91384285D01*
X196947619Y-91384285D02*
X196947619Y-91003333D01*
X196947619Y-91003333D02*
X196995238Y-90908095D01*
X196995238Y-90908095D02*
X197042857Y-90860476D01*
X197042857Y-90860476D02*
X197138095Y-90812857D01*
X197138095Y-90812857D02*
X197280952Y-90812857D01*
X197280952Y-90812857D02*
X197376190Y-90860476D01*
X197376190Y-90860476D02*
X197423809Y-90908095D01*
X197423809Y-90908095D02*
X197471428Y-91003333D01*
X197471428Y-91003333D02*
X197471428Y-91384285D01*
X197947619Y-89860476D02*
X197947619Y-90431904D01*
X197947619Y-90146190D02*
X196947619Y-90146190D01*
X196947619Y-90146190D02*
X197090476Y-90241428D01*
X197090476Y-90241428D02*
X197185714Y-90336666D01*
X197185714Y-90336666D02*
X197233333Y-90431904D01*
X197376190Y-89289047D02*
X197328571Y-89384285D01*
X197328571Y-89384285D02*
X197280952Y-89431904D01*
X197280952Y-89431904D02*
X197185714Y-89479523D01*
X197185714Y-89479523D02*
X197138095Y-89479523D01*
X197138095Y-89479523D02*
X197042857Y-89431904D01*
X197042857Y-89431904D02*
X196995238Y-89384285D01*
X196995238Y-89384285D02*
X196947619Y-89289047D01*
X196947619Y-89289047D02*
X196947619Y-89098571D01*
X196947619Y-89098571D02*
X196995238Y-89003333D01*
X196995238Y-89003333D02*
X197042857Y-88955714D01*
X197042857Y-88955714D02*
X197138095Y-88908095D01*
X197138095Y-88908095D02*
X197185714Y-88908095D01*
X197185714Y-88908095D02*
X197280952Y-88955714D01*
X197280952Y-88955714D02*
X197328571Y-89003333D01*
X197328571Y-89003333D02*
X197376190Y-89098571D01*
X197376190Y-89098571D02*
X197376190Y-89289047D01*
X197376190Y-89289047D02*
X197423809Y-89384285D01*
X197423809Y-89384285D02*
X197471428Y-89431904D01*
X197471428Y-89431904D02*
X197566666Y-89479523D01*
X197566666Y-89479523D02*
X197757142Y-89479523D01*
X197757142Y-89479523D02*
X197852380Y-89431904D01*
X197852380Y-89431904D02*
X197900000Y-89384285D01*
X197900000Y-89384285D02*
X197947619Y-89289047D01*
X197947619Y-89289047D02*
X197947619Y-89098571D01*
X197947619Y-89098571D02*
X197900000Y-89003333D01*
X197900000Y-89003333D02*
X197852380Y-88955714D01*
X197852380Y-88955714D02*
X197757142Y-88908095D01*
X197757142Y-88908095D02*
X197566666Y-88908095D01*
X197566666Y-88908095D02*
X197471428Y-88955714D01*
X197471428Y-88955714D02*
X197423809Y-89003333D01*
X197423809Y-89003333D02*
X197376190Y-89098571D01*
X170084761Y-111751857D02*
X169989523Y-111704238D01*
X169989523Y-111704238D02*
X169894285Y-111609000D01*
X169894285Y-111609000D02*
X169751428Y-111466142D01*
X169751428Y-111466142D02*
X169656190Y-111418523D01*
X169656190Y-111418523D02*
X169560952Y-111418523D01*
X169608571Y-111656619D02*
X169513333Y-111609000D01*
X169513333Y-111609000D02*
X169418095Y-111513761D01*
X169418095Y-111513761D02*
X169370476Y-111323285D01*
X169370476Y-111323285D02*
X169370476Y-110989952D01*
X169370476Y-110989952D02*
X169418095Y-110799476D01*
X169418095Y-110799476D02*
X169513333Y-110704238D01*
X169513333Y-110704238D02*
X169608571Y-110656619D01*
X169608571Y-110656619D02*
X169799047Y-110656619D01*
X169799047Y-110656619D02*
X169894285Y-110704238D01*
X169894285Y-110704238D02*
X169989523Y-110799476D01*
X169989523Y-110799476D02*
X170037142Y-110989952D01*
X170037142Y-110989952D02*
X170037142Y-111323285D01*
X170037142Y-111323285D02*
X169989523Y-111513761D01*
X169989523Y-111513761D02*
X169894285Y-111609000D01*
X169894285Y-111609000D02*
X169799047Y-111656619D01*
X169799047Y-111656619D02*
X169608571Y-111656619D01*
X170370476Y-110656619D02*
X170989523Y-110656619D01*
X170989523Y-110656619D02*
X170656190Y-111037571D01*
X170656190Y-111037571D02*
X170799047Y-111037571D01*
X170799047Y-111037571D02*
X170894285Y-111085190D01*
X170894285Y-111085190D02*
X170941904Y-111132809D01*
X170941904Y-111132809D02*
X170989523Y-111228047D01*
X170989523Y-111228047D02*
X170989523Y-111466142D01*
X170989523Y-111466142D02*
X170941904Y-111561380D01*
X170941904Y-111561380D02*
X170894285Y-111609000D01*
X170894285Y-111609000D02*
X170799047Y-111656619D01*
X170799047Y-111656619D02*
X170513333Y-111656619D01*
X170513333Y-111656619D02*
X170418095Y-111609000D01*
X170418095Y-111609000D02*
X170370476Y-111561380D01*
X119919761Y-100252857D02*
X119824523Y-100205238D01*
X119824523Y-100205238D02*
X119729285Y-100110000D01*
X119729285Y-100110000D02*
X119586428Y-99967142D01*
X119586428Y-99967142D02*
X119491190Y-99919523D01*
X119491190Y-99919523D02*
X119395952Y-99919523D01*
X119443571Y-100157619D02*
X119348333Y-100110000D01*
X119348333Y-100110000D02*
X119253095Y-100014761D01*
X119253095Y-100014761D02*
X119205476Y-99824285D01*
X119205476Y-99824285D02*
X119205476Y-99490952D01*
X119205476Y-99490952D02*
X119253095Y-99300476D01*
X119253095Y-99300476D02*
X119348333Y-99205238D01*
X119348333Y-99205238D02*
X119443571Y-99157619D01*
X119443571Y-99157619D02*
X119634047Y-99157619D01*
X119634047Y-99157619D02*
X119729285Y-99205238D01*
X119729285Y-99205238D02*
X119824523Y-99300476D01*
X119824523Y-99300476D02*
X119872142Y-99490952D01*
X119872142Y-99490952D02*
X119872142Y-99824285D01*
X119872142Y-99824285D02*
X119824523Y-100014761D01*
X119824523Y-100014761D02*
X119729285Y-100110000D01*
X119729285Y-100110000D02*
X119634047Y-100157619D01*
X119634047Y-100157619D02*
X119443571Y-100157619D01*
X120729285Y-99490952D02*
X120729285Y-100157619D01*
X120491190Y-99110000D02*
X120253095Y-99824285D01*
X120253095Y-99824285D02*
X120872142Y-99824285D01*
X102743095Y-125557619D02*
X102743095Y-124557619D01*
X102743095Y-125033809D02*
X103314523Y-125033809D01*
X103314523Y-125557619D02*
X103314523Y-124557619D01*
X104314523Y-125557619D02*
X103743095Y-125557619D01*
X104028809Y-125557619D02*
X104028809Y-124557619D01*
X104028809Y-124557619D02*
X103933571Y-124700476D01*
X103933571Y-124700476D02*
X103838333Y-124795714D01*
X103838333Y-124795714D02*
X103743095Y-124843333D01*
X110317619Y-58993857D02*
X109841428Y-59327190D01*
X110317619Y-59565285D02*
X109317619Y-59565285D01*
X109317619Y-59565285D02*
X109317619Y-59184333D01*
X109317619Y-59184333D02*
X109365238Y-59089095D01*
X109365238Y-59089095D02*
X109412857Y-59041476D01*
X109412857Y-59041476D02*
X109508095Y-58993857D01*
X109508095Y-58993857D02*
X109650952Y-58993857D01*
X109650952Y-58993857D02*
X109746190Y-59041476D01*
X109746190Y-59041476D02*
X109793809Y-59089095D01*
X109793809Y-59089095D02*
X109841428Y-59184333D01*
X109841428Y-59184333D02*
X109841428Y-59565285D01*
X110317619Y-58041476D02*
X110317619Y-58612904D01*
X110317619Y-58327190D02*
X109317619Y-58327190D01*
X109317619Y-58327190D02*
X109460476Y-58422428D01*
X109460476Y-58422428D02*
X109555714Y-58517666D01*
X109555714Y-58517666D02*
X109603333Y-58612904D01*
X109317619Y-57708142D02*
X109317619Y-57041476D01*
X109317619Y-57041476D02*
X110317619Y-57470047D01*
X205613095Y-48087619D02*
X205613095Y-47087619D01*
X205613095Y-47563809D02*
X206184523Y-47563809D01*
X206184523Y-48087619D02*
X206184523Y-47087619D01*
X206565476Y-47087619D02*
X207184523Y-47087619D01*
X207184523Y-47087619D02*
X206851190Y-47468571D01*
X206851190Y-47468571D02*
X206994047Y-47468571D01*
X206994047Y-47468571D02*
X207089285Y-47516190D01*
X207089285Y-47516190D02*
X207136904Y-47563809D01*
X207136904Y-47563809D02*
X207184523Y-47659047D01*
X207184523Y-47659047D02*
X207184523Y-47897142D01*
X207184523Y-47897142D02*
X207136904Y-47992380D01*
X207136904Y-47992380D02*
X207089285Y-48040000D01*
X207089285Y-48040000D02*
X206994047Y-48087619D01*
X206994047Y-48087619D02*
X206708333Y-48087619D01*
X206708333Y-48087619D02*
X206613095Y-48040000D01*
X206613095Y-48040000D02*
X206565476Y-47992380D01*
X212391666Y-65502619D02*
X212391666Y-66216904D01*
X212391666Y-66216904D02*
X212344047Y-66359761D01*
X212344047Y-66359761D02*
X212248809Y-66455000D01*
X212248809Y-66455000D02*
X212105952Y-66502619D01*
X212105952Y-66502619D02*
X212010714Y-66502619D01*
X213296428Y-65502619D02*
X213105952Y-65502619D01*
X213105952Y-65502619D02*
X213010714Y-65550238D01*
X213010714Y-65550238D02*
X212963095Y-65597857D01*
X212963095Y-65597857D02*
X212867857Y-65740714D01*
X212867857Y-65740714D02*
X212820238Y-65931190D01*
X212820238Y-65931190D02*
X212820238Y-66312142D01*
X212820238Y-66312142D02*
X212867857Y-66407380D01*
X212867857Y-66407380D02*
X212915476Y-66455000D01*
X212915476Y-66455000D02*
X213010714Y-66502619D01*
X213010714Y-66502619D02*
X213201190Y-66502619D01*
X213201190Y-66502619D02*
X213296428Y-66455000D01*
X213296428Y-66455000D02*
X213344047Y-66407380D01*
X213344047Y-66407380D02*
X213391666Y-66312142D01*
X213391666Y-66312142D02*
X213391666Y-66074047D01*
X213391666Y-66074047D02*
X213344047Y-65978809D01*
X213344047Y-65978809D02*
X213296428Y-65931190D01*
X213296428Y-65931190D02*
X213201190Y-65883571D01*
X213201190Y-65883571D02*
X213010714Y-65883571D01*
X213010714Y-65883571D02*
X212915476Y-65931190D01*
X212915476Y-65931190D02*
X212867857Y-65978809D01*
X212867857Y-65978809D02*
X212820238Y-66074047D01*
X171751666Y-120181619D02*
X171751666Y-120895904D01*
X171751666Y-120895904D02*
X171704047Y-121038761D01*
X171704047Y-121038761D02*
X171608809Y-121134000D01*
X171608809Y-121134000D02*
X171465952Y-121181619D01*
X171465952Y-121181619D02*
X171370714Y-121181619D01*
X172132619Y-120181619D02*
X172751666Y-120181619D01*
X172751666Y-120181619D02*
X172418333Y-120562571D01*
X172418333Y-120562571D02*
X172561190Y-120562571D01*
X172561190Y-120562571D02*
X172656428Y-120610190D01*
X172656428Y-120610190D02*
X172704047Y-120657809D01*
X172704047Y-120657809D02*
X172751666Y-120753047D01*
X172751666Y-120753047D02*
X172751666Y-120991142D01*
X172751666Y-120991142D02*
X172704047Y-121086380D01*
X172704047Y-121086380D02*
X172656428Y-121134000D01*
X172656428Y-121134000D02*
X172561190Y-121181619D01*
X172561190Y-121181619D02*
X172275476Y-121181619D01*
X172275476Y-121181619D02*
X172180238Y-121134000D01*
X172180238Y-121134000D02*
X172132619Y-121086380D01*
X192706666Y-119332619D02*
X192706666Y-120046904D01*
X192706666Y-120046904D02*
X192659047Y-120189761D01*
X192659047Y-120189761D02*
X192563809Y-120285000D01*
X192563809Y-120285000D02*
X192420952Y-120332619D01*
X192420952Y-120332619D02*
X192325714Y-120332619D01*
X193087619Y-119332619D02*
X193754285Y-119332619D01*
X193754285Y-119332619D02*
X193325714Y-120332619D01*
X120546905Y-118341619D02*
X120546905Y-117341619D01*
X120546905Y-117341619D02*
X120785000Y-117341619D01*
X120785000Y-117341619D02*
X120927857Y-117389238D01*
X120927857Y-117389238D02*
X121023095Y-117484476D01*
X121023095Y-117484476D02*
X121070714Y-117579714D01*
X121070714Y-117579714D02*
X121118333Y-117770190D01*
X121118333Y-117770190D02*
X121118333Y-117913047D01*
X121118333Y-117913047D02*
X121070714Y-118103523D01*
X121070714Y-118103523D02*
X121023095Y-118198761D01*
X121023095Y-118198761D02*
X120927857Y-118294000D01*
X120927857Y-118294000D02*
X120785000Y-118341619D01*
X120785000Y-118341619D02*
X120546905Y-118341619D01*
X122070714Y-118341619D02*
X121499286Y-118341619D01*
X121785000Y-118341619D02*
X121785000Y-117341619D01*
X121785000Y-117341619D02*
X121689762Y-117484476D01*
X121689762Y-117484476D02*
X121594524Y-117579714D01*
X121594524Y-117579714D02*
X121499286Y-117627333D01*
X108283095Y-116472619D02*
X108283095Y-115472619D01*
X108854523Y-116472619D02*
X108425952Y-115901190D01*
X108854523Y-115472619D02*
X108283095Y-116044047D01*
X170084761Y-100252857D02*
X169989523Y-100205238D01*
X169989523Y-100205238D02*
X169894285Y-100110000D01*
X169894285Y-100110000D02*
X169751428Y-99967142D01*
X169751428Y-99967142D02*
X169656190Y-99919523D01*
X169656190Y-99919523D02*
X169560952Y-99919523D01*
X169608571Y-100157619D02*
X169513333Y-100110000D01*
X169513333Y-100110000D02*
X169418095Y-100014761D01*
X169418095Y-100014761D02*
X169370476Y-99824285D01*
X169370476Y-99824285D02*
X169370476Y-99490952D01*
X169370476Y-99490952D02*
X169418095Y-99300476D01*
X169418095Y-99300476D02*
X169513333Y-99205238D01*
X169513333Y-99205238D02*
X169608571Y-99157619D01*
X169608571Y-99157619D02*
X169799047Y-99157619D01*
X169799047Y-99157619D02*
X169894285Y-99205238D01*
X169894285Y-99205238D02*
X169989523Y-99300476D01*
X169989523Y-99300476D02*
X170037142Y-99490952D01*
X170037142Y-99490952D02*
X170037142Y-99824285D01*
X170037142Y-99824285D02*
X169989523Y-100014761D01*
X169989523Y-100014761D02*
X169894285Y-100110000D01*
X169894285Y-100110000D02*
X169799047Y-100157619D01*
X169799047Y-100157619D02*
X169608571Y-100157619D01*
X170894285Y-99157619D02*
X170703809Y-99157619D01*
X170703809Y-99157619D02*
X170608571Y-99205238D01*
X170608571Y-99205238D02*
X170560952Y-99252857D01*
X170560952Y-99252857D02*
X170465714Y-99395714D01*
X170465714Y-99395714D02*
X170418095Y-99586190D01*
X170418095Y-99586190D02*
X170418095Y-99967142D01*
X170418095Y-99967142D02*
X170465714Y-100062380D01*
X170465714Y-100062380D02*
X170513333Y-100110000D01*
X170513333Y-100110000D02*
X170608571Y-100157619D01*
X170608571Y-100157619D02*
X170799047Y-100157619D01*
X170799047Y-100157619D02*
X170894285Y-100110000D01*
X170894285Y-100110000D02*
X170941904Y-100062380D01*
X170941904Y-100062380D02*
X170989523Y-99967142D01*
X170989523Y-99967142D02*
X170989523Y-99729047D01*
X170989523Y-99729047D02*
X170941904Y-99633809D01*
X170941904Y-99633809D02*
X170894285Y-99586190D01*
X170894285Y-99586190D02*
X170799047Y-99538571D01*
X170799047Y-99538571D02*
X170608571Y-99538571D01*
X170608571Y-99538571D02*
X170513333Y-99586190D01*
X170513333Y-99586190D02*
X170465714Y-99633809D01*
X170465714Y-99633809D02*
X170418095Y-99729047D01*
D11*
X199263095Y-101697619D02*
X199263095Y-102507142D01*
X199263095Y-102507142D02*
X199310714Y-102602380D01*
X199310714Y-102602380D02*
X199358333Y-102650000D01*
X199358333Y-102650000D02*
X199453571Y-102697619D01*
X199453571Y-102697619D02*
X199644047Y-102697619D01*
X199644047Y-102697619D02*
X199739285Y-102650000D01*
X199739285Y-102650000D02*
X199786904Y-102602380D01*
X199786904Y-102602380D02*
X199834523Y-102507142D01*
X199834523Y-102507142D02*
X199834523Y-101697619D01*
X200739285Y-102030952D02*
X200739285Y-102697619D01*
X200501190Y-101650000D02*
X200263095Y-102364285D01*
X200263095Y-102364285D02*
X200882142Y-102364285D01*
D10*
X123017619Y-89066666D02*
X122541428Y-89399999D01*
X123017619Y-89638094D02*
X122017619Y-89638094D01*
X122017619Y-89638094D02*
X122017619Y-89257142D01*
X122017619Y-89257142D02*
X122065238Y-89161904D01*
X122065238Y-89161904D02*
X122112857Y-89114285D01*
X122112857Y-89114285D02*
X122208095Y-89066666D01*
X122208095Y-89066666D02*
X122350952Y-89066666D01*
X122350952Y-89066666D02*
X122446190Y-89114285D01*
X122446190Y-89114285D02*
X122493809Y-89161904D01*
X122493809Y-89161904D02*
X122541428Y-89257142D01*
X122541428Y-89257142D02*
X122541428Y-89638094D01*
X122017619Y-88161904D02*
X122017619Y-88638094D01*
X122017619Y-88638094D02*
X122493809Y-88685713D01*
X122493809Y-88685713D02*
X122446190Y-88638094D01*
X122446190Y-88638094D02*
X122398571Y-88542856D01*
X122398571Y-88542856D02*
X122398571Y-88304761D01*
X122398571Y-88304761D02*
X122446190Y-88209523D01*
X122446190Y-88209523D02*
X122493809Y-88161904D01*
X122493809Y-88161904D02*
X122589047Y-88114285D01*
X122589047Y-88114285D02*
X122827142Y-88114285D01*
X122827142Y-88114285D02*
X122922380Y-88161904D01*
X122922380Y-88161904D02*
X122970000Y-88209523D01*
X122970000Y-88209523D02*
X123017619Y-88304761D01*
X123017619Y-88304761D02*
X123017619Y-88542856D01*
X123017619Y-88542856D02*
X122970000Y-88638094D01*
X122970000Y-88638094D02*
X122922380Y-88685713D01*
X145242619Y-58993857D02*
X144766428Y-59327190D01*
X145242619Y-59565285D02*
X144242619Y-59565285D01*
X144242619Y-59565285D02*
X144242619Y-59184333D01*
X144242619Y-59184333D02*
X144290238Y-59089095D01*
X144290238Y-59089095D02*
X144337857Y-59041476D01*
X144337857Y-59041476D02*
X144433095Y-58993857D01*
X144433095Y-58993857D02*
X144575952Y-58993857D01*
X144575952Y-58993857D02*
X144671190Y-59041476D01*
X144671190Y-59041476D02*
X144718809Y-59089095D01*
X144718809Y-59089095D02*
X144766428Y-59184333D01*
X144766428Y-59184333D02*
X144766428Y-59565285D01*
X145242619Y-58041476D02*
X145242619Y-58612904D01*
X145242619Y-58327190D02*
X144242619Y-58327190D01*
X144242619Y-58327190D02*
X144385476Y-58422428D01*
X144385476Y-58422428D02*
X144480714Y-58517666D01*
X144480714Y-58517666D02*
X144528333Y-58612904D01*
X145242619Y-57089095D02*
X145242619Y-57660523D01*
X145242619Y-57374809D02*
X144242619Y-57374809D01*
X144242619Y-57374809D02*
X144385476Y-57470047D01*
X144385476Y-57470047D02*
X144480714Y-57565285D01*
X144480714Y-57565285D02*
X144528333Y-57660523D01*
X192278095Y-47087619D02*
X192278095Y-47897142D01*
X192278095Y-47897142D02*
X192325714Y-47992380D01*
X192325714Y-47992380D02*
X192373333Y-48040000D01*
X192373333Y-48040000D02*
X192468571Y-48087619D01*
X192468571Y-48087619D02*
X192659047Y-48087619D01*
X192659047Y-48087619D02*
X192754285Y-48040000D01*
X192754285Y-48040000D02*
X192801904Y-47992380D01*
X192801904Y-47992380D02*
X192849523Y-47897142D01*
X192849523Y-47897142D02*
X192849523Y-47087619D01*
X193230476Y-47087619D02*
X193849523Y-47087619D01*
X193849523Y-47087619D02*
X193516190Y-47468571D01*
X193516190Y-47468571D02*
X193659047Y-47468571D01*
X193659047Y-47468571D02*
X193754285Y-47516190D01*
X193754285Y-47516190D02*
X193801904Y-47563809D01*
X193801904Y-47563809D02*
X193849523Y-47659047D01*
X193849523Y-47659047D02*
X193849523Y-47897142D01*
X193849523Y-47897142D02*
X193801904Y-47992380D01*
X193801904Y-47992380D02*
X193754285Y-48040000D01*
X193754285Y-48040000D02*
X193659047Y-48087619D01*
X193659047Y-48087619D02*
X193373333Y-48087619D01*
X193373333Y-48087619D02*
X193278095Y-48040000D01*
X193278095Y-48040000D02*
X193230476Y-47992380D01*
X124968095Y-69947619D02*
X124968095Y-70757142D01*
X124968095Y-70757142D02*
X125015714Y-70852380D01*
X125015714Y-70852380D02*
X125063333Y-70900000D01*
X125063333Y-70900000D02*
X125158571Y-70947619D01*
X125158571Y-70947619D02*
X125349047Y-70947619D01*
X125349047Y-70947619D02*
X125444285Y-70900000D01*
X125444285Y-70900000D02*
X125491904Y-70852380D01*
X125491904Y-70852380D02*
X125539523Y-70757142D01*
X125539523Y-70757142D02*
X125539523Y-69947619D01*
X126539523Y-70947619D02*
X125968095Y-70947619D01*
X126253809Y-70947619D02*
X126253809Y-69947619D01*
X126253809Y-69947619D02*
X126158571Y-70090476D01*
X126158571Y-70090476D02*
X126063333Y-70185714D01*
X126063333Y-70185714D02*
X125968095Y-70233333D01*
X117302619Y-88997666D02*
X116826428Y-89330999D01*
X117302619Y-89569094D02*
X116302619Y-89569094D01*
X116302619Y-89569094D02*
X116302619Y-89188142D01*
X116302619Y-89188142D02*
X116350238Y-89092904D01*
X116350238Y-89092904D02*
X116397857Y-89045285D01*
X116397857Y-89045285D02*
X116493095Y-88997666D01*
X116493095Y-88997666D02*
X116635952Y-88997666D01*
X116635952Y-88997666D02*
X116731190Y-89045285D01*
X116731190Y-89045285D02*
X116778809Y-89092904D01*
X116778809Y-89092904D02*
X116826428Y-89188142D01*
X116826428Y-89188142D02*
X116826428Y-89569094D01*
X116635952Y-88140523D02*
X117302619Y-88140523D01*
X116255000Y-88378618D02*
X116969285Y-88616713D01*
X116969285Y-88616713D02*
X116969285Y-87997666D01*
X165562619Y-88997666D02*
X165086428Y-89330999D01*
X165562619Y-89569094D02*
X164562619Y-89569094D01*
X164562619Y-89569094D02*
X164562619Y-89188142D01*
X164562619Y-89188142D02*
X164610238Y-89092904D01*
X164610238Y-89092904D02*
X164657857Y-89045285D01*
X164657857Y-89045285D02*
X164753095Y-88997666D01*
X164753095Y-88997666D02*
X164895952Y-88997666D01*
X164895952Y-88997666D02*
X164991190Y-89045285D01*
X164991190Y-89045285D02*
X165038809Y-89092904D01*
X165038809Y-89092904D02*
X165086428Y-89188142D01*
X165086428Y-89188142D02*
X165086428Y-89569094D01*
X164991190Y-88426237D02*
X164943571Y-88521475D01*
X164943571Y-88521475D02*
X164895952Y-88569094D01*
X164895952Y-88569094D02*
X164800714Y-88616713D01*
X164800714Y-88616713D02*
X164753095Y-88616713D01*
X164753095Y-88616713D02*
X164657857Y-88569094D01*
X164657857Y-88569094D02*
X164610238Y-88521475D01*
X164610238Y-88521475D02*
X164562619Y-88426237D01*
X164562619Y-88426237D02*
X164562619Y-88235761D01*
X164562619Y-88235761D02*
X164610238Y-88140523D01*
X164610238Y-88140523D02*
X164657857Y-88092904D01*
X164657857Y-88092904D02*
X164753095Y-88045285D01*
X164753095Y-88045285D02*
X164800714Y-88045285D01*
X164800714Y-88045285D02*
X164895952Y-88092904D01*
X164895952Y-88092904D02*
X164943571Y-88140523D01*
X164943571Y-88140523D02*
X164991190Y-88235761D01*
X164991190Y-88235761D02*
X164991190Y-88426237D01*
X164991190Y-88426237D02*
X165038809Y-88521475D01*
X165038809Y-88521475D02*
X165086428Y-88569094D01*
X165086428Y-88569094D02*
X165181666Y-88616713D01*
X165181666Y-88616713D02*
X165372142Y-88616713D01*
X165372142Y-88616713D02*
X165467380Y-88569094D01*
X165467380Y-88569094D02*
X165515000Y-88521475D01*
X165515000Y-88521475D02*
X165562619Y-88426237D01*
X165562619Y-88426237D02*
X165562619Y-88235761D01*
X165562619Y-88235761D02*
X165515000Y-88140523D01*
X165515000Y-88140523D02*
X165467380Y-88092904D01*
X165467380Y-88092904D02*
X165372142Y-88045285D01*
X165372142Y-88045285D02*
X165181666Y-88045285D01*
X165181666Y-88045285D02*
X165086428Y-88092904D01*
X165086428Y-88092904D02*
X165038809Y-88140523D01*
X165038809Y-88140523D02*
X164991190Y-88235761D01*
X115397619Y-58993857D02*
X114921428Y-59327190D01*
X115397619Y-59565285D02*
X114397619Y-59565285D01*
X114397619Y-59565285D02*
X114397619Y-59184333D01*
X114397619Y-59184333D02*
X114445238Y-59089095D01*
X114445238Y-59089095D02*
X114492857Y-59041476D01*
X114492857Y-59041476D02*
X114588095Y-58993857D01*
X114588095Y-58993857D02*
X114730952Y-58993857D01*
X114730952Y-58993857D02*
X114826190Y-59041476D01*
X114826190Y-59041476D02*
X114873809Y-59089095D01*
X114873809Y-59089095D02*
X114921428Y-59184333D01*
X114921428Y-59184333D02*
X114921428Y-59565285D01*
X115397619Y-58041476D02*
X115397619Y-58612904D01*
X115397619Y-58327190D02*
X114397619Y-58327190D01*
X114397619Y-58327190D02*
X114540476Y-58422428D01*
X114540476Y-58422428D02*
X114635714Y-58517666D01*
X114635714Y-58517666D02*
X114683333Y-58612904D01*
X114397619Y-57184333D02*
X114397619Y-57374809D01*
X114397619Y-57374809D02*
X114445238Y-57470047D01*
X114445238Y-57470047D02*
X114492857Y-57517666D01*
X114492857Y-57517666D02*
X114635714Y-57612904D01*
X114635714Y-57612904D02*
X114826190Y-57660523D01*
X114826190Y-57660523D02*
X115207142Y-57660523D01*
X115207142Y-57660523D02*
X115302380Y-57612904D01*
X115302380Y-57612904D02*
X115350000Y-57565285D01*
X115350000Y-57565285D02*
X115397619Y-57470047D01*
X115397619Y-57470047D02*
X115397619Y-57279571D01*
X115397619Y-57279571D02*
X115350000Y-57184333D01*
X115350000Y-57184333D02*
X115302380Y-57136714D01*
X115302380Y-57136714D02*
X115207142Y-57089095D01*
X115207142Y-57089095D02*
X114969047Y-57089095D01*
X114969047Y-57089095D02*
X114873809Y-57136714D01*
X114873809Y-57136714D02*
X114826190Y-57184333D01*
X114826190Y-57184333D02*
X114778571Y-57279571D01*
X114778571Y-57279571D02*
X114778571Y-57470047D01*
X114778571Y-57470047D02*
X114826190Y-57565285D01*
X114826190Y-57565285D02*
X114873809Y-57612904D01*
X114873809Y-57612904D02*
X114969047Y-57660523D01*
X111587619Y-88997666D02*
X111111428Y-89330999D01*
X111587619Y-89569094D02*
X110587619Y-89569094D01*
X110587619Y-89569094D02*
X110587619Y-89188142D01*
X110587619Y-89188142D02*
X110635238Y-89092904D01*
X110635238Y-89092904D02*
X110682857Y-89045285D01*
X110682857Y-89045285D02*
X110778095Y-88997666D01*
X110778095Y-88997666D02*
X110920952Y-88997666D01*
X110920952Y-88997666D02*
X111016190Y-89045285D01*
X111016190Y-89045285D02*
X111063809Y-89092904D01*
X111063809Y-89092904D02*
X111111428Y-89188142D01*
X111111428Y-89188142D02*
X111111428Y-89569094D01*
X111587619Y-88045285D02*
X111587619Y-88616713D01*
X111587619Y-88330999D02*
X110587619Y-88330999D01*
X110587619Y-88330999D02*
X110730476Y-88426237D01*
X110730476Y-88426237D02*
X110825714Y-88521475D01*
X110825714Y-88521475D02*
X110873333Y-88616713D01*
X120477619Y-58993857D02*
X120001428Y-59327190D01*
X120477619Y-59565285D02*
X119477619Y-59565285D01*
X119477619Y-59565285D02*
X119477619Y-59184333D01*
X119477619Y-59184333D02*
X119525238Y-59089095D01*
X119525238Y-59089095D02*
X119572857Y-59041476D01*
X119572857Y-59041476D02*
X119668095Y-58993857D01*
X119668095Y-58993857D02*
X119810952Y-58993857D01*
X119810952Y-58993857D02*
X119906190Y-59041476D01*
X119906190Y-59041476D02*
X119953809Y-59089095D01*
X119953809Y-59089095D02*
X120001428Y-59184333D01*
X120001428Y-59184333D02*
X120001428Y-59565285D01*
X120477619Y-58041476D02*
X120477619Y-58612904D01*
X120477619Y-58327190D02*
X119477619Y-58327190D01*
X119477619Y-58327190D02*
X119620476Y-58422428D01*
X119620476Y-58422428D02*
X119715714Y-58517666D01*
X119715714Y-58517666D02*
X119763333Y-58612904D01*
X119477619Y-57422428D02*
X119477619Y-57327190D01*
X119477619Y-57327190D02*
X119525238Y-57231952D01*
X119525238Y-57231952D02*
X119572857Y-57184333D01*
X119572857Y-57184333D02*
X119668095Y-57136714D01*
X119668095Y-57136714D02*
X119858571Y-57089095D01*
X119858571Y-57089095D02*
X120096666Y-57089095D01*
X120096666Y-57089095D02*
X120287142Y-57136714D01*
X120287142Y-57136714D02*
X120382380Y-57184333D01*
X120382380Y-57184333D02*
X120430000Y-57231952D01*
X120430000Y-57231952D02*
X120477619Y-57327190D01*
X120477619Y-57327190D02*
X120477619Y-57422428D01*
X120477619Y-57422428D02*
X120430000Y-57517666D01*
X120430000Y-57517666D02*
X120382380Y-57565285D01*
X120382380Y-57565285D02*
X120287142Y-57612904D01*
X120287142Y-57612904D02*
X120096666Y-57660523D01*
X120096666Y-57660523D02*
X119858571Y-57660523D01*
X119858571Y-57660523D02*
X119668095Y-57612904D01*
X119668095Y-57612904D02*
X119572857Y-57565285D01*
X119572857Y-57565285D02*
X119525238Y-57517666D01*
X119525238Y-57517666D02*
X119477619Y-57422428D01*
X146351666Y-120181619D02*
X146351666Y-120895904D01*
X146351666Y-120895904D02*
X146304047Y-121038761D01*
X146304047Y-121038761D02*
X146208809Y-121134000D01*
X146208809Y-121134000D02*
X146065952Y-121181619D01*
X146065952Y-121181619D02*
X145970714Y-121181619D01*
X146780238Y-120276857D02*
X146827857Y-120229238D01*
X146827857Y-120229238D02*
X146923095Y-120181619D01*
X146923095Y-120181619D02*
X147161190Y-120181619D01*
X147161190Y-120181619D02*
X147256428Y-120229238D01*
X147256428Y-120229238D02*
X147304047Y-120276857D01*
X147304047Y-120276857D02*
X147351666Y-120372095D01*
X147351666Y-120372095D02*
X147351666Y-120467333D01*
X147351666Y-120467333D02*
X147304047Y-120610190D01*
X147304047Y-120610190D02*
X146732619Y-121181619D01*
X146732619Y-121181619D02*
X147351666Y-121181619D01*
D12*
X136240000Y-89676000D02*
X136240000Y-88426000D01*
X135950000Y-89386000D02*
X135950000Y-83416000D01*
X135950000Y-83416000D02*
X128330000Y-83416000D01*
X135940000Y-89376000D02*
X135940000Y-88626000D01*
X135940000Y-88626000D02*
X134140000Y-88626000D01*
X135940000Y-87126000D02*
X135190000Y-87126000D01*
X135190000Y-87126000D02*
X135190000Y-84176000D01*
X135190000Y-84176000D02*
X132140000Y-84176000D01*
X134990000Y-89676000D02*
X136240000Y-89676000D01*
X134140000Y-89376000D02*
X135940000Y-89376000D01*
X134140000Y-88626000D02*
X134140000Y-89376000D01*
X132640000Y-89376000D02*
X132640000Y-88626000D01*
X132640000Y-88626000D02*
X131640000Y-88626000D01*
X131640000Y-89376000D02*
X132640000Y-89376000D01*
X131640000Y-88626000D02*
X131640000Y-89376000D01*
X130140000Y-89376000D02*
X130140000Y-88626000D01*
X130140000Y-88626000D02*
X128340000Y-88626000D01*
X129090000Y-87126000D02*
X129090000Y-84176000D01*
X129090000Y-84176000D02*
X132140000Y-84176000D01*
X128340000Y-89376000D02*
X130140000Y-89376000D01*
X128340000Y-88626000D02*
X128340000Y-89376000D01*
X128340000Y-87126000D02*
X129090000Y-87126000D01*
X128330000Y-89386000D02*
X135950000Y-89386000D01*
X128330000Y-83416000D02*
X128330000Y-89386000D01*
X139700000Y-54311000D02*
X139700000Y-55081000D01*
X141070000Y-55081000D02*
X138330000Y-55081000D01*
X138330000Y-55081000D02*
X138330000Y-61621000D01*
X141070000Y-61621000D02*
X141070000Y-55081000D01*
X138330000Y-61621000D02*
X141070000Y-61621000D01*
X139700000Y-62391000D02*
X139700000Y-61621000D01*
X160090000Y-118110000D02*
X161110000Y-118110000D01*
X161110000Y-116640000D02*
X161110000Y-119580000D01*
X161110000Y-119580000D02*
X166550000Y-119580000D01*
X161890000Y-116640000D02*
X161890000Y-119580000D01*
X162010000Y-116640000D02*
X162010000Y-119580000D01*
X162130000Y-116640000D02*
X162130000Y-119580000D01*
X166550000Y-116640000D02*
X161110000Y-116640000D01*
X166550000Y-119580000D02*
X166550000Y-116640000D01*
X167570000Y-118110000D02*
X166550000Y-118110000D01*
X203535000Y-105685354D02*
X203535000Y-106685354D01*
X204035000Y-106185354D02*
X203035000Y-106185354D01*
X205740000Y-111165000D02*
X195580000Y-111165000D01*
X205740000Y-111205000D02*
X195580000Y-111205000D01*
X205740000Y-111245000D02*
X195580000Y-111245000D01*
X205739000Y-111285000D02*
X195581000Y-111285000D01*
X205738000Y-111325000D02*
X195582000Y-111325000D01*
X205737000Y-111365000D02*
X195583000Y-111365000D01*
X205735000Y-111405000D02*
X195585000Y-111405000D01*
X205733000Y-111445000D02*
X195587000Y-111445000D01*
X205730000Y-111485000D02*
X195590000Y-111485000D01*
X205728000Y-111525000D02*
X195592000Y-111525000D01*
X205725000Y-111565000D02*
X195595000Y-111565000D01*
X205722000Y-111605000D02*
X195598000Y-111605000D01*
X205718000Y-111645000D02*
X195602000Y-111645000D01*
X205714000Y-111685000D02*
X195606000Y-111685000D01*
X205710000Y-111725000D02*
X195610000Y-111725000D01*
X205705000Y-111765000D02*
X195615000Y-111765000D01*
X205700000Y-111805000D02*
X195620000Y-111805000D01*
X205695000Y-111845000D02*
X195625000Y-111845000D01*
X205690000Y-111886000D02*
X195630000Y-111886000D01*
X205684000Y-111926000D02*
X195636000Y-111926000D01*
X205678000Y-111966000D02*
X195642000Y-111966000D01*
X205671000Y-112006000D02*
X195649000Y-112006000D01*
X205664000Y-112046000D02*
X195656000Y-112046000D01*
X205657000Y-112086000D02*
X195663000Y-112086000D01*
X205650000Y-112126000D02*
X195670000Y-112126000D01*
X205642000Y-112166000D02*
X195678000Y-112166000D01*
X205634000Y-112206000D02*
X195686000Y-112206000D01*
X205625000Y-112246000D02*
X195695000Y-112246000D01*
X205616000Y-112286000D02*
X195704000Y-112286000D01*
X205607000Y-112326000D02*
X195713000Y-112326000D01*
X205598000Y-112366000D02*
X195722000Y-112366000D01*
X205588000Y-112406000D02*
X195732000Y-112406000D01*
X205578000Y-112446000D02*
X201901000Y-112446000D01*
X199419000Y-112446000D02*
X195742000Y-112446000D01*
X205567000Y-112486000D02*
X201901000Y-112486000D01*
X199419000Y-112486000D02*
X195753000Y-112486000D01*
X205557000Y-112526000D02*
X201901000Y-112526000D01*
X199419000Y-112526000D02*
X195763000Y-112526000D01*
X205545000Y-112566000D02*
X201901000Y-112566000D01*
X199419000Y-112566000D02*
X195775000Y-112566000D01*
X205534000Y-112606000D02*
X201901000Y-112606000D01*
X199419000Y-112606000D02*
X195786000Y-112606000D01*
X205522000Y-112646000D02*
X201901000Y-112646000D01*
X199419000Y-112646000D02*
X195798000Y-112646000D01*
X205510000Y-112686000D02*
X201901000Y-112686000D01*
X199419000Y-112686000D02*
X195810000Y-112686000D01*
X205497000Y-112726000D02*
X201901000Y-112726000D01*
X199419000Y-112726000D02*
X195823000Y-112726000D01*
X205484000Y-112766000D02*
X201901000Y-112766000D01*
X199419000Y-112766000D02*
X195836000Y-112766000D01*
X205471000Y-112806000D02*
X201901000Y-112806000D01*
X199419000Y-112806000D02*
X195849000Y-112806000D01*
X205457000Y-112846000D02*
X201901000Y-112846000D01*
X199419000Y-112846000D02*
X195863000Y-112846000D01*
X205443000Y-112886000D02*
X201901000Y-112886000D01*
X199419000Y-112886000D02*
X195877000Y-112886000D01*
X205428000Y-112926000D02*
X201901000Y-112926000D01*
X199419000Y-112926000D02*
X195892000Y-112926000D01*
X205414000Y-112966000D02*
X201901000Y-112966000D01*
X199419000Y-112966000D02*
X195906000Y-112966000D01*
X205398000Y-113006000D02*
X201901000Y-113006000D01*
X199419000Y-113006000D02*
X195922000Y-113006000D01*
X205383000Y-113046000D02*
X201901000Y-113046000D01*
X199419000Y-113046000D02*
X195937000Y-113046000D01*
X205367000Y-113086000D02*
X201901000Y-113086000D01*
X199419000Y-113086000D02*
X195953000Y-113086000D01*
X205350000Y-113126000D02*
X201901000Y-113126000D01*
X199419000Y-113126000D02*
X195970000Y-113126000D01*
X205334000Y-113166000D02*
X201901000Y-113166000D01*
X199419000Y-113166000D02*
X195986000Y-113166000D01*
X205317000Y-113206000D02*
X201901000Y-113206000D01*
X199419000Y-113206000D02*
X196003000Y-113206000D01*
X205299000Y-113246000D02*
X201901000Y-113246000D01*
X199419000Y-113246000D02*
X196021000Y-113246000D01*
X205281000Y-113286000D02*
X201901000Y-113286000D01*
X199419000Y-113286000D02*
X196039000Y-113286000D01*
X205263000Y-113326000D02*
X201901000Y-113326000D01*
X199419000Y-113326000D02*
X196057000Y-113326000D01*
X205244000Y-113366000D02*
X201901000Y-113366000D01*
X199419000Y-113366000D02*
X196076000Y-113366000D01*
X205224000Y-113406000D02*
X201901000Y-113406000D01*
X199419000Y-113406000D02*
X196096000Y-113406000D01*
X205205000Y-113446000D02*
X201901000Y-113446000D01*
X199419000Y-113446000D02*
X196115000Y-113446000D01*
X205185000Y-113486000D02*
X201901000Y-113486000D01*
X199419000Y-113486000D02*
X196135000Y-113486000D01*
X205164000Y-113526000D02*
X201901000Y-113526000D01*
X199419000Y-113526000D02*
X196156000Y-113526000D01*
X205143000Y-113566000D02*
X201901000Y-113566000D01*
X199419000Y-113566000D02*
X196177000Y-113566000D01*
X205122000Y-113606000D02*
X201901000Y-113606000D01*
X199419000Y-113606000D02*
X196198000Y-113606000D01*
X205100000Y-113646000D02*
X201901000Y-113646000D01*
X199419000Y-113646000D02*
X196220000Y-113646000D01*
X205077000Y-113686000D02*
X201901000Y-113686000D01*
X199419000Y-113686000D02*
X196243000Y-113686000D01*
X205055000Y-113726000D02*
X201901000Y-113726000D01*
X199419000Y-113726000D02*
X196265000Y-113726000D01*
X205031000Y-113766000D02*
X201901000Y-113766000D01*
X199419000Y-113766000D02*
X196289000Y-113766000D01*
X205007000Y-113806000D02*
X201901000Y-113806000D01*
X199419000Y-113806000D02*
X196313000Y-113806000D01*
X204983000Y-113846000D02*
X201901000Y-113846000D01*
X199419000Y-113846000D02*
X196337000Y-113846000D01*
X204958000Y-113886000D02*
X201901000Y-113886000D01*
X199419000Y-113886000D02*
X196362000Y-113886000D01*
X204933000Y-113926000D02*
X201901000Y-113926000D01*
X199419000Y-113926000D02*
X196387000Y-113926000D01*
X204907000Y-113966000D02*
X201901000Y-113966000D01*
X199419000Y-113966000D02*
X196413000Y-113966000D01*
X204881000Y-114006000D02*
X201901000Y-114006000D01*
X199419000Y-114006000D02*
X196439000Y-114006000D01*
X204854000Y-114046000D02*
X201901000Y-114046000D01*
X199419000Y-114046000D02*
X196466000Y-114046000D01*
X204826000Y-114086000D02*
X201901000Y-114086000D01*
X199419000Y-114086000D02*
X196494000Y-114086000D01*
X204798000Y-114126000D02*
X201901000Y-114126000D01*
X199419000Y-114126000D02*
X196522000Y-114126000D01*
X204770000Y-114166000D02*
X201901000Y-114166000D01*
X199419000Y-114166000D02*
X196550000Y-114166000D01*
X204740000Y-114206000D02*
X201901000Y-114206000D01*
X199419000Y-114206000D02*
X196580000Y-114206000D01*
X204710000Y-114246000D02*
X201901000Y-114246000D01*
X199419000Y-114246000D02*
X196610000Y-114246000D01*
X204680000Y-114286000D02*
X201901000Y-114286000D01*
X199419000Y-114286000D02*
X196640000Y-114286000D01*
X204649000Y-114326000D02*
X201901000Y-114326000D01*
X199419000Y-114326000D02*
X196671000Y-114326000D01*
X204617000Y-114366000D02*
X201901000Y-114366000D01*
X199419000Y-114366000D02*
X196703000Y-114366000D01*
X204585000Y-114406000D02*
X201901000Y-114406000D01*
X199419000Y-114406000D02*
X196735000Y-114406000D01*
X204552000Y-114446000D02*
X201901000Y-114446000D01*
X199419000Y-114446000D02*
X196768000Y-114446000D01*
X204518000Y-114486000D02*
X201901000Y-114486000D01*
X199419000Y-114486000D02*
X196802000Y-114486000D01*
X204484000Y-114526000D02*
X201901000Y-114526000D01*
X199419000Y-114526000D02*
X196836000Y-114526000D01*
X204449000Y-114566000D02*
X201901000Y-114566000D01*
X199419000Y-114566000D02*
X196871000Y-114566000D01*
X204413000Y-114606000D02*
X201901000Y-114606000D01*
X199419000Y-114606000D02*
X196907000Y-114606000D01*
X204376000Y-114646000D02*
X201901000Y-114646000D01*
X199419000Y-114646000D02*
X196944000Y-114646000D01*
X204339000Y-114686000D02*
X201901000Y-114686000D01*
X199419000Y-114686000D02*
X196981000Y-114686000D01*
X204300000Y-114726000D02*
X201901000Y-114726000D01*
X199419000Y-114726000D02*
X197020000Y-114726000D01*
X204261000Y-114766000D02*
X201901000Y-114766000D01*
X199419000Y-114766000D02*
X197059000Y-114766000D01*
X204221000Y-114806000D02*
X201901000Y-114806000D01*
X199419000Y-114806000D02*
X197099000Y-114806000D01*
X204180000Y-114846000D02*
X201901000Y-114846000D01*
X199419000Y-114846000D02*
X197140000Y-114846000D01*
X204138000Y-114886000D02*
X201901000Y-114886000D01*
X199419000Y-114886000D02*
X197182000Y-114886000D01*
X204096000Y-114926000D02*
X197224000Y-114926000D01*
X204052000Y-114966000D02*
X197268000Y-114966000D01*
X204007000Y-115006000D02*
X197313000Y-115006000D01*
X203961000Y-115046000D02*
X197359000Y-115046000D01*
X203914000Y-115086000D02*
X197406000Y-115086000D01*
X203866000Y-115126000D02*
X197454000Y-115126000D01*
X203816000Y-115166000D02*
X197504000Y-115166000D01*
X203766000Y-115206000D02*
X197554000Y-115206000D01*
X203714000Y-115246000D02*
X197606000Y-115246000D01*
X203660000Y-115286000D02*
X197660000Y-115286000D01*
X203605000Y-115326000D02*
X197715000Y-115326000D01*
X203549000Y-115366000D02*
X197771000Y-115366000D01*
X203490000Y-115406000D02*
X197830000Y-115406000D01*
X203430000Y-115446000D02*
X197890000Y-115446000D01*
X203369000Y-115486000D02*
X197951000Y-115486000D01*
X203305000Y-115526000D02*
X198015000Y-115526000D01*
X203239000Y-115566000D02*
X198081000Y-115566000D01*
X203170000Y-115606000D02*
X198150000Y-115606000D01*
X203099000Y-115646000D02*
X198221000Y-115646000D01*
X203025000Y-115686000D02*
X198295000Y-115686000D01*
X202949000Y-115726000D02*
X198371000Y-115726000D01*
X202869000Y-115766000D02*
X198451000Y-115766000D01*
X202785000Y-115806000D02*
X198535000Y-115806000D01*
X202697000Y-115846000D02*
X198623000Y-115846000D01*
X202604000Y-115886000D02*
X198716000Y-115886000D01*
X202506000Y-115926000D02*
X198814000Y-115926000D01*
X202402000Y-115966000D02*
X198918000Y-115966000D01*
X202290000Y-116006000D02*
X199030000Y-116006000D01*
X202170000Y-116046000D02*
X199150000Y-116046000D01*
X202038000Y-116086000D02*
X199282000Y-116086000D01*
X201890000Y-116126000D02*
X199430000Y-116126000D01*
X201722000Y-116166000D02*
X199598000Y-116166000D01*
X201522000Y-116206000D02*
X199798000Y-116206000D01*
X201259000Y-116246000D02*
X200061000Y-116246000D01*
X205780000Y-111165000D02*
G75*
G03*
X205780000Y-111165000I-5120000J0D01*
G01*
X188295000Y-105513031D02*
X188295000Y-106513031D01*
X188795000Y-106013031D02*
X187795000Y-106013031D01*
X190500000Y-110992677D02*
X180340000Y-110992677D01*
X190500000Y-111032677D02*
X180340000Y-111032677D01*
X190500000Y-111072677D02*
X180340000Y-111072677D01*
X190499000Y-111112677D02*
X180341000Y-111112677D01*
X190498000Y-111152677D02*
X180342000Y-111152677D01*
X190497000Y-111192677D02*
X180343000Y-111192677D01*
X190495000Y-111232677D02*
X180345000Y-111232677D01*
X190493000Y-111272677D02*
X180347000Y-111272677D01*
X190490000Y-111312677D02*
X180350000Y-111312677D01*
X190488000Y-111352677D02*
X180352000Y-111352677D01*
X190485000Y-111392677D02*
X180355000Y-111392677D01*
X190482000Y-111432677D02*
X180358000Y-111432677D01*
X190478000Y-111472677D02*
X180362000Y-111472677D01*
X190474000Y-111512677D02*
X180366000Y-111512677D01*
X190470000Y-111552677D02*
X180370000Y-111552677D01*
X190465000Y-111592677D02*
X180375000Y-111592677D01*
X190460000Y-111632677D02*
X180380000Y-111632677D01*
X190455000Y-111672677D02*
X180385000Y-111672677D01*
X190450000Y-111713677D02*
X180390000Y-111713677D01*
X190444000Y-111753677D02*
X180396000Y-111753677D01*
X190438000Y-111793677D02*
X180402000Y-111793677D01*
X190431000Y-111833677D02*
X180409000Y-111833677D01*
X190424000Y-111873677D02*
X180416000Y-111873677D01*
X190417000Y-111913677D02*
X180423000Y-111913677D01*
X190410000Y-111953677D02*
X180430000Y-111953677D01*
X190402000Y-111993677D02*
X180438000Y-111993677D01*
X190394000Y-112033677D02*
X180446000Y-112033677D01*
X190385000Y-112073677D02*
X180455000Y-112073677D01*
X190376000Y-112113677D02*
X180464000Y-112113677D01*
X190367000Y-112153677D02*
X180473000Y-112153677D01*
X190358000Y-112193677D02*
X180482000Y-112193677D01*
X190348000Y-112233677D02*
X180492000Y-112233677D01*
X190338000Y-112273677D02*
X186661000Y-112273677D01*
X184179000Y-112273677D02*
X180502000Y-112273677D01*
X190327000Y-112313677D02*
X186661000Y-112313677D01*
X184179000Y-112313677D02*
X180513000Y-112313677D01*
X190317000Y-112353677D02*
X186661000Y-112353677D01*
X184179000Y-112353677D02*
X180523000Y-112353677D01*
X190305000Y-112393677D02*
X186661000Y-112393677D01*
X184179000Y-112393677D02*
X180535000Y-112393677D01*
X190294000Y-112433677D02*
X186661000Y-112433677D01*
X184179000Y-112433677D02*
X180546000Y-112433677D01*
X190282000Y-112473677D02*
X186661000Y-112473677D01*
X184179000Y-112473677D02*
X180558000Y-112473677D01*
X190270000Y-112513677D02*
X186661000Y-112513677D01*
X184179000Y-112513677D02*
X180570000Y-112513677D01*
X190257000Y-112553677D02*
X186661000Y-112553677D01*
X184179000Y-112553677D02*
X180583000Y-112553677D01*
X190244000Y-112593677D02*
X186661000Y-112593677D01*
X184179000Y-112593677D02*
X180596000Y-112593677D01*
X190231000Y-112633677D02*
X186661000Y-112633677D01*
X184179000Y-112633677D02*
X180609000Y-112633677D01*
X190217000Y-112673677D02*
X186661000Y-112673677D01*
X184179000Y-112673677D02*
X180623000Y-112673677D01*
X190203000Y-112713677D02*
X186661000Y-112713677D01*
X184179000Y-112713677D02*
X180637000Y-112713677D01*
X190188000Y-112753677D02*
X186661000Y-112753677D01*
X184179000Y-112753677D02*
X180652000Y-112753677D01*
X190174000Y-112793677D02*
X186661000Y-112793677D01*
X184179000Y-112793677D02*
X180666000Y-112793677D01*
X190158000Y-112833677D02*
X186661000Y-112833677D01*
X184179000Y-112833677D02*
X180682000Y-112833677D01*
X190143000Y-112873677D02*
X186661000Y-112873677D01*
X184179000Y-112873677D02*
X180697000Y-112873677D01*
X190127000Y-112913677D02*
X186661000Y-112913677D01*
X184179000Y-112913677D02*
X180713000Y-112913677D01*
X190110000Y-112953677D02*
X186661000Y-112953677D01*
X184179000Y-112953677D02*
X180730000Y-112953677D01*
X190094000Y-112993677D02*
X186661000Y-112993677D01*
X184179000Y-112993677D02*
X180746000Y-112993677D01*
X190077000Y-113033677D02*
X186661000Y-113033677D01*
X184179000Y-113033677D02*
X180763000Y-113033677D01*
X190059000Y-113073677D02*
X186661000Y-113073677D01*
X184179000Y-113073677D02*
X180781000Y-113073677D01*
X190041000Y-113113677D02*
X186661000Y-113113677D01*
X184179000Y-113113677D02*
X180799000Y-113113677D01*
X190023000Y-113153677D02*
X186661000Y-113153677D01*
X184179000Y-113153677D02*
X180817000Y-113153677D01*
X190004000Y-113193677D02*
X186661000Y-113193677D01*
X184179000Y-113193677D02*
X180836000Y-113193677D01*
X189984000Y-113233677D02*
X186661000Y-113233677D01*
X184179000Y-113233677D02*
X180856000Y-113233677D01*
X189965000Y-113273677D02*
X186661000Y-113273677D01*
X184179000Y-113273677D02*
X180875000Y-113273677D01*
X189945000Y-113313677D02*
X186661000Y-113313677D01*
X184179000Y-113313677D02*
X180895000Y-113313677D01*
X189924000Y-113353677D02*
X186661000Y-113353677D01*
X184179000Y-113353677D02*
X180916000Y-113353677D01*
X189903000Y-113393677D02*
X186661000Y-113393677D01*
X184179000Y-113393677D02*
X180937000Y-113393677D01*
X189882000Y-113433677D02*
X186661000Y-113433677D01*
X184179000Y-113433677D02*
X180958000Y-113433677D01*
X189860000Y-113473677D02*
X186661000Y-113473677D01*
X184179000Y-113473677D02*
X180980000Y-113473677D01*
X189837000Y-113513677D02*
X186661000Y-113513677D01*
X184179000Y-113513677D02*
X181003000Y-113513677D01*
X189815000Y-113553677D02*
X186661000Y-113553677D01*
X184179000Y-113553677D02*
X181025000Y-113553677D01*
X189791000Y-113593677D02*
X186661000Y-113593677D01*
X184179000Y-113593677D02*
X181049000Y-113593677D01*
X189767000Y-113633677D02*
X186661000Y-113633677D01*
X184179000Y-113633677D02*
X181073000Y-113633677D01*
X189743000Y-113673677D02*
X186661000Y-113673677D01*
X184179000Y-113673677D02*
X181097000Y-113673677D01*
X189718000Y-113713677D02*
X186661000Y-113713677D01*
X184179000Y-113713677D02*
X181122000Y-113713677D01*
X189693000Y-113753677D02*
X186661000Y-113753677D01*
X184179000Y-113753677D02*
X181147000Y-113753677D01*
X189667000Y-113793677D02*
X186661000Y-113793677D01*
X184179000Y-113793677D02*
X181173000Y-113793677D01*
X189641000Y-113833677D02*
X186661000Y-113833677D01*
X184179000Y-113833677D02*
X181199000Y-113833677D01*
X189614000Y-113873677D02*
X186661000Y-113873677D01*
X184179000Y-113873677D02*
X181226000Y-113873677D01*
X189586000Y-113913677D02*
X186661000Y-113913677D01*
X184179000Y-113913677D02*
X181254000Y-113913677D01*
X189558000Y-113953677D02*
X186661000Y-113953677D01*
X184179000Y-113953677D02*
X181282000Y-113953677D01*
X189530000Y-113993677D02*
X186661000Y-113993677D01*
X184179000Y-113993677D02*
X181310000Y-113993677D01*
X189500000Y-114033677D02*
X186661000Y-114033677D01*
X184179000Y-114033677D02*
X181340000Y-114033677D01*
X189470000Y-114073677D02*
X186661000Y-114073677D01*
X184179000Y-114073677D02*
X181370000Y-114073677D01*
X189440000Y-114113677D02*
X186661000Y-114113677D01*
X184179000Y-114113677D02*
X181400000Y-114113677D01*
X189409000Y-114153677D02*
X186661000Y-114153677D01*
X184179000Y-114153677D02*
X181431000Y-114153677D01*
X189377000Y-114193677D02*
X186661000Y-114193677D01*
X184179000Y-114193677D02*
X181463000Y-114193677D01*
X189345000Y-114233677D02*
X186661000Y-114233677D01*
X184179000Y-114233677D02*
X181495000Y-114233677D01*
X189312000Y-114273677D02*
X186661000Y-114273677D01*
X184179000Y-114273677D02*
X181528000Y-114273677D01*
X189278000Y-114313677D02*
X186661000Y-114313677D01*
X184179000Y-114313677D02*
X181562000Y-114313677D01*
X189244000Y-114353677D02*
X186661000Y-114353677D01*
X184179000Y-114353677D02*
X181596000Y-114353677D01*
X189209000Y-114393677D02*
X186661000Y-114393677D01*
X184179000Y-114393677D02*
X181631000Y-114393677D01*
X189173000Y-114433677D02*
X186661000Y-114433677D01*
X184179000Y-114433677D02*
X181667000Y-114433677D01*
X189136000Y-114473677D02*
X186661000Y-114473677D01*
X184179000Y-114473677D02*
X181704000Y-114473677D01*
X189099000Y-114513677D02*
X186661000Y-114513677D01*
X184179000Y-114513677D02*
X181741000Y-114513677D01*
X189060000Y-114553677D02*
X186661000Y-114553677D01*
X184179000Y-114553677D02*
X181780000Y-114553677D01*
X189021000Y-114593677D02*
X186661000Y-114593677D01*
X184179000Y-114593677D02*
X181819000Y-114593677D01*
X188981000Y-114633677D02*
X186661000Y-114633677D01*
X184179000Y-114633677D02*
X181859000Y-114633677D01*
X188940000Y-114673677D02*
X186661000Y-114673677D01*
X184179000Y-114673677D02*
X181900000Y-114673677D01*
X188898000Y-114713677D02*
X186661000Y-114713677D01*
X184179000Y-114713677D02*
X181942000Y-114713677D01*
X188856000Y-114753677D02*
X181984000Y-114753677D01*
X188812000Y-114793677D02*
X182028000Y-114793677D01*
X188767000Y-114833677D02*
X182073000Y-114833677D01*
X188721000Y-114873677D02*
X182119000Y-114873677D01*
X188674000Y-114913677D02*
X182166000Y-114913677D01*
X188626000Y-114953677D02*
X182214000Y-114953677D01*
X188576000Y-114993677D02*
X182264000Y-114993677D01*
X188526000Y-115033677D02*
X182314000Y-115033677D01*
X188474000Y-115073677D02*
X182366000Y-115073677D01*
X188420000Y-115113677D02*
X182420000Y-115113677D01*
X188365000Y-115153677D02*
X182475000Y-115153677D01*
X188309000Y-115193677D02*
X182531000Y-115193677D01*
X188250000Y-115233677D02*
X182590000Y-115233677D01*
X188190000Y-115273677D02*
X182650000Y-115273677D01*
X188129000Y-115313677D02*
X182711000Y-115313677D01*
X188065000Y-115353677D02*
X182775000Y-115353677D01*
X187999000Y-115393677D02*
X182841000Y-115393677D01*
X187930000Y-115433677D02*
X182910000Y-115433677D01*
X187859000Y-115473677D02*
X182981000Y-115473677D01*
X187785000Y-115513677D02*
X183055000Y-115513677D01*
X187709000Y-115553677D02*
X183131000Y-115553677D01*
X187629000Y-115593677D02*
X183211000Y-115593677D01*
X187545000Y-115633677D02*
X183295000Y-115633677D01*
X187457000Y-115673677D02*
X183383000Y-115673677D01*
X187364000Y-115713677D02*
X183476000Y-115713677D01*
X187266000Y-115753677D02*
X183574000Y-115753677D01*
X187162000Y-115793677D02*
X183678000Y-115793677D01*
X187050000Y-115833677D02*
X183790000Y-115833677D01*
X186930000Y-115873677D02*
X183910000Y-115873677D01*
X186798000Y-115913677D02*
X184042000Y-115913677D01*
X186650000Y-115953677D02*
X184190000Y-115953677D01*
X186482000Y-115993677D02*
X184358000Y-115993677D01*
X186282000Y-116033677D02*
X184558000Y-116033677D01*
X186019000Y-116073677D02*
X184821000Y-116073677D01*
X190540000Y-110992677D02*
G75*
G03*
X190540000Y-110992677I-5120000J0D01*
G01*
X145415000Y-84791000D02*
X145415000Y-85561000D01*
X146785000Y-85561000D02*
X144045000Y-85561000D01*
X144045000Y-85561000D02*
X144045000Y-92101000D01*
X146785000Y-92101000D02*
X146785000Y-85561000D01*
X144045000Y-92101000D02*
X146785000Y-92101000D01*
X145415000Y-92871000D02*
X145415000Y-92101000D01*
X133310000Y-108490000D02*
X133310000Y-113131000D01*
X133310000Y-108490000D02*
X143550000Y-108490000D01*
X133310000Y-110000000D02*
X143550000Y-110000000D01*
X133310000Y-113131000D02*
X143550000Y-113131000D01*
X136580000Y-108490000D02*
X136580000Y-110000000D01*
X140281000Y-108490000D02*
X140281000Y-110000000D01*
X143550000Y-108490000D02*
X143550000Y-113131000D01*
X129540000Y-101126000D02*
X129540000Y-100356000D01*
X128170000Y-100356000D02*
X130910000Y-100356000D01*
X130910000Y-100356000D02*
X130910000Y-93816000D01*
X128170000Y-93816000D02*
X128170000Y-100356000D01*
X130910000Y-93816000D02*
X128170000Y-93816000D01*
X129540000Y-93046000D02*
X129540000Y-93816000D01*
X170815000Y-84791000D02*
X170815000Y-85561000D01*
X172185000Y-85561000D02*
X169445000Y-85561000D01*
X169445000Y-85561000D02*
X169445000Y-92101000D01*
X172185000Y-92101000D02*
X172185000Y-85561000D01*
X169445000Y-92101000D02*
X172185000Y-92101000D01*
X170815000Y-92871000D02*
X170815000Y-92101000D01*
X146130000Y-69155000D02*
X135730000Y-69155000D01*
X135730000Y-69155000D02*
X135730000Y-79435000D01*
X146070000Y-71645000D02*
X135790000Y-71645000D01*
X135790000Y-71645000D02*
X135790000Y-76945000D01*
X146070000Y-73295000D02*
X146070000Y-71645000D01*
X146070000Y-76945000D02*
X146070000Y-75295000D01*
X135790000Y-76945000D02*
X146070000Y-76945000D01*
X146130000Y-79435000D02*
X146130000Y-69155000D01*
X135730000Y-79435000D02*
X146130000Y-79435000D01*
X146070000Y-73295000D02*
G75*
G03*
X146070000Y-75295000I0J-1000000D01*
G01*
X134690000Y-118110000D02*
X135710000Y-118110000D01*
X135710000Y-116640000D02*
X135710000Y-119580000D01*
X135710000Y-119580000D02*
X141150000Y-119580000D01*
X136490000Y-116640000D02*
X136490000Y-119580000D01*
X136610000Y-116640000D02*
X136610000Y-119580000D01*
X136730000Y-116640000D02*
X136730000Y-119580000D01*
X141150000Y-116640000D02*
X135710000Y-116640000D01*
X141150000Y-119580000D02*
X141150000Y-116640000D01*
X142170000Y-118110000D02*
X141150000Y-118110000D01*
X154940000Y-101126000D02*
X154940000Y-100356000D01*
X153570000Y-100356000D02*
X156310000Y-100356000D01*
X156310000Y-100356000D02*
X156310000Y-93816000D01*
X153570000Y-93816000D02*
X153570000Y-100356000D01*
X156310000Y-93816000D02*
X153570000Y-93816000D01*
X154940000Y-93046000D02*
X154940000Y-93816000D01*
X161600000Y-89676000D02*
X161600000Y-88426000D01*
X161310000Y-89386000D02*
X161310000Y-83416000D01*
X161310000Y-83416000D02*
X153690000Y-83416000D01*
X161300000Y-89376000D02*
X161300000Y-88626000D01*
X161300000Y-88626000D02*
X159500000Y-88626000D01*
X161300000Y-87126000D02*
X160550000Y-87126000D01*
X160550000Y-87126000D02*
X160550000Y-84176000D01*
X160550000Y-84176000D02*
X157500000Y-84176000D01*
X160350000Y-89676000D02*
X161600000Y-89676000D01*
X159500000Y-89376000D02*
X161300000Y-89376000D01*
X159500000Y-88626000D02*
X159500000Y-89376000D01*
X158000000Y-89376000D02*
X158000000Y-88626000D01*
X158000000Y-88626000D02*
X157000000Y-88626000D01*
X157000000Y-89376000D02*
X158000000Y-89376000D01*
X157000000Y-88626000D02*
X157000000Y-89376000D01*
X155500000Y-89376000D02*
X155500000Y-88626000D01*
X155500000Y-88626000D02*
X153700000Y-88626000D01*
X154450000Y-87126000D02*
X154450000Y-84176000D01*
X154450000Y-84176000D02*
X157500000Y-84176000D01*
X153700000Y-89376000D02*
X155500000Y-89376000D01*
X153700000Y-88626000D02*
X153700000Y-89376000D01*
X153700000Y-87126000D02*
X154450000Y-87126000D01*
X153690000Y-89386000D02*
X161310000Y-89386000D01*
X153690000Y-83416000D02*
X153690000Y-89386000D01*
X139700000Y-92871000D02*
X139700000Y-92101000D01*
X138330000Y-92101000D02*
X141070000Y-92101000D01*
X141070000Y-92101000D02*
X141070000Y-85561000D01*
X138330000Y-85561000D02*
X138330000Y-92101000D01*
X141070000Y-85561000D02*
X138330000Y-85561000D01*
X139700000Y-84791000D02*
X139700000Y-85561000D01*
X133310000Y-96991000D02*
X133310000Y-101632000D01*
X133310000Y-96991000D02*
X143550000Y-96991000D01*
X133310000Y-98501000D02*
X143550000Y-98501000D01*
X133310000Y-101632000D02*
X143550000Y-101632000D01*
X136580000Y-96991000D02*
X136580000Y-98501000D01*
X140281000Y-96991000D02*
X140281000Y-98501000D01*
X143550000Y-96991000D02*
X143550000Y-101632000D01*
X125095000Y-54311000D02*
X125095000Y-55081000D01*
X126465000Y-55081000D02*
X123725000Y-55081000D01*
X123725000Y-55081000D02*
X123725000Y-61621000D01*
X126465000Y-61621000D02*
X126465000Y-55081000D01*
X123725000Y-61621000D02*
X126465000Y-61621000D01*
X125095000Y-62391000D02*
X125095000Y-61621000D01*
X149860000Y-54311000D02*
X149860000Y-55081000D01*
X151230000Y-55081000D02*
X148490000Y-55081000D01*
X148490000Y-55081000D02*
X148490000Y-61621000D01*
X151230000Y-61621000D02*
X151230000Y-55081000D01*
X148490000Y-61621000D02*
X151230000Y-61621000D01*
X149860000Y-62391000D02*
X149860000Y-61621000D01*
X108465000Y-108490000D02*
X108465000Y-113131000D01*
X108465000Y-108490000D02*
X118705000Y-108490000D01*
X108465000Y-110000000D02*
X118705000Y-110000000D01*
X108465000Y-113131000D02*
X118705000Y-113131000D01*
X111735000Y-108490000D02*
X111735000Y-110000000D01*
X115436000Y-108490000D02*
X115436000Y-110000000D01*
X118705000Y-108490000D02*
X118705000Y-113131000D01*
X134620000Y-62391000D02*
X134620000Y-61621000D01*
X133250000Y-61621000D02*
X135990000Y-61621000D01*
X135990000Y-61621000D02*
X135990000Y-55081000D01*
X133250000Y-55081000D02*
X133250000Y-61621000D01*
X135990000Y-55081000D02*
X133250000Y-55081000D01*
X134620000Y-54311000D02*
X134620000Y-55081000D01*
X109635000Y-130690000D02*
X109635000Y-131430000D01*
X109635000Y-131430000D02*
X110135000Y-131430000D01*
X109875000Y-120870000D02*
X109875000Y-131190000D01*
X109875000Y-120870000D02*
X119995000Y-120870000D01*
X109875000Y-129530000D02*
X119995000Y-129530000D01*
X109875000Y-130630000D02*
X119995000Y-130630000D01*
X109875000Y-131190000D02*
X119995000Y-131190000D01*
X119995000Y-120870000D02*
X119995000Y-131190000D01*
X111003000Y-125122000D02*
G75*
G03*
X111002891Y-126337742I1432000J-608000D01*
G01*
X113043000Y-124298000D02*
G75*
G03*
X111827258Y-124297891I-608000J-1432000D01*
G01*
X111827000Y-127161999D02*
G75*
G03*
X112462011Y-127285492I607998J1431987D01*
G01*
X112435000Y-127284999D02*
G75*
G03*
X113042587Y-127161384I0J1554999D01*
G01*
X113867000Y-126338000D02*
G75*
G03*
X113867109Y-125122258I-1432003J607999D01*
G01*
X118990000Y-125730000D02*
G75*
G03*
X118990000Y-125730000I-1555000J0D01*
G01*
X197485000Y-94210000D02*
X197485000Y-93440000D01*
X196115000Y-93440000D02*
X198855000Y-93440000D01*
X198855000Y-93440000D02*
X198855000Y-86900000D01*
X196115000Y-86900000D02*
X196115000Y-93440000D01*
X198855000Y-86900000D02*
X196115000Y-86900000D01*
X197485000Y-86130000D02*
X197485000Y-86900000D01*
X158710000Y-108490000D02*
X158710000Y-113131000D01*
X158710000Y-108490000D02*
X168950000Y-108490000D01*
X158710000Y-110000000D02*
X168950000Y-110000000D01*
X158710000Y-113131000D02*
X168950000Y-113131000D01*
X161980000Y-108490000D02*
X161980000Y-110000000D01*
X165681000Y-108490000D02*
X165681000Y-110000000D01*
X168950000Y-108490000D02*
X168950000Y-113131000D01*
X108465000Y-96991000D02*
X108465000Y-101632000D01*
X108465000Y-96991000D02*
X118705000Y-96991000D01*
X108465000Y-98501000D02*
X118705000Y-98501000D01*
X108465000Y-101632000D02*
X118705000Y-101632000D01*
X111735000Y-96991000D02*
X111735000Y-98501000D01*
X115436000Y-96991000D02*
X115436000Y-98501000D01*
X118705000Y-96991000D02*
X118705000Y-101632000D01*
X109855000Y-54311000D02*
X109855000Y-55081000D01*
X111225000Y-55081000D02*
X108485000Y-55081000D01*
X108485000Y-55081000D02*
X108485000Y-61621000D01*
X111225000Y-61621000D02*
X111225000Y-55081000D01*
X108485000Y-61621000D02*
X111225000Y-61621000D01*
X109855000Y-62391000D02*
X109855000Y-61621000D01*
X203564669Y-99015000D02*
X203564669Y-68045000D01*
X218104669Y-99015000D02*
X203564669Y-99015000D01*
X202670331Y-78240000D02*
X202670331Y-77740000D01*
X203103344Y-77990000D02*
X202670331Y-78240000D01*
X202670331Y-77740000D02*
X203103344Y-77990000D01*
X203564669Y-68045000D02*
X218104669Y-68045000D01*
X159800000Y-130690000D02*
X159800000Y-131430000D01*
X159800000Y-131430000D02*
X160300000Y-131430000D01*
X160040000Y-120870000D02*
X160040000Y-131190000D01*
X160040000Y-120870000D02*
X170160000Y-120870000D01*
X160040000Y-129530000D02*
X170160000Y-129530000D01*
X160040000Y-130630000D02*
X170160000Y-130630000D01*
X160040000Y-131190000D02*
X170160000Y-131190000D01*
X170160000Y-120870000D02*
X170160000Y-131190000D01*
X161168000Y-125122000D02*
G75*
G03*
X161167891Y-126337742I1432000J-608000D01*
G01*
X163208000Y-124298000D02*
G75*
G03*
X161992258Y-124297891I-608000J-1432000D01*
G01*
X161992000Y-127161999D02*
G75*
G03*
X162627011Y-127285492I607998J1431987D01*
G01*
X162600000Y-127284999D02*
G75*
G03*
X163207587Y-127161384I0J1554999D01*
G01*
X164032000Y-126338000D02*
G75*
G03*
X164032109Y-125122258I-1432003J607999D01*
G01*
X169155000Y-125730000D02*
G75*
G03*
X169155000Y-125730000I-1555000J0D01*
G01*
X187740000Y-130690000D02*
X187740000Y-131430000D01*
X187740000Y-131430000D02*
X188240000Y-131430000D01*
X187980000Y-120870000D02*
X187980000Y-131190000D01*
X187980000Y-120870000D02*
X198100000Y-120870000D01*
X187980000Y-129530000D02*
X198100000Y-129530000D01*
X187980000Y-130630000D02*
X198100000Y-130630000D01*
X187980000Y-131190000D02*
X198100000Y-131190000D01*
X198100000Y-120870000D02*
X198100000Y-131190000D01*
X189108000Y-125122000D02*
G75*
G03*
X189107891Y-126337742I1432000J-608000D01*
G01*
X191148000Y-124298000D02*
G75*
G03*
X189932258Y-124297891I-608000J-1432000D01*
G01*
X189932000Y-127161999D02*
G75*
G03*
X190567011Y-127285492I607998J1431987D01*
G01*
X190540000Y-127284999D02*
G75*
G03*
X191147587Y-127161384I0J1554999D01*
G01*
X191972000Y-126338000D02*
G75*
G03*
X191972109Y-125122258I-1432003J607999D01*
G01*
X197095000Y-125730000D02*
G75*
G03*
X197095000Y-125730000I-1555000J0D01*
G01*
X109885000Y-118110000D02*
X110905000Y-118110000D01*
X110905000Y-116640000D02*
X110905000Y-119580000D01*
X110905000Y-119580000D02*
X116345000Y-119580000D01*
X111685000Y-116640000D02*
X111685000Y-119580000D01*
X111805000Y-116640000D02*
X111805000Y-119580000D01*
X111925000Y-116640000D02*
X111925000Y-119580000D01*
X116345000Y-116640000D02*
X110905000Y-116640000D01*
X116345000Y-119580000D02*
X116345000Y-116640000D01*
X117365000Y-118110000D02*
X116345000Y-118110000D01*
X158710000Y-96991000D02*
X158710000Y-101632000D01*
X158710000Y-96991000D02*
X168950000Y-96991000D01*
X158710000Y-98501000D02*
X168950000Y-98501000D01*
X158710000Y-101632000D02*
X168950000Y-101632000D01*
X161980000Y-96991000D02*
X161980000Y-98501000D01*
X165681000Y-96991000D02*
X165681000Y-98501000D01*
X168950000Y-96991000D02*
X168950000Y-101632000D01*
D11*
X198755000Y-103412677D02*
X180975000Y-103412677D01*
X180975000Y-103412677D02*
X180975000Y-85632677D01*
X180975000Y-85632677D02*
X198755000Y-85632677D01*
X198755000Y-85632677D02*
X198755000Y-103412677D01*
D12*
X122555000Y-84791000D02*
X122555000Y-85561000D01*
X123925000Y-85561000D02*
X121185000Y-85561000D01*
X121185000Y-85561000D02*
X121185000Y-92101000D01*
X123925000Y-92101000D02*
X123925000Y-85561000D01*
X121185000Y-92101000D02*
X123925000Y-92101000D01*
X122555000Y-92871000D02*
X122555000Y-92101000D01*
X144780000Y-62391000D02*
X144780000Y-61621000D01*
X143410000Y-61621000D02*
X146150000Y-61621000D01*
X146150000Y-61621000D02*
X146150000Y-55081000D01*
X143410000Y-55081000D02*
X143410000Y-61621000D01*
X146150000Y-55081000D02*
X143410000Y-55081000D01*
X144780000Y-54311000D02*
X144780000Y-55081000D01*
X165530000Y-50775000D02*
X165530000Y-71215000D01*
X165530000Y-50775000D02*
X170670000Y-50775000D01*
X165530000Y-71215000D02*
X170730000Y-71215000D01*
X170730000Y-50835000D02*
X170730000Y-71215000D01*
X186100000Y-50775000D02*
X186100000Y-71215000D01*
X186100000Y-50775000D02*
X188700000Y-50775000D01*
X186100000Y-71215000D02*
X191300000Y-71215000D01*
X188700000Y-50775000D02*
X191300000Y-50775000D01*
X189970000Y-50775000D02*
X191300000Y-50775000D01*
X191300000Y-50775000D02*
X191300000Y-53375000D01*
X191300000Y-53375000D02*
X191300000Y-71215000D01*
D11*
X165695000Y-78640000D02*
X191095000Y-78640000D01*
X191095000Y-78640000D02*
X191095000Y-44350000D01*
X191095000Y-44350000D02*
X165695000Y-44350000D01*
X165695000Y-44350000D02*
X165695000Y-78640000D01*
D12*
X123945000Y-69155000D02*
X113545000Y-69155000D01*
X113545000Y-69155000D02*
X113545000Y-79435000D01*
X123885000Y-71645000D02*
X113605000Y-71645000D01*
X113605000Y-71645000D02*
X113605000Y-76945000D01*
X123885000Y-73295000D02*
X123885000Y-71645000D01*
X123885000Y-76945000D02*
X123885000Y-75295000D01*
X113605000Y-76945000D02*
X123885000Y-76945000D01*
X123945000Y-79435000D02*
X123945000Y-69155000D01*
X113545000Y-79435000D02*
X123945000Y-79435000D01*
X123885000Y-73295000D02*
G75*
G03*
X123885000Y-75295000I0J-1000000D01*
G01*
X116840000Y-92871000D02*
X116840000Y-92101000D01*
X115470000Y-92101000D02*
X118210000Y-92101000D01*
X118210000Y-92101000D02*
X118210000Y-85561000D01*
X115470000Y-85561000D02*
X115470000Y-92101000D01*
X118210000Y-85561000D02*
X115470000Y-85561000D01*
X116840000Y-84791000D02*
X116840000Y-85561000D01*
X165100000Y-92871000D02*
X165100000Y-92101000D01*
X163730000Y-92101000D02*
X166470000Y-92101000D01*
X166470000Y-92101000D02*
X166470000Y-85561000D01*
X163730000Y-85561000D02*
X163730000Y-92101000D01*
X166470000Y-85561000D02*
X163730000Y-85561000D01*
X165100000Y-84791000D02*
X165100000Y-85561000D01*
X114935000Y-54311000D02*
X114935000Y-55081000D01*
X116305000Y-55081000D02*
X113565000Y-55081000D01*
X113565000Y-55081000D02*
X113565000Y-61621000D01*
X116305000Y-61621000D02*
X116305000Y-55081000D01*
X113565000Y-61621000D02*
X116305000Y-61621000D01*
X114935000Y-62391000D02*
X114935000Y-61621000D01*
X111085000Y-92871000D02*
X111085000Y-92101000D01*
X109715000Y-92101000D02*
X112455000Y-92101000D01*
X112455000Y-92101000D02*
X112455000Y-85561000D01*
X109715000Y-85561000D02*
X109715000Y-92101000D01*
X112455000Y-85561000D02*
X109715000Y-85561000D01*
X111085000Y-84791000D02*
X111085000Y-85561000D01*
X120015000Y-54311000D02*
X120015000Y-55081000D01*
X121385000Y-55081000D02*
X118645000Y-55081000D01*
X118645000Y-55081000D02*
X118645000Y-61621000D01*
X121385000Y-61621000D02*
X121385000Y-55081000D01*
X118645000Y-61621000D02*
X121385000Y-61621000D01*
X120015000Y-62391000D02*
X120015000Y-61621000D01*
X134400000Y-130690000D02*
X134400000Y-131430000D01*
X134400000Y-131430000D02*
X134900000Y-131430000D01*
X134640000Y-120870000D02*
X134640000Y-131190000D01*
X134640000Y-120870000D02*
X144760000Y-120870000D01*
X134640000Y-129530000D02*
X144760000Y-129530000D01*
X134640000Y-130630000D02*
X144760000Y-130630000D01*
X134640000Y-131190000D02*
X144760000Y-131190000D01*
X144760000Y-120870000D02*
X144760000Y-131190000D01*
X135768000Y-125122000D02*
G75*
G03*
X135767891Y-126337742I1432000J-608000D01*
G01*
X137808000Y-124298000D02*
G75*
G03*
X136592258Y-124297891I-608000J-1432000D01*
G01*
X136592000Y-127161999D02*
G75*
G03*
X137227011Y-127285492I607998J1431987D01*
G01*
X137200000Y-127284999D02*
G75*
G03*
X137807587Y-127161384I0J1554999D01*
G01*
X138632000Y-126338000D02*
G75*
G03*
X138632109Y-125122258I-1432003J607999D01*
G01*
X143755000Y-125730000D02*
G75*
G03*
X143755000Y-125730000I-1555000J0D01*
G01*
%LPC*%
D13*
X133390000Y-86926000D03*
D14*
X130890000Y-86926000D03*
D15*
X139700000Y-53271000D03*
D16*
X139700000Y-63431000D03*
D17*
X158750000Y-118110000D03*
D18*
X168910000Y-118110000D03*
D19*
X200660000Y-108665000D03*
D20*
X200660000Y-113665000D03*
D19*
X185420000Y-108492677D03*
D20*
X185420000Y-113492677D03*
D15*
X145415000Y-83751000D03*
D16*
X145415000Y-93911000D03*
D21*
X135890000Y-111760000D03*
D22*
X138430000Y-111760000D03*
X140970000Y-111760000D03*
D15*
X129540000Y-102166000D03*
D16*
X129540000Y-92006000D03*
D15*
X170815000Y-83751000D03*
D16*
X170815000Y-93911000D03*
D23*
X144740000Y-70485000D03*
D16*
X142200000Y-70485000D03*
X139660000Y-70485000D03*
X137120000Y-70485000D03*
X137120000Y-78105000D03*
X139660000Y-78105000D03*
X142200000Y-78105000D03*
X144740000Y-78105000D03*
D17*
X133350000Y-118110000D03*
D18*
X143510000Y-118110000D03*
D15*
X154940000Y-102166000D03*
D16*
X154940000Y-92006000D03*
D24*
X211455000Y-125095000D03*
D13*
X158750000Y-86926000D03*
D14*
X156250000Y-86926000D03*
D15*
X139700000Y-93911000D03*
D16*
X139700000Y-83751000D03*
D21*
X135890000Y-100261000D03*
D22*
X138430000Y-100261000D03*
X140970000Y-100261000D03*
D15*
X125095000Y-53271000D03*
D16*
X125095000Y-63431000D03*
D24*
X98425000Y-47625000D03*
D15*
X149860000Y-53271000D03*
D16*
X149860000Y-63431000D03*
D21*
X111045000Y-111760000D03*
D22*
X113585000Y-111760000D03*
X116125000Y-111760000D03*
D15*
X134620000Y-63431000D03*
D16*
X134620000Y-53271000D03*
D25*
X112435000Y-125730000D03*
D26*
X117435000Y-125730000D03*
D15*
X197485000Y-95250000D03*
D16*
X197485000Y-85090000D03*
D21*
X161290000Y-111760000D03*
D22*
X163830000Y-111760000D03*
X166370000Y-111760000D03*
D21*
X111045000Y-100261000D03*
D22*
X113585000Y-100261000D03*
X116125000Y-100261000D03*
D24*
X98425000Y-125095000D03*
D15*
X109855000Y-53271000D03*
D16*
X109855000Y-63431000D03*
D24*
X211455000Y-47625000D03*
D27*
X206844669Y-96030000D03*
X206844669Y-71030000D03*
D23*
X205424669Y-77990000D03*
D15*
X205424669Y-80760000D03*
X205424669Y-83530000D03*
X205424669Y-86300000D03*
X205424669Y-89070000D03*
X208264669Y-79375000D03*
X208264669Y-82145000D03*
X208264669Y-84915000D03*
X208264669Y-87685000D03*
D25*
X162600000Y-125730000D03*
D26*
X167600000Y-125730000D03*
D25*
X190540000Y-125730000D03*
D26*
X195540000Y-125730000D03*
D17*
X108545000Y-118110000D03*
D18*
X118705000Y-118110000D03*
D21*
X161290000Y-100261000D03*
D22*
X163830000Y-100261000D03*
X166370000Y-100261000D03*
D23*
X189865000Y-102142677D03*
D15*
X192405000Y-102142677D03*
X194945000Y-102142677D03*
X197485000Y-102142677D03*
X122555000Y-83751000D03*
D16*
X122555000Y-93911000D03*
D15*
X144780000Y-63431000D03*
D16*
X144780000Y-53271000D03*
D23*
X166860000Y-52105000D03*
D15*
X169400000Y-52105000D03*
X169400000Y-54645000D03*
X166860000Y-54645000D03*
X169400000Y-57185000D03*
X166860000Y-57185000D03*
X169400000Y-59725000D03*
X166860000Y-59725000D03*
X169400000Y-62265000D03*
X166860000Y-62265000D03*
X169400000Y-64805000D03*
X166860000Y-64805000D03*
X166860000Y-67345000D03*
X169400000Y-67345000D03*
X169400000Y-69885000D03*
X166860000Y-69885000D03*
X187430000Y-67345000D03*
X189970000Y-67345000D03*
X189970000Y-69885000D03*
X187430000Y-69885000D03*
X189970000Y-64805000D03*
X187430000Y-64805000D03*
X189970000Y-62265000D03*
X187430000Y-62265000D03*
X189970000Y-59725000D03*
X187430000Y-59725000D03*
X189970000Y-57185000D03*
X187430000Y-57185000D03*
X189970000Y-54645000D03*
X187430000Y-54645000D03*
X189970000Y-52105000D03*
X187430000Y-52105000D03*
D23*
X122555000Y-70485000D03*
D16*
X120015000Y-70485000D03*
X117475000Y-70485000D03*
X114935000Y-70485000D03*
X114935000Y-78105000D03*
X117475000Y-78105000D03*
X120015000Y-78105000D03*
X122555000Y-78105000D03*
D15*
X116840000Y-93911000D03*
D16*
X116840000Y-83751000D03*
D15*
X165100000Y-93911000D03*
D16*
X165100000Y-83751000D03*
D15*
X114935000Y-53271000D03*
D16*
X114935000Y-63431000D03*
D15*
X111085000Y-93911000D03*
D16*
X111085000Y-83751000D03*
D15*
X120015000Y-53271000D03*
D16*
X120015000Y-63431000D03*
D25*
X137200000Y-125730000D03*
D26*
X142200000Y-125730000D03*
M02*
